<svg version="1.1" xmlns="http://www.w3.org/2000/svg" xmlns:xlink="http://www.w3.org/1999/xlink" width="28.67175" height="28.8671" viewBox="0,0,28.67175,28.8671"><g transform="translate(-225.67757,-165.56838)"><g data-paper-data="{&quot;isPaintingLayer&quot;:true}" stroke-miterlimit="10" stroke-dasharray="" stroke-dashoffset="0" style="mix-blend-mode: normal"><path d="M245.40375,173.48827c0.77746,0.65822 1.42547,1.44206 1.94406,2.35151l0.22821,-0.03946c1.0531,-0.12497 2.39945,-0.81404 4.03905,-2.06721c-0.33804,1.42442 -0.87362,2.67655 -1.60674,3.75638c-0.46959,0.66372 -0.99604,1.23313 -1.57935,1.70822c0.09675,1.02848 0.0022,2.0541 -0.28362,3.07685l0.15978,0.12445c0.86127,0.64188 2.29928,1.10108 4.31402,1.37758c-1.23665,0.77978 -2.49452,1.28765 -3.7736,1.52358c-0.77619,0.13792 -1.54092,0.17154 -2.2942,0.10087c-0.63637,0.78658 -1.41702,1.44235 -2.34196,1.96729l0.02164,0.31701c0.14683,1.06222 0.83589,2.40857 2.06721,4.03905c-1.41806,-0.32255 -2.66244,-0.86131 -3.73314,-1.6163c-0.68558,-0.47871 -1.26909,-1.01747 -1.75054,-1.61627c-1.00663,0.10587 -2.02132,0.01589 -3.04407,-0.26994l-0.18461,0.21166c-0.64188,0.86127 -1.10108,2.29928 -1.37758,4.31402c-0.77978,-1.23665 -1.28765,-2.49452 -1.52358,-3.7736c-0.14428,-0.79168 -0.16878,-1.57827 -0.07349,-2.35976c-0.83666,-0.67011 -1.5129,-1.47856 -2.02872,-2.42536l-0.15851,0.01082c-1.06222,0.14683 -2.40857,0.83589 -4.03905,2.06721c0.32255,-1.41806 0.86131,-2.66244 1.6163,-3.73314c0.44497,-0.63551 0.95136,-1.18762 1.51919,-1.65634c-0.12497,-1.0531 -0.03223,-2.10513 0.27822,-3.15611l-0.127,-0.11077c-0.84578,-0.64825 -2.28379,-1.10745 -4.31402,-1.37758c1.23665,-0.77978 2.50545,-1.28308 3.80638,-1.5099c0.75433,-0.14704 1.51132,-0.17748 2.27096,-0.09132c0.63,-0.80207 1.41521,-1.46876 2.35565,-2.00007l-0.02164,-0.31701c-0.14683,-1.06222 -0.84364,-2.40539 -2.09045,-4.02951c1.43355,0.31618 2.68568,0.85176 3.75638,1.60674c0.68558,0.47871 1.27546,1.03296 1.76965,1.66274c0.99114,-0.09951 1.99034,-0.00316 2.9976,0.28904l0.21198,-0.27722c0.64825,-0.84578 1.10745,-2.28379 1.37758,-4.31402c0.76429,1.24301 1.26441,2.50406 1.50035,3.78315c0.16338,0.83815 0.20061,1.65572 0.11169,2.45271M242.03049,180.87657c0.23724,-0.56824 0.23809,-1.13892 0.00257,-1.71205c-0.23552,-0.57313 -0.63741,-0.97831 -1.20565,-1.21554c-0.56824,-0.23724 -1.13892,-0.23809 -1.71205,-0.00257c-0.58862,0.24189 -1.00154,0.64695 -1.23878,1.2152c-0.23724,0.56824 -0.23809,1.13893 -0.00257,1.71205c0.23552,0.57313 0.63741,0.97831 1.20565,1.21554c0.57461,0.25272 1.15622,0.25814 1.74484,0.01625c0.57313,-0.23552 0.97513,-0.64515 1.206,-1.22888c-0.23087,0.58373 -0.63287,0.99336 -1.206,1.22888c-0.58862,0.24189 -1.17023,0.23647 -1.74484,-0.01625c-0.56824,-0.23724 -0.97013,-0.64242 -1.20565,-1.21554c-0.23552,-0.57313 -0.23467,-1.14381 0.00257,-1.71205c0.23724,-0.56824 0.65016,-0.97331 1.23878,-1.2152c0.57313,-0.23552 1.14381,-0.23467 1.71205,0.00257c0.56824,0.23724 0.97013,0.64242 1.20565,1.21554c0.23552,0.57313 0.23467,1.14381 -0.00257,1.71205" fill="#ffd583" fill-rule="evenodd" stroke="#f7a758" stroke-width="1" stroke-linecap="butt" stroke-linejoin="miter"/><path d="M247.47329,176.03099c0.46891,0.90433 0.77036,1.87565 0.90433,2.91395l0.22608,0.05024c1.02156,0.28469 2.52878,0.15909 4.52165,-0.37681c-0.85409,1.18903 -1.82541,2.1436 -2.91396,2.86371c-0.68662,0.43541 -1.38999,0.76198 -2.1101,0.97969c-0.30144,0.98806 -0.77873,1.90077 -1.43186,2.73811l0.10048,0.17584c0.55265,0.92108 1.70818,1.8924 3.4666,2.91396c-1.44023,0.25121 -2.79673,0.24283 -4.06949,-0.02512c-0.77036,-0.16747 -1.49047,-0.42705 -2.16035,-0.77873c-0.88758,0.48566 -1.8589,0.79548 -2.91395,0.92945l-0.10048,0.30144c-0.26795,1.0383 -0.14235,2.54552 0.37681,4.52166c-1.18903,-0.83734 -2.13523,-1.80866 -2.83859,-2.91396c-0.45217,-0.70337 -0.7871,-1.42348 -1.00481,-2.16035c-0.97132,-0.28469 -1.87565,-0.75361 -2.71299,-1.40674l-0.2512,0.1256c-0.92108,0.55265 -1.8924,1.70818 -2.91396,3.4666c-0.25121,-1.44023 -0.24283,-2.79673 0.02512,-4.06949c0.16747,-0.7871 0.44379,-1.52396 0.82897,-2.21058c-0.51915,-0.93782 -0.83734,-1.94264 -0.95458,-3.01444l-0.15072,-0.05024c-1.0383,-0.26795 -2.54552,-0.14235 -4.52166,0.37681c0.83734,-1.18903 1.80866,-2.13523 2.91396,-2.83859c0.65313,-0.41868 1.33138,-0.73686 2.03475,-0.95458c0.28469,-1.02156 0.77036,-1.95938 1.45698,-2.81347l-0.07536,-0.15072c-0.5359,-0.92108 -1.69143,-1.8924 -3.4666,-2.91396c1.44023,-0.25121 2.8051,-0.23446 4.09461,0.05024c0.75361,0.15072 1.46535,0.41029 2.13523,0.77873c0.88758,-0.50241 1.86727,-0.82059 2.93907,-0.95458l0.10048,-0.30144c0.26795,-1.0383 0.13398,-2.54552 -0.40192,-4.52166c1.20578,0.83734 2.16035,1.80866 2.86371,2.91396c0.45217,0.70337 0.7871,1.44023 1.00481,2.21059c0.95458,0.28469 1.84216,0.75361 2.66275,1.40674l0.30144,-0.17584c0.92108,-0.5359 1.89239,-1.69143 2.91396,-3.4666c0.23446,1.44023 0.21771,2.79673 -0.05024,4.06949c-0.16747,0.83734 -0.44379,1.6077 -0.82897,2.31107M241.5449,181.58258c0.43541,-0.43541 0.65313,-0.96295 0.65313,-1.58258c0,-0.61963 -0.21771,-1.14716 -0.65313,-1.58258c-0.43541,-0.43541 -0.96295,-0.65313 -1.58258,-0.65313c-0.63638,0 -1.17228,0.21771 -1.6077,0.65313c-0.43541,0.43541 -0.65313,0.96295 -0.65313,1.58258c0,0.61963 0.21771,1.14716 0.65313,1.58258c0.43541,0.45217 0.97132,0.67825 1.6077,0.67825c0.61963,0 1.14716,-0.22608 1.58258,-0.67825c-0.43541,0.45217 -0.96295,0.67825 -1.58258,0.67825c-0.63638,0 -1.17228,-0.22608 -1.6077,-0.67825c-0.43541,-0.43541 -0.65313,-0.96295 -0.65313,-1.58258c0,-0.61963 0.21771,-1.14716 0.65313,-1.58258c0.43541,-0.43541 0.97132,-0.65313 1.6077,-0.65313c0.61963,0 1.14716,0.21771 1.58258,0.65313c0.43541,0.43541 0.65313,0.96295 0.65313,1.58258c0,0.61963 -0.21771,1.14716 -0.65313,1.58258" fill="#ffd583" fill-rule="evenodd" stroke="#f7a758" stroke-width="1" stroke-linecap="butt" stroke-linejoin="miter"/><path d="M241.5449,181.58258c-0.43541,0.45217 -0.96295,0.67825 -1.58258,0.67825c-0.63638,0 -1.17228,-0.22608 -1.6077,-0.67825c-0.43541,-0.43541 -0.65313,-0.96295 -0.65313,-1.58258c0,-0.61963 0.21771,-1.14716 0.65313,-1.58258c0.43541,-0.43541 0.97132,-0.65313 1.6077,-0.65313c0.61963,0 1.14716,0.21771 1.58258,0.65313c0.43541,0.43541 0.65313,0.96295 0.65313,1.58258c0,0.61963 -0.21771,1.14716 -0.65313,1.58258" fill="none" fill-rule="nonzero" stroke="#2e2d2d" stroke-width="0" stroke-linecap="round" stroke-linejoin="round"/><path d="M247.47329,176.03099c0.46891,0.90433 0.77036,1.87565 0.90433,2.91395l0.22608,0.05024c1.02156,0.28469 2.52878,0.15909 4.52165,-0.37681c-0.85409,1.18903 -1.82541,2.1436 -2.91396,2.86371c-0.68662,0.43541 -1.38999,0.76198 -2.1101,0.97969c-0.30144,0.98806 -0.77873,1.90077 -1.43186,2.73811l0.10048,0.17584c0.55265,0.92108 1.70818,1.8924 3.4666,2.91396c-1.44023,0.25121 -2.79673,0.24283 -4.06949,-0.02512c-0.77036,-0.16747 -1.49047,-0.42705 -2.16035,-0.77873c-0.88758,0.48566 -1.8589,0.79548 -2.91395,0.92945l-0.10048,0.30144c-0.26795,1.0383 -0.14235,2.54552 0.37681,4.52166c-1.18903,-0.83734 -2.13523,-1.80866 -2.83859,-2.91396c-0.45217,-0.70337 -0.7871,-1.42348 -1.00481,-2.16035c-0.97132,-0.28469 -1.87565,-0.75361 -2.71299,-1.40674l-0.2512,0.1256c-0.92108,0.55265 -1.8924,1.70818 -2.91396,3.4666c-0.25121,-1.44023 -0.24283,-2.79673 0.02512,-4.06949c0.16747,-0.7871 0.44379,-1.52396 0.82897,-2.21058c-0.51915,-0.93782 -0.83734,-1.94264 -0.95458,-3.01444l-0.15072,-0.05024c-1.0383,-0.26795 -2.54552,-0.14235 -4.52166,0.37681c0.83734,-1.18903 1.80866,-2.13523 2.91396,-2.83859c0.65313,-0.41868 1.33138,-0.73686 2.03475,-0.95458c0.28469,-1.02156 0.77036,-1.95938 1.45698,-2.81347l-0.07536,-0.15072c-0.5359,-0.92108 -1.69143,-1.8924 -3.4666,-2.91396c1.44023,-0.25121 2.8051,-0.23446 4.09461,0.05024c0.75361,0.15072 1.46535,0.41029 2.13523,0.77873c0.88758,-0.50241 1.86727,-0.82059 2.93907,-0.95458l0.10048,-0.30144c0.26795,-1.0383 0.13398,-2.54552 -0.40192,-4.52166c1.20578,0.83734 2.16035,1.80866 2.86371,2.91396c0.45217,0.70337 0.7871,1.44023 1.00481,2.21059c0.95458,0.28469 1.84216,0.75361 2.66275,1.40674l0.30144,-0.17584c0.92108,-0.5359 1.89239,-1.69143 2.91396,-3.4666c0.23446,1.44023 0.21771,2.79673 -0.05024,4.06949c-0.16747,0.83734 -0.44379,1.6077 -0.82897,2.31107" fill="#ffd583" fill-rule="nonzero" stroke="#f7a758" stroke-width="1" stroke-linecap="round" stroke-linejoin="round"/><path d="M239.9372,177.76429c-0.61963,0 -1.14716,0.21771 -1.58258,0.65313c-0.43541,0.43541 -0.65313,0.97132 -0.65313,1.6077c0,0.61963 0.21771,1.14716 0.65313,1.58258c0.43541,0.43541 0.96295,0.65313 1.58258,0.65313c0.63638,0 1.17228,-0.21771 1.6077,-0.65313c0.43541,-0.43541 0.65313,-0.96295 0.65313,-1.58258c0,-0.63638 -0.21771,-1.17228 -0.65313,-1.6077c-0.43541,-0.43541 -0.97132,-0.65313 -1.6077,-0.65313M239.9372,171.53445c2.34456,0 4.34581,0.82897 6.00375,2.48691c1.65794,1.65794 2.48691,3.65919 2.48691,6.00375c0,2.32781 -0.82897,4.32069 -2.48691,5.97863c-1.65794,1.65794 -3.65919,2.48691 -6.00375,2.48691c-2.34456,0 -4.33744,-0.82897 -5.97863,-2.48691c-1.65794,-1.65794 -2.48691,-3.65082 -2.48691,-5.97863c0,-2.34456 0.82897,-4.34581 2.48691,-6.00375c1.64119,-1.65794 3.63407,-2.48691 5.97863,-2.48691" fill="#feea84" fill-rule="evenodd" stroke="none" stroke-width="0" stroke-linecap="butt" stroke-linejoin="miter"/><path d="M239.9372,177.76429c0.63638,0 1.17228,0.21771 1.6077,0.65313c0.43541,0.43541 0.65313,0.97132 0.65313,1.6077c0,0.61963 -0.21771,1.14716 -0.65313,1.58258c-0.43541,0.43541 -0.97132,0.65313 -1.6077,0.65313c-0.61963,0 -1.14716,-0.21771 -1.58258,-0.65313c-0.43541,-0.43541 -0.65313,-0.96295 -0.65313,-1.58258c0,-0.63638 0.21771,-1.17228 0.65313,-1.6077c0.43541,-0.43541 0.96295,-0.65313 1.58258,-0.65313M239.9372,171.53445c2.34456,0 4.34581,0.82897 6.00375,2.48691c1.65794,1.65794 2.48691,3.65919 2.48691,6.00375c0,2.32781 -0.82897,4.32069 -2.48691,5.97863c-1.65794,1.65794 -3.65919,2.48691 -6.00375,2.48691c-2.34456,0 -4.33744,-0.82897 -5.97863,-2.48691c-1.65794,-1.65794 -2.48691,-3.65082 -2.48691,-5.97863c0,-2.34456 0.82897,-4.34581 2.48691,-6.00375c1.64119,-1.65794 3.63407,-2.48691 5.97863,-2.48691" fill="none" fill-rule="nonzero" stroke="#2e2d2d" stroke-width="0" stroke-linecap="round" stroke-linejoin="round"/><path d="M239.91208,173.54408c1.79191,0 3.31588,0.61963 4.57189,1.8589c1.23927,1.27276 1.8589,2.79673 1.8589,4.57189c0,1.77517 -0.61963,3.29076 -1.8589,4.54677c-1.25601,1.25601 -2.77998,1.88402 -4.57189,1.88402c-1.77517,0 -3.29076,-0.62801 -4.54677,-1.88402c-1.25601,-1.25601 -1.88402,-2.77161 -1.88402,-4.54677c0,-1.77517 0.62801,-3.29914 1.88402,-4.57189c1.25601,-1.23927 2.77161,-1.8589 4.54677,-1.8589M239.91208,177.73917c-0.61963,0 -1.14716,0.20933 -1.58258,0.62801c-0.43541,0.45217 -0.65313,0.98807 -0.65313,1.6077c0,0.63638 0.21771,1.16391 0.65313,1.58258c0.43541,0.43541 0.96295,0.65313 1.58258,0.65313c0.61963,0 1.15553,-0.21771 1.6077,-0.65313c0.43541,-0.41868 0.65313,-0.94619 0.65313,-1.58258c0,-0.61963 -0.21771,-1.15553 -0.65313,-1.6077c-0.45217,-0.41868 -0.98807,-0.62801 -1.6077,-0.62801" fill="#c9fff2" fill-rule="evenodd" stroke="none" stroke-width="0" stroke-linecap="butt" stroke-linejoin="miter"/><path d="M239.91208,173.54408c1.79191,0 3.31588,0.61963 4.57189,1.8589c1.23927,1.27276 1.8589,2.79673 1.8589,4.57189c0,1.77517 -0.61963,3.29076 -1.8589,4.54677c-1.25601,1.25601 -2.77998,1.88402 -4.57189,1.88402c-1.77517,0 -3.29076,-0.62801 -4.54677,-1.88402c-1.25601,-1.25601 -1.88402,-2.77161 -1.88402,-4.54677c0,-1.77517 0.62801,-3.29914 1.88402,-4.57189c1.25601,-1.23927 2.77161,-1.8589 4.54677,-1.8589M239.91208,177.73917c0.61963,0 1.15553,0.20933 1.6077,0.62801c0.43541,0.45217 0.65313,0.98807 0.65313,1.6077c0,0.63638 -0.21771,1.16391 -0.65313,1.58258c-0.45217,0.43541 -0.98807,0.65313 -1.6077,0.65313c-0.61963,0 -1.14716,-0.21771 -1.58258,-0.65313c-0.43541,-0.41868 -0.65313,-0.94619 -0.65313,-1.58258c0,-0.61963 0.21771,-1.15553 0.65313,-1.6077c0.43541,-0.41868 0.96295,-0.62801 1.58258,-0.62801" fill="none" fill-rule="nonzero" stroke="#2e2d2d" stroke-width="0" stroke-linecap="round" stroke-linejoin="round"/><path d="M239.96232,177.76429c0.61963,0 1.14716,0.21771 1.58258,0.65313c0.43541,0.43541 0.65313,0.96295 0.65313,1.58258l-0.15072,0.85409l3.84341,5.1999l0.05024,-0.05024c0.45217,-0.43541 0.83734,-0.90433 1.15553,-1.40674l-9.42011,-12.76112c-0.61963,0.16747 -1.21415,0.40192 -1.78354,0.70337l3.86853,5.25014l0.20096,-0.02512M234.78754,173.29288l3.69268,5.02406l-0.1256,0.10048c-0.43541,0.43541 -0.65313,0.96295 -0.65313,1.58258c0,0.61963 0.21771,1.14716 0.65313,1.58258c0.43541,0.45217 0.97132,0.67825 1.6077,0.67825c0.43541,0 0.83734,-0.11723 1.20578,-0.35169l3.69268,5.02406c-0.82059,0.58614 -1.69143,1.00481 -2.61251,1.25601l-9.44523,-12.73599l1.15553,-1.43186l0.82897,-0.72849" fill="none" fill-rule="nonzero" stroke="#2e2d2d" stroke-width="0" stroke-linecap="round" stroke-linejoin="round"/><path d="M239.9372,171.53445c2.34456,0 4.34581,0.82897 6.00375,2.48691c1.65794,1.65794 2.48691,3.65919 2.48691,6.00375c0,2.32781 -0.82897,4.32069 -2.48691,5.97863c-1.65794,1.65794 -3.65919,2.48691 -6.00375,2.48691c-2.34456,0 -4.33744,-0.82897 -5.97863,-2.48691c-1.65794,-1.65794 -2.48691,-3.65082 -2.48691,-5.97863c0,-2.34456 0.82897,-4.34581 2.48691,-6.00375c1.64119,-1.65794 3.63407,-2.48691 5.97863,-2.48691M239.9372,177.76429c0.63638,0 1.17228,0.21771 1.6077,0.65313c0.43541,0.43541 0.65313,0.97132 0.65313,1.6077c0,0.61963 -0.21771,1.14716 -0.65313,1.58258c-0.43541,0.43541 -0.97132,0.65313 -1.6077,0.65313c-0.61963,0 -1.14716,-0.21771 -1.58258,-0.65313c-0.43541,-0.43541 -0.65313,-0.96295 -0.65313,-1.58258c0,-0.63638 0.21771,-1.17228 0.65313,-1.6077c0.43541,-0.43541 0.96295,-0.65313 1.58258,-0.65313" fill="none" fill-rule="nonzero" stroke="#2e2d2d" stroke-width="0" stroke-linecap="round" stroke-linejoin="round"/><path d="M243.46905,180.2759c0,1.79805 -1.52098,3.25566 -3.39721,3.25566c-1.87623,0 -3.39721,-1.45761 -3.39721,-3.25566c0,-1.79805 1.52098,-3.25566 3.39721,-3.25566c1.87623,0 3.39721,1.45761 3.39721,3.25566z" fill="#fdffff" fill-rule="nonzero" stroke="none" stroke-width="0" stroke-linecap="butt" stroke-linejoin="miter"/></g></g></svg>