<svg version="1.1" xmlns="http://www.w3.org/2000/svg" xmlns:xlink="http://www.w3.org/1999/xlink" width="42.26043" height="13.84288" viewBox="0,0,42.26043,13.84288"><g transform="translate(-225.50046,-173.38008)"><g data-paper-data="{&quot;isPaintingLayer&quot;:true}" fill-rule="nonzero" stroke-linejoin="miter" stroke-miterlimit="10" stroke-dasharray="" stroke-dashoffset="0" style="mix-blend-mode: normal"><path d="M242.82949,183.79755c-1.80044,-0.83779 1.61626,-3.39389 1.61626,-3.39389c0,0 -3.16832,-2.56073 -1.89521,-3.1736c3.26547,-2.7669 4.80133,3.27066 4.80133,3.27066c0,0 -0.98703,4.83145 -4.52239,3.29682z" fill="#fed318" stroke="#8a8a8a" stroke-width="0" stroke-linecap="round"/><path d="M267.56089,180.08628l-4.81866,0.08236" fill="none" stroke="#282723" stroke-width="0.4" stroke-linecap="round"/><path d="M258.06872,177.50695c4.33123,0.05161 5.76945,2.42055 5.76945,2.42055c0,0 -0.08149,2.38456 -5.67015,2.75021c-7.79286,0.50987 -15.01288,-2.35315 -15.01288,-2.35315c0,0 9.15964,-2.88618 14.91359,-2.81764z" fill="#282723" stroke="#602a0d" stroke-width="0" stroke-linecap="round"/><path d="M263.57675,180.13573c0,0 -4.56461,-0.64963 -7.25932,-0.59788c-3.27786,0.06295 -11.74265,0.20923 -11.74265,0.20923c0,0 8.73891,-1.25433 13.05407,-1.60887c4.31513,-0.35454 5.9479,1.99751 5.9479,1.99751z" fill="#44423e" stroke="#000000" stroke-width="0" stroke-linecap="round"/><g stroke="none" stroke-linecap="butt"><path d="M225.53279,182.67891l-0.03233,-5.51918l33.39106,-0.19557l0.03233,5.51918z" fill="#a18a67" stroke-width="NaN"/><path d="M248.7026,173.3971c5.49374,-0.36212 15.39767,5.8621 15.39767,5.8621c0,0 -9.03871,6.90211 -14.53245,7.26423c-5.49374,0.36212 -10.14098,-2.28276 -10.37991,-5.90749c-0.23893,-3.62474 4.02095,-6.85672 9.51469,-7.21884z" fill="#ecd6be" stroke-width="0"/><path d="M257.56087,183.27748c-1.12319,0.80147 -1.92465,-0.32172 -1.92465,-0.32172l-0.32059,-0.44928c-1.50079,-2.10323 -2.4426,-3.57077 -2.86775,-6.17012c0,0 -0.21455,-1.36304 1.14849,-1.57758c1.36304,-0.21455 1.57758,1.14849 1.57758,1.14849c0.32748,2.18443 1.12011,3.21937 2.38806,4.99628l0.32059,0.44928c0,0 0.80147,1.12319 -0.32172,1.92465z" fill="#d3bea3" stroke-width="0.5"/><path d="M250.5087,186.32989c-0.48997,1.28989 -1.77987,0.79992 -1.77987,0.79992l-1.56337,-0.84175c-0.9426,-1.32098 -2.27579,-2.79628 -2.99916,-4.23374c-0.83177,-1.65286 -1.22224,-3.8273 -1.90502,-5.5606c0,0 -0.50512,-1.28404 0.77891,-1.78916c1.28404,-0.50512 1.78916,0.77891 1.78916,0.77891c0.6496,1.65341 1.014,3.77251 1.81107,5.34843c0.6621,1.30905 1.91621,2.65472 2.77141,3.85321l0.29694,-0.1351c0,0 1.28989,0.48997 0.79992,1.77987z" fill="#d3bea3" stroke-width="0.5"/></g><g stroke="none" stroke-linecap="butt"><path d="M225.50987,182.58102l-0.0094,-5.52057l33.39943,-0.05687l0.0094,5.52057z" fill="#a18a67" stroke-width="NaN"/><path d="M248.72349,173.39338c5.49648,-0.33937 15.37679,5.92741 15.37679,5.92741c0,0 -9.06944,6.86612 -14.56592,7.20549c-5.49649,0.33938 -10.13379,-2.32541 -10.35771,-5.95196c-0.22392,-3.62655 4.05035,-6.84156 9.54683,-7.18093z" fill="#60efe0" stroke-width="0"/><path d="M257.54271,183.31281c-1.12677,0.79698 -1.92375,-0.32979 -1.92375,-0.32979l-0.31879,-0.45071c-1.49239,-2.10995 -2.42832,-3.58173 -2.84276,-6.18343c0,0 -0.20894,-1.36424 1.1553,-1.57317c1.36424,-0.20894 1.57317,1.1553 1.57317,1.1553c0.31847,2.18629 1.10699,3.22475 2.36784,5.00734l0.31879,0.45071c0,0 0.79698,1.12677 -0.32979,1.92375z" fill="#60cdf0" stroke-width="0.5"/><path d="M250.47626,186.3366c-0.49544,1.28815 -1.78359,0.7927 -1.78359,0.7927l-1.56023,-0.84844c-0.93733,-1.3252 -2.26468,-2.80637 -2.98224,-4.24716c-0.82509,-1.65669 -1.20662,-3.83325 -1.88234,-5.56977c0,0 -0.4999,-1.28643 0.78652,-1.78633c1.28643,-0.4999 1.78633,0.78652 1.78633,0.78652c0.64287,1.65648 0.99855,3.77758 1.78926,5.35717c0.65681,1.3121 1.90561,2.66329 2.75602,3.8656l0.29757,-0.1339c0,0 1.28815,0.49544 0.7927,1.78359z" fill="#60cdf0" stroke-width="0.5"/></g></g></g></svg>