<svg version="1.1" xmlns="http://www.w3.org/2000/svg" xmlns:xlink="http://www.w3.org/1999/xlink" width="60.81131" height="131.34213" viewBox="0,0,60.81131,131.34213"><defs><radialGradient cx="265.16751" cy="202.40398" r="22.38619" gradientUnits="userSpaceOnUse" id="color-1"><stop offset="0" stop-color="#ffffff"/><stop offset="1" stop-color="#85ffbc"/></radialGradient><linearGradient x1="265.16751" y1="180.35443" x2="265.16751" y2="224.45352" gradientUnits="userSpaceOnUse" id="color-2"><stop offset="0" stop-color="#00ff4a"/><stop offset="1" stop-color="#096600"/></linearGradient><radialGradient cx="265.33417" cy="140.23732" r="22.38619" gradientUnits="userSpaceOnUse" id="color-3"><stop offset="0" stop-color="#ffffff"/><stop offset="1" stop-color="#85ffbc"/></radialGradient><linearGradient x1="265.33417" y1="118.18777" x2="265.33417" y2="162.28686" gradientUnits="userSpaceOnUse" id="color-4"><stop offset="0" stop-color="#00ff4a"/><stop offset="1" stop-color="#096600"/></linearGradient><linearGradient x1="259.55076" y1="112.25566" x2="259.55076" y2="163.03501" gradientUnits="userSpaceOnUse" id="color-5"><stop offset="0" stop-color="#00ff68"/><stop offset="1" stop-color="#008a3f"/></linearGradient><linearGradient x1="259.55076" y1="112.25566" x2="259.55076" y2="163.03501" gradientUnits="userSpaceOnUse" id="color-6"><stop offset="0" stop-color="#00ff4a"/><stop offset="1" stop-color="#096600"/></linearGradient><linearGradient x1="259.99803" y1="183.72611" x2="259.99803" y2="234.50545" gradientUnits="userSpaceOnUse" id="color-7"><stop offset="0" stop-color="#00ff68"/><stop offset="1" stop-color="#008a3f"/></linearGradient><linearGradient x1="259.99803" y1="183.72611" x2="259.99803" y2="234.50545" gradientUnits="userSpaceOnUse" id="color-8"><stop offset="0" stop-color="#00ff4a"/><stop offset="1" stop-color="#096600"/></linearGradient></defs><g transform="translate(-230.59434,-108.32893)"><g data-paper-data="{&quot;isPaintingLayer&quot;:true}" fill-rule="nonzero" stroke-linecap="butt" stroke-linejoin="miter" stroke-miterlimit="10" stroke-dasharray="" stroke-dashoffset="0" style="mix-blend-mode: normal"><path d="M287.55371,202.40398c0,12.17762 -10.02263,22.04955 -22.38619,22.04955c-12.36356,0 -22.38619,-9.87192 -22.38619,-22.04955c0,-12.17762 10.02263,-22.04955 22.38619,-22.04955c12.36356,0 22.38619,9.87192 22.38619,22.04955z" fill="url(#color-1)" stroke="url(#color-2)" stroke-width="0"/><path d="M287.72037,140.23732c0,12.17762 -10.02263,22.04955 -22.38619,22.04955c-12.36356,0 -22.38619,-9.87192 -22.38619,-22.04955c0,-12.17762 10.02263,-22.04955 22.38619,-22.04955c12.36356,0 22.38619,9.87192 22.38619,22.04955z" fill="url(#color-3)" stroke="url(#color-4)" stroke-width="0"/><g><path d="M285.32807,137.64533c0,14.02232 -11.54088,25.38967 -25.77731,25.38967c-14.23642,0 -25.77731,-11.36734 -25.77731,-25.38967c0,-14.02232 11.54088,-25.38967 25.77731,-25.38967c14.23642,0 25.77731,11.36734 25.77731,25.38967z" fill="url(#color-5)" stroke="url(#color-6)" stroke-width="3.5"/><path d="M285.77534,209.1158c0,14.02232 -11.54088,25.38967 -25.77731,25.38967c-14.23642,0 -25.77731,-11.36734 -25.77731,-25.38967c0,-14.02232 11.54088,-25.38967 25.77731,-25.38967c14.23642,0 25.77731,11.36734 25.77731,25.38967z" fill="url(#color-7)" stroke="url(#color-8)" stroke-width="3.5"/><g stroke="none" stroke-width="0"><path d="M291.40565,137.92022c0,16.34281 -13.3553,29.59128 -29.82991,29.59128c-16.47462,0 -29.82991,-13.24849 -29.82991,-29.59128c0,-16.34281 13.3553,-29.59128 29.82991,-29.59128c16.47462,0 29.82991,13.24849 29.82991,29.59128z" fill="#6efb6e"/><path d="M284.60438,137.92022c0,12.61664 -10.31032,22.84446 -23.02868,22.84446c-12.71839,0 -23.02868,-10.22782 -23.02868,-22.84446c0,-12.61664 10.31032,-22.84446 23.02868,-22.84446c12.71839,0 23.02868,10.22782 23.02868,22.84446z" fill="#adfb88"/><path d="M276.37133,137.92022c0,8.10604 -6.62422,14.67729 -14.79563,14.67729c-8.17141,0 -14.79563,-6.5712 -14.79563,-14.67729c0,-8.10604 6.62422,-14.67729 14.79563,-14.67729c8.17141,0 14.79563,6.5712 14.79563,14.67729z" fill="#feffff"/></g><g stroke="none" stroke-width="0"><path d="M290.25416,210.07979c0,16.34281 -13.3553,29.59128 -29.82991,29.59128c-16.47462,0 -29.82991,-13.24849 -29.82991,-29.59128c0,-16.34281 13.3553,-29.59128 29.82991,-29.59128c16.47462,0 29.82991,13.24849 29.82991,29.59128z" fill="#6efb6e"/><path d="M283.45291,210.07979c0,12.61664 -10.31032,22.84446 -23.02868,22.84446c-12.71841,0 -23.02868,-10.22781 -23.02868,-22.84446c0,-12.61664 10.3103,-22.84446 23.02868,-22.84446c12.71841,0 23.02868,10.22781 23.02868,22.84446z" fill="#adfb88"/><path d="M275.21985,210.07979c0,8.10604 -6.62422,14.6773 -14.79563,14.6773c-8.17141,0 -14.79565,-6.57122 -14.79565,-14.6773c0,-8.10604 6.62422,-14.67729 14.79565,-14.67729c8.17141,0 14.79563,6.5712 14.79563,14.67729z" fill="#feffff"/></g></g></g></g></svg>