<svg version="1.1" xmlns="http://www.w3.org/2000/svg" xmlns:xlink="http://www.w3.org/1999/xlink" width="317.64246" height="275.8185" viewBox="0,0,317.64246,275.8185"><defs><linearGradient x1="117.41433" y1="102.11556" x2="134.95238" y2="139.76093" gradientUnits="userSpaceOnUse" id="color-1"><stop offset="0" stop-color="#d65115"/><stop offset="1" stop-color="#ad3c10"/></linearGradient><linearGradient x1="179.88176" y1="99.61954" x2="172.43881" y2="140.65158" gradientUnits="userSpaceOnUse" id="color-2"><stop offset="0" stop-color="#d65115"/><stop offset="1" stop-color="#ad3c10"/></linearGradient><linearGradient x1="138.71809" y1="98.15009" x2="144.6239" y2="139.44545" gradientUnits="userSpaceOnUse" id="color-3"><stop offset="0" stop-color="#d65115"/><stop offset="1" stop-color="#ad3c10"/></linearGradient><linearGradient x1="159.03489" y1="97.82479" x2="156.84416" y2="139.50319" gradientUnits="userSpaceOnUse" id="color-4"><stop offset="0" stop-color="#d65115"/><stop offset="1" stop-color="#ad3c10"/></linearGradient><linearGradient x1="135.64704" y1="115.65421" x2="144.38356" y2="139.01488" gradientUnits="userSpaceOnUse" id="color-5"><stop offset="0" stop-color="#ff6219"/><stop offset="1" stop-color="#ad3c10"/></linearGradient><linearGradient x1="150.81142" y1="115.17568" x2="151.80393" y2="140.57921" gradientUnits="userSpaceOnUse" id="color-6"><stop offset="0" stop-color="#ff6219"/><stop offset="1" stop-color="#ad3c10"/></linearGradient><linearGradient x1="169.70206" y1="118.28521" x2="158.64422" y2="141.17731" gradientUnits="userSpaceOnUse" id="color-7"><stop offset="0" stop-color="#ff6219"/><stop offset="1" stop-color="#ad3c10"/></linearGradient><linearGradient x1="302.49907" y1="231.59702" x2="302.49907" y2="290.26864" gradientUnits="userSpaceOnUse" id="color-8"><stop offset="0" stop-color="#b2461d"/><stop offset="1" stop-color="#853617"/></linearGradient><linearGradient x1="353.45074" y1="230.82501" x2="353.45074" y2="291.04064" gradientUnits="userSpaceOnUse" id="color-9"><stop offset="0" stop-color="#b2461d"/><stop offset="1" stop-color="#853617"/></linearGradient><linearGradient x1="322.95695" y1="42.09074" x2="322.95695" y2="175.64588" gradientUnits="userSpaceOnUse" id="color-10"><stop offset="0" stop-color="#cd622b"/><stop offset="1" stop-color="#e17832"/></linearGradient><linearGradient x1="325.27293" y1="147.44953" x2="325.27293" y2="280.23271" gradientUnits="userSpaceOnUse" id="color-11"><stop offset="0" stop-color="#b2461d"/><stop offset="1" stop-color="#853617"/></linearGradient><linearGradient x1="327.20292" y1="206.89317" x2="327.20292" y2="301.84856" gradientUnits="userSpaceOnUse" id="color-12"><stop offset="0" stop-color="#f08a31"/><stop offset="1" stop-color="#f07630"/></linearGradient><radialGradient cx="329.96535" cy="293.13434" r="32.03779" gradientUnits="userSpaceOnUse" id="color-13"><stop offset="0" stop-color="#f07630"/><stop offset="1" stop-color="#9b591f"/></radialGradient></defs><g transform="translate(-81.17877,-42.09074)"><g data-paper-data="{&quot;isPaintingLayer&quot;:true}" fill-rule="nonzero" stroke-linejoin="miter" stroke-miterlimit="10" stroke-dasharray="" stroke-dashoffset="0" style="mix-blend-mode: normal"><path d="M176.34751,220.54812l11.78054,-5.29089l18.25534,7.85207l15.17352,15.31259l-3.78044,10.42606l-2.37552,0.88505l-4.98767,8.39601l-7.45667,-4.88676l-8.67541,-1.50199l-3.64113,-8.56272l-16.31851,-11.72983z" fill="#b45222" stroke="#8b4120" stroke-width="3" stroke-linecap="round"/><path d="M218.10112,246.95214l-12.75937,-0.90922l-2.04774,7.29978l-6.61955,-0.42597l-7.97648,-9.75204l-7.443,-3.24706l21.96001,-15.75966l16.91595,13.30697z" data-paper-data="{&quot;index&quot;:null}" fill="#606060" stroke="#606060" stroke-width="1.5" stroke-linecap="round"/><path d="M91.78198,189.86166c-5.65412,-5.09474 -8.02814,-11.78531 -5.30251,-14.9438c2.72563,-3.1585 9.51876,-1.58886 15.17288,3.50588c5.65412,5.09474 8.02813,11.78532 5.3025,14.9438c-2.72563,3.1585 -9.51876,1.58885 -15.17287,-3.50589z" fill="#fba210" stroke="none" stroke-width="0" stroke-linecap="butt"/><path d="M99.68674,183.78147l9.67803,34.39157l-9.33239,2.41951h-3.45644l-8.46828,-5.70313l-4.6662,-18.31913l2.41951,-8.6411l9.67803,-2.76515z" fill="#b04b1d" stroke="#853c18" stroke-width="3" stroke-linecap="round"/><path d="M100.35893,188.38163l6.83823,24.30015l-6.59402,1.70955h-2.44222l-5.98345,-4.02967l-3.29701,-12.9438l1.70956,-6.10557l6.83823,-1.95378z" fill="#d1852d" stroke="none" stroke-width="0" stroke-linecap="round"/><path d="M101.0921,199.93256c-3.18604,2.69338 -9.85213,0.25149 -14.88913,-5.45414c-5.03701,-5.70562 -6.53752,-12.51436 -3.35148,-15.20774c3.18604,-2.69339 9.85213,-0.25147 14.88914,5.45415c5.03701,5.70561 6.53751,12.51435 3.35147,15.20773z" data-paper-data="{&quot;index&quot;:null}" fill="#fc4a21" stroke="none" stroke-width="0" stroke-linecap="butt"/><path d="M110.22991,183.26557c0.31739,7.60425 -2.80663,13.8373 -6.97772,13.92188c-4.17109,0.08459 -7.80973,-6.01131 -8.12712,-13.61557c-0.31739,-7.60426 2.80665,-13.8373 6.97774,-13.92188c4.17109,-0.08459 7.80972,6.01131 8.12711,13.61557z" data-paper-data="{&quot;index&quot;:null}" fill="#fba210" stroke="none" stroke-width="0" stroke-linecap="butt"/><path d="M197.29977,178.25254l0.83883,-20.132l23.20773,5.87183l8.10872,23.48734l-1.11845,4.75339l-12.02328,1.67766l-6.15145,-15.09901l-5.59222,-0.55922z" fill="#aa4a1a" stroke="#853c18" stroke-width="3" stroke-linecap="round"/><path d="M222.98851,183.34473c5.03701,-5.70562 11.70309,-8.14753 14.88913,-5.45415c3.18604,2.69338 1.68554,9.50212 -3.35147,15.20774c-5.037,5.70562 -11.70309,8.14752 -14.88913,5.45414c-3.18604,-2.69338 -1.68554,-9.50212 3.35147,-15.20773z" fill="#fc4a21" stroke="none" stroke-width="0" stroke-linecap="butt"/><path d="M212.67116,186.22934c0.31739,-7.60426 3.95601,-13.70017 8.12711,-13.61557c4.17109,0.08458 7.29513,6.31762 6.97774,13.92188c-0.31739,7.60426 -3.95602,13.70016 -8.12711,13.61557c-4.17109,-0.08458 -7.29513,-6.31763 -6.97773,-13.92187z" fill="#fba210" stroke="none" stroke-width="0" stroke-linecap="butt"/><path d="M132.06777,246.91402l2.5463,-10.40065h36.75806c0,0 1.86728,10.93204 1.86728,12.90782c0,0.39842 -6.28086,7.33849 -6.28086,7.33849c0,0 -20.88682,0.90393 -27.54298,-0.4472c-2.86939,-0.58246 -7.3478,-9.39846 -7.3478,-9.39846z" fill="#b4531b" stroke="none" stroke-width="0" stroke-linecap="butt"/><path d="M145.61341,247.71365l-2.53504,16.05525l-11.61892,2.11253l-8.02762,-7.60511l8.02763,-20.06906l1.47877,1.26752l10.86419,-0.33552z" data-paper-data="{&quot;index&quot;:null}" fill="#d1852d" stroke="#8b3e19" stroke-width="3" stroke-linecap="round"/><path d="M137.90788,263.53354l1.05627,-10.35141" data-paper-data="{&quot;index&quot;:null}" fill="none" stroke="#c8711b" stroke-width="0.5" stroke-linecap="round"/><path d="M128.16936,260.86516l5.07008,-11.19642" data-paper-data="{&quot;index&quot;:null}" fill="none" stroke="#c8711b" stroke-width="0.5" stroke-linecap="round"/><path d="M161.66296,246.50866l8.82716,5.25836l1.47877,-1.26752l8.02762,20.06906l-8.02762,7.60512l-11.61893,-2.11253l-2.53503,-16.05525z" fill="#d1852d" stroke="#8b3e19" stroke-width="3" stroke-linecap="round"/><path d="M166.82165,249.33749c0,2.1001 -4.81399,10.77391 -13.0977,10.77391c-8.28371,0 -16.90026,-8.67382 -16.90026,-10.77391c0,-2.1001 6.71527,-3.80256 14.99898,-3.80256c8.28371,0 14.99898,1.70246 14.99898,3.80256z" fill="#de9333" stroke="none" stroke-width="0" stroke-linecap="butt"/><path d="M165.52045,275.82579l-1.05626,-10.35141" fill="none" stroke="#c8711b" stroke-width="0.5" stroke-linecap="round"/><path d="M170.1889,261.96098l5.07008,11.19642" fill="none" stroke="#c8711b" stroke-width="0.5" stroke-linecap="round"/><path d="M151.81136,254.64617c0,-0.27614 0.22386,-0.5 0.5,-0.5c0.27614,0 0.5,0.22386 0.5,0.5c0,0.27614 -0.22386,0.5 -0.5,0.5c-0.27614,0 -0.5,-0.22386 -0.5,-0.5z" fill="#8b631d" stroke="none" stroke-width="0.5" stroke-linecap="butt"/><path d="M190.02124,240.91156l0.64402,-1.4089l6.10246,0.06427l-0.19334,-5.5389l7.3342,-0.39464l-3.60282,-5.90512l5.69187,0.21724l-1.63436,-3.1317l1.18342,-1.84365l15.32491,16.03268l-3.22411,8.91626l-4.69755,2.45155l-2.21784,5.96966l-7.22161,-4.32308l-7.68848,-1.81125z" fill="#d1852d" stroke="#d1852d" stroke-width="0.5" stroke-linecap="round"/><path d="M132.05986,242.43187l-7.4799,18.65298l1.52028,9.17971l-6.51592,5.92127l-3.67171,8.1241l-8.71314,-4.41035l-2.47958,0.52734l-8.78326,-6.77118l4.59173,-21.06245l11.1946,-16.4193l12.78033,-1.85408z" data-paper-data="{&quot;index&quot;:null}" fill="#b45222" stroke="#8b4120" stroke-width="3" stroke-linecap="round"/><path d="M123.97685,269.79623l-5.51712,5.65286l-3.77569,7.52227l-5.07399,-3.84841l-5.27957,0.45088l-7.50385,-5.79541l4.33322,-21.7514l1.98771,0.92114l0.30058,3.51969l4.68713,-3.23657l0.12702,6.91627l6.40141,-3.60116l2.80801,4.77827l5.1157,-3.32773l1.29928,0.84358z" data-paper-data="{&quot;index&quot;:null}" fill="#d1852d" stroke="#d1852d" stroke-width="0.5" stroke-linecap="round"/><g stroke="none" stroke-width="0" stroke-linecap="butt"><path d="M164.65762,251.06686l-0.78657,-6.1894l7.82955,-2.29235l0.78658,6.1894z" fill="#d3cc45"/><path d="M136.38938,253.02213l1.84066,-6.00242l5.74144,1.76063l-1.84065,6.00242z" fill="#6e553f"/><path d="M149.42455,255.28824l-0.98593,-6.1894l9.81395,-2.29234l0.98594,6.1894z" fill="#6e553f"/><path d="M127.29172,248.88275l2.51097,-5.7543l5.50412,2.40179l-2.51097,5.75431z" fill="#6e553f"/><path d="M92.56919,222.74184l15.56557,-1.1286l87.88762,-1.80995l4.34388,4.38651c0,0 -10.10402,12.36237 -22.83944,19.61722c-10.52064,5.99318 -23.52676,7.12135 -28.01294,7.12135c-5.14742,0 -20.47594,-6.61744 -33.93376,-13.96986c-0.97835,-0.5345 -1.94682,-2.15312 -2.90076,-2.68082c-11.0245,-6.09845 -20.11017,-11.53585 -20.11017,-11.53585z" fill="#a88a55"/><path d="M95.62248,220.36996l8.68776,-2.85395l76.75744,4.70587l15.20358,-2.5759c0,0 4.23198,-8.96396 3.41631,-7.72498c-1.57386,2.39066 -7.47222,12.71813 -11.83022,18.03887c-1.05346,1.28618 -2.01691,2.27979 -2.80751,2.79803c-11.59792,7.60236 -28.80759,12.54651 -35.89037,12.54651c-10.52265,0 -53.53699,-24.93445 -53.53699,-24.93445z" fill="#c6ad81"/><path d="M119.85413,231.00838v-11.61482h59.74303v11.61482c0,0 -20.09241,8.46504 -30.08488,8.46504c-9.92136,0 -29.65814,-8.46504 -29.65814,-8.46504z" fill="#7e0100"/></g><path d="M207.00917,185.16404l9.67803,2.76515l2.41951,8.6411l-4.6662,18.31913l-8.46828,5.70313h-3.45644l-9.33238,-2.41951l9.67803,-34.39157z" data-paper-data="{&quot;index&quot;:null}" fill="#b04b1d" stroke="#853c18" stroke-width="3" stroke-linecap="round"/><path d="M202.37623,189.0789l6.83823,1.95378l1.70955,6.10556l-3.29701,12.9438l-5.98345,4.02967h-2.44223l-6.59402,-1.70956l6.83823,-24.30015z" data-paper-data="{&quot;index&quot;:null}" fill="#d1852d" stroke="none" stroke-width="0" stroke-linecap="round"/><path d="M201.57681,200.22975c0,18.77123 -22.80336,33.98833 -50.93273,33.98833c-28.12937,0 -54.44532,-15.79317 -54.44532,-34.5644c0,-6.03501 -0.57011,-42.81061 3.56319,-47.7233c3.83963,-4.56364 7.6461,-11.81349 15.60979,-16.88799c10.12823,-6.45376 25.17323,-10.27823 35.85779,-10.27823c8.57263,0 30.35392,3.53738 37.36693,11.39045c3.58504,4.01448 9.88946,8.80638 12.06352,13.97254c7.52801,17.88854 0.91684,39.97644 0.91684,50.1026z" fill="#a45120" stroke="#853c18" stroke-width="3" stroke-linecap="butt"/><path d="M169.84631,129.96192c0.07079,0.21238 0.00074,0.68073 -0.17107,1.24103c0.29633,1.48367 -0.3897,3.46705 -1.28397,4.74176c-0.16049,0.33856 -0.40643,0.62874 -0.70996,0.84269c-0.36501,0.335 -0.80769,0.57909 -1.24318,0.39334c-0.77525,0 -1.45513,-0.40836 -1.83624,-1.02172l-1.35967,1.63161l-0.05222,-0.04352l-0.0798,0.18809c-6.71241,5.41905 -15.73217,1.60826 -21.83413,-2.96773c0,0 -1.32811,-0.99609 -0.7826,-2.40613l-1.58536,-0.90289c0,0 -1.87564,-1.0718 -0.80384,-2.94744c0.25372,-0.44401 0.55248,-0.72285 0.86075,-0.88984c0.10403,-0.11933 0.21926,-0.24239 0.34625,-0.36938c1.70057,-1.70058 5.56137,1.73484 7.06059,2.41507c5.7402,2.60443 11.85977,2.57131 17.94487,1.05004l0.05899,-0.03932c0.2808,-0.10029 0.63509,-0.37781 1.00338,-0.67797c1.17546,-2.16761 3.18488,-4.08466 4.46721,-0.23768z" fill="#a45120" stroke="none" stroke-width="0.5" stroke-linecap="butt"/><path d="M154.00102,209.54698c0,3.1213 -1.4002,18.37645 -11.06383,20.87158c-5.29681,1.36762 -13.39208,0.35151 -19.8272,-2.34193c-2.09303,-0.87605 -3.84253,-1.92472 -5.23135,-2.86191c-1.64679,-1.11127 -2.78646,-2.06575 -3.39045,-2.38976c-5.62859,-3.01949 -10.8009,-18.59705 -10.8009,-24.64545c0,-6.0484 3.95385,-10.298 10.39242,-10.298c1.64128,0 7.80434,-0.08598 12.15107,1.42662c1.36513,0.47504 5.87448,3.95224 7.34113,4.54068c3.21863,1.29134 0.98162,0.87431 4.08131,2.58007c8.63336,4.75093 16.3478,10.15839 16.3478,13.1181z" fill="#de9333" stroke="none" stroke-width="0" stroke-linecap="butt"/><path d="M169.35964,227.47032c0,5.64728 -8.12438,10.2253 -18.14631,10.2253c-10.02193,0 -18.14631,-4.57802 -18.14631,-10.2253c0,-5.64728 7.83634,-18.72239 17.85827,-18.72239c10.02193,0 18.43434,13.07511 18.43434,18.72239z" fill="#de9333" stroke="none" stroke-width="0" stroke-linecap="butt"/><path d="M165.28526,196.43839c2.9102,-1.65049 0.80994,-1.24698 3.83182,-2.49648c1.377,-0.56936 5.61068,-3.93388 6.89236,-4.39353c4.08102,-1.46358 9.86732,-1.38039 11.40826,-1.38039c6.04497,0 9.75713,4.1119 9.75713,9.9643c0,5.85241 -4.85613,20.9252 -10.14064,23.84684c-0.56706,0.31351 -1.63707,1.23707 -3.18319,2.31232c-1.30392,0.90681 -2.94646,1.92151 -4.91154,2.76917c-6.04174,2.60616 -13.64215,3.58935 -18.61516,2.26605c-9.07288,-2.41428 -10.38748,-17.1751 -10.38748,-20.19525c0,-2.86381 7.24285,-8.09604 15.34844,-12.69302z" data-paper-data="{&quot;index&quot;:null}" fill="#de9333" stroke="none" stroke-width="0" stroke-linecap="butt"/><path d="M142.34657,219.46083c-3.25456,7.10065 -12.68277,9.34762 -21.05848,5.01852c-8.37571,-4.3291 -12.52723,-13.59475 -9.27261,-20.69559c3.25456,-7.10065 12.68277,-9.34762 21.05848,-5.01852c8.37571,4.3291 12.52723,13.59475 9.27261,20.69559z" fill="#ffffff" stroke="#954116" stroke-width="0" stroke-linecap="butt"/><path d="M138.891,215.77381c0,3.22118 -2.30852,5.83246 -5.15624,5.83246c-2.8477,0 -5.15623,-2.61129 -5.15623,-5.83246c0,-3.22118 2.30852,-5.83245 5.15623,-5.83245c2.8477,0 5.15624,2.61128 5.15624,5.83245z" fill="#ffffff" stroke="#fc4a21" stroke-width="1" stroke-linecap="butt"/><path d="M127.12344,190.47469l13.98407,7.304l-4.62891,6.71986l-12.61809,-7.92189z" fill="#562d0a" stroke="#562d0a" stroke-width="0.5" stroke-linecap="round"/><path d="M167.50815,198.86495c8.37571,-4.3291 17.80392,-2.08213 21.05848,5.01852c3.25462,7.10084 -0.8969,16.36649 -9.27261,20.69559c-8.37571,4.3291 -17.80392,2.08212 -21.05848,-5.01853c-3.25462,-7.10084 0.89691,-16.36648 9.27262,-20.69558z" data-paper-data="{&quot;index&quot;:null}" fill="#ffffff" stroke="#954116" stroke-width="0" stroke-linecap="butt"/><path d="M177.88926,196.93163l-12.61808,7.92188l-4.62891,-6.71985l13.98406,-7.30399z" data-paper-data="{&quot;index&quot;:null}" fill="#562d0a" stroke="#562d0a" stroke-width="0.5" stroke-linecap="round"/><path d="M136.39569,115.91139c4.843,10.39548 4.19681,21.07329 -1.44332,23.84955c-5.64012,2.77626 -14.13837,-3.40034 -18.98137,-13.79582c-4.843,-10.39548 -4.1968,-21.07329 1.44332,-23.84955c5.64012,-2.77626 14.13837,3.40034 18.98136,13.79582z" fill="url(#color-1)" stroke="#783b1a" stroke-width="1.5" stroke-linecap="butt"/><path d="M187.29135,122.26891c-2.05532,11.33068 -8.70503,19.56089 -14.85254,18.38267c-6.14751,-1.17822 -9.46491,-11.31868 -7.40959,-22.64937c2.05532,-11.33068 8.70503,-19.56089 14.85255,-18.38267c6.14751,1.17822 9.4649,11.31868 7.40958,22.64936z" fill="url(#color-2)" stroke="#783b1a" stroke-width="1.5" stroke-linecap="butt"/><path d="M152.8735,117.10502c1.63084,11.4034 -2.06263,21.40556 -8.2496,22.34044c-6.18697,0.93488 -12.52457,-7.55152 -14.15541,-18.95492c-1.63084,-11.4034 2.06263,-21.40556 8.2496,-22.34044c6.18697,-0.93488 12.52457,7.55152 14.15541,18.95492z" fill="url(#color-3)" stroke="#783b1a" stroke-width="1.5" stroke-linecap="butt"/><path d="M169.24594,119.29191c-0.60496,11.50917 -6.15742,20.55807 -12.40178,20.21128c-6.24436,-0.34679 -10.816,-9.95795 -10.21105,-21.46712c0.60496,-11.50917 6.15742,-20.55806 12.40178,-20.21127c6.24436,0.34679 10.816,9.95795 10.21105,21.46711z" fill="url(#color-4)" stroke="#783b1a" stroke-width="1.5" stroke-linecap="butt"/><path d="M128.63733,144.5963l6.08598,-5.96316l32.80966,-0.86943l7.39011,6.83259c0,0 -16.3929,3.42857 -24.28857,3.42857c-7.514,0 -21.99719,-3.42857 -21.99719,-3.42857z" fill="#4a2f18" stroke="none" stroke-width="0" stroke-linecap="butt"/><path d="M167.16144,147.13672c-3.26601,-5.06906 -3.62193,-10.65491 -0.79495,-12.47634c2.82698,-1.82143 7.76633,0.8113 11.03234,5.88037c3.26601,5.06906 3.62192,10.65491 0.79494,12.47634c-2.82698,1.82143 -7.76632,-0.8113 -11.03233,-5.88036z" fill="#b14412" stroke="#783b1a" stroke-width="0" stroke-linecap="butt"/><path d="M156.65144,145.9991c2.15908,-3.36084 6.18982,-5.43498 9.0029,-4.6327c2.81309,0.80228 3.34328,4.17714 1.1842,7.53798c-2.15908,3.36084 -6.18982,5.43497 -9.0029,4.6327c-2.81309,-0.80228 -3.34328,-4.17713 -1.1842,-7.53797z" fill="#b14412" stroke="#783b1a" stroke-width="0" stroke-linecap="butt"/><g stroke="none" stroke-linecap="butt"><path d="M172.40331,276.08411l35.39345,-51.72242l7.29419,4.99138l-35.39345,51.72242z" fill="#846644" stroke-width="NaN"/><path d="M197.99939,224.38873c0,0 4.35618,-29.80288 5.19665,-35.55299c0.26921,-1.8418 0.53316,-3.64761 0.53316,-3.64761c0,0 -5.7435,-8.47146 -4.07979,-8.22828c0.70228,0.10265 6.70915,1.26209 9.89092,3.6377c3.17324,2.36924 3.52234,5.95482 3.52234,5.95482l-5.72981,39.20059z" fill="#846746" stroke-width="0"/><path d="M210.6064,229.76105l28.86314,-27.13736c0,0 3.13987,-1.7662 6.89898,-0.52046c3.76922,1.24909 8.15835,5.51081 8.64451,6.02789c1.15174,1.22498 -9.08222,1.36474 -9.08222,1.36474c0,0 -1.3296,1.25011 -2.6857,2.52513c-4.23377,3.98062 -26.17744,24.61223 -26.17744,24.61223z" data-paper-data="{&quot;index&quot;:null}" fill="#846746" stroke-width="0"/><path d="M198.09342,224.06292l3.45414,-5.04773l18.02763,12.33623l-3.45414,5.04774z" fill="#846644" stroke-width="0"/><path d="M229.24744,225.25974c-1.1647,0.12853 -1.29323,-1.03617 -1.29323,-1.03617l-0.08126,-0.99076c0.0963,-0.88 0.42735,-1.73448 0.43623,-2.61969c0.00513,-0.51219 -3.66778,-1.50542 -4.0014,-1.62862c0,0 -1.09922,-0.40591 -0.69331,-1.50513c0.40591,-1.09922 1.50512,-0.69331 1.50512,-0.69331c1.7464,0.64489 4.94593,1.10524 5.46797,3.27828c0.26819,1.11638 -0.26057,2.28145 -0.38491,3.42284l0.08097,0.47932c0,0 0.12853,1.1647 -1.03617,1.29323z" fill="#efdbbb" stroke-width="0.5"/><path d="M210.91941,208.64546c-0.8473,0.79766 -1.50809,0.00112 -1.50809,0.00112l-0.68186,-0.83557c-2.83411,-1.91844 -4.15677,-1.34765 -6.77149,1.11389c0,0 -0.8473,0.79766 -1.50809,0.00112c-0.66079,-0.79654 0.18651,-1.5942 0.18651,-1.5942c3.47839,-3.2746 5.96094,-3.81706 9.6135,-1.29882l0.85604,1.01827c0,0 0.66079,0.79654 -0.18651,1.5942z" fill="#efdbbb" stroke-width="0.5"/><path d="M207.80265,231.15851c-1.12667,-0.32198 -0.80469,-1.44865 -0.80469,-1.44865l0.447,-1.34531c0.74706,-1.09172 1.49412,-2.18344 2.24118,-3.27516c0,0 0.66174,-0.96703 1.62877,-0.3053c0.96703,0.66174 0.3053,1.62877 0.3053,1.62877c-0.74706,1.09172 -1.49412,2.18344 -2.24118,3.27516l-0.12773,0.6658c0,0 -0.32198,1.12667 -1.44864,0.80469z" fill="#efdbbb" stroke-width="0.5"/></g><path d="M171.53319,215.91083c0,3.22117 -2.30852,5.83246 -5.15623,5.83246c-2.84771,0 -5.15623,-2.61129 -5.15623,-5.83246c0,-3.22117 2.30853,-5.83245 5.15623,-5.83245c2.84771,0 5.15623,2.61128 5.15623,5.83245z" fill="#ffffff" stroke="#fc4a21" stroke-width="1" stroke-linecap="butt"/><path d="M234.71536,227.66959c0,6.51597 -5.39962,11.7982 -12.06038,11.7982c-6.66076,0 -12.06038,-5.28223 -12.06038,-11.7982c0,-6.51597 5.39962,-11.7982 12.06038,-11.7982c6.66076,0 12.06038,5.28223 12.06038,11.7982z" fill="#ef6531" stroke="none" stroke-width="0" stroke-linecap="butt"/><path d="M234.39226,232.12669c0,1.25 -1.25,1.25 -1.25,1.25l-0.35535,-0.20994c-4.35778,2.75767 -9.95365,3.27478 -13.72043,-1.29631c-2.60398,-3.16 -1.32024,-7.79951 -6.69856,-6.89973c-0.47935,0.08019 -0.91869,0.31757 -1.37804,0.47636c0,0 -1.18585,0.39528 -1.58114,-0.79057c-0.39528,-1.18585 0.79057,-1.58114 0.79057,-1.58114c1.70166,-0.55085 4.35295,-1.11277 6.11728,-0.49336c2.76595,0.97105 2.91229,4.25197 3.81098,6.41717c2.02107,4.86937 7.94671,4.47733 11.27259,2.08745l1.7421,-0.20994c0,0 1.25,0 1.25,1.25z" fill="#523899" stroke="none" stroke-width="0.5" stroke-linecap="butt"/><path d="M235.96536,226.35868c0,1.25 -1.25,1.25 -1.25,1.25h-1.57309c-1.85709,-0.08614 -5.82091,-1.65389 -7.23669,-3.05282c-1.07345,-1.06067 -1.18269,-3.52069 -2.50476,-4.60118c-1.92778,-1.57554 -3.66238,-1.78456 -5.98948,-1.78456c0,0 -1.25,0 -1.25,-1.25c0,-1.25 1.25,-1.25 1.25,-1.25c2.88505,0 5.3139,0.43989 7.64399,2.41036c1.40941,1.19189 1.64775,3.72478 2.73889,4.83738c0.81475,0.83077 4.32783,2.2795 5.34806,2.19082h1.57309c0,0 1.25,0 1.25,1.25z" fill="#523899" stroke="none" stroke-width="0.5" stroke-linecap="butt"/><path d="M195.38803,241.56524l6.29237,7.3411l-11.53602,16.2553l-5.24364,-7.3411z" fill="#e1ccb0" stroke="#e1ccb0" stroke-width="0.5" stroke-linecap="round"/><path d="M141.2474,171.82478l-0.52436,16.77966l-9.96292,-5.24364l1.97081,-17.62194l6.68046,0.63341z" fill="#ffaa21" stroke="#ffaa21" stroke-width="0.5" stroke-linecap="round"/><path d="M170.89253,182.59279l-9.96292,5.24365l-0.52436,-16.77966l9.37915,-2.30233c0,0 -4.61904,4.82909 -4.42549,7.24613c0.17367,2.16879 5.53362,6.59221 5.53362,6.59221z" data-paper-data="{&quot;index&quot;:null}" fill="#ffaa21" stroke="#ffaa21" stroke-width="0.5" stroke-linecap="round"/><path d="M126.77034,226.71262l1.6303,8.55908l-3.86022,0.78097l-2.66098,-3.02264z" fill="#e7cbad" stroke="#e7cbad" stroke-width="0.5" stroke-linecap="round"/><path d="M135.30222,230.94565l2.59688,8.31696l-3.7458,1.21662l-2.9887,-2.69905z" fill="#e7cbad" stroke="#e7cbad" stroke-width="0.5" stroke-linecap="round"/><path d="M142.87891,232.01164l4.22898,7.61784l-3.42139,1.9507l-3.4738,-2.03714z" fill="#e7cbad" stroke="#e7cbad" stroke-width="0.5" stroke-linecap="round"/><path d="M166.02493,229.17878l4.23782,7.61292l-3.41912,1.95468l-3.47616,-2.03311z" fill="#e7cbad" stroke="#e7cbad" stroke-width="0.5" stroke-linecap="round"/><path d="M174.6776,226.2414l5.51309,6.74695l-3.02115,2.52663l-3.78005,-1.3887z" fill="#e7cbad" stroke="#e7cbad" stroke-width="0.5" stroke-linecap="round"/><path d="M158.48356,232.64311l4.23783,7.61292l-3.41913,1.95468l-3.47616,-2.03311z" fill="#e7cbad" stroke="#e7cbad" stroke-width="0.5" stroke-linecap="round"/><path d="M124.46245,123.27622c7.11656,2.69816 11.75476,8.0728 10.35971,12.0046c-1.39505,3.93179 -8.29507,4.93184 -15.41163,2.23367c-7.11656,-2.69816 -11.75476,-8.07281 -10.35971,-12.0046c1.39505,-3.93179 8.29507,-4.93184 15.41163,-2.23367z" fill="#fc4a21" stroke="none" stroke-width="0" stroke-linecap="butt"/><path d="M190.28872,133.51986c7.11656,2.69817 11.75476,8.0728 10.35971,12.0046c-1.39505,3.93179 -8.29507,4.93184 -15.41163,2.23367c-7.11656,-2.69816 -11.75475,-8.07281 -10.3597,-12.0046c1.39505,-3.93179 8.29507,-4.93184 15.41162,-2.23367z" fill="#fc4a21" stroke="none" stroke-width="0" stroke-linecap="butt"/><path d="M183.94719,124.88541c7.2266,-2.38784 14.21459,-1.13579 15.60811,2.79655c1.39353,3.93233 -3.33511,9.05584 -10.56171,11.44368c-7.2266,2.38784 -14.21459,1.13578 -15.60811,-2.79655c-1.39353,-3.93233 3.33512,-9.05584 10.56171,-11.44367z" fill="#fba210" stroke="none" stroke-width="0" stroke-linecap="butt"/><path d="M119.20672,133.0316c7.2266,-2.38784 14.21459,-1.1358 15.60811,2.79654c1.39353,3.93233 -3.33511,9.05584 -10.56171,11.44369c-7.2266,2.38784 -14.21459,1.13578 -15.60811,-2.79655c-1.39353,-3.93233 3.33512,-9.05584 10.56171,-11.44367z" fill="#fba210" stroke="none" stroke-width="0" stroke-linecap="butt"/><path d="M146.36054,124.98295c2.41252,6.45087 1.5274,12.73318 -1.97698,14.03193c-3.50438,1.29875 -8.30098,-2.87787 -10.7135,-9.32874c-2.41252,-6.45087 -1.52739,-12.73317 1.97699,-14.03192c3.50438,-1.29875 8.30098,2.87787 10.7135,9.32873z" fill="url(#color-5)" stroke="#783b1a" stroke-width="1.5" stroke-linecap="butt"/><path d="M158.08423,127.53619c0.27407,7.01499 -2.53771,12.85455 -6.2803,13.04302c-3.74259,0.18847 -6.99873,-5.34551 -7.27281,-12.3605c-0.27407,-7.01499 2.53771,-12.85454 6.2803,-13.04301c3.74259,-0.18847 6.99873,5.34552 7.27281,12.3605z" fill="url(#color-6)" stroke="#783b1a" stroke-width="1.5" stroke-linecap="butt"/><path d="M170.3157,132.61347c-3.05354,6.32148 -8.27904,10.15564 -11.67147,8.56383c-3.39244,-1.5918 -3.66717,-8.00678 -0.61363,-14.32826c3.05354,-6.32148 8.27903,-10.15564 11.67147,-8.56383c3.39244,1.5918 3.66717,8.00679 0.61364,14.32826z" fill="url(#color-7)" stroke="#783b1a" stroke-width="1.5" stroke-linecap="butt"/><path d="M121.7531,163.18483c0,0 5.09101,-1.15785 5.65649,1.70359c0.37798,1.91266 -3.91185,8.05897 -4.32664,12.40706c-0.44977,4.71483 2.95538,7.5737 2.95538,7.5737l-10.67749,-3.57025c0,0 7.61209,-7.29101 8.76511,-10.5584c0.61246,-1.73555 -2.37285,-7.5557 -2.37285,-7.5557z" fill="#fc4a21" stroke="#fc4a21" stroke-width="0.5" stroke-linecap="round"/><path d="M148.85277,171.07381l0.45597,-8.58277c0,0 5.99709,3.10104 6.34576,3.75531c1.70565,3.20067 2.45307,22.1942 2.45307,22.1942l-13.18863,0.48007z" fill="#fc4a21" stroke="#fc4a21" stroke-width="0.5" stroke-linecap="round"/><path d="M177.28004,166.11088l-5.86818,-4.94448l13.55224,1.8505c0,0 -6.74096,5.61489 -6.75137,8.59726c-0.0098,2.80667 6.69061,8.80191 6.69061,8.80191l-10.86363,0.39544z" fill="#fc4a21" stroke="#fc4a21" stroke-width="0.5" stroke-linecap="round"/><path d="M233.44416,208.72476c-0.16062,-3.71994 -1.12576,-6.95105 -2.97826,-10.3431c-0.12404,-0.22713 -2.15427,-3.60371 -2.40428,-3.89791c-0.57008,-0.67085 -1.98569,-0.92615 -1.92835,-1.80464c0.07105,-1.08846 1.12346,-2.26988 2.20403,-2.41876c1.08989,-0.15016 1.88464,1.13614 2.81229,1.72764c1.49178,0.95121 2.72515,2.86291 4.18457,3.6751c0.62972,0.35045 1.48329,0.14732 2.09746,0.52436c1.90102,1.16704 2.58718,2.73501 2.73684,4.79298c0.54492,0.51923 -0.42524,-0.38087 0.18459,-1.93218c0.29689,-0.75524 1.10517,-1.22939 1.42051,-1.97711c0.26221,-0.62175 -0.08832,-1.42963 0.25997,-2.00757c0.52043,-0.86358 1.68099,-1.34116 1.96383,-2.30423l0.51358,-2.05431c0.12632,-0.55665 0.62414,-0.9722 1.21902,-0.9722c0.46331,0 0.86774,0.25206 1.08365,0.62653l1.27445,2.12409l-0.28408,0.17045c0.70941,1.2989 0.74748,2.48629 0.74907,5.02385c0.00079,1.26412 0.16467,2.53902 0,3.79237c-0.05504,0.41893 -0.69216,0.94482 -0.36612,1.21357c0.37463,0.3088 0.9296,-0.38528 1.4138,-0.34998c2.12902,0.15522 4.11664,1.73558 6.2558,2.09208c0.62132,0.10355 1.36545,-0.26764 1.8878,0.08439c0.8308,0.55991 2.02717,1.42706 1.80423,2.40381c-0.24487,1.07282 -4.15377,2.56329 -5.13678,2.98223c-4.08344,1.74031 -8.56746,2.02176 -12.68992,3.29715c-3.4694,0.02768 -9.86987,1.75052 -8.68277,-3.81177c0.05543,-0.25974 0.21072,-0.46831 0.40508,-0.65685z" fill="#ededed" stroke="none" stroke-width="0.5" stroke-linecap="butt"/><path d="M160.37195,228.23451c-0.88388,0.88388 -1.76777,0 -1.76777,0l-0.88016,-0.91449c-1.81583,-2.72681 -4.02824,-5.44741 -6.33478,-7.74909c-0.36089,-0.36013 -0.759,-0.74017 -1.1626,-1.13996c-0.34416,0.37212 -0.70238,0.7432 -1.07638,1.11578c-0.8589,0.85564 -2.49073,1.58423 -3.2047,2.4773c-2.35735,2.94872 -4.66906,6.51255 -7.78889,8.86051c0,0 -1,0.75 -1.75,-0.25c-0.75,-1 0.25,-1.75 0.25,-1.75c3.02511,-2.26021 5.04528,-5.76363 7.41469,-8.51501c0.40564,-0.47104 1.78261,-1.14173 2.31655,-1.58738c0.80416,-0.67118 1.53936,-1.37881 2.21724,-2.12212c-0.48347,-0.61306 -0.89703,-1.26177 -1.16264,-1.94576c-0.17471,-0.44992 0.16579,-0.99468 0,-1.44796c-0.93237,-2.54912 -2.54964,-3.5115 -2.59808,-6.54911c0,0 0,-1.25 1.25,-1.25c1.25,0 1.25,1.25 1.25,1.25c-0.05769,2.62702 1.59286,3.46717 2.46978,5.75854c0.17251,0.45077 -0.1628,0.99359 0,1.44796c0.09509,0.26539 0.22895,0.52568 0.39057,0.78011c1.038,-1.41398 1.92863,-2.93662 2.73539,-4.56375l0.29417,-0.92224c0,0 0.39528,-1.18585 1.58114,-0.79057c1.18585,0.39528 0.79057,1.58114 0.79057,1.58114l-0.42981,1.2497c-0.99989,1.98528 -2.07188,3.68807 -3.3428,5.29764c0.45599,0.43159 0.90865,0.83314 1.27383,1.19905c2.44005,2.44491 4.77224,5.29458 6.69686,8.17847l0.5678,0.53347c0,0 0.88388,0.88388 0,1.76777z" fill="#c85b25" stroke="none" stroke-width="0.5" stroke-linecap="butt"/><path d="M96.8552,273.49476l3.99509,-21.14862l26.90773,-2.56575l-3.47269,7.34044l0.40262,12.59223l-4.70724,4.67352l-6.34267,-4.15338l-9.01537,9.07477z" fill="#606060" stroke="#606060" stroke-width="1.5" stroke-linecap="round"/><path d="M374.45698,207.6595c0.97293,-1.76575 2.73867,-0.79283 2.73867,-0.79283c0.5658,0.31455 1.12215,0.64419 1.67043,0.98663c0.34677,0.09397 0.8116,0.29569 1.12461,0.7269c5.00479,3.34142 9.3914,7.65578 14.26227,11.10997c1.76153,1.2492 5.46438,2.10872 4.36938,5.69494c-0.71684,2.3477 -6.27806,2.16248 -7.82338,2.17232c-8.40017,0.05353 -16.60531,-1.33399 -20.73369,-9.16621c-4.36237,-5.20586 -1.50638,-10.08778 4.35792,-10.66861c0.01088,-0.02092 0.02215,-0.04196 0.0338,-0.06313z" data-paper-data="{&quot;index&quot;:null}" fill="#3a3430" stroke="none" stroke-width="0.5" stroke-linecap="butt"/><path d="M370.36583,216.41397c1.53172,-1.31084 2.84256,0.22088 2.84256,0.22088c0.41905,0.49344 0.82395,0.99766 1.21679,1.51102c0.29157,0.20992 0.65577,0.56222 0.79715,1.07596c3.51011,4.88795 6.09938,10.46933 9.44446,15.41577c1.20973,1.78887 4.37382,3.89561 2.08765,6.86772c-1.49662,1.94567 -6.63752,-0.18334 -8.08762,-0.71755c-7.88247,-2.90386 -15.07562,-7.08815 -16.18607,-15.87187c-2.25308,-6.40741 2.13726,-9.97321 7.83125,-8.45472c0.01755,-0.01575 0.03548,-0.0315 0.05384,-0.0472z" data-paper-data="{&quot;index&quot;:null}" fill="#3a3430" stroke="none" stroke-width="0.5" stroke-linecap="butt"/><path d="M278.23855,209.30791c5.8643,0.58083 8.72029,5.46275 4.35792,10.66861c-4.12837,7.83221 -12.33352,9.21973 -20.73369,9.16619c-1.54533,-0.00985 -7.10654,0.17537 -7.82338,-2.17232c-1.095,-3.58621 2.60785,-4.44574 4.36938,-5.69493c4.87087,-3.4542 9.25748,-7.76856 14.26227,-11.10997c0.313,-0.43121 0.77784,-0.63293 1.12461,-0.7269c0.54827,-0.34244 1.10463,-0.67206 1.67043,-0.98663c0,0 1.76574,-0.97292 2.73867,0.79283c0.01166,0.02116 0.02292,0.04219 0.03379,0.06313z" fill="#3a3430" stroke="none" stroke-width="0.5" stroke-linecap="butt"/><path d="M282.34973,218.04647c5.69399,-1.51849 10.08432,2.04731 7.83125,8.45472c-1.11045,8.78372 -8.3036,12.968 -16.18608,15.87186c-1.4501,0.53422 -6.59098,2.66323 -8.08761,0.71755c-2.28617,-2.9721 0.87791,-5.07885 2.08764,-6.86771c3.34508,-4.94644 5.93435,-10.52782 9.44446,-15.41577c0.14138,-0.51373 0.50558,-0.86604 0.79715,-1.07596c0.39284,-0.51336 0.79774,-1.01757 1.21679,-1.511c0,0 1.31084,-1.53173 2.84256,-0.22088c0.01835,0.0157 0.03629,0.03145 0.05384,0.04721z" fill="#3a3430" stroke="none" stroke-width="0.5" stroke-linecap="butt"/><path d="M373.69149,261.45809c1.30136,-1.30136 2.60272,0 2.60272,0c0.41629,0.41945 0.82046,0.84972 1.2143,1.28916c0.28022,0.17042 0.63661,0.4653 0.80162,0.92287c3.54034,4.20043 6.29164,9.09709 9.68592,13.36243c1.22753,1.54255 4.25625,3.23618 2.38573,6.10287c-1.22453,1.87666 -6.05397,0.30255 -7.41153,-0.08109c-7.37944,-2.08542 -14.22206,-5.38495 -15.85393,-13.30074c-2.50374,-5.67223 1.23985,-9.22806 6.52952,-8.24873c0.01486,-0.01559 0.03006,-0.03119 0.04567,-0.04678z" data-paper-data="{&quot;index&quot;:null}" fill="#3a3430" stroke="none" stroke-width="0.5" stroke-linecap="butt"/><path d="M370.96977,274.27206c1.67587,-0.76061 2.43648,0.91527 2.43648,0.91527c0.2422,0.53905 0.46924,1.08397 0.68339,1.63383c0.20238,0.25807 0.43231,0.65945 0.42587,1.14582c1.83711,5.17713 2.69075,10.72855 4.36831,15.91507c0.60668,1.87569 2.84637,4.52622 0.08725,6.55203c-1.80625,1.32619 -5.77369,-1.84567 -6.90963,-2.68221c-6.17477,-4.54723 -11.42006,-10.04227 -10.16406,-18.02633c-0.34916,-6.19039 4.40576,-8.20266 9.01318,-5.42574c0.01939,-0.00936 0.03911,-0.01861 0.0592,-0.02773z" data-paper-data="{&quot;index&quot;:null}" fill="#3a3430" stroke="none" stroke-width="0.5" stroke-linecap="butt"/><path d="M281.81076,264.63415c5.28966,-0.97933 9.03326,2.5765 6.52952,8.24873c-1.63187,7.9158 -8.47449,11.21532 -15.85393,13.30074c-1.35756,0.38364 -6.18699,1.95776 -7.41152,0.08109c-1.87052,-2.86669 1.1582,-4.56033 2.38573,-6.10287c3.39428,-4.26533 6.14558,-9.162 9.68592,-13.36243c0.165,-0.45757 0.5214,-0.75245 0.80162,-0.92287c0.39383,-0.43945 0.79801,-0.86971 1.2143,-1.28916c0,0 1.30136,-1.30136 2.60272,0c0.01559,0.01559 0.03081,0.03119 0.04567,0.04678z" fill="#3a3430" stroke="none" stroke-width="0.5" stroke-linecap="butt"/><path d="M289.17798,272.02511c4.60743,-2.77692 9.36234,-0.76465 9.01318,5.42574c1.256,7.98407 -3.98929,13.4791 -10.16405,18.02633c-1.13594,0.83654 -5.10338,4.0084 -6.90963,2.68221c-2.75914,-2.02581 -0.51943,-4.67634 0.08725,-6.55203c1.67756,-5.18653 2.53119,-10.73794 4.36831,-15.91507c-0.00644,-0.48637 0.2235,-0.88775 0.42587,-1.14582c0.21415,-0.54986 0.44121,-1.09479 0.6834,-1.63385c0,0 0.76061,-1.67587 2.43648,-0.91526c0.02008,0.00912 0.0398,0.01835 0.0592,0.02773z" fill="#3a3430" stroke="none" stroke-width="0.5" stroke-linecap="butt"/><path d="M324.11494,260.93282c0,16.20172 -9.67775,29.33582 -21.61586,29.33582c-11.93812,0 -21.61587,-13.13409 -21.61587,-29.33582c0,-16.20172 9.67775,-29.3358 21.61587,-29.3358c11.93811,0 21.61586,13.13408 21.61586,29.33582z" fill="url(#color-8)" stroke="none" stroke-width="0" stroke-linecap="butt"/><path d="M379.69858,260.93282c0,16.62808 -11.75155,30.10781 -26.24783,30.10781c-14.49627,0 -26.24782,-13.47972 -26.24782,-30.10781c0,-16.62808 11.75155,-30.1078 26.24782,-30.1078c14.49628,0 26.24783,13.47972 26.24783,30.10781z" fill="url(#color-9)" stroke="none" stroke-width="0" stroke-linecap="butt"/><path d="M290.91914,154.03002l20.07187,-61.75961l11.57993,-50.17967l18.52789,69.47956l28.56382,64.0756l-84.14747,11.57993z" fill="url(#color-10)" stroke="#e50000" stroke-width="0" stroke-linecap="round"/><path d="M382.01457,213.84112c0,36.66706 -25.4041,66.39158 -56.74164,66.39158c-31.33754,0 -56.74163,-29.72452 -56.74163,-66.39158c0,-36.66706 25.4041,-79.51549 56.74164,-79.51549c31.33754,0 56.74164,42.84843 56.74164,79.51549z" fill="url(#color-11)" stroke="none" stroke-width="0" stroke-linecap="butt"/><path d="M358.26319,186.42153c0,31.55072 -14.68944,57.12763 -32.80979,57.12763c-18.12035,0 -32.80979,-25.57691 -32.80979,-57.12763c0,-31.55072 14.68944,-57.12763 32.80979,-57.12763c18.12035,0 32.80979,25.57692 32.80979,57.12765z" fill="#b66124" stroke="none" stroke-width="0" stroke-linecap="butt"/><path d="M368.89065,255.14287c0,26.22121 -13.97426,46.7057 -41.68773,46.7057c-27.71347,0 -39.37176,-21.25649 -39.37176,-47.4777c0,-26.22121 11.65828,-47.4777 39.37176,-47.4777c27.71347,0 41.68773,22.02849 41.68773,48.2497z" fill="url(#color-12)" stroke="none" stroke-width="0" stroke-linecap="butt"/><path d="M362.00314,293.13434c0,14.49627 -12.78208,24.07676 -30.47605,24.07676c-17.69398,0 -33.59953,-9.58049 -33.59953,-24.07676c0,-14.49628 14.34381,-26.24783 32.03779,-26.24783c17.69398,0 32.03779,11.75155 32.03779,26.24783z" fill="url(#color-13)" stroke="none" stroke-width="0" stroke-linecap="butt"/><path d="M357.55726,198.28804c1.36062,0.36701 3.30198,1.41432 3.30198,4.40301c0,4.601 -4.601,4.601 -4.601,4.601l-4.02538,-1.3476c-5.14393,-5.14393 -10.69687,-8.68349 -18.15263,-9.4948c-3.74486,-0.4075 -7.63796,0.36383 -11.39725,0.0188c-3.96656,-0.36406 -6.5638,-0.73793 -10.47923,0.53864c-4.36081,1.42177 -8.25707,5.12121 -11.85651,7.82079c0,0 -3.6808,2.7606 -6.4414,-0.9202c-2.7606,-3.6808 0.9202,-6.4414 0.9202,-6.4414c4.44691,-3.33517 9.03646,-7.35147 14.39132,-9.1631c5.02038,-1.69847 9.12198,-1.46486 14.2246,-1.00536c3.88419,0.34979 7.88083,-0.41895 11.7626,0.0188c8.87314,1.00063 16.06397,5.03083 22.3527,10.97145z" fill="#5f3768" stroke="none" stroke-width="0.5" stroke-linecap="butt"/><path d="M362.25504,176.88783c-2.7606,3.6808 -6.4414,0.9202 -6.4414,0.9202l-3.08798,-2.31598c-11.21652,-8.50731 -27.19093,-11.44915 -40.35602,-6.3373c-5.38999,2.09287 -9.81514,7.55724 -14.3384,10.96927c0,0 -3.6808,2.7606 -6.4414,-0.9202c-2.7606,-3.6808 0.9202,-6.4414 0.9202,-6.4414c5.39565,-4.01917 10.16246,-9.58704 16.54139,-12.19057c16.01227,-6.53534 35.5205,-2.60493 49.19543,7.55861l3.08798,2.31598c0,0 3.6808,2.7606 0.9202,6.4414z" fill="#5f3768" stroke="none" stroke-width="0.5" stroke-linecap="butt"/><path d="M361.05564,150.04717c-3.2534,3.2534 -6.50679,0 -6.50679,0l-0.77199,-0.772c-2.23915,-2.23915 -4.47881,-4.47759 -6.70915,-6.72551c-3.3302,-2.50937 -8.7115,-6.24079 -12.98749,-6.62928c-3.58904,-0.32607 -7.41145,0.05395 -11.01776,0.03448c-3.08782,-0.01667 -7.56814,0.49142 -10.37454,1.86939c-1.57306,0.77239 -3.29128,3.15752 -4.54983,4.10409c-1.19918,0.90191 -2.64616,1.43387 -3.85997,2.31598c-2.70068,1.96268 -4.94283,5.99124 -6.9587,8.51164c0,0 -2.87421,3.59278 -6.467,0.71855c-3.59278,-2.87421 -0.71855,-6.46699 -0.71855,-6.46699c2.63326,-3.29079 5.09494,-7.41265 8.48121,-10.01626c1.18954,-0.91459 2.65831,-1.41741 3.85998,-2.31598c2.16525,-1.6191 3.84448,-3.94156 6.25809,-5.15985c3.95093,-1.99428 10.00158,-2.74271 14.3293,-2.76256c3.91368,-0.01796 8.26423,-0.44561 12.14209,0.03446c6.25883,0.77484 12.97048,5.13097 17.89232,8.81064c2.40058,2.38519 4.79387,4.7775 7.18677,7.1704l0.772,0.772c0,0 3.2534,3.2534 0,6.50679z" fill="#5f3768" stroke="none" stroke-width="0.5" stroke-linecap="butt"/><path d="M342.33136,105.10603c0,4.601 -4.601,4.601 -4.601,4.601h-0.77199c-9.58495,0 -19.0543,0.77199 -28.56382,0.77199c0,0 -4.601,0 -4.601,-4.601c0,-4.601 4.601,-4.601 4.601,-4.601c9.49856,0 18.98496,-0.77199 28.56382,-0.77199h0.77199c0,0 4.601,0 4.601,4.601z" fill="#5f3768" stroke="none" stroke-width="0.5" stroke-linecap="butt"/><path d="M335.38341,74.99822c0,4.601 -4.601,4.601 -4.601,4.601l-2.6599,-0.13737c-3.2844,-0.86715 -6.20388,-1.2597 -9.17838,0.42364c0,0 -4.11527,2.05763 -6.1729,-2.05763c-2.05763,-4.11526 2.05763,-6.1729 2.05763,-6.1729c5.32799,-2.48466 9.84385,-2.48532 15.52546,-1.12036l0.42809,-0.13737c0,0 4.601,0 4.601,4.601z" fill="#5f3768" stroke="none" stroke-width="0.5" stroke-linecap="butt"/><path d="M296.94219,217.03079c-0.49566,-4.13768 2.76138,-7.56186 6.44612,-10.13023c3.38616,-2.36026 6.81491,-2.48561 10.53862,-3.73327c3.81861,-1.27947 7.6096,-2.77816 11.66136,-3.27668c10.54716,-1.29771 20.68482,3.70023 30.1148,7.67338c1.66308,2.71908 5.06161,4.97071 4.98922,8.15724c-0.048,2.11296 -3.58583,2.25135 -5.25512,3.54763c-3.95098,3.0681 -7.13097,7.19254 -11.86946,9.41456c-2.31871,1.08731 -5.04996,0.86645 -7.59117,1.1841c-12.88606,1.61077 -27.75737,1.32615 -37.78335,-8.26109c0,0 -2.07932,-2.07932 -1.25102,-4.57564zM332.59289,209.11652c-1.61461,-0.23302 -3.24023,-0.31672 -4.87359,-0.19459c1.49428,0.11841 3.00416,0.19813 4.60711,0.19813c0.08431,0 0.17326,-0.00123 0.26648,-0.00353z" fill="#5f3768" stroke="none" stroke-width="0.5" stroke-linecap="butt"/><path d="M284.00318,181.71937c-1.08447,1.08446 -2.16892,0 -2.16892,0l-0.772,-0.772c-2.25245,-2.29254 -2.69436,-3.73381 -3.49138,-6.88845c0,0 -0.37197,-1.48788 1.11591,-1.85983c1.48788,-0.37197 1.85985,1.1159 1.85985,1.1159c0.67675,2.73916 0.7565,3.57797 2.68457,5.46347l0.772,0.772c0,0 1.08447,1.08446 0,2.16892z" fill="#5f3768" stroke="none" stroke-width="0.5" stroke-linecap="butt"/><path d="M281.6872,194.07128c-1.08447,1.08446 -2.16893,0 -2.16893,0l-0.772,-0.772c-2.64337,-2.66032 -5.53127,-6.33846 -7.23525,-9.66254c0,0 -0.68587,-1.37175 0.68588,-2.05763c1.37176,-0.68587 2.05763,0.68587 2.05763,0.68587c1.45771,3.01559 4.26319,6.48543 6.66067,8.86536l0.772,0.77199c0,0 1.08447,1.08446 0,2.16893z" fill="#5f3768" stroke="none" stroke-width="0.5" stroke-linecap="butt"/><path d="M375.09861,172.60247c1.08447,1.08446 0,2.16893 0,2.16893l-1.544,1.544c-1.65149,1.62478 -2.99282,2.3564 -5.03056,3.37527c0,0 -1.37176,0.68587 -2.05763,-0.68588c-0.68587,-1.37175 0.68588,-2.05763 0.68588,-2.05763c1.76081,-0.88041 2.83888,-1.3774 4.23338,-2.80069l1.544,-1.54398c0,0 1.08446,-1.08447 2.16893,0z" fill="#5f3768" stroke="none" stroke-width="0.5" stroke-linecap="butt"/><path d="M380.50257,185.72637c1.08447,1.08446 0,2.16893 0,2.16893l-1.17058,1.05927c-1.58723,0.67168 -2.17741,2.27764 -3.46139,3.57269c-2.13075,2.14912 -3.87912,3.57154 -6.57454,4.91925c0,0 -1.37176,0.68588 -2.05763,-0.68588c-0.68587,-1.37175 0.68587,-2.05763 0.68587,-2.05763c4.20985,-2.10494 6.20945,-6.40537 10.03593,-8.49195l0.37342,-0.48471c0,0 1.08446,-1.08446 2.16892,0z" fill="#5f3768" stroke="none" stroke-width="0.5" stroke-linecap="butt"/><path d="M305.82054,245.64593c1.89029,6.33248 0.77313,12.25689 -2.49524,13.23252c-3.26838,0.97563 -7.45032,-3.36695 -9.3406,-9.69943c-1.89029,-6.33248 -0.77313,-12.25689 2.49525,-13.23252c3.26838,-0.97563 7.4503,3.36695 9.3406,9.69943z" fill="#ffb44a" stroke="none" stroke-width="0" stroke-linecap="butt"/><path d="M360.41163,235.9052c3.26838,0.97563 4.38554,6.90004 2.49525,13.23252c-1.89029,6.33248 -6.07223,10.67506 -9.3406,9.69943c-3.26838,-0.97563 -4.38554,-6.90004 -2.49525,-13.23252c1.89029,-6.33248 6.07223,-10.67506 9.3406,-9.69943z" data-paper-data="{&quot;index&quot;:null}" fill="#ffb44a" stroke="none" stroke-width="0" stroke-linecap="butt"/><path d="M299.85155,258.7158c-1.53367,0 -1.53367,-1.53367 -1.53367,-1.53367l0.02086,-1.58887c0.9662,-5.67512 0.52394,-11.61185 1.33128,-17.34227c0,0 0.2169,-1.51826 1.73514,-1.30136c1.51826,0.21688 1.30136,1.73514 1.30136,1.73514c-0.8359,5.76214 -0.40613,11.69121 -1.34219,17.41275l0.02087,1.0846c0,0 0,1.53367 -1.53367,1.53367z" fill="#000000" stroke="none" stroke-width="0.5" stroke-linecap="butt"/><path d="M357.74782,258.18111c-1.53367,0 -1.53367,-1.53367 -1.53367,-1.53367c0,-5.73298 0,-12.99474 0,-18.71425c0,0 0,-1.53367 1.53367,-1.53367c1.53367,0 1.53367,1.53367 1.53367,1.53367c0,5.72091 0,11.37534 0,17.11017v1.60408c0,0 0,1.53367 -1.53367,1.53367z" fill="#000000" stroke="none" stroke-width="0.5" stroke-linecap="butt"/><path d="M293.87836,236.82682c-1.08447,-1.08446 0,-2.16892 0,-2.16892l0.3679,-0.3679c2.9261,-2.9261 3.62506,-2.6553 7.22876,-1.0514c1.31825,0.58673 2.84469,0.79391 3.9967,1.66279c3.70768,2.79645 4.28687,8.91661 4.98359,13.09694c0,0 0.25213,1.5128 -1.26066,1.76493c-0.15019,0.02503 -0.28795,0.03266 -0.41427,0.02612c-0.28114,2.51091 -0.90862,5.03776 -1.50737,7.43281l0.04579,0.03854c0,0 0,1.53367 -1.53367,1.53367c-1.53367,0 -1.53367,-1.53367 -1.53367,-1.53367l0.0458,-0.78248c1.3562,-5.42481 3.39857,-11.87483 -1.19619,-16.56487c-1.92885,-1.96885 -5.56787,-1.52023 -7.95048,-2.10044c0,0 -0.70752,-0.17689 -1.02481,-0.7746c-0.08214,-0.05888 -0.16478,-0.12891 -0.2474,-0.21155z" fill="#5f3768" stroke="none" stroke-width="0.5" stroke-linecap="butt"/><path d="M347.17031,248.55126c-0.66929,-3.34648 -1.25968,-6.73623 0.0734,-10.05096c2.57088,-6.39258 9.5963,-7.90605 14.85881,-3.98488c0,0 1.22693,0.9202 0.30673,2.14713c-0.27805,0.37072 -0.58409,0.54542 -0.87583,0.60871c-0.04497,0.83106 -0.87603,1.24659 -0.87603,1.24659c-2.09531,1.0357 -4.48256,1.50239 -6.11502,3.34993c-4.04568,4.57869 -3.25661,12.35678 0.76658,16.361l0.44919,1.49497c0,0 0,1.53367 -1.53367,1.53367c-1.16484,0 -1.44497,-0.88469 -1.51234,-1.31022c-2.47348,-2.73028 -3.82818,-6.50485 -3.87616,-10.29881z" fill="#5f3768" stroke="none" stroke-width="0.5" stroke-linecap="butt"/><path d="M326.61731,209.64238c-0.12075,-0.20743 -0.1987,-0.47524 -0.1987,-0.821c0,-1.53367 1.53367,-1.53367 1.53367,-1.53367h1.642c0.47774,0 3.6893,-0.02864 3.87094,0.11674c0.15414,0.12337 0.29661,0.2575 0.42978,0.40023l0.06778,-0.06778l1.642,1.64202l-0.40934,0.40934c0.23534,0.43171 0.47118,0.86293 0.74179,1.26204l-1.41692,0.43854v0.50822c-1.642,0 -4.92604,0 -6.56805,0c0,0 -1.53367,0 -1.53367,-1.53367c0,-0.34576 0.07796,-0.61358 0.1987,-0.821z" fill="#5f3768" stroke="none" stroke-width="0.5" stroke-linecap="butt"/><path d="M316.25004,294.34045c-1.08447,1.08447 -2.16893,0 -2.16893,0l-1.61548,-1.64349c-0.28515,-0.55554 -0.57032,-1.1111 -0.85547,-1.66664c0,0 -0.68588,-1.37175 0.68587,-2.05763c1.37176,-0.68587 2.05763,0.68588 2.05763,0.68588c0.2001,0.41496 0.40021,0.82992 0.60031,1.2449l1.29607,1.26806c0,0 1.08447,1.08446 0,2.16892z" fill="#030203" stroke="none" stroke-width="0.5" stroke-linecap="butt"/><path d="M353.37216,287.07634c1.08446,1.08446 0,2.16892 0,2.16892l-0.44059,0.3293c-1.17101,2.34202 -2.07144,4.33424 -3.92671,6.22167c0,0 -1.08446,1.08446 -2.16893,0c-1.08446,-1.08446 0,-2.16892 0,-2.16892c1.62188,-1.58683 2.34198,-3.40419 3.35213,-5.42449l1.01516,-1.12647c0,0 1.08446,-1.08446 2.16893,0z" fill="#030203" stroke="none" stroke-width="0.5" stroke-linecap="butt"/><path d="M289.40917,262.32577c-1.2761,-0.85073 -0.42537,-2.12681 -0.42537,-2.12681l1.04116,-1.56174c1.57085,-2.35629 2.74919,-4.5304 5.11058,-6.15174c0,0 1.27608,-0.85073 2.12681,0.42537c0.85073,1.27608 -0.42537,2.1268 -0.42537,2.1268c-1.98485,1.26974 -2.96033,3.35175 -4.25985,5.30102l-1.04116,1.56174c0,0 -0.85072,1.27608 -2.1268,0.42537z" fill="#5f3768" stroke="none" stroke-width="0.5" stroke-linecap="butt"/><path d="M369.43133,259.01066c-1.08447,1.08446 -2.16892,0 -2.16892,0l-1.23279,-1.27491c-1.26973,-1.98486 -3.35175,-2.96034 -5.30101,-4.25986c0,0 -1.27608,-0.85072 -0.42535,-2.12681c0.85073,-1.27608 2.1268,-0.42537 2.1268,-0.42537c2.35629,1.57087 4.5304,2.74919 6.15174,5.11058l0.84954,0.80742c0,0 1.08447,1.08446 0,2.16893z" fill="#5f3768" stroke="none" stroke-width="0.5" stroke-linecap="butt"/><path d="M349.7256,311.19945c0,3.70571 -8.39774,6.70979 -18.75689,6.70979c-10.35914,0 -18.75689,-3.00407 -18.75689,-6.70979c0,-3.70571 8.39774,-6.70979 18.75689,-6.70979c10.35914,0 18.75689,3.00407 18.75689,6.70979z" fill="#4d280f" stroke="none" stroke-width="0" stroke-linecap="butt"/><g fill="#f0f0f0" stroke="none" stroke-width="0" stroke-linecap="butt"><path d="M324.81636,314.17204c0.73665,-2.04208 1.46436,-4.08639 2.49643,-6.09481h2.3991c0.79703,1.56273 1.84883,3.11981 2.45414,4.71039c0.09171,0.24099 0.25753,0.82511 0.54971,1.38443c0,0 -2.48977,3.65988 -3.77614,3.65988c-1.3442,0 -4.12322,-3.65988 -4.12322,-3.65988z"/><path d="M338.11181,313.0057c0.94479,-1.3503 2.08149,-2.65096 2.98658,-4.00037c0.19159,-0.28564 0.54635,-0.60623 0.8117,-0.92811h0.22702c0.49663,0.65802 1.27934,1.36524 1.50891,1.64116c1.25569,1.50923 2.536,2.98218 3.85872,4.45366c0,0 -3.64914,2.85198 -5.25197,2.85198c-1.72296,0 -4.75147,-2.85198 -4.75147,-2.85198c0.27178,-0.36976 0.34912,-0.79273 0.61053,-1.16633z"/><path d="M335.29977,312.36875c-0.19435,-0.34853 -0.40497,-0.65584 -0.4679,-0.79903c-0.51501,-1.17198 -1.14025,-2.33163 -1.74383,-3.4925c0,0 1.15373,-2.85198 2.03477,-2.85198c0.87917,0 3.24586,2.85198 3.24586,2.85198c-1.14648,1.4154 -2.1318,2.8838 -3.0689,4.29153z"/><path d="M348.66058,308.07721v4.77327c-1.08921,-1.22629 -2.14755,-2.45783 -3.19449,-3.71644c-0.05916,-0.07113 -0.43329,-0.5232 -0.87815,-1.05683z"/><path d="M321.61643,314.17204c-0.42856,-0.50195 -0.86909,-1.00602 -1.34873,-1.51093c-1.48066,-1.5586 -3.20699,-3.06374 -4.86311,-4.58388c0,0 3.25714,-1.83342 4.84721,-1.83342c1.23401,0 3.8987,1.83342 3.8987,1.83342c-0.99266,2.01153 -1.71228,4.0545 -2.45341,6.09481z"/><path d="M312.66063,314.17204v-5.40864c1.64529,1.50941 3.35956,3.00414 4.83041,4.55158c0.27183,0.28599 0.53176,2.60888 0.78443,2.89419z"/></g></g></g></svg>