<svg version="1.1" xmlns="http://www.w3.org/2000/svg" xmlns:xlink="http://www.w3.org/1999/xlink" width="55.03629" height="55.29554" viewBox="0,0,55.03629,55.29554"><defs><radialGradient cx="240" cy="179.99999" r="23.81496" gradientUnits="userSpaceOnUse" id="color-1"><stop offset="0" stop-color="#00b5ff"/><stop offset="1" stop-color="#00b5ff" stop-opacity="0"/></radialGradient><radialGradient cx="240.68642" cy="160.4794" r="8.12718" gradientUnits="userSpaceOnUse" id="color-2"><stop offset="0" stop-color="#00eeff"/><stop offset="1" stop-color="#0064ff"/></radialGradient><radialGradient cx="255.02658" cy="165.17443" r="5.79526" gradientUnits="userSpaceOnUse" id="color-3"><stop offset="0" stop-color="#00eeff"/><stop offset="1" stop-color="#0064ff"/></radialGradient><radialGradient cx="260.40086" cy="178.80904" r="7.11729" gradientUnits="userSpaceOnUse" id="color-4"><stop offset="0" stop-color="#00eeff"/><stop offset="1" stop-color="#0064ff"/></radialGradient><radialGradient cx="254.61003" cy="194.24984" r="6.25606" gradientUnits="userSpaceOnUse" id="color-5"><stop offset="0" stop-color="#00eeff"/><stop offset="1" stop-color="#0064ff"/></radialGradient><radialGradient cx="239.92829" cy="200.38855" r="7.25923" gradientUnits="userSpaceOnUse" id="color-6"><stop offset="0" stop-color="#00eeff"/><stop offset="1" stop-color="#0064ff"/></radialGradient><radialGradient cx="219.07684" cy="181.2896" r="6.59498" gradientUnits="userSpaceOnUse" id="color-7"><stop offset="0" stop-color="#00eeff"/><stop offset="1" stop-color="#0064ff"/></radialGradient><radialGradient cx="225.17417" cy="165.22976" r="7.01159" gradientUnits="userSpaceOnUse" id="color-8"><stop offset="0" stop-color="#00eeff"/><stop offset="1" stop-color="#0064ff"/></radialGradient><radialGradient cx="224.77394" cy="193.71473" r="6.49583" gradientUnits="userSpaceOnUse" id="color-9"><stop offset="0" stop-color="#00eeff"/><stop offset="1" stop-color="#0064ff"/></radialGradient><radialGradient cx="240.68642" cy="160.4794" r="8.12718" gradientUnits="userSpaceOnUse" id="color-10"><stop offset="0" stop-color="#00eeff"/><stop offset="1" stop-color="#0064ff"/></radialGradient><radialGradient cx="255.02658" cy="165.17443" r="5.79526" gradientUnits="userSpaceOnUse" id="color-11"><stop offset="0" stop-color="#00eeff"/><stop offset="1" stop-color="#0064ff"/></radialGradient><radialGradient cx="260.40086" cy="178.80904" r="7.11729" gradientUnits="userSpaceOnUse" id="color-12"><stop offset="0" stop-color="#00eeff"/><stop offset="1" stop-color="#0064ff"/></radialGradient><radialGradient cx="254.61003" cy="194.24984" r="6.25606" gradientUnits="userSpaceOnUse" id="color-13"><stop offset="0" stop-color="#00eeff"/><stop offset="1" stop-color="#0064ff"/></radialGradient><radialGradient cx="239.92829" cy="200.38855" r="7.25923" gradientUnits="userSpaceOnUse" id="color-14"><stop offset="0" stop-color="#00eeff"/><stop offset="1" stop-color="#0064ff"/></radialGradient><radialGradient cx="219.07684" cy="181.2896" r="6.59498" gradientUnits="userSpaceOnUse" id="color-15"><stop offset="0" stop-color="#00eeff"/><stop offset="1" stop-color="#0064ff"/></radialGradient><radialGradient cx="225.17417" cy="165.22976" r="7.01159" gradientUnits="userSpaceOnUse" id="color-16"><stop offset="0" stop-color="#00eeff"/><stop offset="1" stop-color="#0064ff"/></radialGradient><radialGradient cx="224.77394" cy="193.71473" r="6.49583" gradientUnits="userSpaceOnUse" id="color-17"><stop offset="0" stop-color="#00eeff"/><stop offset="1" stop-color="#0064ff"/></radialGradient><radialGradient cx="234.48753" cy="166.46883" r="6.07934" gradientUnits="userSpaceOnUse" id="color-18"><stop offset="0" stop-color="#74f6ff"/><stop offset="1" stop-color="#0048b3"/></radialGradient><radialGradient cx="245.71176" cy="165.27907" r="4.33501" gradientUnits="userSpaceOnUse" id="color-19"><stop offset="0" stop-color="#74f6ff"/><stop offset="1" stop-color="#0048b3"/></radialGradient><radialGradient cx="253.55664" cy="172.93671" r="5.32391" gradientUnits="userSpaceOnUse" id="color-20"><stop offset="0" stop-color="#74f6ff"/><stop offset="1" stop-color="#0048b3"/></radialGradient><radialGradient cx="254.33585" cy="185.24775" r="4.67969" gradientUnits="userSpaceOnUse" id="color-21"><stop offset="0" stop-color="#74f6ff"/><stop offset="1" stop-color="#0048b3"/></radialGradient><radialGradient cx="246.19786" cy="193.9351" r="5.43009" gradientUnits="userSpaceOnUse" id="color-22"><stop offset="0" stop-color="#74f6ff"/><stop offset="1" stop-color="#0048b3"/></radialGradient><radialGradient cx="226.11716" cy="187.29061" r="4.93322" gradientUnits="userSpaceOnUse" id="color-23"><stop offset="0" stop-color="#74f6ff"/><stop offset="1" stop-color="#0048b3"/></radialGradient><radialGradient cx="225.35744" cy="174.46324" r="5.24485" gradientUnits="userSpaceOnUse" id="color-24"><stop offset="0" stop-color="#74f6ff"/><stop offset="1" stop-color="#0048b3"/></radialGradient><radialGradient cx="233.81177" cy="194.024" r="4.85904" gradientUnits="userSpaceOnUse" id="color-25"><stop offset="0" stop-color="#74f6ff"/><stop offset="1" stop-color="#0048b3"/></radialGradient><radialGradient cx="234.48753" cy="166.46883" r="6.07934" gradientUnits="userSpaceOnUse" id="color-26"><stop offset="0" stop-color="#74f6ff"/><stop offset="1" stop-color="#0048b3"/></radialGradient><radialGradient cx="245.71176" cy="165.27907" r="4.33501" gradientUnits="userSpaceOnUse" id="color-27"><stop offset="0" stop-color="#74f6ff"/><stop offset="1" stop-color="#0048b3"/></radialGradient><radialGradient cx="253.55664" cy="172.93671" r="5.32391" gradientUnits="userSpaceOnUse" id="color-28"><stop offset="0" stop-color="#74f6ff"/><stop offset="1" stop-color="#0048b3"/></radialGradient><radialGradient cx="254.33585" cy="185.24775" r="4.67969" gradientUnits="userSpaceOnUse" id="color-29"><stop offset="0" stop-color="#74f6ff"/><stop offset="1" stop-color="#0048b3"/></radialGradient><radialGradient cx="246.19786" cy="193.9351" r="5.43009" gradientUnits="userSpaceOnUse" id="color-30"><stop offset="0" stop-color="#74f6ff"/><stop offset="1" stop-color="#0048b3"/></radialGradient><radialGradient cx="226.11716" cy="187.29061" r="4.93322" gradientUnits="userSpaceOnUse" id="color-31"><stop offset="0" stop-color="#74f6ff"/><stop offset="1" stop-color="#0048b3"/></radialGradient><radialGradient cx="225.35744" cy="174.46324" r="5.24485" gradientUnits="userSpaceOnUse" id="color-32"><stop offset="0" stop-color="#74f6ff"/><stop offset="1" stop-color="#0048b3"/></radialGradient><radialGradient cx="233.81177" cy="194.024" r="4.85904" gradientUnits="userSpaceOnUse" id="color-33"><stop offset="0" stop-color="#74f6ff"/><stop offset="1" stop-color="#0048b3"/></radialGradient></defs><g transform="translate(-212.48186,-152.35223)"><g data-paper-data="{&quot;isPaintingLayer&quot;:true}" fill-rule="nonzero" stroke="none" stroke-width="0" stroke-linecap="butt" stroke-linejoin="miter" stroke-miterlimit="10" stroke-dasharray="" stroke-dashoffset="0" style="mix-blend-mode: normal"><path d="M263.81496,179.99999c0,12.57131 -10.66232,22.76237 -23.81496,22.76237c-13.15264,0 -23.81496,-10.19106 -23.81496,-22.76237c0,-12.57131 10.66232,-22.76237 23.81496,-22.76237c13.15264,0 23.81496,10.19106 23.81496,22.76237z" fill="url(#color-1)"/><path d="M240.70833,168.60657c0,0 -8.55319,-16.61071 -0.28012,-16.2485c9.10842,0.3988 0.28012,16.24851 0.28012,16.24851z" fill="url(#color-2)"/><path d="M249.23132,170.02411c0,0 6.93331,-14.07746 10.82537,-8.31319c4.28504,6.34633 -10.82537,8.31319 -10.82537,8.31319z" fill="url(#color-3)"/><path d="M253.28358,179.38299c0,0 14.16999,-8.26653 14.23431,-0.99572c0.07077,8.00502 -14.23431,0.99572 -14.23431,0.99572z" fill="url(#color-4)"/><path d="M248.35397,189.59456c0,0 16.05546,1.90307 11.79173,7.66268c-4.69416,6.34103 -11.79173,-7.66268 -11.79173,-7.66268z" fill="url(#color-5)"/><path d="M242.29197,193.12932c0,0 4.16021,16.34373 -3.04393,14.3498c-7.93149,-2.19529 3.04393,-14.3498 3.04393,-14.3498z" fill="url(#color-6)"/><path d="M225.67182,179.43563c0,0 -12.14296,9.50754 -13.13063,2.74374c-1.08736,-7.4467 13.13063,-2.74374 13.13063,-2.74374z" fill="url(#color-7)"/><path d="M230.74417,172.24135c0,0 -16.40718,-8.83672 -9.39811,-13.20656c7.71683,-4.81103 9.39811,13.20656 9.39811,13.20656z" fill="url(#color-8)"/><path d="M231.26977,189.88261c0,0 -10.06406,12.45658 -12.64377,5.8442c-2.84016,-7.28012 12.64377,-5.8442 12.64377,-5.8442z" fill="url(#color-9)"/><path d="M240.70833,168.60657c0,0 -8.55319,-16.61071 -0.28012,-16.2485c9.10842,0.3988 0.28012,16.24851 0.28012,16.24851z" fill="url(#color-10)"/><path d="M249.23132,170.02411c0,0 6.93331,-14.07746 10.82537,-8.31319c4.28504,6.34633 -10.82537,8.31319 -10.82537,8.31319z" fill="url(#color-11)"/><path d="M253.28358,179.38299c0,0 14.16999,-8.26653 14.23431,-0.99572c0.07077,8.00502 -14.23431,0.99572 -14.23431,0.99572z" fill="url(#color-12)"/><path d="M248.35397,189.59456c0,0 16.05546,1.90307 11.79173,7.66268c-4.69416,6.34103 -11.79173,-7.66268 -11.79173,-7.66268z" fill="url(#color-13)"/><path d="M242.29197,193.12932c0,0 4.16021,16.34373 -3.04393,14.3498c-7.93149,-2.19529 3.04393,-14.3498 3.04393,-14.3498z" fill="url(#color-14)"/><path d="M225.67182,179.43563c0,0 -12.14296,9.50754 -13.13063,2.74374c-1.08736,-7.4467 13.13063,-2.74374 13.13063,-2.74374z" fill="url(#color-15)"/><path d="M230.74417,172.24135c0,0 -16.40718,-8.83672 -9.39811,-13.20656c7.71683,-4.81103 9.39811,13.20656 9.39811,13.20656z" fill="url(#color-16)"/><path d="M231.26977,189.88261c0,0 -10.06406,12.45658 -12.64377,5.8442c-2.84016,-7.28012 12.64377,-5.8442 12.64377,-5.8442z" fill="url(#color-17)"/><path d="M236.99255,172.0081c0,0 -10.92601,-8.71455 -5.16949,-11.00214c6.33777,-2.51857 5.16949,11.00216 5.16949,11.00216z" fill="url(#color-18)"/><path d="M243.24295,170.36408c0,0 0.41812,-11.73073 4.84017,-8.98968c4.86855,3.01785 -4.84017,8.98968 -4.84017,8.98968z" fill="url(#color-19)"/><path d="M248.87566,175.50902c0,0 7.13684,-9.98259 9.40841,-5.0407c2.50093,5.44094 -9.40841,5.0407 -9.40841,5.0407z" fill="url(#color-20)"/><path d="M248.6404,183.98777c0,0 11.53933,-3.62055 10.39443,1.61616c-1.26048,5.76536 -10.39443,-1.61616 -10.39443,-1.61616z" fill="url(#color-21)"/><path d="M245.58671,188.2572c0,0 7.84644,9.87831 2.31942,10.72491c-6.08505,0.93205 -2.31942,-10.72491 -2.31942,-10.72491z" fill="url(#color-22)"/><path d="M230.04954,184.00485c0,0 -5.37335,10.20839 -8.11969,5.8954c-3.02359,-4.74847 8.11969,-5.8954 8.11969,-5.8954z" fill="url(#color-23)"/><path d="M231.30667,177.54137c0,0 -13.90372,-1.00323 -10.45958,-6.13269c3.79192,-5.64738 10.45958,6.13269 10.45958,6.13269z" fill="url(#color-24)"/><path d="M237.0704,189.41872c0,0 -3.05117,11.58387 -6.83752,7.86197c-4.16867,-4.09775 6.83752,-7.86197 6.83752,-7.86197z" fill="url(#color-25)"/><path d="M236.99255,172.0081c0,0 -10.92601,-8.71455 -5.16949,-11.00214c6.33777,-2.51857 5.16949,11.00216 5.16949,11.00216z" fill="url(#color-26)"/><path d="M243.24295,170.36408c0,0 0.41812,-11.73073 4.84017,-8.98968c4.86855,3.01785 -4.84017,8.98968 -4.84017,8.98968z" fill="url(#color-27)"/><path d="M248.87566,175.50902c0,0 7.13684,-9.98259 9.40841,-5.0407c2.50093,5.44094 -9.40841,5.0407 -9.40841,5.0407z" fill="url(#color-28)"/><path d="M248.6404,183.98777c0,0 11.53933,-3.62055 10.39443,1.61616c-1.26048,5.76536 -10.39443,-1.61616 -10.39443,-1.61616z" fill="url(#color-29)"/><path d="M245.58671,188.2572c0,0 7.84644,9.87831 2.31942,10.72491c-6.08505,0.93205 -2.31942,-10.72491 -2.31942,-10.72491z" fill="url(#color-30)"/><path d="M230.04954,184.00485c0,0 -5.37335,10.20839 -8.11969,5.8954c-3.02359,-4.74847 8.11969,-5.8954 8.11969,-5.8954z" fill="url(#color-31)"/><path d="M231.30667,177.54137c0,0 -13.90372,-1.00323 -10.45958,-6.13269c3.79192,-5.64738 10.45958,6.13269 10.45958,6.13269z" fill="url(#color-32)"/><path d="M237.0704,189.41872c0,0 -3.05117,11.58387 -6.83752,7.86197c-4.16867,-4.09775 6.83752,-7.86197 6.83752,-7.86197z" fill="url(#color-33)"/></g></g></svg>