<svg version="1.1" xmlns="http://www.w3.org/2000/svg" xmlns:xlink="http://www.w3.org/1999/xlink" width="50.59869" height="23.5779" viewBox="0,0,50.59869,23.5779"><g transform="translate(-214.70066,-168.21105)"><g data-paper-data="{&quot;isPaintingLayer&quot;:true}" fill-rule="nonzero" stroke="none" stroke-linecap="butt" stroke-linejoin="miter" stroke-miterlimit="10" stroke-dasharray="" stroke-dashoffset="0" style="mix-blend-mode: normal"><path d="M255.57827,189.23142c-6.16966,1.34274 -12.12135,-1.9347 -13.29346,-7.32037c-1.17212,-5.38567 2.87919,-10.84012 9.04885,-12.18287c4.24445,-0.92375 8.38573,0.33916 10.93861,2.97083c-3.86459,0.66886 -7.77065,1.12325 -11.61104,1.95906l-0.61719,0.13432c-0.68173,0.14837 -1.11411,0.8213 -0.96573,1.50303c0.09957,0.45751 0.4354,0.80273 0.85159,0.93546l0.61897,0.20934c0.85007,0.64129 1.92402,0.59369 2.84305,0.96151c0.36811,0.14733 0.71996,0.33261 1.07711,0.50543c-0.15096,0.08895 -0.30024,0.18058 -0.44576,0.27808c-1.15789,0.77582 -2.1349,1.78343 -3.22056,2.6602l-0.50632,0.34254c-0.43071,0.27708 -0.66619,0.80161 -0.55089,1.33146c0.13485,0.61958 0.70296,1.03319 1.31719,0.99209l0.64216,-0.03158c0.30802,0.08732 0.64533,0.14053 1.07619,0.15131c0.68854,0.01723 3.68847,-0.44429 3.72469,-0.4493c1.72787,-0.23904 3.52276,-0.49636 5.26315,-0.59355c0.59437,-0.0332 1.20238,-0.04109 1.81382,-0.05009c-1.54427,2.74027 -4.41607,4.91214 -8.00445,5.6931z" fill="#60efe0" stroke-width="0"/><path d="M255.11487,191.51829c-6.68201,1.32309 -13.03515,-2.33284 -14.19012,-8.16576c-1.15497,-5.83292 3.32559,-11.63402 10.0076,-12.95712c4.59693,-0.91023 9.0382,0.53602 11.73839,3.42643c-4.18202,0.64301 -8.40443,1.05386 -12.56374,1.87743l-0.66844,0.13236c-0.73835,0.1462 -1.21837,0.86326 -1.07218,1.60161c0.09811,0.49551 0.45334,0.87468 0.89957,1.0263l0.66339,0.23836c0.90389,0.70897 2.06325,0.67942 3.04709,1.09481c0.39406,0.16638 0.76982,0.37337 1.15154,0.56703c-0.16464,0.09287 -0.32751,0.18868 -0.48645,0.2909c-1.26469,0.81333 -2.33895,1.88033 -3.52777,2.80401l-0.55308,0.35919c-0.4702,0.29012 -0.73485,0.85112 -0.62122,1.42496c0.13287,0.67103 0.73726,1.1287 1.40062,1.09682l0.69329,-0.02104c0.33046,0.10044 0.69322,0.16467 1.15774,0.18505c0.74233,0.03255 3.98749,-0.40436 4.02668,-0.40902c1.86859,-0.22277 3.80982,-0.46388 5.68903,-0.5334c0.64177,-0.02374 1.29775,-0.01991 1.95745,-0.01722c-1.72131,2.92439 -4.86299,5.20874 -8.74936,5.97828z" fill="#0fb4a3" stroke-width="0"/><path d="M214.70066,181.67509l0.0449,-5.40247l32.68493,0.27161l-0.0449,5.40247z" fill="#a18a67" stroke-width="NaN"/><path d="M256.54996,189.60459c-6.68201,1.32309 -13.03515,-2.33284 -14.19012,-8.16576c-1.15497,-5.83292 3.32559,-11.63402 10.0076,-12.95712c4.59693,-0.91023 9.0382,0.53602 11.73839,3.42643c-4.18202,0.64301 -8.40443,1.05386 -12.56374,1.87743l-0.66844,0.13236c-0.73835,0.1462 -1.21837,0.86326 -1.07218,1.60161c0.09811,0.49551 0.45334,0.87468 0.89957,1.0263l0.66339,0.23836c0.90389,0.70897 2.06325,0.67942 3.04709,1.09481c0.39406,0.16638 0.76982,0.37337 1.15154,0.56703c-0.16464,0.09287 -0.32751,0.18868 -0.48645,0.2909c-1.26469,0.81333 -2.33895,1.88033 -3.52777,2.80401l-0.55308,0.35919c-0.4702,0.29012 -0.73485,0.85112 -0.62122,1.42496c0.13287,0.67103 0.73726,1.1287 1.40062,1.09682l0.69329,-0.02104c0.33046,0.10044 0.69322,0.16467 1.15774,0.18505c0.74233,0.03255 3.98749,-0.40436 4.02668,-0.40902c1.86859,-0.22277 3.80982,-0.46388 5.68903,-0.5334c0.64177,-0.02374 1.29775,-0.01991 1.95745,-0.01722c-1.72131,2.92439 -4.86299,5.20874 -8.74936,5.97828z" fill="#60efe0" stroke-width="0"/></g></g></svg>