<svg version="1.1" xmlns="http://www.w3.org/2000/svg" xmlns:xlink="http://www.w3.org/1999/xlink" width="32.47616" height="31.73002" viewBox="0,0,32.47616,31.73002"><defs><radialGradient cx="240.18864" cy="180.25079" r="16.04944" gradientUnits="userSpaceOnUse" id="color-1"><stop offset="0" stop-color="#00b5ff"/><stop offset="1" stop-color="#00b5ff" stop-opacity="0"/></radialGradient><radialGradient cx="234.82893" cy="170.04554" r="4.7962" gradientUnits="userSpaceOnUse" id="color-2"><stop offset="0" stop-color="#6effff"/><stop offset="1" stop-color="#87e2ff"/></radialGradient><radialGradient cx="243.55205" cy="168.25601" r="3.42004" gradientUnits="userSpaceOnUse" id="color-3"><stop offset="0" stop-color="#6effff"/><stop offset="1" stop-color="#87e2ff"/></radialGradient><radialGradient cx="250.29572" cy="173.67136" r="4.20022" gradientUnits="userSpaceOnUse" id="color-4"><stop offset="0" stop-color="#6effff"/><stop offset="1" stop-color="#87e2ff"/></radialGradient><radialGradient cx="251.84569" cy="183.27917" r="3.69197" gradientUnits="userSpaceOnUse" id="color-5"><stop offset="0" stop-color="#6effff"/><stop offset="1" stop-color="#87e2ff"/></radialGradient><radialGradient cx="246.11735" cy="190.72099" r="4.28399" gradientUnits="userSpaceOnUse" id="color-6"><stop offset="0" stop-color="#6effff"/><stop offset="1" stop-color="#87e2ff"/></radialGradient><radialGradient cx="229.84275" cy="187.03359" r="3.89199" gradientUnits="userSpaceOnUse" id="color-7"><stop offset="0" stop-color="#6effff"/><stop offset="1" stop-color="#87e2ff"/></radialGradient><radialGradient cx="228.26873" cy="177.01883" r="4.13784" gradientUnits="userSpaceOnUse" id="color-8"><stop offset="0" stop-color="#6effff"/><stop offset="1" stop-color="#87e2ff"/></radialGradient><radialGradient cx="236.39799" cy="191.73461" r="3.83347" gradientUnits="userSpaceOnUse" id="color-9"><stop offset="0" stop-color="#6effff"/><stop offset="1" stop-color="#87e2ff"/></radialGradient><radialGradient cx="234.82893" cy="170.04554" r="4.7962" gradientUnits="userSpaceOnUse" id="color-10"><stop offset="0" stop-color="#6effff"/><stop offset="1" stop-color="#87e2ff"/></radialGradient><radialGradient cx="243.55205" cy="168.25601" r="3.42004" gradientUnits="userSpaceOnUse" id="color-11"><stop offset="0" stop-color="#6effff"/><stop offset="1" stop-color="#87e2ff"/></radialGradient><radialGradient cx="250.29572" cy="173.67136" r="4.20022" gradientUnits="userSpaceOnUse" id="color-12"><stop offset="0" stop-color="#6effff"/><stop offset="1" stop-color="#87e2ff"/></radialGradient><radialGradient cx="251.84569" cy="183.27917" r="3.69197" gradientUnits="userSpaceOnUse" id="color-13"><stop offset="0" stop-color="#6effff"/><stop offset="1" stop-color="#87e2ff"/></radialGradient><radialGradient cx="246.11735" cy="190.72099" r="4.28399" gradientUnits="userSpaceOnUse" id="color-14"><stop offset="0" stop-color="#6effff"/><stop offset="1" stop-color="#87e2ff"/></radialGradient><radialGradient cx="229.84275" cy="187.03359" r="3.89199" gradientUnits="userSpaceOnUse" id="color-15"><stop offset="0" stop-color="#6effff"/><stop offset="1" stop-color="#87e2ff"/></radialGradient><radialGradient cx="228.26873" cy="177.01883" r="4.13784" gradientUnits="userSpaceOnUse" id="color-16"><stop offset="0" stop-color="#6effff"/><stop offset="1" stop-color="#87e2ff"/></radialGradient><radialGradient cx="236.39799" cy="191.73461" r="3.83347" gradientUnits="userSpaceOnUse" id="color-17"><stop offset="0" stop-color="#6effff"/><stop offset="1" stop-color="#87e2ff"/></radialGradient><radialGradient cx="233.40442" cy="174.92888" r="3.58768" gradientUnits="userSpaceOnUse" id="color-18"><stop offset="0" stop-color="#6effff"/><stop offset="1" stop-color="#87e2ff"/></radialGradient><radialGradient cx="238.80877" cy="171.03505" r="2.55828" gradientUnits="userSpaceOnUse" id="color-19"><stop offset="0" stop-color="#6effff"/><stop offset="1" stop-color="#87e2ff"/></radialGradient><radialGradient cx="245.06985" cy="172.6643" r="3.14187" gradientUnits="userSpaceOnUse" id="color-20"><stop offset="0" stop-color="#6effff"/><stop offset="1" stop-color="#87e2ff"/></radialGradient><radialGradient cx="249.07126" cy="178.74578" r="2.76169" gradientUnits="userSpaceOnUse" id="color-21"><stop offset="0" stop-color="#6effff"/><stop offset="1" stop-color="#87e2ff"/></radialGradient><radialGradient cx="247.44233" cy="185.57916" r="3.20453" gradientUnits="userSpaceOnUse" id="color-22"><stop offset="0" stop-color="#6effff"/><stop offset="1" stop-color="#87e2ff"/></radialGradient><radialGradient cx="235.20677" cy="188.04922" r="2.91131" gradientUnits="userSpaceOnUse" id="color-23"><stop offset="0" stop-color="#6effff"/><stop offset="1" stop-color="#87e2ff"/></radialGradient><radialGradient cx="231.06427" cy="181.69741" r="3.09521" gradientUnits="userSpaceOnUse" id="color-24"><stop offset="0" stop-color="#6effff"/><stop offset="1" stop-color="#87e2ff"/></radialGradient><radialGradient cx="241.1204" cy="189.24876" r="2.86753" gradientUnits="userSpaceOnUse" id="color-25"><stop offset="0" stop-color="#6effff"/><stop offset="1" stop-color="#87e2ff"/></radialGradient><radialGradient cx="233.40442" cy="174.92888" r="3.58768" gradientUnits="userSpaceOnUse" id="color-26"><stop offset="0" stop-color="#6effff"/><stop offset="1" stop-color="#87e2ff"/></radialGradient><radialGradient cx="238.80877" cy="171.03505" r="2.55828" gradientUnits="userSpaceOnUse" id="color-27"><stop offset="0" stop-color="#6effff"/><stop offset="1" stop-color="#87e2ff"/></radialGradient><radialGradient cx="245.06985" cy="172.6643" r="3.14187" gradientUnits="userSpaceOnUse" id="color-28"><stop offset="0" stop-color="#6effff"/><stop offset="1" stop-color="#87e2ff"/></radialGradient><radialGradient cx="249.07126" cy="178.74578" r="2.76169" gradientUnits="userSpaceOnUse" id="color-29"><stop offset="0" stop-color="#6effff"/><stop offset="1" stop-color="#87e2ff"/></radialGradient><radialGradient cx="247.44233" cy="185.57916" r="3.20453" gradientUnits="userSpaceOnUse" id="color-30"><stop offset="0" stop-color="#6effff"/><stop offset="1" stop-color="#87e2ff"/></radialGradient><radialGradient cx="235.20677" cy="188.04922" r="2.91131" gradientUnits="userSpaceOnUse" id="color-31"><stop offset="0" stop-color="#6effff"/><stop offset="1" stop-color="#87e2ff"/></radialGradient><radialGradient cx="231.06427" cy="181.69741" r="3.09521" gradientUnits="userSpaceOnUse" id="color-32"><stop offset="0" stop-color="#6effff"/><stop offset="1" stop-color="#87e2ff"/></radialGradient><radialGradient cx="241.1204" cy="189.24876" r="2.86753" gradientUnits="userSpaceOnUse" id="color-33"><stop offset="0" stop-color="#6effff"/><stop offset="1" stop-color="#87e2ff"/></radialGradient></defs><g transform="translate(-223.76192,-164.13499)"><g data-paper-data="{&quot;isPaintingLayer&quot;:true}" fill-rule="nonzero" stroke="none" stroke-width="0" stroke-linecap="butt" stroke-linejoin="miter" stroke-miterlimit="10" stroke-dasharray="" stroke-dashoffset="0" style="mix-blend-mode: normal"><path d="M256.23808,180.25079c0,8.47209 -7.18558,15.34007 -16.04944,15.34007c-8.86386,0 -16.04944,-6.86798 -16.04944,-15.34007c0,-8.47209 7.18558,-15.34007 16.04944,-15.34007c8.86386,0 16.04944,6.86798 16.04944,15.34007z" fill="url(#color-1)"/><path d="M237.21808,174.20435c0,0 -9.24365,-6.01051 -4.89769,-8.24547c4.78479,-2.46063 4.89769,8.24548 4.89769,8.24548z" fill="url(#color-2)"/><path d="M242.00091,172.43712c0,0 -0.56555,-9.24337 3.11571,-7.42793c4.05296,1.99877 -3.11571,7.42793 -3.11571,7.42793z" fill="url(#color-3)"/><path d="M246.81601,176.04795c0,0 4.8435,-8.38262 7.00381,-4.67511c2.37845,4.08191 -7.00381,4.67511 -7.00381,4.67511z" fill="url(#color-4)"/><path d="M247.27735,182.72377c0,0 8.78532,-3.72231 8.28533,0.47704c-0.55047,4.62327 -8.28533,-0.47704 -8.28533,-0.47704z" fill="url(#color-5)"/><path d="M245.20477,186.30902c0,0 6.91412,7.15901 2.63856,8.24496c-4.70725,1.19557 -2.63856,-8.24496 -2.63856,-8.24496z" fill="url(#color-6)"/><path d="M232.68025,184.1538c0,0 -3.44152,8.42555 -5.92672,5.24805c-2.73609,-3.49832 5.92672,-5.24805 5.92672,-5.24805z" fill="url(#color-7)"/><path d="M233.17489,178.98259c0,0 -10.99428,0.27169 -8.68066,-4.01865c2.54726,-4.72354 8.68066,4.01865 8.68066,4.01865z" fill="url(#color-8)"/><path d="M238.6059,187.87003c0,0 -1.51323,9.32869 -4.77005,6.6946c-3.58568,-2.90009 4.77005,-6.6946 4.77005,-6.6946z" fill="url(#color-9)"/><path d="M237.21808,174.20435c0,0 -9.24365,-6.01051 -4.89769,-8.24547c4.78479,-2.46063 4.89769,8.24548 4.89769,8.24548z" fill="url(#color-10)"/><path d="M242.00091,172.43712c0,0 -0.56555,-9.24337 3.11571,-7.42793c4.05296,1.99877 -3.11571,7.42793 -3.11571,7.42793z" fill="url(#color-11)"/><path d="M246.81601,176.04795c0,0 4.8435,-8.38262 7.00381,-4.67511c2.37845,4.08191 -7.00381,4.67511 -7.00381,4.67511z" fill="url(#color-12)"/><path d="M247.27735,182.72377c0,0 8.78532,-3.72231 8.28533,0.47704c-0.55047,4.62327 -8.28533,-0.47704 -8.28533,-0.47704z" fill="url(#color-13)"/><path d="M245.20477,186.30902c0,0 6.91412,7.15901 2.63856,8.24496c-4.70725,1.19557 -2.63856,-8.24496 -2.63856,-8.24496z" fill="url(#color-14)"/><path d="M232.68025,184.1538c0,0 -3.44152,8.42555 -5.92672,5.24805c-2.73609,-3.49832 5.92672,-5.24805 5.92672,-5.24805z" fill="url(#color-15)"/><path d="M233.17489,178.98259c0,0 -10.99428,0.27169 -8.68066,-4.01865c2.54726,-4.72354 8.68066,4.01865 8.68066,4.01865z" fill="url(#color-16)"/><path d="M238.6059,187.87003c0,0 -1.51323,9.32869 -4.77005,6.6946c-3.58568,-2.90009 4.77005,-6.6946 4.77005,-6.6946z" fill="url(#color-17)"/><path d="M236.30897,177.03484c0,0 -8.14941,-1.26943 -5.86849,-4.12612c2.51123,-3.14514 5.8685,4.12612 5.8685,4.12612z" fill="url(#color-18)"/><path d="M239.03131,174.36348c0,0 -3.21799,-6.1344 -0.14967,-6.02343c3.37814,0.12218 0.14967,6.02343 0.14967,6.02343z" fill="url(#color-19)"/><path d="M243.42345,175.35222c0,0 0.73687,-7.20428 3.34701,-5.33617c2.8737,2.05676 -3.34701,5.33617 -3.34701,5.33617z" fill="url(#color-20)"/><path d="M245.78367,179.76646c0,0 4.85463,-5.23183 5.80006,-2.213c1.04088,3.32358 -5.80006,2.213 -5.80006,2.213z" fill="url(#color-21)"/><path d="M245.46782,182.84804c0,0 6.91162,2.7669 4.3267,4.81793c-2.84591,2.25809 -4.3267,-4.81793 -4.3267,-4.81793z" fill="url(#color-22)"/><path d="M236.26076,185.21468c0,0 0.23299,6.80403 -2.43645,5.39714c-2.93895,-1.54895 2.43645,-5.39714 2.43645,-5.39714z" fill="url(#color-23)"/><path d="M235.0139,181.53429c0,0 -7.41925,3.55391 -7.15494,-0.08268c0.29102,-4.00378 7.15494,0.08268 7.15494,0.08268z" fill="url(#color-24)"/><path d="M241.44302,185.93509c0,0 1.82557,6.82953 -1.20394,6.02988c-3.33542,-0.88042 1.20394,-6.02988 1.20394,-6.02988z" fill="url(#color-25)"/><path d="M236.30897,177.03484c0,0 -8.14941,-1.26943 -5.86849,-4.12612c2.51123,-3.14514 5.8685,4.12612 5.8685,4.12612z" fill="url(#color-26)"/><path d="M239.03131,174.36348c0,0 -3.21799,-6.1344 -0.14967,-6.02343c3.37814,0.12218 0.14967,6.02343 0.14967,6.02343z" fill="url(#color-27)"/><path d="M243.42345,175.35222c0,0 0.73687,-7.20428 3.34701,-5.33617c2.8737,2.05676 -3.34701,5.33617 -3.34701,5.33617z" fill="url(#color-28)"/><path d="M245.78367,179.76646c0,0 4.85463,-5.23183 5.80006,-2.213c1.04088,3.32358 -5.80006,2.213 -5.80006,2.213z" fill="url(#color-29)"/><path d="M245.46782,182.84804c0,0 6.91162,2.7669 4.3267,4.81793c-2.84591,2.25809 -4.3267,-4.81793 -4.3267,-4.81793z" fill="url(#color-30)"/><path d="M236.26076,185.21468c0,0 0.23299,6.80403 -2.43645,5.39714c-2.93895,-1.54895 2.43645,-5.39714 2.43645,-5.39714z" fill="url(#color-31)"/><path d="M235.0139,181.53429c0,0 -7.41925,3.55391 -7.15494,-0.08268c0.29102,-4.00378 7.15494,0.08268 7.15494,0.08268z" fill="url(#color-32)"/><path d="M241.44302,185.93509c0,0 1.82557,6.82953 -1.20394,6.02988c-3.33542,-0.88042 1.20394,-6.02988 1.20394,-6.02988z" fill="url(#color-33)"/><path d="M235.22841,175.66881c0,0 -10.84551,-1.98649 -7.69566,-5.72294c3.46791,-4.11371 7.69566,5.72294 7.69566,5.72294z" fill="#00b5ff"/><path d="M238.96157,172.19576c0,0 -4.0821,-8.31241 0.01439,-8.05491c4.51013,0.28352 -0.01439,8.05491 -0.01439,8.05491z" fill="#00b5ff"/><path d="M244.79594,173.67342c0,0 1.24116,-9.60142 4.66279,-7.01201c3.76714,2.8509 -4.66279,7.01201 -4.66279,7.01201z" fill="#00b5ff"/><path d="M247.79296,179.65651c0,0 6.67384,-6.8189 7.82985,-2.75096c1.2727,4.4786 -7.82985,2.75096 -7.82985,2.75096z" fill="#00b5ff"/><path d="M247.26118,183.76343c0,0 9.13806,3.94364 5.61063,6.59258c-3.8836,2.91637 -5.61063,-6.59258 -5.61063,-6.59258z" fill="#00b5ff"/><path d="M234.87283,186.59845c0,0 0.06918,9.10106 -3.44813,7.1259c-3.87242,-2.17459 3.44813,-7.1259 3.44813,-7.1259z" fill="#00b5ff"/><path d="M233.33755,181.63568c0,0 -10.04142,4.48529 -9.55878,-0.36515c0.53142,-5.34021 9.55878,0.36515 9.55878,0.36515z" fill="#00b5ff"/><path d="M241.77265,187.74565c0,0 2.19656,9.19181 -1.82354,8.01535c-4.42604,-1.29529 1.82354,-8.01535 1.82354,-8.01535z" fill="#00b5ff"/><path d="M235.22841,175.66881c0,0 -10.84551,-1.98649 -7.69566,-5.72294c3.46791,-4.11371 7.69566,5.72294 7.69566,5.72294z" fill="#00b5ff"/><path d="M238.96157,172.19576c0,0 -4.0821,-8.31241 0.01439,-8.05491c4.51013,0.28352 -0.01439,8.05491 -0.01439,8.05491z" fill="#00b5ff"/><path d="M244.79594,173.67342c0,0 1.24116,-9.60142 4.66279,-7.01201c3.76714,2.8509 -4.66279,7.01201 -4.66279,7.01201z" fill="#00b5ff"/><path d="M247.79296,179.65651c0,0 6.67384,-6.8189 7.82985,-2.75096c1.2727,4.4786 -7.82985,2.75096 -7.82985,2.75096z" fill="#00b5ff"/><path d="M247.26118,183.76343c0,0 9.13806,3.94364 5.61063,6.59258c-3.8836,2.91637 -5.61063,-6.59258 -5.61063,-6.59258z" fill="#00b5ff"/><path d="M234.87283,186.59845c0,0 0.06918,9.10106 -3.44813,7.1259c-3.87242,-2.17459 3.44813,-7.1259 3.44813,-7.1259z" fill="#00b5ff"/><path d="M233.33755,181.63568c0,0 -10.04142,4.48529 -9.55878,-0.36515c0.53142,-5.34021 9.55878,0.36515 9.55878,0.36515z" fill="#00b5ff"/><path d="M241.77265,187.74565c0,0 2.19656,9.19181 -1.82354,8.01535c-4.42604,-1.29529 1.82354,-8.01535 1.82354,-8.01535z" fill="#00b5ff"/><path d="M235.47964,178.63108c0,0 -8.00961,1.96735 -7.00495,-1.54747c1.10611,-3.86972 7.00496,1.54748 7.00496,1.54748z" fill="#00b5ff"/><path d="M236.96304,175.11729c0,0 -5.33244,-4.42168 -2.45811,-5.50107c3.16458,-1.18837 2.45811,5.50107 2.45811,5.50107z" fill="#00b5ff"/><path d="M241.39715,174.33806c0,0 -2.09479,-6.93229 1.03349,-6.21363c3.44417,0.79124 -1.03349,6.21363 -1.03349,6.21363z" fill="#00b5ff"/><path d="M245.27546,177.50267c0,0 2.465,-6.698 4.50023,-4.27622c2.24068,2.66626 -4.50023,4.27622 -4.50023,4.27622z" fill="#00b5ff"/><path d="M246.17089,180.46815c0,0 7.44409,-0.10865 5.84857,2.77975c-1.75661,3.18002 -5.84857,-2.77975 -5.84857,-2.77975z" fill="#00b5ff"/><path d="M238.5857,186.19841c0,0 2.83566,6.18935 -0.16971,5.91917c-3.3088,-0.29747 0.16971,-5.91917 0.16971,-5.91917z" fill="#00b5ff"/><path d="M236.0175,183.28221c0,0 -5.47803,6.13733 -6.63478,2.6795c-1.27353,-3.80698 6.63478,-2.6795 6.63478,-2.6795z" fill="#00b5ff"/><path d="M243.64562,184.86724c0,0 4.3152,5.59948 1.21142,6.02838c-3.41719,0.47218 -1.21142,-6.02838 -1.21142,-6.02838z" fill="#00b5ff"/><path d="M235.47964,178.63108c0,0 -8.00961,1.96735 -7.00495,-1.54747c1.10611,-3.86972 7.00496,1.54748 7.00496,1.54748z" fill="#00b5ff"/><path d="M236.96304,175.11729c0,0 -5.33244,-4.42168 -2.45811,-5.50107c3.16458,-1.18837 2.45811,5.50107 2.45811,5.50107z" fill="#00b5ff"/><path d="M241.39715,174.33806c0,0 -2.09479,-6.93229 1.03349,-6.21363c3.44417,0.79124 -1.03349,6.21363 -1.03349,6.21363z" fill="#00b5ff"/><path d="M245.27546,177.50267c0,0 2.465,-6.698 4.50023,-4.27622c2.24068,2.66626 -4.50023,4.27622 -4.50023,4.27622z" fill="#00b5ff"/><path d="M246.17089,180.46815c0,0 7.44409,-0.10865 5.84857,2.77975c-1.75661,3.18002 -5.84857,-2.77975 -5.84857,-2.77975z" fill="#00b5ff"/><path d="M238.5857,186.19841c0,0 2.83566,6.18935 -0.16971,5.91917c-3.3088,-0.29747 0.16971,-5.91917 0.16971,-5.91917z" fill="#00b5ff"/><path d="M236.0175,183.28221c0,0 -5.47803,6.13733 -6.63478,2.6795c-1.27353,-3.80698 6.63478,-2.6795 6.63478,-2.6795z" fill="#00b5ff"/><path d="M243.64562,184.86724c0,0 4.3152,5.59948 1.21142,6.02838c-3.41719,0.47218 -1.21142,-6.02838 -1.21142,-6.02838z" fill="#00b5ff"/></g></g></svg>