<svg version="1.1" xmlns="http://www.w3.org/2000/svg" xmlns:xlink="http://www.w3.org/1999/xlink" width="115.86529" height="135.77422" viewBox="0,0,115.86529,135.77422"><defs><linearGradient x1="212.52553" y1="132.66291" x2="212.52553" y2="164.80534" gradientUnits="userSpaceOnUse" id="color-1"><stop offset="0" stop-color="#e5a4e9"/><stop offset="1" stop-color="#c091db"/></linearGradient><linearGradient x1="258.82202" y1="132.66291" x2="258.82202" y2="164.80534" gradientUnits="userSpaceOnUse" id="color-2"><stop offset="0" stop-color="#e5a4e9"/><stop offset="1" stop-color="#c091db"/></linearGradient><linearGradient x1="239.15842" y1="170.44852" x2="230.03649" y2="183.57872" gradientUnits="userSpaceOnUse" id="color-3"><stop offset="0" stop-color="#3bd6e3"/><stop offset="1" stop-color="#56eedf"/></linearGradient></defs><g transform="translate(-177.30754,-125.36639)"><g data-paper-data="{&quot;isPaintingLayer&quot;:true}" fill-rule="nonzero" stroke-linejoin="miter" stroke-miterlimit="10" stroke-dasharray="" stroke-dashoffset="0" style="mix-blend-mode: normal"><path d="M198.5093,182.97273l5.44008,19.33173l-5.2458,1.36002h-1.94289l-4.76007,-3.20576l-2.6229,-10.29731l1.36002,-4.85722l5.44008,-1.55431z" fill="#79dee2" stroke="none" stroke-width="0" stroke-linecap="round"/><path d="M193.55684,180.06312l7.69926,27.35985l-7.42428,1.92481h-2.74973l-1.85872,-4.7671l-4.87813,0.23003l-5.19872,-7.30416l4.44167,-6.2844l3.71972,-4.10936l-3.80075,-4.69978z" data-paper-data="{&quot;index&quot;:null}" fill="#39d4e6" stroke="#154260" stroke-width="3" stroke-linecap="round"/><path d="M196.27433,183.50027l5.44009,19.33173l-5.24581,1.36003h-1.94289l-4.76007,-3.20577l-2.6229,-10.2973l1.36002,-4.85721l5.44008,-1.55431z" data-paper-data="{&quot;index&quot;:null}" fill="#79dee2" stroke="none" stroke-width="0" stroke-linecap="round"/><path d="M259.6822,225.77943c0,16.86456 -11.09767,30.53598 -24.78734,30.53598c-13.68967,0 -24.78734,-13.67142 -24.78734,-30.53598c0,-16.86456 11.09767,-30.53599 24.78734,-30.53599c13.68967,0 24.78734,13.67143 24.78734,30.53599z" fill="#3a4678" stroke="none" stroke-width="0" stroke-linecap="butt"/><path d="M259.6822,220.1155c0,13.73646 -11.09767,24.87205 -24.78734,24.87205c-13.68967,0 -24.78734,-11.13559 -24.78734,-24.87205c0,-13.73646 11.09767,-24.87205 24.78734,-24.87205c13.68967,0 24.78734,11.13559 24.78734,24.87205z" fill="#455b94" stroke="none" stroke-width="0" stroke-linecap="butt"/><path d="M219.80533,253.74072l5.41768,-35.46115l27.08837,-2.46258c0,0 -4.40221,14.08328 -9.81378,20.39678c-5.42375,6.32771 -22.69227,17.52695 -22.69227,17.52695z" fill="#716bb9" stroke="none" stroke-width="0" stroke-linecap="butt"/><path d="M219.17906,221.07847l2.02568,-8.27412h29.24249c0,0 1.48549,8.69687 1.48549,10.26868c0,0.31696 -4.99667,5.83805 -4.99667,5.83805c0,0 -16.61628,0.71911 -21.91152,-0.35576c-2.28271,-0.46337 -5.84547,-7.47684 -5.84547,-7.47684z" fill="#3ad3e8" stroke="none" stroke-width="0" stroke-linecap="butt"/><path d="M246.82714,223.00644c0,1.67071 -3.82971,8.57107 -10.41974,8.57107c-6.59002,0 -13.44483,-6.90036 -13.44483,-8.57107c0,-1.67071 5.34226,-3.02509 11.93228,-3.02509c6.59002,0 11.93228,1.35438 11.93228,3.02509z" fill="#79dee2" stroke="none" stroke-width="0" stroke-linecap="butt"/><path d="M218.94298,215.35076l-8.9072,13.27676l-0.33612,7.39466l-6.05017,3.52927l-4.20152,5.71405l-6.05016,-4.87375h-2.01672l-5.71405,-6.72242l7.05854,-15.62961l11.4281,-10.92392l10.25168,0.67224z" data-paper-data="{&quot;index&quot;:null}" fill="#39d4e6" stroke="#154260" stroke-width="3" stroke-linecap="round"/><path d="M208.12487,235.30636l-5.22854,3.48569l-4.18283,5.22854l-3.31141,-3.83426l-4.18284,-0.52286l-4.87996,-5.7514l6.97139,-16.20848l1.39427,1.04572l-0.34856,2.78854l4.18283,-1.74284l-1.04572,5.40283l5.57711,-1.74285l1.39428,4.18284l4.53141,-1.74286l0.87142,0.87143z" data-paper-data="{&quot;index&quot;:null}" fill="#79dee2" stroke="#d1852d" stroke-width="0" stroke-linecap="round"/><path d="M262.26716,210.91264l10.13541,1.67995l8.64022,13.23934l3.31387,16.82636l-7.09476,5.24457l-1.96373,-0.45925l-7.00107,3.36794l-2.78989,-6.52069l-5.08752,-4.81429l1.35663,-7.27691l-5.64975,-14.95629z" fill="#39d4e6" stroke="#154260" stroke-width="3" stroke-linecap="round"/><path d="M262.36376,230.42568l1.04697,-0.65008l4.01547,2.72896l2.31017,-3.75543l5.03369,2.96709l0.21212,-5.49901l3.67605,2.64958l0.29561,-2.79467l1.59578,-0.70073l3.09719,17.37016l-6.06149,4.48901l-4.19201,-0.44341l-4.09754,2.97944l-2.88229,-6.04369l-4.2974,-4.58476z" fill="#79dee2" stroke="#d1852d" stroke-width="0" stroke-linecap="round"/><path d="M286.97321,182.16301l-3.80075,4.69978l3.71972,4.10936l4.44167,6.2844l-5.19871,7.30416l-4.87813,-0.23003l-1.85872,4.7671h-2.74973l-7.42428,-1.92481l7.69925,-27.35985z" data-paper-data="{&quot;index&quot;:null}" fill="#39d4e6" stroke="#154260" stroke-width="3" stroke-linecap="round"/><path d="M276.53752,184.02743l5.44008,1.55431l1.36001,4.85721l-2.6229,10.2973l-4.76007,3.20577h-1.94289l-5.24581,-1.36003l5.44009,-19.33173z" data-paper-data="{&quot;index&quot;:null}" fill="#79dee2" stroke="none" stroke-width="0" stroke-linecap="round"/><path d="M275.90155,192.89837c0,14.93326 -18.14097,27.03906 -40.51899,27.03906c-22.37803,0 -43.3134,-12.56409 -43.3134,-27.49734c0,-4.80109 -0.45355,-34.05752 2.83466,-37.96577c3.05458,-3.63055 6.08277,-9.3981 12.41821,-13.43507c8.0574,-5.13422 20.0263,-8.17674 28.52629,-8.17674c6.81986,0 24.14774,2.81413 29.72687,9.06155c2.85204,3.19368 7.86745,7.00582 9.597,11.1157c5.98883,14.23104 0.72938,31.80284 0.72938,39.8586z" fill="#3ad3e8" stroke="#154260" stroke-width="3" stroke-linecap="butt"/><path d="M238.05313,200.3106c0,2.48311 -1.11391,14.61919 -8.80172,16.60416c-4.21382,1.088 -10.65393,0.27964 -15.77332,-1.8631c-1.66509,-0.69693 -3.05688,-1.53119 -4.16174,-2.27676c-1.31008,-0.88406 -2.21673,-1.64338 -2.69724,-1.90115c-4.47777,-2.40213 -8.59255,-14.79468 -8.59255,-19.60643c0,-4.81174 3.14544,-8.19246 8.26758,-8.19246c1.3057,0 6.20866,-0.06841 9.66665,1.13493c1.08602,0.37792 4.67338,3.14417 5.84016,3.61229c2.56054,1.02731 0.78092,0.69555 3.24685,2.05255c6.86818,3.77955 13.00532,8.0814 13.00532,10.43597z" fill="#79dee2" stroke="none" stroke-width="0" stroke-linecap="butt"/><path d="M250.27152,214.56932c0,4.49264 -6.46327,8.13463 -14.4361,8.13463c-7.97284,0 -14.4361,-3.64199 -14.4361,-8.13463c0,-4.49264 6.23412,-14.8944 14.20696,-14.8944c7.97284,0 14.66524,10.40177 14.66524,14.8944z" fill="#79dee2" stroke="none" stroke-width="0" stroke-linecap="butt"/><path d="M247.03019,189.8822c2.31518,-1.31303 0.64434,-0.99203 3.04837,-1.98605c1.09546,-0.45295 4.46352,-3.12955 5.48314,-3.49522c3.24661,-1.16433 7.84984,-1.09816 9.07572,-1.09816c4.80901,0 7.76218,3.27118 7.76218,7.927c0,4.65582 -3.86325,16.64682 -8.06728,18.9711c-0.45112,0.24941 -1.30235,0.98414 -2.53235,1.83954c-1.03732,0.72141 -2.34402,1.52864 -3.90733,2.20298c-4.80644,2.07331 -10.85287,2.85547 -14.80909,1.80274c-7.21784,-1.92066 -8.26365,-13.66347 -8.26365,-16.06612c0,-2.27828 5.76197,-6.44071 12.21029,-10.09779z" data-paper-data="{&quot;index&quot;:null}" fill="#79dee2" stroke="none" stroke-width="0" stroke-linecap="butt"/><path d="M234.88587,227.2297c0,-0.21968 0.17809,-0.39777 0.39777,-0.39777c0.21968,0 0.39776,0.17809 0.39776,0.39777c0,0.21968 -0.17808,0.39777 -0.39776,0.39777c-0.21968,0 -0.39777,-0.17809 -0.39777,-0.39777z" fill="#8b631d" stroke="none" stroke-width="0.5" stroke-linecap="butt"/><path d="M228.78156,208.19746c-2.58913,5.64884 -10.08965,7.4364 -16.75286,3.99243c-6.66321,-3.44397 -9.9659,-10.81516 -7.37672,-16.46416c2.58913,-5.64884 10.08964,-7.4364 16.75285,-3.99243c6.66321,3.44397 9.96591,10.81516 7.37673,16.46416z" fill="#ffffff" stroke="#954116" stroke-width="0" stroke-linecap="butt"/><path d="M226.02095,204.61338c0,2.57313 -1.84409,4.65906 -4.11888,4.65906c-2.27479,0 -4.11888,-2.08593 -4.11888,-4.65906c0,-2.57313 1.84409,-4.65905 4.11888,-4.65905c2.27479,0 4.11888,2.08593 4.11888,4.65905z" fill="#395a70" stroke="#46251d" stroke-width="0.5" stroke-linecap="butt"/><path d="M216.67096,185.13784l11.12488,5.81062l-3.68248,5.34591l-10.03818,-6.30217z" fill="#6e66b1" stroke="#6e66b1" stroke-width="0.5" stroke-linecap="round"/><path d="M248.79859,191.81262c6.66321,-3.44397 14.16372,-1.65642 16.75285,3.99243c2.58918,5.649 -0.71352,13.02018 -7.37673,16.46416c-6.66321,3.44397 -14.16372,1.65641 -16.75285,-3.99244c-2.58918,-5.649 0.71353,-13.02018 7.37673,-16.46415z" data-paper-data="{&quot;index&quot;:null}" fill="#ffffff" stroke="#954116" stroke-width="0" stroke-linecap="butt"/><path d="M257.05717,190.27459l-10.03818,6.30217l-3.68248,-5.3459l11.12487,-5.81062z" data-paper-data="{&quot;index&quot;:null}" fill="#6e66b1" stroke="#6e66b1" stroke-width="0.5" stroke-linecap="round"/><path d="M253.38886,205.15134c0,2.57313 -1.84409,4.65906 -4.11889,4.65906c-2.27479,0 -4.11887,-2.08594 -4.11887,-4.65906c0,-2.57313 1.84408,-4.65905 4.11887,-4.65905c2.27479,0 4.11889,2.08593 4.11889,4.65905z" fill="#395a70" stroke="#395a70" stroke-width="0.5" stroke-linecap="butt"/><path d="M232.79164,250.99129c4.03409,3.64989 6.12084,7.91682 4.66088,9.53046c-1.45996,1.61363 -5.91376,-0.03708 -9.94785,-3.68697c-4.03409,-3.64989 -6.12083,-7.91682 -4.66088,-9.53045c1.45996,-1.61363 5.91376,0.03708 9.94785,3.68697z" fill="#bd79d1" stroke="none" stroke-width="0" stroke-linecap="butt"/><path d="M224.19637,247.09849c0.19978,2.16688 -4.02978,4.32838 -9.44698,4.82784c-5.4172,0.49946 -9.97067,-0.85225 -10.17045,-3.01913c-0.19978,-2.16688 4.02978,-4.32838 9.44698,-4.82784c5.4172,-0.49946 9.97067,0.85225 10.17045,3.01913z" data-paper-data="{&quot;index&quot;:null}" fill="#bd79d1" stroke="none" stroke-width="0" stroke-linecap="butt"/><path d="M231.62571,166.24521v-40.87882h7.88025v40.87882z" fill="#a367ba" stroke="none" stroke-width="0" stroke-linecap="butt"/><path d="M222.28962,144.93711c2.59627,8.30807 1.26614,17.90184 -4.18603,19.60565c-5.45217,1.7038 -12.96176,-5.12756 -15.55803,-13.43563c-2.59627,-8.30807 -0.28111,-16.42429 5.17106,-18.1281c5.45217,-1.7038 11.97672,3.65001 14.57299,11.95808z" fill="url(#color-1)" stroke="none" stroke-width="0" stroke-linecap="butt"/><path d="M263.63093,132.97903c5.45217,1.7038 7.76733,9.82003 5.17106,18.1281c-2.59627,8.30807 -10.10585,15.13943 -15.55802,13.43563c-5.45217,-1.7038 -6.7823,-11.29757 -4.18603,-19.60565c2.59627,-8.30807 9.12082,-13.66188 14.57299,-11.95808z" data-paper-data="{&quot;index&quot;:null}" fill="url(#color-2)" stroke="none" stroke-width="0" stroke-linecap="butt"/><path d="M276.15938,162.28134c1.76777,1.76777 0,3.53553 0,3.53553l-1.0712,0.88977c-3.29809,1.64043 -6.89658,2.03544 -10.05357,3.76131c-4.45403,2.43494 -8.5656,6.88514 -13.72611,6.9848c-3.82213,1.76611 -7.89491,3.24929 -11.56184,5.2377c-1.75443,0.95135 -5.41435,3.40349 -7.41645,3.22335c-1.32098,-0.11885 -2.23435,-1.43151 -3.31664,-2.19817c-2.02204,-1.43234 -4.08535,-2.83662 -6.305,-3.93815c-2.33382,-1.15819 -4.79069,-2.10297 -6.98475,-3.50804c-1.5583,-0.99793 -4.27205,-3.23995 -5.9894,-4.03552c-4.35105,-2.01564 -9.36285,-3.61394 -14.00078,-4.93808c0,0 -2.40381,-0.6868 -1.71701,-3.09061c0.6868,-2.40381 3.09061,-1.71701 3.09061,-1.71701c4.84361,1.38488 10.11654,3.04432 14.65889,5.1771c4.53156,2.12771 8.63385,5.36387 13.15673,7.62921c1.57955,0.79114 3.15204,1.60628 4.64989,2.54295c0.90292,0.56463 1.74444,1.23142 2.53202,1.94822c0.36429,0.33155 0.40638,1.14309 0.89801,1.17356c0.60431,0.03744 0.98282,-0.70948 1.49958,-1.025c0.94583,-0.57751 1.90784,-1.12943 2.88501,-1.65216c4.07473,-2.17976 8.61862,-3.8794 12.88317,-5.72041c3.73956,0.085 6.18414,-2.81089 9.31983,-4.73868c4.32452,-2.65866 8.82727,-3.3581 13.26173,-5.5885l-0.22827,0.04684c0,0 1.76777,-1.76777 3.53553,0z" fill="#e2ffff" stroke="none" stroke-width="0.5" stroke-linecap="butt"/><path d="M222.2317,174.67435l11.49614,-16.54766l12.69201,20.7229l-11.49614,16.54766z" fill="#cffeff" stroke="none" stroke-width="0" stroke-linecap="butt"/><path d="M225.01547,175.38065l9.12193,-13.13021l10.04203,16.39614l-9.12193,13.13021z" fill="url(#color-3)" stroke="none" stroke-width="0" stroke-linecap="butt"/></g></g></svg>