<svg version="1.1" xmlns="http://www.w3.org/2000/svg" xmlns:xlink="http://www.w3.org/1999/xlink" width="83.8113" height="181.01828" viewBox="0,0,83.8113,181.01828"><defs><linearGradient x1="238.00261" y1="90.90276" x2="238.00261" y2="160.88783" gradientUnits="userSpaceOnUse" id="color-1"><stop offset="0" stop-color="#00ff68"/><stop offset="1" stop-color="#008a3f"/></linearGradient><linearGradient x1="238.00261" y1="90.90276" x2="238.00261" y2="160.88783" gradientUnits="userSpaceOnUse" id="color-2"><stop offset="0" stop-color="#00ff4a"/><stop offset="1" stop-color="#096600"/></linearGradient><linearGradient x1="238.61904" y1="189.40469" x2="238.61904" y2="259.38977" gradientUnits="userSpaceOnUse" id="color-3"><stop offset="0" stop-color="#00ff68"/><stop offset="1" stop-color="#008a3f"/></linearGradient><linearGradient x1="238.61904" y1="189.40469" x2="238.61904" y2="259.38977" gradientUnits="userSpaceOnUse" id="color-4"><stop offset="0" stop-color="#00ff4a"/><stop offset="1" stop-color="#096600"/></linearGradient></defs><g transform="translate(-198.09435,-85.49086)"><g data-paper-data="{&quot;isPaintingLayer&quot;:true}" fill-rule="nonzero" stroke-linecap="butt" stroke-linejoin="miter" stroke-miterlimit="10" stroke-dasharray="" stroke-dashoffset="0" style="mix-blend-mode: normal"><g><path d="M273.52939,125.8953c0,19.32583 -15.90585,34.99253 -35.52678,34.99253c-19.62092,0 -35.52678,-15.66669 -35.52678,-34.99253c0,-19.32583 15.90585,-34.99253 35.52678,-34.99253c19.62092,0 35.52678,15.66669 35.52678,34.99253z" fill="url(#color-1)" stroke="url(#color-2)" stroke-width="3.5"/><path d="M274.14585,224.39725c0,19.32583 -15.90585,34.99253 -35.52678,34.99253c-19.62092,0 -35.52678,-15.66669 -35.52678,-34.99253c0,-19.32583 15.90585,-34.99253 35.52678,-34.99253c19.62092,0 35.52678,15.66669 35.52678,34.99253z" fill="url(#color-3)" stroke="url(#color-4)" stroke-width="3.5"/><g stroke="none" stroke-width="0"><path d="M281.90565,126.27414c0,22.52397 -18.40653,40.78328 -41.11214,40.78328c-22.70564,0 -41.11214,-18.25931 -41.11214,-40.78328c0,-22.52397 18.40653,-40.78328 41.11214,-40.78328c22.70564,0 41.11214,18.25931 41.11214,40.78328z" fill="#df4969"/><path d="M272.53199,126.27414c0,17.3885 -14.20988,31.48468 -31.73858,31.48468c-17.52873,0 -31.73858,-14.09618 -31.73858,-31.48468c0,-17.3885 14.20988,-31.48468 31.73858,-31.48468c17.52873,0 31.73858,14.09618 31.73858,31.48468z" fill="#f897b8"/><path d="M261.18503,126.27414c0,11.17191 -9.12964,20.22852 -20.39163,20.22852c-11.26199,0 -20.39163,-9.05655 -20.39163,-20.22852c0,-11.17191 9.12964,-20.22852 20.39163,-20.22852c11.26199,0 20.39163,9.05655 20.39163,20.22852z" fill="#ffffc0"/></g><g stroke="none" stroke-width="0"><path d="M280.31864,225.72586c0,22.52397 -18.40653,40.78328 -41.11214,40.78328c-22.70564,0 -41.11214,-18.25931 -41.11214,-40.78328c0,-22.52397 18.40653,-40.78328 41.11214,-40.78328c22.70564,0 41.11214,18.25931 41.11214,40.78328z" fill="#df4969"/><path d="M270.94503,225.72586c0,17.3885 -14.20988,31.48468 -31.73858,31.48468c-17.52875,0 -31.73858,-14.09616 -31.73858,-31.48468c0,-17.3885 14.20985,-31.48468 31.73858,-31.48468c17.52875,0 31.73858,14.09616 31.73858,31.48468z" fill="#f897b8"/><path d="M259.59806,225.72586c0,11.17191 -9.12964,20.22854 -20.39163,20.22854c-11.26199,0 -20.39165,-9.05657 -20.39165,-20.22854c0,-11.17191 9.12964,-20.22852 20.39165,-20.22852c11.26199,0 20.39163,9.05655 20.39163,20.22852z" fill="#ffffc0"/></g></g></g></g></svg>