<svg version="1.1" xmlns="http://www.w3.org/2000/svg" xmlns:xlink="http://www.w3.org/1999/xlink" width="517.64368" height="527.71153" viewBox="0,0,517.64368,527.71153"><g transform="translate(18.82184,83.85576)"><g data-paper-data="{&quot;isPaintingLayer&quot;:true}" fill-rule="nonzero" stroke-linejoin="miter" stroke-miterlimit="10" stroke-dasharray="" stroke-dashoffset="0" style="mix-blend-mode: normal"><path d="M427.14844,-38.9569c0,24.79696 -34.95982,44.89886 -78.08497,44.89886c-43.12514,0 -78.08497,-20.10191 -78.08497,-44.89886c0,-24.79696 34.95984,-44.89886 78.08497,-44.89886c43.12514,0 78.08497,20.10191 78.08497,44.89886z" fill="#555555" stroke="none" stroke-width="0" stroke-linecap="butt"/><path d="M218.27113,-38.9569c0,24.79696 -34.95984,44.89886 -78.08497,44.89886c-43.12514,0 -78.08497,-20.10191 -78.08497,-44.89886c0,-24.79696 34.95984,-44.89886 78.08497,-44.89886c43.12514,0 78.08497,20.10191 78.08497,44.89886z" fill="#555555" stroke="none" stroke-width="0" stroke-linecap="butt"/><path d="M294.82254,168.43938c0,134.52269 -70.21167,243.57489 -156.82219,243.57489c-86.6105,0 -156.82219,-109.05219 -156.82219,-243.57489c0,-134.52269 70.21167,-243.57489 156.82219,-243.57489c86.61052,0 156.82219,109.0522 156.82219,243.57489z" fill="#000000" stroke="none" stroke-width="0" stroke-linecap="butt"/><path d="M498.82184,168.43938c0,134.52269 -70.21167,243.57489 -156.82219,243.57489c-86.6105,0 -156.82219,-109.05219 -156.82219,-243.57489c0,-134.52269 70.21169,-243.57489 156.82219,-243.57489c86.61052,0 156.82219,109.0522 156.82219,243.57489z" fill="#000000" stroke="none" stroke-width="0" stroke-linecap="butt"/><path d="M123.3594,316.32974v-253.77617l14.70836,-10.70122l14.57351,10.70122v253.77617z" fill="#4b4b4b" stroke="none" stroke-width="0" stroke-linecap="butt"/><path d="M327.35872,320.23398v-253.77617l14.70836,-10.70122l14.57351,10.70122v253.77617z" fill="#4b4b4b" stroke="none" stroke-width="0" stroke-linecap="butt"/><path d="M101.14367,376.84559v19.52125l-3.90424,-29.28187l56.61161,-1.95213" fill="none" stroke="#0f7298" stroke-width="2" stroke-linecap="round"/><path d="M5.48957,246.05327l37.09037,-11.71274l13.66488,39.04248l-39.04248,17.56912" fill="none" stroke="#0f7298" stroke-width="2" stroke-linecap="round"/><path d="M89.43093,234.34051l-44.89886,11.71274" fill="none" stroke="#0f7298" stroke-width="2" stroke-linecap="round"/><path d="M64.05329,179.68101h-27.32974l-13.66488,-15.61699l13.66488,-29.28187l15.61699,-21.47336l13.66488,13.66488l-23.42549,17.56912l-33.18611,-27.32974" fill="none" stroke="#0f7298" stroke-width="2" stroke-linecap="round"/><path d="M200.702,171.87254l-7.8085,-85.89347l29.28187,-5.85638l5.85638,93.70198z" fill="none" stroke="#0f7298" stroke-width="2" stroke-linecap="round"/><path d="M202.65414,171.87254v58.56373l-23.42549,-3.90424l-5.85638,-50.75523" fill="none" stroke="#0f7298" stroke-width="2" stroke-linecap="round"/><path d="M66.00544,9.84621l29.28187,-54.65949l58.56373,-7.8085l42.94675,19.52125l-27.32974,29.28187z" fill="none" stroke="#0f7298" stroke-width="2" stroke-linecap="round"/><path d="M151.89891,-24.31598c0,13.47661 -11.79893,24.40156 -26.35367,24.40156c-14.55474,0 -26.35367,-10.92495 -26.35367,-24.40156c0,-13.47661 11.79893,-24.40156 26.35367,-24.40156c14.55474,0 26.35367,10.92495 26.35367,24.40156z" fill="#000000" stroke="#0f7298" stroke-width="2" stroke-linecap="butt"/><path d="M421.29206,359.27647l-21.47336,-35.13824l42.94675,-33.18611l-27.32974,-3.90424l7.8085,33.18611" fill="none" stroke="#98071a" stroke-width="2" stroke-linecap="round"/><path d="M278.78697,290.95211v64.42011l23.42549,-17.56912l37.09037,19.52125l-50.75523,13.66488l-27.32974,-33.18611" fill="none" stroke="#98071a" stroke-width="2" stroke-linecap="round"/><path d="M417.38782,226.53201l27.32974,-58.56373l33.18611,5.85638l-3.90424,54.65949z" fill="none" stroke="#98071a" stroke-width="2" stroke-linecap="round"/><path d="M272.93062,251.90962l5.85638,-126.88808l19.52125,-9.76062l3.90424,107.36684l-15.61699,7.8085z" fill="none" stroke="#98071a" stroke-width="2" stroke-linecap="round"/><path d="M413.48358,89.88332l21.47336,-23.42549l27.32974,29.28187l-11.71274,7.8085l-40.99461,-37.09037" fill="none" stroke="#98071a" stroke-width="2" stroke-linecap="round"/><path d="M303.93321,37.17595l-27.32974,-29.28187l42.94673,-19.52124l58.56373,7.80848l29.28187,54.65949z" data-paper-data="{&quot;index&quot;:null}" fill="none" stroke="#98071a" stroke-width="2" stroke-linecap="round"/><path d="M370.30545,15.70257c0,13.47661 -11.79896,24.40156 -26.35367,24.40156c-14.55474,0 -26.35367,-10.92496 -26.35367,-24.40156c0,-13.47661 11.79893,-24.40156 26.35367,-24.40156c14.55474,0 26.35367,10.92495 26.35367,24.40156z" fill="#000000" stroke="#98071a" stroke-width="2" stroke-linecap="butt"/><path d="M445.0618,426.28664l-41.90873,-136.20337l37.31599,-11.48185l41.90873,136.20337z" fill="#002f3f" stroke="#98071a" stroke-width="0" stroke-linecap="butt"/><path d="M221.6055,414.80479l41.90873,-136.20337l37.31599,11.48185l-41.90873,136.20337z" data-paper-data="{&quot;index&quot;:null}" fill="#002f3f" stroke="#98071a" stroke-width="0" stroke-linecap="butt"/><path d="M-8.74517,432.37391l41.90873,-136.20335l37.31599,11.48183l-41.90873,136.20337z" data-paper-data="{&quot;index&quot;:null}" fill="#720614" stroke="#98071a" stroke-width="0" stroke-linecap="butt"/><path d="M223.90187,443.85576l-41.90875,-136.20337l37.31599,-11.48185l41.90873,136.20337z" data-paper-data="{&quot;index&quot;:null}" fill="#720614" stroke="#98071a" stroke-width="0" stroke-linecap="butt"/></g></g></svg>