<svg version="1.1" xmlns="http://www.w3.org/2000/svg" xmlns:xlink="http://www.w3.org/1999/xlink" width="31.429" height="60.60415" viewBox="0,0,31.429,60.60415"><g transform="translate(-226.64541,-147.94531)"><g data-paper-data="{&quot;isPaintingLayer&quot;:true}" fill-rule="nonzero" stroke="none" stroke-width="0.5" stroke-linecap="butt" stroke-linejoin="miter" stroke-miterlimit="10" stroke-dasharray="" stroke-dashoffset="0" style="mix-blend-mode: normal"><path d="M249.54128,164.77303c0.09958,-0.10931 0.2239,-0.2151 0.37778,-0.31455c1.31936,-0.85272 2.17209,0.46664 2.17209,0.46664l-0.09638,-0.09292c0.84867,0.8769 1.64717,1.80775 2.3642,2.79521c2.05606,2.44679 4.24809,6.45515 3.5995,9.84805c-0.19972,1.04475 -0.45188,2.23076 -1.24705,2.93722c-0.97062,0.86236 -4.27357,0.56496 -5.20512,-0.15495c-2.49355,-1.92705 -0.78691,-3.5169 -1.34586,-5.82247c-0.35771,-1.47551 -1.45492,-3.0307 -2.32619,-4.25308c-0.43389,-0.60874 -1.18525,-1.02134 -1.42978,-1.72774c-0.35474,-1.0248 -0.96429,-2.39108 -0.29001,-3.24044c0.67345,-0.84831 2.13527,-0.43554 3.21833,-0.44822c0.06982,-0.00081 0.13929,0.0018 0.20848,0.00727z" fill="#8a8a8a"/><path d="M237.59959,149.50771c2.37699,1.18383 4.30093,2.87883 6.12426,4.81456c1.03433,1.06449 3.95853,3.54485 4.10676,5.00593c0.44738,4.40981 -3.05563,3.93929 -5.76486,2.9599c-1.95491,-0.70669 -2.89095,-2.37539 -4.32715,-3.71733c-1.98495,-1.85468 -5.72917,-3.59063 -6.94971,-6.08332c-0.5024,-1.02603 -1.37599,-2.28243 -0.88109,-3.3121c0.79925,-1.66293 3.10066,-1.32079 4.94215,-0.81091c0.16417,-0.01832 0.33404,-0.01085 0.50443,0.02576c0.1588,0.03412 0.30679,0.09112 0.44127,0.16682l0.42589,0.22712c0.20487,0.06589 0.38958,0.12499 0.54848,0.17201c0,0 0.49145,0.1458 0.8296,0.55155z" fill="#8d8d8d"/><path d="M253.19975,188.94727c-1.10741,1.75908 -2.4421,5.2474 -4.22691,5.98595c-1.79552,0.74298 -4.96128,0.0949 -5.10503,-2.5553c-0.05532,-1.01978 1.23974,-1.62353 1.87882,-2.42015c1.47633,-1.84024 2.56675,-3.98267 5.14398,-4.34203c0.37656,-0.05251 0.75417,-0.00179 1.13201,0.06999c0.35405,-0.11946 0.80249,-0.11342 1.31756,0.23303c0.03649,0.02454 0.07127,0.04942 0.10441,0.07459c0.44329,0.18646 1.06036,0.63227 0.91653,1.65066c-0.12697,0.89902 -0.70015,1.20505 -1.16135,1.30324z" fill="#8d8d8d"/><path d="M239.38908,205.05467c-2.09471,1.2079 -4.79431,4.38412 -7.51147,3.25663c-1.1251,-0.46686 -2.41411,-1.2897 -2.68688,-2.47689c-0.2129,-0.92664 0.99659,-1.62305 1.57078,-2.38087c2.912,-3.84318 6.45929,-3.87031 10.8766,-3.80757c0,0 1.57079,0.02234 1.54844,1.59313c-0.02234,1.57079 -1.59313,1.54844 -1.59313,1.54844c-0.09137,-0.0013 -0.18385,-0.00358 -0.27731,-0.00661c-0.00243,0.09654 -0.01385,0.19423 -0.03487,0.2921c-0.07893,0.36742 -0.28041,0.67698 -0.55239,0.89507l-1.23725,1.00963l-0.02709,-0.0332z" fill="#8d8d8d"/><path d="M249.50826,161.43655c0.22758,0.22272 0.44417,0.45672 0.65216,0.69905l0.07618,-0.09512l1.28951,1.03272c0.4666,0.35788 0.71219,0.96429 0.58046,1.57742c-0.15107,0.70319 -0.75099,1.19449 -1.435,1.23814l-1.57284,0.13699c-0.61058,0.15463 -1.21824,0.56522 -1.83207,0.43432c-0.11806,-0.02518 -0.23481,-0.05444 -0.35042,-0.08724l-0.01128,0.05251l-2.2117,-0.47515c-0.84826,-0.18223 -1.38817,-1.0176 -1.20593,-1.86586c0.07386,-0.34379 0.255,-0.63693 0.5008,-0.85187l1.26038,-1.1288l0.02486,0.02775l0.06989,-0.10615c0.3732,-0.24234 0.7464,-0.48467 1.1196,-0.72701c0.04362,-0.07132 0.09438,-0.14366 0.15301,-0.21687c0.53248,-0.66489 1.13676,-0.68051 1.57842,-0.55549c0.39628,0.00564 0.84743,0.17214 1.21288,0.73757c0.03789,0.05863 0.07149,0.11633 0.10111,0.17308z" fill="#c8c8c8"/><path d="M256.94917,181.55275c-1.04596,2.7492 -1.69349,6.45184 -5.53354,5.86962c-1.17075,-0.17751 -2.74658,-0.08178 -3.38441,-1.07945c-0.51797,-0.8102 0.6383,-1.81423 0.95364,-2.72268c0.21796,-0.62792 1.42987,-4.23096 1.52557,-4.3031c0.7214,-0.54374 1.79414,-0.10735 2.70527,-0.15394c0.08502,-0.06131 0.17294,-0.11761 0.26392,-0.16827c0.07965,-0.04435 0.16066,-0.08531 0.24285,-0.12327l-0.0188,-0.03273l1.46106,-0.83888c0.32582,-0.18887 0.72019,-0.26187 1.11739,-0.17654c0.84826,0.18223 1.38817,1.0176 1.20593,1.86586c-0.00906,0.04217 -0.01973,0.08357 -0.03194,0.12416l-0.4879,1.67824l-0.01958,-0.00569z" fill="#c8c8c8"/><path d="M246.63224,197.05578c-1.06913,1.88951 -5.77334,8.21198 -7.83779,2.64984c-0.34883,-0.93985 0.96588,-1.75895 1.51003,-2.60091c0.63186,-0.9777 1.36134,-1.8951 1.92737,-2.91234c0,0 0.76706,-1.37094 2.13799,-0.60388c0.00634,0.00354 0.01262,0.0071 0.01887,0.01067l1.13541,-0.29237c0.23757,-0.06651 0.49435,-0.07788 0.75231,-0.02246c0.84826,0.18223 1.38817,1.0176 1.20593,1.86586c-0.02803,0.13046 -0.07151,0.25364 -0.12811,0.36801l-0.69719,1.48704l-0.01547,-0.00725z" fill="#c8c8c8"/><path d="M244.14621,165.23419c0.16101,0.13069 0.25184,0.24453 0.25184,0.24453l1.1613,1.4586c2.02462,3.12597 5.08344,6.78501 5.13571,10.71252c0.04488,3.37272 -1.95882,7.5905 -3.43656,10.52679c-0.46126,0.91651 -1.59711,3.13644 -2.42604,3.69529c-0.0654,0.0441 -0.13184,0.08623 -0.19922,0.1266l0.01794,0.02506l-1.5139,1.08391c-0.34803,0.25115 -0.79701,0.35955 -1.24966,0.2623c-0.77703,-0.16693 -1.29532,-0.88193 -1.23681,-1.65283l0.09598,-1.62578l0.19666,0.01162l-0.08441,-0.50896c3.22698,-4.06694 6.28512,-8.62993 5.32718,-14.15158c-0.52322,-3.01588 -3.31715,-6.39299 -4.94073,-8.90377c0,0 -0.85272,-1.31936 0.46664,-2.17209c1.31936,-0.85272 2.17209,0.46664 2.17209,0.46664c0.08551,0.13236 0.17294,0.26611 0.26201,0.40116z" fill="#545454"/><path d="M236.70457,157.80773c0.21211,0.0557 1.47881,0.44999 1.1762,1.85856c-0.32996,1.5359 -1.86586,1.20593 -1.86586,1.20593l-1.06379,-0.42474c-2.38372,-2.05288 -4.13581,-4.15476 -5.84702,-6.80082c0,0 -0.85272,-1.31936 0.46664,-2.17209c1.31936,-0.85272 2.17209,0.46664 2.17209,0.46664c1.4816,2.29381 2.9534,4.09006 4.96174,5.86651z" fill="#545454"/><path d="M228.66014,207.78633c-0.99321,-1.21713 0.22392,-2.21034 0.22392,-2.21034l0.3905,-0.27364c2.0647,-2.56489 3.20508,-5.32528 5.93298,-7.31439c0,0 1.27731,-0.91451 2.19182,0.3628c0.91451,1.27731 -0.3628,2.19182 -0.3628,2.19182c-2.43877,1.70503 -3.48322,4.4329 -5.30964,6.72378l-0.85644,0.7439c0,0 -1.21713,0.99321 -2.21034,-0.22392z" fill="#545454"/><path d="M229.58391,151.56205c1.52131,-0.39175 1.91306,1.12957 1.91306,1.12957l-0.13187,-0.18884c1.60242,2.50319 2.31964,5.17023 4.28096,7.46651c0,0 1.01621,1.19799 -0.18178,2.2142c-1.19799,1.01621 -2.2142,-0.18178 -2.2142,-0.18178c-2.05417,-2.4362 -2.82484,-5.19521 -4.52369,-7.79348l-0.27202,-0.73312c0,0 -0.39175,-1.52131 1.12957,-1.91306z" fill="#343434"/><path d="M238.47904,191.91233c-1.35274,-0.79873 -0.55401,-2.15146 -0.55401,-2.15146l0.40413,-0.68443c0.88937,-1.49928 1.39461,-3.17688 2.29092,-4.6615c0.56621,-0.93786 1.46581,-1.66493 1.94162,-2.65173c2.44208,-5.06482 -0.94321,-10.53897 -4.84162,-13.62444c0,0 -1.22618,-0.98201 -0.24418,-2.20819c0.98201,-1.22618 2.20819,-0.24418 2.20819,-0.24418c5.03691,4.07304 8.79849,10.97205 5.71026,17.43606c-0.62857,1.31566 -1.34897,1.70817 -2.08142,2.91112c-0.89226,1.46544 -1.401,3.14839 -2.27829,4.64031l-0.40413,0.68443c0,0 -0.79873,1.35274 -2.15146,0.55401z" fill="#343434"/><path d="M227.64099,206.99783c-1.46076,-0.57797 -0.88278,-2.03873 -0.88278,-2.03873l0.31964,-0.79973c1.54487,-3.27657 4.0276,-5.86371 6.51474,-8.46484c0,0 1.08598,-1.13513 2.2211,-0.04915c1.13513,1.08598 0.04915,2.2211 0.04915,2.2211c-2.23859,2.33857 -4.56462,4.67362 -5.94026,7.62664l-0.24287,0.62193c0,0 -0.57797,1.46076 -2.03873,0.88278z" fill="#343434"/><path d="M241.6117,196.20831c-0.06779,0.25559 -0.16937,0.4981 -0.31102,0.72036c-1.49133,2.33994 -4.9202,0.75995 -5.82128,-0.84323c-1.30253,-2.31743 0.07958,-4.72417 2.77922,-5.01549c0.39279,-0.04238 1.01387,0.38715 1.63527,0.93128c0.53858,0.1917 1.06383,0.39523 1.2726,0.87984c0.08143,0.18903 0.15802,0.38805 0.22677,0.59365c0.15385,0.16212 0.28308,0.29951 0.37801,0.39702c0,0 1.09491,1.12651 -0.0316,2.22142c-0.04271,0.04152 -0.08539,0.07985 -0.12796,0.11515z" fill="#83ff0c"/><path d="M238.12739,162.71034c-0.0258,0.02159 -0.05146,0.04337 -0.07694,0.06535c-0.11884,0.1025 -0.37182,0.33576 -0.51784,0.46634c0.26956,-0.12455 0.85833,0.05201 0.79634,-0.21498c-0.02901,-0.12492 -0.10733,-0.22485 -0.20154,-0.31671zM239.8351,160.40606l0.9243,0.99719c0.17709,0.89081 0.85865,1.82524 0.53127,2.67242c-1.20084,3.10755 -6.57405,3.10904 -6.84311,-0.86163c-0.06199,-0.91475 0.66054,-1.73545 1.20742,-2.47134c0.41528,-0.55881 1.07612,-0.88365 1.61417,-1.32547c0,0 1.22797,-0.97977 2.20774,0.24819c0.20775,0.26036 0.31623,0.50958 0.35821,0.74065z" fill="#83ff0c"/></g></g></svg>