<svg version="1.1" xmlns="http://www.w3.org/2000/svg" xmlns:xlink="http://www.w3.org/1999/xlink" width="130.96073" height="32.2212" viewBox="0,0,130.96073,32.2212"><g transform="translate(-174.645,-314.141)"><g data-paper-data="{&quot;isPaintingLayer&quot;:true}" fill-rule="evenodd" stroke="none" stroke-width="1" stroke-linecap="butt" stroke-linejoin="miter" stroke-miterlimit="10" stroke-dasharray="" stroke-dashoffset="0" style="mix-blend-mode: normal"><g><path d="M206.0314,330.25161c0,4.21103 -1.49548,7.81487 -4.48645,10.81153c-2.99097,2.99666 -6.58742,4.49214 -10.78934,4.48646c-4.21672,0 -7.82056,-1.49548 -10.81153,-4.48646c-2.99097,-2.99097 -4.48645,-6.59481 -4.48645,-10.81153c0,-4.21103 1.49548,-7.81544 4.48645,-10.81324c2.97617,-2.97617 6.58002,-4.46483 10.81153,-4.46597c4.23152,-0.00113 7.82797,1.48638 10.78934,4.46255c2.98983,2.99324 4.48531,6.59879 4.48645,10.81666z" fill="#ec2127"/><path d="M206.86621,330.25161c0,4.43865 -1.57515,8.23314 -4.72546,11.38344c-3.1503,3.1503 -6.94535,4.72602 -11.38514,4.72716c-4.43865,0 -8.23369,-1.57572 -11.38514,-4.72716c-3.15144,-3.15144 -4.7266,-6.94592 -4.72546,-11.38344c0,-4.43865 1.57515,-8.23369 4.72546,-11.38514c3.1503,-3.15144 6.94535,-4.7266 11.38514,-4.72546c4.43865,0 8.23369,1.57515 11.38514,4.72546c3.15144,3.1503 4.7266,6.94535 4.72546,11.38514zM200.97135,320.03247c-2.81684,-2.83277 -6.22208,-4.24858 -10.21573,-4.24745c-3.99365,0.00113 -7.39889,1.41695 -10.21572,4.24745c-2.82822,2.82936 -4.24233,6.23574 -4.24233,10.21914c0,3.98341 1.41582,7.38808 4.24745,10.21403c2.83391,2.83163 6.23916,4.24801 10.21573,4.24916c3.97658,0.00113 7.38182,-1.41525 10.21573,-4.24916c2.83277,-2.8157 4.24858,-6.22037 4.24745,-10.21403c-0.00113,-3.99365 -1.41866,-7.40003 -4.25257,-10.21914z" fill="#ffffff"/><path d="M199.30001,325.33153c1.76636,1.52736 2.4589,3.27721 2.07763,5.24956c-0.62141,3.21404 -0.89228,4.70212 -0.81261,4.46426l0.64531,0.6197c0.53946,0.38241 1.06414,0.47801 1.57401,0.2868c0.12861,-0.0478 0.70164,-0.36591 1.71912,-0.95431c0.65214,-0.36761 1.23258,-0.49508 1.74132,-0.38241c0.54918,0.13225 1.04731,0.42317 1.43232,0.83652c0.18201,0.17327 0.33529,0.37438 0.45411,0.5958l-0.26291,0.93041c-0.52353,-1.01747 -1.03568,-1.54215 -1.53646,-1.57401c-0.26973,-0.03187 -0.65897,0.0791 -1.16771,0.3329c-0.42819,0.23598 -0.87531,0.43584 -1.33671,0.59751c-0.41542,0.11381 -1.04422,0.0569 -1.88643,-0.17072l-1.14551,-0.38241l0.68288,0.83481c0.56906,0.5406 1.166,0.72384 1.79082,0.54972c0.9513,-0.27445 1.88417,-0.60916 2.79294,-1.00211l-0.0717,0.3107c-0.03474,0.16519 0.01893,0.33655 0.1417,0.4524c0.25028,0.16442 0.53799,0.26307 0.83651,0.2868c-1.31791,0.6498 -2.82369,0.81073 -4.24915,0.45411c-0.88239,-0.26689 -1.69106,-0.73433 -2.36273,-1.36574l-0.78701,-0.88431l0.1912,0.64531c-0.0478,0.55654 -0.55711,1.16088 -1.52792,1.81302c-0.85372,0.59869 -1.79618,1.05955 -2.79294,1.36574c-0.92301,0.1764 -1.60588,0.31981 -2.04861,0.43021c-0.48686,0.10996 -0.96545,0.25371 -1.43232,0.43021c-0.27513,0.12874 -0.46473,0.38992 -0.50191,0.69141c-0.08417,0.43851 -0.20348,0.86955 -0.3568,1.28892c-0.1434,0.47801 -0.0956,0.66125 0.1434,0.54972c0.08832,-0.04383 0.17234,-0.09585 0.25096,-0.15536l-0.37045,0.75116c-0.55654,0.68287 -1.23941,0.62597 -2.04861,-0.17072c-0.84561,-0.84335 -1.16372,-1.59905 -0.95431,-2.26712c0.11381,-0.39834 0.43191,-0.78017 0.95431,-1.14551c0.53164,-0.32552 1.09022,-0.60481 1.66961,-0.83481c0.43021,-0.1912 0.82855,-0.35851 1.19502,-0.50191c-0.23384,-0.2013 -0.44197,-0.43066 -0.6197,-0.68288c-0.36704,-0.55825 -0.43704,-1.04309 -0.2151,-1.45622c0.22194,-0.41314 0.43021,-0.86724 0.62141,-1.31281l0.2134,-0.54972c-0.57754,0.1488 -1.17061,0.22902 -1.76693,0.239c-1.30428,0.0478 -2.22729,-0.21454 -2.76904,-0.78701c-0.64362,-0.65843 -1.48123,-1.0934 -2.39005,-1.24111c-0.74098,-0.16187 -1.50981,-0.14549 -2.24322,0.0478c-0.34833,0.09813 -0.69039,0.21728 -1.0243,0.3568c-0.2321,0.14001 -0.47144,0.26766 -0.71701,0.38241c-0.36761,0.1912 -0.74945,0.03244 -1.14551,-0.4763c-0.38383,-0.48576 -0.53658,-1.11484 -0.41826,-1.72254c0.0956,-0.50874 -0.04723,-1.18478 -0.4285,-2.02812l-0.62141,-1.12161l0.50191,0.28509c0.28714,0.16944 0.51901,0.4185 0.66751,0.71701c0.16047,0.36534 0.32607,0.81945 0.50191,1.36573c0.22031,-0.4629 0.25453,-0.99272 0.0956,-1.48012l-0.62141,-1.71912l0.57361,0.38241c0.41314,0.3346 0.65157,0.68458 0.7153,1.04991c0.15112,0.70752 0.35894,1.40174 0.62141,2.07592c0.20639,-0.39625 0.25753,-0.85526 0.1434,-1.28721l-0.50191,-2.17323l0.64702,0.40289c0.4285,0.34143 0.65213,0.6436 0.6675,0.93041c0.0148,0.47801 -0.02504,1.48068 -0.1195,3.00804c1.54329,0.39834 2.6888,0.39834 3.43654,0c0.1764,-0.0956 0.59011,-0.50135 1.24111,-1.21721c0.52581,-0.58841 1.27355,-1.03398 2.24322,-1.33671c1.50597,-0.49856 3.09585,-0.69352 4.67766,-0.57361c0.19877,-0.04323 0.38113,-0.14211 0.52581,-0.28509c0.2868,-0.25607 0.2868,-0.56508 0,-0.93212c-0.22269,-0.33908 -0.52593,-0.61768 -0.88261,-0.81091l-0.40631,-0.1195c0.01707,0.15877 -0.08707,0.26291 -0.31071,0.31071c-0.11381,0.01593 -0.64645,0.01593 -1.59791,0c-0.63628,-0.03536 -1.27404,-0.03536 -1.91032,0c-0.30217,0.0478 -1.09601,0.0956 -2.39005,0.1434l-1.83692,0.0717l0.83481,-0.34143c0.69003,-0.21855 1.40344,-0.35492 2.12543,-0.40631c0.99296,-0.06262 1.9886,-0.0706 2.98243,-0.0239c0.03073,-0.92359 -0.15877,-1.48012 -0.57361,-1.67132c-1.7086,-0.81612 -3.57006,-1.26286 -5.46296,-1.31111c-1.14495,-0.03187 -2.26656,-0.04041 -3.36484,-0.02561l-1.31453,0.02561l1.26502,-0.51898c1.19914,-0.35746 2.45303,-0.4951 3.70115,-0.40631c1.08653,0.06136 2.16499,0.22367 3.22144,0.48483c0.71473,0.20714 1.14437,0.29477 1.28892,0.26291c0.12804,-0.01707 0.23047,-0.17072 0.3107,-0.47801c0.1417,-0.5241 0.239,-0.85359 0.28509,-0.97821c0.39948,-0.95488 1.24283,-1.44825 2.53003,-1.48012c1.19388,-0.03187 2.02926,0.36647 2.50613,1.19502c0.445,0.77961 0.85871,1.14551 1.24111,1.09771c0.49281,-0.06373 0.90651,-0.38183 1.24111,-0.95431c0.2823,-0.53585 0.80773,-0.90078 1.40841,-0.97821c1.16088,-0.15933 1.92512,-0.0956 2.29273,0.1912l-0.50191,1.0243c-0.18007,-0.10414 -0.37288,-0.18447 -0.57361,-0.239c-0.35805,-0.14074 -0.75289,-0.15756 -1.12161,-0.0478c-0.37886,0.18051 -0.72502,0.42282 -1.0243,0.71701c-0.21339,0.20132 -0.44942,0.3772 -0.70336,0.5241l0.58385,-0.2151c0.78737,-0.20427 1.60945,-0.23687 2.41053,-0.0956c0.69363,0.10589 1.3543,0.36735 1.93252,0.76481c0.2202,0.15897 0.42077,0.34349 0.59751,0.54972l-0.38241,0.9287c-0.20323,-0.29977 -0.45274,-0.56541 -0.73921,-0.78701c-0.61913,-0.52353 -1.27185,-0.76994 -1.95813,-0.73921c-1.17795,0 -2.00536,0.00796 -2.48223,0.0239c-0.82627,0.03073 -1.22404,0.17072 -1.19502,0.40461c0.03301,0.20373 0.97991,0.89399 2.84073,2.0708z" fill="#000000"/><path d="M193.28565,322.27565c-0.27639,0.37361 -0.61545,0.69649 -1.00212,0.95431l-0.0956,0.0717h-0.0956c-0.4285,0.0478 -0.75628,0 -0.97821,-0.1178c-0.05481,-0.05063 -0.10299,-0.108 -0.1434,-0.17072z" fill="#ffffff"/><path d="M215.81693,335.35436c0,0.97196 -0.48541,1.45736 -1.45622,1.45622c-0.97081,-0.00113 -1.44825,-0.48655 -1.43232,-1.45622v-9.5414c0,-0.95602 0.47744,-1.43345 1.43232,-1.43232h4.82106c2.88057,0 4.32029,1.46361 4.31915,4.39085v6.63579c0,0.95374 -0.47687,1.43061 -1.43062,1.43061c-0.97081,0 -1.45622,-0.48483 -1.45622,-1.45451v-6.66822c0,-0.98675 -0.48541,-1.48012 -1.45622,-1.48012h-3.34094z" fill="#ffffff"/><path d="M227.85421,336.8106c-0.97196,0 -1.45736,-0.48541 -1.45622,-1.45622v-8.11419c-0.97196,0 -1.45736,-0.46151 -1.45622,-1.38452c0,-0.95488 0.48541,-1.44769 1.45622,-1.47841l1.43232,-0.02561c0.95374,0.03187 1.43118,0.51784 1.43232,1.45792v9.54481c-0.00569,0.97196 -0.47516,1.45736 -1.40841,1.45622z" fill="#ffffff"/><path d="M237.41439,327.24018h-3.36313v8.11419c0,0.97196 -0.48541,1.45736 -1.45622,1.45622c-0.93894,0 -1.40841,-0.48541 -1.40841,-1.45622v-9.5414c0,-0.95602 0.47744,-1.43345 1.43232,-1.43232h4.82106c2.86464,0 4.29696,1.46361 4.29696,4.39085v6.63579c0,0.95374 -0.47744,1.43061 -1.43232,1.43061c-0.95488,0 -1.43232,-0.48825 -1.43232,-1.46475v-6.65798c0,-0.98333 -0.48597,-1.475 -1.45792,-1.475z" fill="#ffffff"/><path d="M248.01422,336.2387c0,2.94317 -1.44029,4.41475 -4.32086,4.41475h-0.97821c-0.97196,0 -1.45736,-0.47744 -1.45622,-1.43232c0.00113,-0.95488 0.47858,-1.43175 1.43232,-1.43061l0.97821,-0.0239c0.96968,0 1.45508,-0.48541 1.45622,-1.45622v-9.09412c-0.95488,0 -1.44882,-0.4689 -1.48183,-1.40671c0,-0.97138 0.50362,-1.44939 1.50573,-1.43232l1.40841,-0.02561c0.96968,0 1.45508,0.47744 1.45622,1.43232z" fill="#ffffff"/><path d="M249.87675,328.76809c0,-2.92837 1.44029,-4.39199 4.32086,-4.39085h4.77155c0.95602,0 1.43403,0.47744 1.43403,1.43232v9.56359c0,0.96968 -0.47004,1.45451 -1.41013,1.45451c-0.96968,0 -1.45451,-0.48483 -1.45451,-1.45451v-2.39005l-4.78009,-0.0222v2.41223c0,0.96968 -0.47687,1.45451 -1.43062,1.45451c-0.97081,0 -1.45622,-0.47687 -1.45622,-1.43061zM252.76359,330.10481h4.78009v-2.86464h-3.32387c-0.97196,0 -1.45792,0.49337 -1.45792,1.48012z" fill="#ffffff"/><path d="M267.01166,335.33216c-0.01707,0.98675 -0.50248,1.48752 -1.45622,1.50231c-0.95374,0.0148 -1.43061,-0.47232 -1.43061,-1.46134v-13.43204c0,-0.95431 0.48313,-1.43061 1.45451,-1.43061c0.97138,0 1.43232,0.48483 1.43232,1.45451z" fill="#ec2127"/><path d="M273.60646,336.73889c-0.63734,0.03187 -1.10682,-0.19063 -1.40841,-0.6675l-3.34094,-4.22525c-0.43021,-0.01536 -0.70848,-0.1434 -0.83651,-0.3807c-0.06317,-0.1434 -0.10414,-0.51216 -0.1195,-1.09771c0,-0.92415 0.46151,-1.38566 1.38452,-1.38452h1.12161l4.15355,4.91666c0.38127,0.3016 0.55597,0.80294 0.5241,1.50402c-0.00455,0.89 -0.49736,1.33501 -1.47841,1.33501z" fill="#ec2127"/><path d="M274.55395,327.07284l-3.96235,4.79886h-1.5945c-0.92188,0 -1.38281,-0.46151 -1.38281,-1.38452c0,-0.95602 0.4689,-1.44939 1.40671,-1.48012l3.17535,-4.09722c0.3016,-0.46094 0.77107,-0.68344 1.40841,-0.66751c0.98675,0 1.47955,0.44558 1.47841,1.33671c0.02959,0.69425 -0.14682,1.19218 -0.52923,1.49378z" fill="#ec2127"/><path d="M279.73352,336.8106c-0.98675,0 -1.48012,-0.48541 -1.48012,-1.45622v-8.11419c-0.95431,0 -1.43403,-0.46093 -1.43403,-1.38452c0,-0.95431 0.47972,-1.44769 1.43403,-1.47841l1.45622,-0.02561c0.95374,0.03187 1.43061,0.51784 1.43061,1.45792v9.54481c0,0.97196 -0.4689,1.45736 -1.40671,1.45622z" fill="#ec2127"/><path d="M297.89615,336.83448l-10.52473,-0.0239c-2.86464,0 -4.29696,-1.47159 -4.29696,-4.41475v-6.61189c0,-0.95488 0.47744,-1.43232 1.43232,-1.43232c0.95488,0 1.43232,0.48711 1.43232,1.46134v6.65798c0,0.98675 0.49281,1.48012 1.47841,1.48012h2.39004l-0.0239,-8.1637c0,-0.95488 0.47744,-1.43232 1.43232,-1.43232c0.95488,0 1.43118,0.48597 1.4289,1.45792v6.65798c0,0.98675 0.48541,1.48012 1.45622,1.48012h2.39004v-8.11932c0,-0.96968 0.48541,-1.45451 1.45622,-1.45451c0.93894,0 1.40785,0.48483 1.40671,1.45451v9.5414c-0.00228,0.95943 -0.48825,1.44655 -1.45792,1.46134z" fill="#ec2127"/><path d="M304.19732,336.8106c-0.97196,0 -1.45736,-0.48541 -1.45622,-1.45622v-8.11419c-0.97081,0 -1.44825,-0.46151 -1.43232,-1.38452c0,-0.95488 0.47744,-1.44769 1.43232,-1.47841l1.43232,-0.02561c0.95374,0.03187 1.43118,0.51784 1.43232,1.45792v9.54481c0,0.97196 -0.46947,1.45736 -1.40841,1.45622z" fill="#ec2127"/><path d="M226.81966,320.03247c0.42629,-0.25496 0.95823,-0.25496 1.38452,0c0.23018,0.11787 0.42072,0.30069 0.548,0.52581c0.2548,0.44344 0.2548,0.98888 0,1.43232c-0.12457,0.21851 -0.30558,0.39953 -0.5241,0.5241c-0.22037,0.11839 -0.46527,0.18385 -0.71531,0.1912c-0.24339,-0.00099 -0.48209,-0.067 -0.69141,-0.1912c-0.22421,-0.12595 -0.41322,-0.30615 -0.54971,-0.5241c-0.2548,-0.44344 -0.2548,-0.98888 0,-1.43232c0.13579,-0.21836 0.32421,-0.39916 0.548,-0.52581z" fill="#ec2127"/><path d="M245.57809,320.03247c0.21979,-0.11874 0.46396,-0.18534 0.71359,-0.19461c0.24329,0.00172 0.4818,0.06769 0.69141,0.1912c0.22673,0.11489 0.41092,0.29908 0.52581,0.52581c0.12939,0.21585 0.19563,0.46368 0.1912,0.71531c-0.00006,0.24906 -0.05853,0.49464 -0.17072,0.71701c-0.12752,0.22511 -0.31877,0.40746 -0.54971,0.5241c-0.20798,0.12481 -0.44545,0.19199 -0.68799,0.19461c-0.25065,-0.00691 -0.49621,-0.07239 -0.71701,-0.1912c-0.21888,-0.1241 -0.4,-0.30523 -0.5241,-0.5241c-0.2548,-0.44344 -0.2548,-0.98888 0,-1.43232c0.13349,-0.21317 0.31392,-0.39301 0.52752,-0.52581z" fill="#ec2127"/><path d="M278.7058,320.03247c0.42692,-0.25489 0.9593,-0.25489 1.38622,0c0.22553,0.11595 0.40889,0.2999 0.5241,0.52581c0.13677,0.21382 0.21126,0.46151 0.2151,0.71531c-0.00771,0.25054 -0.07315,0.4959 -0.1912,0.71701c-0.12417,0.21882 -0.30528,0.39993 -0.5241,0.5241c-0.44397,0.25511 -0.99005,0.25511 -1.43403,0c-0.21967,-0.12304 -0.40105,-0.30443 -0.5241,-0.5241c-0.2548,-0.44344 -0.2548,-0.98888 0,-1.43232c0.13579,-0.21836 0.32421,-0.39916 0.548,-0.52581z" fill="#ffffff"/><path d="M303.17131,320.03247c0.42566,-0.25503 0.95715,-0.25503 1.38281,0c0.23135,0.11684 0.42271,0.29988 0.54972,0.52581c0.25273,0.44399 0.25273,0.98832 0,1.43232c-0.12477,0.21894 -0.30647,0.40004 -0.52581,0.5241c-0.22074,0.119 -0.46633,0.18449 -0.71701,0.1912c-0.24049,-0.0025 -0.47605,-0.06846 -0.68287,-0.1912c-0.22647,-0.11445 -0.41063,-0.29801 -0.52581,-0.5241c-0.2548,-0.44344 -0.2548,-0.98888 0,-1.43232c0.11311,-0.22569 0.29479,-0.40976 0.51898,-0.52581z" fill="#ffffff"/></g></g></g></svg>