<svg version="1.1" xmlns="http://www.w3.org/2000/svg" xmlns:xlink="http://www.w3.org/1999/xlink" width="173.21453" height="184.01033" viewBox="0,0,173.21453,184.01033"><defs><linearGradient x1="188.91817" y1="93.04525" x2="206.45622" y2="130.69062" gradientUnits="userSpaceOnUse" id="color-1"><stop offset="0" stop-color="#d65115"/><stop offset="1" stop-color="#ad3c10"/></linearGradient><linearGradient x1="251.38561" y1="90.54923" x2="243.94265" y2="131.58127" gradientUnits="userSpaceOnUse" id="color-2"><stop offset="0" stop-color="#d65115"/><stop offset="1" stop-color="#ad3c10"/></linearGradient><linearGradient x1="210.22193" y1="89.07978" x2="216.12774" y2="130.37514" gradientUnits="userSpaceOnUse" id="color-3"><stop offset="0" stop-color="#d65115"/><stop offset="1" stop-color="#ad3c10"/></linearGradient><linearGradient x1="230.53873" y1="88.75448" x2="228.348" y2="130.43288" gradientUnits="userSpaceOnUse" id="color-4"><stop offset="0" stop-color="#d65115"/><stop offset="1" stop-color="#ad3c10"/></linearGradient></defs><g transform="translate(-153.39274,-87.99484)"><g data-paper-data="{&quot;isPaintingLayer&quot;:true}" fill-rule="nonzero" stroke-linejoin="miter" stroke-miterlimit="10" stroke-dasharray="" stroke-dashoffset="0" style="mix-blend-mode: normal"><path d="M203.57161,237.84371l2.5463,-10.40065h36.75806c0,0 1.86728,10.93204 1.86728,12.90782c0,0.39842 -6.28086,7.33849 -6.28086,7.33849c0,0 -20.88682,0.90393 -27.54298,-0.4472c-2.86939,-0.58246 -7.3478,-9.39846 -7.3478,-9.39846z" fill="#b4531b" stroke="none" stroke-width="0" stroke-linecap="butt"/><path d="M217.11725,238.64334l-2.53504,16.05525l-11.61892,2.11253l-8.02762,-7.60511l8.02763,-20.06906l1.47877,1.26752l10.86419,-0.33552z" data-paper-data="{&quot;index&quot;:null}" fill="#d1852d" stroke="#8b3e19" stroke-width="3" stroke-linecap="round"/><path d="M210.46799,244.11182l-1.05627,10.35141" data-paper-data="{&quot;index&quot;:null}" fill="none" stroke="#c8711b" stroke-width="0.5" stroke-linecap="round"/><path d="M204.74328,240.59843l-5.07008,11.19642" data-paper-data="{&quot;index&quot;:null}" fill="none" stroke="#c8711b" stroke-width="0.5" stroke-linecap="round"/><path d="M233.1668,237.43835l8.82716,5.25836l1.47877,-1.26752l8.02762,20.06906l-8.02762,7.60512l-11.61893,-2.11253l-2.53503,-16.05525z" fill="#d1852d" stroke="#8b3e19" stroke-width="3" stroke-linecap="round"/><path d="M238.32549,240.26718c0,2.1001 -4.81399,10.77391 -13.0977,10.77391c-8.28371,0 -16.90026,-8.67382 -16.90026,-10.77391c0,-2.1001 6.71527,-3.80256 14.99898,-3.80256c8.28371,0 14.99898,1.70246 14.99898,3.80256z" fill="#de9333" stroke="none" stroke-width="0" stroke-linecap="butt"/><path d="M235.96803,256.40407l1.05626,10.35141" fill="none" stroke="#c8711b" stroke-width="0.5" stroke-linecap="round"/><path d="M246.76282,264.08709l-5.07008,-11.19642" fill="none" stroke="#c8711b" stroke-width="0.5" stroke-linecap="round"/><path d="M223.3152,245.57586c0,-0.27614 0.22386,-0.5 0.5,-0.5c0.27614,0 0.5,0.22386 0.5,0.5c0,0.27614 -0.22386,0.5 -0.5,0.5c-0.27614,0 -0.5,-0.22386 -0.5,-0.5z" fill="#8b631d" stroke="none" stroke-width="0.5" stroke-linecap="butt"/><path d="M247.85135,211.47781l11.78054,-5.29089l18.25534,7.85207l15.17352,15.31259l-3.78044,10.42606l-2.37552,0.88505l-4.98767,8.39601l-7.45667,-4.88676l-8.67541,-1.50199l-3.64113,-8.56272l-16.31851,-11.72983z" fill="#b45222" stroke="#8b4120" stroke-width="3" stroke-linecap="round"/><path d="M261.52508,231.84125l0.64402,-1.4089l6.10246,0.06427l-0.19334,-5.5389l7.3342,-0.39464l-3.60282,-5.90512l5.69187,0.21724l-1.63436,-3.1317l1.18342,-1.84365l15.32491,16.03268l-3.22411,8.91626l-4.69755,2.45155l-2.21784,5.96966l-7.22161,-4.32308l-7.68848,-1.81125z" fill="#d1852d" stroke="#d1852d" stroke-width="0.5" stroke-linecap="round"/><path d="M207.18663,230.95761l-16.69107,11.19333l-3.91748,8.43989l-8.71964,1.21927l-7.61154,4.64186l-4.71218,-8.55367l-2.3455,-0.96178l-3.43963,-10.54341l15.66312,-14.8114l18.50087,-7.25468l11.60238,5.67092z" data-paper-data="{&quot;index&quot;:null}" fill="#b45222" stroke="#8b4120" stroke-width="3" stroke-linecap="round"/><path d="M185.08793,249.00729l-7.74329,1.56043l-7.35827,4.08611l-2.02267,-6.03858l-4.61541,-2.60291l-2.93265,-9.01632l15.83784,-15.5262l1.12287,1.88113l-1.73527,3.07692l5.69592,-0.03215l-3.79283,5.78493l7.31751,0.63278l-0.37324,5.52969l6.10133,0.13407l0.59789,1.42908z" data-paper-data="{&quot;index&quot;:null}" fill="#d1852d" stroke="#d1852d" stroke-width="0.5" stroke-linecap="round"/><g stroke="none" stroke-width="0" stroke-linecap="butt"><path d="M236.16146,241.99655l-0.78657,-6.1894l7.82955,-2.29235l0.78658,6.1894z" fill="#d3cc45"/><path d="M207.89322,243.95182l1.84066,-6.00242l5.74144,1.76063l-1.84065,6.00242z" fill="#d3cc45"/><path d="M220.92839,246.21793l-0.98593,-6.1894l9.81395,-2.29234l0.98594,6.1894z" fill="#d3cc45"/><path d="M198.79556,239.81244l2.51097,-5.7543l5.50412,2.40179l-2.51097,5.75431z" fill="#d3cc45"/><path d="M191.58427,232.857v-12.35029h59.29042v12.35029c0,0 -19.94019,9.00106 -29.85696,9.00106c-9.8462,0 -29.43346,-9.00106 -29.43346,-9.00106z" fill="#b11000"/><path d="M189.20771,226.50323v-13.35166h63.36381v13.35166c0,0 -21.31013,9.73087 -31.90821,9.73087c-10.52265,0 -31.4556,-9.73087 -31.4556,-9.73087z" fill="#009cbd"/><path d="M191.35797,221.93807v-11.61482h59.74303v11.61482c0,0 -20.09241,8.46504 -30.08488,8.46504c-9.92136,0 -29.65814,-8.46504 -29.65814,-8.46504z" fill="#7e0100"/></g><path d="M268.80361,169.18223l0.83883,-20.132l23.20773,5.87183l8.10872,23.48734l-1.11845,4.75339l-12.02328,1.67766l-6.15145,-15.09901l-5.59222,-0.55922z" fill="#aa4a1a" stroke="#853c18" stroke-width="3" stroke-linecap="round"/><path d="M171.19058,174.71116l9.67803,34.39157l-9.33239,2.41951h-3.45644l-8.46828,-5.70313l-4.6662,-18.31913l2.41951,-8.6411l9.67803,-2.76515z" fill="#b04b1d" stroke="#853c18" stroke-width="3" stroke-linecap="round"/><path d="M278.51302,176.09373l9.67803,2.76515l2.41951,8.6411l-4.6662,18.31913l-8.46828,5.70313h-3.45644l-9.33238,-2.41951l9.67803,-34.39157z" data-paper-data="{&quot;index&quot;:null}" fill="#b04b1d" stroke="#853c18" stroke-width="3" stroke-linecap="round"/><path d="M273.88007,180.00859l6.83823,1.95378l1.70955,6.10556l-3.29701,12.9438l-5.98345,4.02967h-2.44223l-6.59402,-1.70956l6.83823,-24.30015z" data-paper-data="{&quot;index&quot;:null}" fill="#d1852d" stroke="none" stroke-width="0" stroke-linecap="round"/><path d="M171.86277,179.31132l6.83823,24.30015l-6.59402,1.70955h-2.44222l-5.98345,-4.02967l-3.29701,-12.9438l1.70956,-6.10557l6.83823,-1.95378z" fill="#d1852d" stroke="none" stroke-width="0" stroke-linecap="round"/><path d="M273.08065,191.15944c0,18.77123 -22.80336,33.98833 -50.93273,33.98833c-28.12937,0 -54.44532,-15.79317 -54.44532,-34.5644c0,-6.03501 -0.57011,-42.81061 3.56319,-47.7233c3.83963,-4.56364 7.6461,-11.81349 15.60979,-16.88799c10.12823,-6.45376 25.17323,-10.27823 35.85779,-10.27823c8.57263,0 30.35392,3.53738 37.36693,11.39045c3.58504,4.01448 9.88946,8.80638 12.06352,13.97254c7.52801,17.88854 0.91684,39.97644 0.91684,50.1026z" fill="#a45120" stroke="#853c18" stroke-width="3" stroke-linecap="butt"/><path d="M241.35015,120.89161c0.07079,0.21238 0.00074,0.68073 -0.17107,1.24103c0.29633,1.48367 -0.3897,3.46705 -1.28397,4.74176c-0.16049,0.33856 -0.40643,0.62874 -0.70996,0.84269c-0.36501,0.335 -0.80769,0.57909 -1.24318,0.39334c-0.77525,0 -1.45513,-0.40836 -1.83624,-1.02172l-1.35967,1.63161l-0.05222,-0.04352l-0.0798,0.18809c-6.71241,5.41905 -15.73217,1.60826 -21.83413,-2.96773c0,0 -1.32811,-0.99609 -0.7826,-2.40613l-1.58536,-0.90289c0,0 -1.87564,-1.0718 -0.80384,-2.94744c0.25372,-0.44401 0.55248,-0.72285 0.86075,-0.88984c0.10403,-0.11933 0.21926,-0.24239 0.34625,-0.36938c1.70057,-1.70058 5.56137,1.73484 7.06059,2.41507c5.7402,2.60443 11.85977,2.57131 17.94487,1.05004l0.05899,-0.03932c0.2808,-0.10029 0.63509,-0.37781 1.00338,-0.67797c1.17546,-2.16761 3.18488,-4.08466 4.46721,-0.23768z" fill="#a45120" stroke="none" stroke-width="0.5" stroke-linecap="butt"/><path d="M225.50486,200.47667c0,3.1213 -1.4002,18.37645 -11.06383,20.87158c-5.29681,1.36762 -13.39208,0.35151 -19.8272,-2.34193c-2.09303,-0.87605 -3.84253,-1.92472 -5.23135,-2.86191c-1.64679,-1.11127 -2.78646,-2.06575 -3.39045,-2.38976c-5.62859,-3.01949 -10.8009,-18.59705 -10.8009,-24.64545c0,-6.0484 3.95385,-10.298 10.39242,-10.298c1.64128,0 7.80434,-0.08598 12.15107,1.42662c1.36513,0.47504 5.87448,3.95224 7.34113,4.54068c3.21863,1.29134 0.98162,0.87431 4.08131,2.58007c8.63336,4.75093 16.3478,10.15839 16.3478,13.1181z" fill="#de9333" stroke="none" stroke-width="0" stroke-linecap="butt"/><path d="M240.86348,218.40001c0,5.64728 -8.12438,10.2253 -18.14631,10.2253c-10.02193,0 -18.14631,-4.57802 -18.14631,-10.2253c0,-5.64728 7.83634,-18.72239 17.85827,-18.72239c10.02193,0 18.43434,13.07511 18.43434,18.72239z" fill="#de9333" stroke="none" stroke-width="0" stroke-linecap="butt"/><path d="M236.7891,187.36808c2.9102,-1.65049 0.80994,-1.24698 3.83182,-2.49648c1.377,-0.56936 5.61068,-3.93388 6.89236,-4.39353c4.08102,-1.46358 9.86732,-1.38039 11.40826,-1.38039c6.04497,0 9.75713,4.1119 9.75713,9.9643c0,5.85241 -4.85613,20.9252 -10.14064,23.84684c-0.56706,0.31351 -1.63707,1.23707 -3.18319,2.31232c-1.30392,0.90681 -2.94646,1.92151 -4.91154,2.76917c-6.04174,2.60616 -13.64215,3.58935 -18.61516,2.26605c-9.07288,-2.41428 -10.38748,-17.1751 -10.38748,-20.19525c0,-2.86381 7.24285,-8.09604 15.34844,-12.69302z" data-paper-data="{&quot;index&quot;:null}" fill="#de9333" stroke="none" stroke-width="0" stroke-linecap="butt"/><path d="M213.85041,210.39052c-3.25456,7.10065 -12.68277,9.34762 -21.05848,5.01852c-8.37571,-4.3291 -12.52723,-13.59475 -9.27261,-20.69559c3.25456,-7.10065 12.68277,-9.34762 21.05848,-5.01852c8.37571,4.3291 12.52723,13.59475 9.27261,20.69559z" fill="#ffffff" stroke="#954116" stroke-width="0" stroke-linecap="butt"/><path d="M210.39484,206.7035c0,3.22118 -2.30852,5.83246 -5.15624,5.83246c-2.8477,0 -5.15623,-2.61129 -5.15623,-5.83246c0,-3.22118 2.30852,-5.83245 5.15623,-5.83245c2.8477,0 5.15624,2.61128 5.15624,5.83245z" fill="#ad4100" stroke="#46251d" stroke-width="0.5" stroke-linecap="butt"/><path d="M198.62728,181.40438l13.98407,7.304l-4.62891,6.71986l-12.61809,-7.92189z" fill="#562d0a" stroke="#562d0a" stroke-width="0.5" stroke-linecap="round"/><path d="M239.01199,189.79464c8.37571,-4.3291 17.80392,-2.08213 21.05848,5.01852c3.25462,7.10084 -0.8969,16.36649 -9.27261,20.69559c-8.37571,4.3291 -17.80392,2.08212 -21.05848,-5.01853c-3.25462,-7.10084 0.89691,-16.36648 9.27262,-20.69558z" data-paper-data="{&quot;index&quot;:null}" fill="#ffffff" stroke="#954116" stroke-width="0" stroke-linecap="butt"/><path d="M249.3931,187.86132l-12.61808,7.92188l-4.62891,-6.71985l13.98406,-7.30399z" data-paper-data="{&quot;index&quot;:null}" fill="#562d0a" stroke="#562d0a" stroke-width="0.5" stroke-linecap="round"/><path d="M207.89953,106.84108c4.843,10.39548 4.19681,21.07329 -1.44332,23.84955c-5.64012,2.77626 -14.13837,-3.40034 -18.98137,-13.79582c-4.843,-10.39548 -4.1968,-21.07329 1.44332,-23.84955c5.64012,-2.77626 14.13837,3.40034 18.98136,13.79582z" fill="url(#color-1)" stroke="#783b1a" stroke-width="1.5" stroke-linecap="butt"/><path d="M258.79519,113.1986c-2.05532,11.33068 -8.70503,19.56089 -14.85254,18.38267c-6.14751,-1.17822 -9.46491,-11.31868 -7.40959,-22.64937c2.05532,-11.33068 8.70503,-19.56089 14.85255,-18.38267c6.14751,1.17822 9.4649,11.31868 7.40958,22.64936z" fill="url(#color-2)" stroke="#783b1a" stroke-width="1.5" stroke-linecap="butt"/><path d="M224.37734,108.03471c1.63084,11.4034 -2.06263,21.40556 -8.2496,22.34044c-6.18697,0.93488 -12.52457,-7.55152 -14.15541,-18.95492c-1.63084,-11.4034 2.06263,-21.40556 8.2496,-22.34044c6.18697,-0.93488 12.52457,7.55152 14.15541,18.95492z" fill="url(#color-3)" stroke="#783b1a" stroke-width="1.5" stroke-linecap="butt"/><path d="M240.74978,110.2216c-0.60496,11.50917 -6.15742,20.55807 -12.40178,20.21128c-6.24436,-0.34679 -10.816,-9.95795 -10.21105,-21.46712c0.60496,-11.50917 6.15742,-20.55806 12.40178,-20.21127c6.24436,0.34679 10.816,9.95795 10.21105,21.46711z" fill="url(#color-4)" stroke="#783b1a" stroke-width="1.5" stroke-linecap="butt"/><path d="M200.14117,135.52597l6.08598,-5.96316l32.80966,-0.86943l7.39011,6.83259c0,0 -16.3929,3.42857 -24.28857,3.42857c-7.514,0 -21.99719,-3.42857 -21.99719,-3.42857z" fill="#4a2f18" stroke="none" stroke-width="0" stroke-linecap="butt"/><path d="M238.66528,138.06641c-3.26601,-5.06906 -3.62193,-10.65491 -0.79495,-12.47634c2.82698,-1.82143 7.76633,0.8113 11.03234,5.88037c3.26601,5.06906 3.62192,10.65491 0.79494,12.47634c-2.82698,1.82143 -7.76632,-0.8113 -11.03233,-5.88036z" fill="#b14412" stroke="#783b1a" stroke-width="0" stroke-linecap="butt"/><path d="M228.15528,136.92879c2.15908,-3.36084 6.18982,-5.43498 9.0029,-4.6327c2.81309,0.80228 3.34328,4.17714 1.1842,7.53798c-2.15908,3.36084 -6.18982,5.43497 -9.0029,4.6327c-2.81309,-0.80228 -3.34328,-4.17713 -1.1842,-7.53797z" fill="#b14412" stroke="#783b1a" stroke-width="0" stroke-linecap="butt"/><g stroke="none" stroke-linecap="butt"><path d="M243.90715,267.0138l35.39345,-51.72242l7.29419,4.99138l-35.39345,51.72242z" fill="#846644" stroke-width="NaN"/><path d="M269.50323,215.31842c0,0 4.35618,-29.80288 5.19665,-35.55299c0.26921,-1.8418 0.53316,-3.64761 0.53316,-3.64761c0,0 -5.7435,-8.47146 -4.07979,-8.22828c0.70228,0.10265 6.70915,1.26209 9.89092,3.6377c3.17324,2.36924 3.52234,5.95482 3.52234,5.95482l-5.72981,39.20059z" fill="#846746" stroke-width="0"/><path d="M282.11024,220.69074l28.86314,-27.13736c0,0 3.13987,-1.7662 6.89898,-0.52046c3.76922,1.24909 8.15835,5.51081 8.64451,6.02789c1.15174,1.22498 -9.08222,1.36474 -9.08222,1.36474c0,0 -1.3296,1.25011 -2.6857,2.52513c-4.23377,3.98062 -26.17744,24.61223 -26.17744,24.61223z" data-paper-data="{&quot;index&quot;:null}" fill="#846746" stroke-width="0"/><path d="M269.59726,214.99261l3.45414,-5.04773l18.02763,12.33623l-3.45414,5.04774z" fill="#846644" stroke-width="0"/><path d="M300.75129,216.18943c-1.1647,0.12853 -1.29323,-1.03617 -1.29323,-1.03617l-0.08126,-0.99076c0.0963,-0.88 0.42735,-1.73448 0.43623,-2.61969c0.00513,-0.51219 -3.66778,-1.50542 -4.0014,-1.62862c0,0 -1.09922,-0.40591 -0.69331,-1.50513c0.40591,-1.09922 1.50512,-0.69331 1.50512,-0.69331c1.7464,0.64489 4.94593,1.10524 5.46797,3.27828c0.26819,1.11638 -0.26057,2.28145 -0.38491,3.42284l0.08097,0.47932c0,0 0.12853,1.1647 -1.03617,1.29323z" fill="#efdbbb" stroke-width="0.5"/><path d="M282.42325,199.57515c-0.8473,0.79766 -1.50809,0.00112 -1.50809,0.00112l-0.68186,-0.83557c-2.83411,-1.91844 -4.15677,-1.34765 -6.77149,1.11389c0,0 -0.8473,0.79766 -1.50809,0.00112c-0.66079,-0.79654 0.18651,-1.5942 0.18651,-1.5942c3.47839,-3.2746 5.96094,-3.81706 9.6135,-1.29882l0.85604,1.01827c0,0 0.66079,0.79654 -0.18651,1.5942z" fill="#efdbbb" stroke-width="0.5"/><path d="M279.30649,222.0882c-1.12667,-0.32198 -0.80469,-1.44865 -0.80469,-1.44865l0.447,-1.34531c0.74706,-1.09172 1.49412,-2.18344 2.24118,-3.27516c0,0 0.66174,-0.96703 1.62877,-0.3053c0.96703,0.66174 0.3053,1.62877 0.3053,1.62877c-0.74706,1.09172 -1.49412,2.18344 -2.24118,3.27516l-0.12773,0.6658c0,0 -0.32198,1.12667 -1.44864,0.80469z" fill="#efdbbb" stroke-width="0.5"/></g><path d="M243.03703,206.84052c0,3.22117 -2.30852,5.83246 -5.15623,5.83246c-2.84771,0 -5.15623,-2.61129 -5.15623,-5.83246c0,-3.22117 2.30853,-5.83245 5.15623,-5.83245c2.84771,0 5.15623,2.61128 5.15623,5.83245z" fill="#ad4100" stroke="#46251d" stroke-width="0.5" stroke-linecap="butt"/></g></g></svg>