<svg version="1.1" xmlns="http://www.w3.org/2000/svg" xmlns:xlink="http://www.w3.org/1999/xlink" width="149.12572" height="246.71117" viewBox="0,0,149.12572,246.71117"><defs><linearGradient x1="188.91817" y1="93.04524" x2="206.45622" y2="130.69061" gradientUnits="userSpaceOnUse" id="color-1"><stop offset="0" stop-color="#d65115"/><stop offset="1" stop-color="#ad3c10"/></linearGradient><linearGradient x1="251.38561" y1="90.54922" x2="243.94265" y2="131.58126" gradientUnits="userSpaceOnUse" id="color-2"><stop offset="0" stop-color="#d65115"/><stop offset="1" stop-color="#ad3c10"/></linearGradient><linearGradient x1="210.22193" y1="89.07977" x2="216.12774" y2="130.37513" gradientUnits="userSpaceOnUse" id="color-3"><stop offset="0" stop-color="#d65115"/><stop offset="1" stop-color="#ad3c10"/></linearGradient><linearGradient x1="230.53873" y1="88.75447" x2="228.348" y2="130.43287" gradientUnits="userSpaceOnUse" id="color-4"><stop offset="0" stop-color="#d65115"/><stop offset="1" stop-color="#ad3c10"/></linearGradient></defs><g transform="translate(-153.39273,-87.99484)"><g data-paper-data="{&quot;isPaintingLayer&quot;:true}" fill-rule="nonzero" stroke-linejoin="miter" stroke-miterlimit="10" stroke-dasharray="" stroke-dashoffset="0" style="mix-blend-mode: normal"><path d="M203.57161,237.8437l2.5463,-10.40065h36.75806c0,0 1.86728,10.93204 1.86728,12.90782c0,0.39842 -6.28086,7.33849 -6.28086,7.33849c0,0 -20.88682,0.90393 -27.54298,-0.4472c-2.86939,-0.58246 -7.3478,-9.39846 -7.3478,-9.39846z" fill="#b4531b" stroke="none" stroke-width="0" stroke-linecap="butt"/><path d="M217.11725,238.64333l-2.53504,16.05525l-11.61892,2.11253l-8.02762,-7.60511l8.02763,-20.06906l1.47877,1.26752l10.86419,-0.33552z" data-paper-data="{&quot;index&quot;:null}" fill="#d1852d" stroke="#8b3e19" stroke-width="3" stroke-linecap="round"/><path d="M210.46799,244.11181l-1.05627,10.35141" data-paper-data="{&quot;index&quot;:null}" fill="none" stroke="#c8711b" stroke-width="0.5" stroke-linecap="round"/><path d="M204.74328,240.59842l-5.07008,11.19642" data-paper-data="{&quot;index&quot;:null}" fill="none" stroke="#c8711b" stroke-width="0.5" stroke-linecap="round"/><path d="M233.1668,237.43834l8.82716,5.25836l1.47877,-1.26752l8.02762,20.06906l-8.02762,7.60512l-11.61893,-2.11253l-2.53503,-16.05525z" fill="#d1852d" stroke="#8b3e19" stroke-width="3" stroke-linecap="round"/><path d="M238.32549,240.26717c0,2.1001 -4.81399,10.77391 -13.0977,10.77391c-8.28371,0 -16.90026,-8.67382 -16.90026,-10.77391c0,-2.1001 6.71527,-3.80256 14.99898,-3.80256c8.28371,0 14.99898,1.70246 14.99898,3.80256z" fill="#de9333" stroke="none" stroke-width="0" stroke-linecap="butt"/><path d="M235.96803,256.40406l1.05626,10.35141" fill="none" stroke="#c8711b" stroke-width="0.5" stroke-linecap="round"/><path d="M246.76282,264.08709l-5.07008,-11.19642" fill="none" stroke="#c8711b" stroke-width="0.5" stroke-linecap="round"/><path d="M223.3152,245.57585c0,-0.27614 0.22386,-0.5 0.5,-0.5c0.27614,0 0.5,0.22386 0.5,0.5c0,0.27614 -0.22386,0.5 -0.5,0.5c-0.27614,0 -0.5,-0.22386 -0.5,-0.5z" fill="#8b631d" stroke="none" stroke-width="0.5" stroke-linecap="butt"/><path d="M256.71822,217.61274l12.29291,3.95713l8.30304,18.05469l1.01895,21.53306l-9.78849,5.21344l-2.35709,-0.93302l-9.32608,2.89726l-2.26708,-8.62222l-5.43851,-6.92397l3.02821,-8.79818l-4.26815,-19.63837z" fill="#b45222" stroke="#8b4120" stroke-width="3" stroke-linecap="round"/><path d="M253.24152,241.89345l1.42165,-0.61535l4.48989,4.13341l3.56475,-4.24375l5.71207,4.61719l1.27737,-6.79846l4.08248,3.97214l0.88271,-3.42045l2.11339,-0.57715l0.6493,22.16931l-8.36442,4.46443l-5.13069,-1.32405l-5.64417,2.9494l-2.46987,-8.04614l-4.49836,-6.49293z" fill="#d1852d" stroke="#d1852d" stroke-width="0.5" stroke-linecap="round"/><path d="M207.18663,230.9576l-16.69107,11.19333l-3.91748,8.43989l-8.71964,1.21927l-7.61154,4.64186l-4.71218,-8.55367l-2.3455,-0.96178l-3.43963,-10.54341l15.66312,-14.8114l18.50087,-7.25468l11.60238,5.67092z" data-paper-data="{&quot;index&quot;:null}" fill="#b45222" stroke="#8b4120" stroke-width="3" stroke-linecap="round"/><path d="M185.08793,249.00728l-7.74329,1.56043l-7.35827,4.08611l-2.02267,-6.03858l-4.61541,-2.60291l-2.93265,-9.01632l15.83784,-15.5262l1.12287,1.88113l-1.73527,3.07692l5.69592,-0.03215l-3.79283,5.78493l7.31751,0.63278l-0.37324,5.52969l6.10133,0.13407l0.59789,1.42908z" data-paper-data="{&quot;index&quot;:null}" fill="#d1852d" stroke="#d1852d" stroke-width="0.5" stroke-linecap="round"/><g stroke="none" stroke-width="0" stroke-linecap="butt"><path d="M236.16146,241.99654l-0.78657,-6.1894l7.82955,-2.29235l0.78658,6.1894z" fill="#d3cc45"/><path d="M207.89322,243.95181l1.84066,-6.00242l5.74144,1.76063l-1.84065,6.00242z" fill="#d3cc45"/><path d="M220.92839,246.21792l-0.98593,-6.1894l9.81395,-2.29234l0.98594,6.1894z" fill="#d3cc45"/><path d="M198.79556,239.81243l2.51097,-5.7543l5.50412,2.40179l-2.51097,5.75431z" fill="#d3cc45"/><path d="M191.58427,232.85699v-12.35029h59.29042v12.35029c0,0 -19.94019,9.00106 -29.85696,9.00106c-9.8462,0 -29.43346,-9.00106 -29.43346,-9.00106z" fill="#b11000"/><path d="M189.20771,226.50322v-13.35166h63.36381v13.35166c0,0 -21.31013,9.73087 -31.90821,9.73087c-10.52265,0 -31.4556,-9.73087 -31.4556,-9.73087z" fill="#009cbd"/><path d="M191.35797,221.93806v-11.61482h59.74303v11.61482c0,0 -20.09241,8.46504 -30.08488,8.46504c-9.92136,0 -29.65814,-8.46504 -29.65814,-8.46504z" fill="#7e0100"/></g><path d="M268.80361,169.18222l0.83883,-20.132l23.20773,5.87183l8.10872,23.48734l-1.11845,4.75339l-12.02328,1.67766l-6.15145,-15.09901l-5.59222,-0.55922z" fill="#aa4a1a" stroke="#853c18" stroke-width="3" stroke-linecap="round"/><path d="M171.19058,174.71115l9.67803,34.39157l-9.33239,2.41951h-3.45644l-8.46828,-5.70313l-4.6662,-18.31913l2.41951,-8.6411l9.67803,-2.76515z" fill="#b04b1d" stroke="#853c18" stroke-width="3" stroke-linecap="round"/><path d="M278.51302,176.09372l9.67803,2.76515l2.41951,8.6411l-4.6662,18.31913l-8.46828,5.70313h-3.45644l-9.33238,-2.41951l9.67803,-34.39157z" data-paper-data="{&quot;index&quot;:null}" fill="#b04b1d" stroke="#853c18" stroke-width="3" stroke-linecap="round"/><path d="M273.88007,180.00858l6.83823,1.95378l1.70955,6.10556l-3.29701,12.9438l-5.98345,4.02967h-2.44223l-6.59402,-1.70956l6.83823,-24.30015z" data-paper-data="{&quot;index&quot;:null}" fill="#d1852d" stroke="none" stroke-width="0" stroke-linecap="round"/><path d="M171.86277,179.31131l6.83823,24.30015l-6.59402,1.70955h-2.44222l-5.98345,-4.02967l-3.29701,-12.9438l1.70956,-6.10557l6.83823,-1.95378z" fill="#d1852d" stroke="none" stroke-width="0" stroke-linecap="round"/><path d="M273.08065,191.15943c0,18.77123 -22.80336,33.98833 -50.93273,33.98833c-28.12937,0 -54.44532,-15.79317 -54.44532,-34.5644c0,-6.03501 -0.57011,-42.81061 3.56319,-47.7233c3.83963,-4.56364 7.6461,-11.81349 15.60979,-16.88799c10.12823,-6.45376 25.17323,-10.27823 35.85779,-10.27823c8.57263,0 30.35392,3.53738 37.36693,11.39045c3.58504,4.01448 9.88946,8.80638 12.06352,13.97254c7.52801,17.88854 0.91684,39.97644 0.91684,50.1026z" fill="#a45120" stroke="#853c18" stroke-width="3" stroke-linecap="butt"/><path d="M241.35015,120.8916c0.07079,0.21238 0.00074,0.68073 -0.17107,1.24103c0.29633,1.48367 -0.3897,3.46705 -1.28397,4.74176c-0.16049,0.33856 -0.40643,0.62874 -0.70996,0.84269c-0.36501,0.335 -0.80769,0.57909 -1.24318,0.39334c-0.77525,0 -1.45513,-0.40836 -1.83624,-1.02172l-1.35967,1.63161l-0.05222,-0.04352l-0.0798,0.18809c-6.71241,5.41905 -15.73217,1.60826 -21.83413,-2.96773c0,0 -1.32811,-0.99609 -0.7826,-2.40613l-1.58536,-0.90289c0,0 -1.87564,-1.0718 -0.80384,-2.94744c0.25372,-0.44401 0.55248,-0.72285 0.86075,-0.88984c0.10403,-0.11933 0.21926,-0.24239 0.34625,-0.36938c1.70057,-1.70058 5.56137,1.73484 7.06059,2.41507c5.7402,2.60443 11.85977,2.57131 17.94487,1.05004l0.05899,-0.03932c0.2808,-0.10029 0.63509,-0.37781 1.00338,-0.67797c1.17546,-2.16761 3.18488,-4.08466 4.46721,-0.23768z" fill="#a45120" stroke="none" stroke-width="0.5" stroke-linecap="butt"/><path d="M225.50486,200.47666c0,3.1213 -1.4002,18.37645 -11.06383,20.87158c-5.29681,1.36762 -13.39208,0.35151 -19.8272,-2.34193c-2.09303,-0.87605 -3.84253,-1.92472 -5.23135,-2.86191c-1.64679,-1.11127 -2.78646,-2.06575 -3.39045,-2.38976c-5.62859,-3.01949 -10.8009,-18.59705 -10.8009,-24.64545c0,-6.0484 3.95385,-10.298 10.39242,-10.298c1.64128,0 7.80434,-0.08598 12.15107,1.42662c1.36513,0.47504 5.87448,3.95224 7.34113,4.54068c3.21863,1.29134 0.98162,0.87431 4.08131,2.58007c8.63336,4.75093 16.3478,10.15839 16.3478,13.1181z" fill="#de9333" stroke="none" stroke-width="0" stroke-linecap="butt"/><path d="M240.86348,218.4c0,5.64728 -8.12438,10.2253 -18.14631,10.2253c-10.02193,0 -18.14631,-4.57802 -18.14631,-10.2253c0,-5.64728 7.83634,-18.72239 17.85827,-18.72239c10.02193,0 18.43434,13.07511 18.43434,18.72239z" fill="#de9333" stroke="none" stroke-width="0" stroke-linecap="butt"/><path d="M236.7891,187.36807c2.9102,-1.65049 0.80994,-1.24698 3.83182,-2.49648c1.377,-0.56936 5.61068,-3.93388 6.89236,-4.39353c4.08102,-1.46358 9.86732,-1.38039 11.40826,-1.38039c6.04497,0 9.75713,4.1119 9.75713,9.9643c0,5.85241 -4.85613,20.9252 -10.14064,23.84684c-0.56706,0.31351 -1.63707,1.23707 -3.18319,2.31232c-1.30392,0.90681 -2.94646,1.92151 -4.91154,2.76917c-6.04174,2.60616 -13.64215,3.58935 -18.61516,2.26605c-9.07288,-2.41428 -10.38748,-17.1751 -10.38748,-20.19525c0,-2.86381 7.24285,-8.09604 15.34844,-12.69302z" data-paper-data="{&quot;index&quot;:null}" fill="#de9333" stroke="none" stroke-width="0" stroke-linecap="butt"/><path d="M213.85041,210.39051c-3.25456,7.10065 -12.68277,9.34762 -21.05848,5.01852c-8.37571,-4.3291 -12.52723,-13.59475 -9.27261,-20.69559c3.25456,-7.10065 12.68277,-9.34762 21.05848,-5.01852c8.37571,4.3291 12.52723,13.59475 9.27261,20.69559z" fill="#ffffff" stroke="#954116" stroke-width="0" stroke-linecap="butt"/><path d="M210.39484,206.70349c0,3.22118 -2.30852,5.83246 -5.15624,5.83246c-2.8477,0 -5.15623,-2.61129 -5.15623,-5.83246c0,-3.22118 2.30852,-5.83245 5.15623,-5.83245c2.8477,0 5.15624,2.61128 5.15624,5.83245z" fill="#ad4100" stroke="#46251d" stroke-width="0.5" stroke-linecap="butt"/><path d="M198.62728,181.40437l13.98407,7.304l-4.62891,6.71986l-12.61809,-7.92189z" fill="#562d0a" stroke="#562d0a" stroke-width="0.5" stroke-linecap="round"/><path d="M239.01199,189.79463c8.37571,-4.3291 17.80392,-2.08213 21.05848,5.01852c3.25462,7.10084 -0.8969,16.36649 -9.27261,20.69559c-8.37571,4.3291 -17.80392,2.08212 -21.05848,-5.01853c-3.25462,-7.10084 0.89691,-16.36648 9.27262,-20.69558z" data-paper-data="{&quot;index&quot;:null}" fill="#ffffff" stroke="#954116" stroke-width="0" stroke-linecap="butt"/><path d="M249.3931,187.86131l-12.61808,7.92188l-4.62891,-6.71985l13.98406,-7.30399z" data-paper-data="{&quot;index&quot;:null}" fill="#562d0a" stroke="#562d0a" stroke-width="0.5" stroke-linecap="round"/><path d="M207.89953,106.84107c4.843,10.39548 4.19681,21.07329 -1.44332,23.84955c-5.64012,2.77626 -14.13837,-3.40034 -18.98137,-13.79582c-4.843,-10.39548 -4.1968,-21.07329 1.44332,-23.84955c5.64012,-2.77626 14.13837,3.40034 18.98136,13.79582z" fill="url(#color-1)" stroke="#783b1a" stroke-width="1.5" stroke-linecap="butt"/><path d="M258.79519,113.19859c-2.05532,11.33068 -8.70503,19.56089 -14.85254,18.38267c-6.14751,-1.17822 -9.46491,-11.31868 -7.40959,-22.64937c2.05532,-11.33068 8.70503,-19.56089 14.85255,-18.38267c6.14751,1.17822 9.4649,11.31868 7.40958,22.64936z" fill="url(#color-2)" stroke="#783b1a" stroke-width="1.5" stroke-linecap="butt"/><path d="M224.37734,108.0347c1.63084,11.4034 -2.06263,21.40556 -8.2496,22.34044c-6.18697,0.93488 -12.52457,-7.55152 -14.15541,-18.95492c-1.63084,-11.4034 2.06263,-21.40556 8.2496,-22.34044c6.18697,-0.93488 12.52457,7.55152 14.15541,18.95492z" fill="url(#color-3)" stroke="#783b1a" stroke-width="1.5" stroke-linecap="butt"/><path d="M240.74978,110.22159c-0.60496,11.50917 -6.15742,20.55807 -12.40178,20.21128c-6.24436,-0.34679 -10.816,-9.95795 -10.21105,-21.46712c0.60496,-11.50917 6.15742,-20.55806 12.40178,-20.21127c6.24436,0.34679 10.816,9.95795 10.21105,21.46711z" fill="url(#color-4)" stroke="#783b1a" stroke-width="1.5" stroke-linecap="butt"/><path d="M200.14117,135.52597l6.08598,-5.96316l32.80966,-0.86943l7.39011,6.83259c0,0 -16.3929,3.42857 -24.28857,3.42857c-7.514,0 -21.99719,-3.42857 -21.99719,-3.42857z" fill="#4a2f18" stroke="none" stroke-width="0" stroke-linecap="butt"/><path d="M238.66528,138.0664c-3.26601,-5.06906 -3.62193,-10.65491 -0.79495,-12.47634c2.82698,-1.82143 7.76633,0.8113 11.03234,5.88037c3.26601,5.06906 3.62192,10.65491 0.79494,12.47634c-2.82698,1.82143 -7.76632,-0.8113 -11.03233,-5.88036z" fill="#b14412" stroke="#783b1a" stroke-width="0" stroke-linecap="butt"/><path d="M228.15528,136.92878c2.15908,-3.36084 6.18982,-5.43498 9.0029,-4.6327c2.81309,0.80228 3.34328,4.17714 1.1842,7.53798c-2.15908,3.36084 -6.18982,5.43497 -9.0029,4.6327c-2.81309,-0.80228 -3.34328,-4.17713 -1.1842,-7.53797z" fill="#b14412" stroke="#783b1a" stroke-width="0" stroke-linecap="butt"/><g stroke="none" stroke-linecap="butt"><path d="M266.64192,231.88967l-13.04287,61.3008l-8.64499,-1.83937l13.04287,-61.3008z" fill="#846644" stroke-width="NaN"/><path d="M262.64869,289.4364c0,0 7.31526,29.21771 8.72666,34.85492c0.45208,1.80564 0.89532,3.57599 0.89532,3.57599c0,0 8.5356,5.64774 6.90456,6.0561c-0.68849,0.17238 -6.68454,1.38654 -10.53103,0.40078c-3.83617,-0.98311 -5.52374,-4.16594 -5.52374,-4.16594l-9.62198,-38.43091z" fill="#846746" stroke-width="0"/><path d="M248.94578,289.26692l-16.36165,36.08066c0,0 -2.23129,2.82836 -6.18161,3.10717c-3.96095,0.27957 -9.64181,-1.99079 -10.28819,-2.28391c-1.5313,-0.6944 7.87917,-4.71889 7.87917,-4.71889c0,0 0.75371,-1.66209 1.52244,-3.3573c2.4,-5.29246 14.83921,-32.72336 14.83921,-32.72336z" data-paper-data="{&quot;index&quot;:null}" fill="#846746" stroke-width="0"/><path d="M262.68575,289.77347l-1.27289,5.98251l-21.36613,-4.54603l1.27288,-5.98252z" fill="#846644" stroke-width="0"/><path d="M233.4211,300.52457c1.02811,-0.56216 1.59028,0.46595 1.59028,0.46595l0.45225,0.88526c0.24589,0.85042 0.26499,1.76659 0.59371,2.58855c0.19021,0.47559 3.9647,-0.00392 4.32011,-0.01698c0,0 1.17098,-0.04303 1.21401,1.12795c0.04303,1.17098 -1.12794,1.214 -1.12794,1.214c-1.86041,0.06836 -4.99433,0.86047 -6.30418,-0.95031c-0.67292,-0.93027 -0.62741,-2.20891 -0.94686,-3.31171l-0.25731,-0.41242c0,0 -0.56216,-1.02811 0.46595,-1.59028z" fill="#efdbbb" stroke-width="0.5"/><path d="M256.69334,308.91231c0.47992,-1.06012 1.39415,-0.57504 1.39415,-0.57504l0.94857,0.51315c3.35099,0.69532 4.35684,-0.33593 5.83784,-3.60741c0,0 0.47992,-1.06012 1.39415,-0.57504c0.91423,0.48508 0.43431,1.5452 0.43431,1.5452c-1.9702,4.35207 -4.05942,5.79861 -8.39555,4.86015l-1.17918,-0.6158c0,0 -0.91423,-0.48508 -0.43431,-1.5452z" fill="#efdbbb" stroke-width="0.5"/><path d="M251.0066,286.90748c1.16442,-0.13109 1.29551,1.03333 1.29551,1.03333l0.0987,1.41419c-0.2753,1.29389 -0.5506,2.58779 -0.8259,3.88168c0,0 -0.24386,1.14611 -1.38997,0.90226c-1.14611,-0.24386 -0.90226,-1.38997 -0.90226,-1.38997c0.2753,-1.29389 0.5506,-2.58779 0.8259,-3.88168l-0.1353,-0.6643c0,0 -0.13109,-1.16442 1.03332,-1.2955z" fill="#efdbbb" stroke-width="0.5"/></g><path d="M243.03703,206.84051c0,3.22117 -2.30852,5.83246 -5.15623,5.83246c-2.84771,0 -5.15623,-2.61129 -5.15623,-5.83246c0,-3.22117 2.30853,-5.83245 5.15623,-5.83245c2.84771,0 5.15623,2.61128 5.15623,5.83245z" fill="#ad4100" stroke="#46251d" stroke-width="0.5" stroke-linecap="butt"/></g></g></svg>