<svg version="1.1" xmlns="http://www.w3.org/2000/svg" xmlns:xlink="http://www.w3.org/1999/xlink" width="366.28108" height="388.41391" viewBox="0,0,366.28108,388.41391"><defs><linearGradient x1="131.82774" y1="112.00621" x2="140.56426" y2="135.36687" gradientUnits="userSpaceOnUse" id="color-1"><stop offset="0" stop-color="#ff6219"/><stop offset="1" stop-color="#ad3c10"/></linearGradient><linearGradient x1="146.99212" y1="111.52768" x2="147.98463" y2="136.93121" gradientUnits="userSpaceOnUse" id="color-2"><stop offset="0" stop-color="#ff6219"/><stop offset="1" stop-color="#ad3c10"/></linearGradient><linearGradient x1="165.88276" y1="114.63721" x2="154.82492" y2="137.5293" gradientUnits="userSpaceOnUse" id="color-3"><stop offset="0" stop-color="#ff6219"/><stop offset="1" stop-color="#ad3c10"/></linearGradient><linearGradient x1="343.32956" y1="-4.20674" x2="343.32956" y2="200.17581" gradientUnits="userSpaceOnUse" id="color-4"><stop offset="0" stop-color="#b46189"/><stop offset="1" stop-color="#7b61b4"/></linearGradient><linearGradient x1="342.31605" y1="199.80712" x2="342.31605" y2="228.43354" gradientUnits="userSpaceOnUse" id="color-5"><stop offset="0" stop-color="#b52e6f"/><stop offset="1" stop-color="#7b61b4"/></linearGradient><linearGradient x1="342.39104" y1="158.1297" x2="342.39104" y2="191.5744" gradientUnits="userSpaceOnUse" id="color-6"><stop offset="0" stop-color="#b52e6f"/><stop offset="1" stop-color="#7b61b4"/></linearGradient><linearGradient x1="340.77308" y1="114.74523" x2="340.77308" y2="154.2159" gradientUnits="userSpaceOnUse" id="color-7"><stop offset="0" stop-color="#b52e6f"/><stop offset="1" stop-color="#7b61b4"/></linearGradient><linearGradient x1="336.9553" y1="78.05361" x2="336.9553" y2="92.09921" gradientUnits="userSpaceOnUse" id="color-8"><stop offset="0" stop-color="#b52e6f"/><stop offset="1" stop-color="#7b61b4"/></linearGradient><linearGradient x1="337.97878" y1="34.5608" x2="337.97878" y2="49.74111" gradientUnits="userSpaceOnUse" id="color-9"><stop offset="0" stop-color="#b52e6f"/><stop offset="1" stop-color="#7b61b4"/></linearGradient><linearGradient x1="343.32441" y1="153.12444" x2="343.32441" y2="193.99689" gradientUnits="userSpaceOnUse" id="color-10"><stop offset="0" stop-color="#a7397e"/><stop offset="1" stop-color="#392b7e"/></linearGradient><linearGradient x1="343.06928" y1="118.28491" x2="343.06928" y2="159.15737" gradientUnits="userSpaceOnUse" id="color-11"><stop offset="0" stop-color="#a7397e"/><stop offset="1" stop-color="#392b7e"/></linearGradient><linearGradient x1="340.71811" y1="75.06129" x2="340.71811" y2="115.93376" gradientUnits="userSpaceOnUse" id="color-12"><stop offset="0" stop-color="#a7397e"/><stop offset="1" stop-color="#392b7e"/></linearGradient><linearGradient x1="345.70303" y1="202.6636" x2="345.70303" y2="243.53606" gradientUnits="userSpaceOnUse" id="color-13"><stop offset="0" stop-color="#a7397e"/><stop offset="1" stop-color="#392b7e"/></linearGradient></defs><g transform="translate(-77.35947,4.20673)"><g data-paper-data="{&quot;isPaintingLayer&quot;:true}" fill-rule="nonzero" stroke-linejoin="miter" stroke-miterlimit="10" stroke-dasharray="" stroke-dashoffset="0" style="mix-blend-mode: normal"><path d="M110.14894,152.16971l-30.42477,-18.68188l26.6884,-5.87145l82.73403,-0.53377l23.48579,4.27015l-15.47927,12.81043l-12.81043,10.67536z" fill="#ff7810" stroke="#ff7810" stroke-width="1.5" stroke-linecap="round"/><path d="M172.52821,216.90011l11.78054,-5.29089l18.25534,7.85207l15.17352,15.31259l-3.78044,10.42606l-2.37552,0.88505l-4.98767,8.39601l-7.45667,-4.88676l-8.67541,-1.50199l-3.64113,-8.56272l-16.31851,-11.72983z" fill="#b45222" stroke="#8b4120" stroke-width="3" stroke-linecap="round"/><path d="M214.28182,243.30413l-12.75937,-0.90922l-2.04774,7.29978l-6.61955,-0.42597l-7.97648,-9.75204l-7.443,-3.24706l21.96001,-15.75966l16.91595,13.30697z" data-paper-data="{&quot;index&quot;:null}" fill="#606060" stroke="#606060" stroke-width="1.5" stroke-linecap="round"/><path d="M87.96268,186.21366c-5.65412,-5.09474 -8.02814,-11.78531 -5.30251,-14.9438c2.72563,-3.1585 9.51876,-1.58886 15.17288,3.50588c5.65412,5.09474 8.02813,11.78532 5.3025,14.9438c-2.72563,3.1585 -9.51876,1.58885 -15.17287,-3.50589z" fill="#fba210" stroke="none" stroke-width="0" stroke-linecap="butt"/><path d="M95.86744,180.13346l9.67803,34.39157l-9.33239,2.41951h-3.45644l-8.46828,-5.70313l-4.6662,-18.31913l2.41951,-8.6411l9.67803,-2.76515z" fill="#b04b1d" stroke="#853c18" stroke-width="3" stroke-linecap="round"/><path d="M96.53963,184.73363l6.83823,24.30015l-6.59402,1.70955h-2.44222l-5.98345,-4.02967l-3.29701,-12.9438l1.70956,-6.10557l6.83823,-1.95378z" fill="#d1852d" stroke="none" stroke-width="0" stroke-linecap="round"/><path d="M97.2728,196.28456c-3.18604,2.69338 -9.85213,0.25149 -14.88913,-5.45414c-5.03701,-5.70562 -6.53752,-12.51436 -3.35148,-15.20774c3.18604,-2.69339 9.85213,-0.25147 14.88914,5.45415c5.03701,5.70561 6.53751,12.51435 3.35147,15.20773z" data-paper-data="{&quot;index&quot;:null}" fill="#fc4a21" stroke="none" stroke-width="0" stroke-linecap="butt"/><path d="M106.41061,179.61756c0.31739,7.60425 -2.80663,13.8373 -6.97772,13.92188c-4.17109,0.08459 -7.80973,-6.01131 -8.12712,-13.61557c-0.31739,-7.60426 2.80665,-13.8373 6.97774,-13.92188c4.17109,-0.08459 7.80972,6.01131 8.12711,13.61557z" data-paper-data="{&quot;index&quot;:null}" fill="#fba210" stroke="none" stroke-width="0" stroke-linecap="butt"/><path d="M193.48047,174.60453l0.83883,-20.132l23.20773,5.87183l8.10872,23.48734l-1.11845,4.75339l-12.02328,1.67766l-6.15145,-15.09901l-5.59222,-0.55922z" fill="#aa4a1a" stroke="#853c18" stroke-width="3" stroke-linecap="round"/><path d="M219.16921,179.69673c5.03701,-5.70562 11.70309,-8.14753 14.88913,-5.45415c3.18604,2.69338 1.68554,9.50212 -3.35147,15.20774c-5.037,5.70562 -11.70309,8.14752 -14.88913,5.45414c-3.18604,-2.69338 -1.68554,-9.50212 3.35147,-15.20773z" fill="#fc4a21" stroke="none" stroke-width="0" stroke-linecap="butt"/><path d="M208.85186,182.58133c0.31739,-7.60426 3.95601,-13.70017 8.12711,-13.61557c4.17109,0.08458 7.29513,6.31762 6.97774,13.92188c-0.31739,7.60426 -3.95602,13.70016 -8.12711,13.61557c-4.17109,-0.08458 -7.29513,-6.31763 -6.97773,-13.92187z" fill="#fba210" stroke="none" stroke-width="0" stroke-linecap="butt"/><path d="M128.24847,243.26602l2.5463,-10.40065h36.75806c0,0 1.86728,10.93204 1.86728,12.90782c0,0.39842 -6.28086,7.33849 -6.28086,7.33849c0,0 -20.88682,0.90393 -27.54298,-0.4472c-2.86939,-0.58246 -7.3478,-9.39846 -7.3478,-9.39846z" fill="#b4531b" stroke="none" stroke-width="0" stroke-linecap="butt"/><path d="M141.79411,244.06565l-2.53504,16.05525l-11.61892,2.11253l-8.02762,-7.60511l8.02763,-20.06906l1.47877,1.26752l10.86419,-0.33552z" data-paper-data="{&quot;index&quot;:null}" fill="#d1852d" stroke="#8b3e19" stroke-width="3" stroke-linecap="round"/><path d="M134.08858,259.88553l1.05627,-10.35141" data-paper-data="{&quot;index&quot;:null}" fill="none" stroke="#c8711b" stroke-width="0.5" stroke-linecap="round"/><path d="M129.42014,246.02074l-5.07008,11.19642" data-paper-data="{&quot;index&quot;:null}" fill="none" stroke="#c8711b" stroke-width="0.5" stroke-linecap="round"/><path d="M157.84366,242.86066l8.82716,5.25836l1.47877,-1.26752l8.02762,20.06906l-8.02762,7.60512l-11.61893,-2.11253l-2.53503,-16.05525z" fill="#d1852d" stroke="#8b3e19" stroke-width="3" stroke-linecap="round"/><path d="M163.00235,245.68949c0,2.1001 -4.81399,10.77391 -13.0977,10.77391c-8.28371,0 -16.90026,-8.67382 -16.90026,-10.77391c0,-2.1001 6.71527,-3.80256 14.99898,-3.80256c8.28371,0 14.99898,1.70246 14.99898,3.80256z" fill="#de9333" stroke="none" stroke-width="0" stroke-linecap="butt"/><path d="M160.64489,261.82637l1.05626,10.35141" fill="none" stroke="#c8711b" stroke-width="0.5" stroke-linecap="round"/><path d="M171.43968,269.50941l-5.07008,-11.19642" fill="none" stroke="#c8711b" stroke-width="0.5" stroke-linecap="round"/><path d="M147.99206,250.99816c0,-0.27614 0.22386,-0.5 0.5,-0.5c0.27614,0 0.5,0.22386 0.5,0.5c0,0.27614 -0.22386,0.5 -0.5,0.5c-0.27614,0 -0.5,-0.22386 -0.5,-0.5z" fill="#8b631d" stroke="none" stroke-width="0.5" stroke-linecap="butt"/><path d="M186.20194,237.26355l0.64402,-1.4089l6.10246,0.06427l-0.19334,-5.5389l7.3342,-0.39464l-3.60282,-5.90512l5.69187,0.21724l-1.63436,-3.1317l1.18342,-1.84365l15.32491,16.03268l-3.22411,8.91626l-4.69755,2.45155l-2.21784,5.96966l-7.22161,-4.32308l-7.68848,-1.81125z" fill="#d1852d" stroke="#d1852d" stroke-width="0.5" stroke-linecap="round"/><path d="M130.4264,238.06381l-8.80831,18.06367l0.85293,9.26558l-6.92679,5.43491l-4.2492,7.83752l-8.37164,-5.02848l-2.5112,0.34677l-8.27097,-7.38821l6.10182,-20.67556l12.35189,-15.56738l12.88091,-0.92565z" data-paper-data="{&quot;index&quot;:null}" fill="#b45222" stroke="#8b4120" stroke-width="3" stroke-linecap="round"/><path d="M120.38701,264.7725l-5.91121,5.23938l-4.30942,7.22975l-4.78262,-4.20502l-5.29835,0.06817l-7.06542,-6.32253l5.89378,-21.38138l1.91594,1.06238l0.04544,3.53221l4.90877,-2.88939l-0.37313,6.90737l6.64491,-3.12914l2.45536,4.9687l5.34281,-2.94934l1.23492,0.93526z" data-paper-data="{&quot;index&quot;:null}" fill="#d1852d" stroke="#d1852d" stroke-width="0.5" stroke-linecap="round"/><g stroke="none" stroke-width="0" stroke-linecap="butt"><path d="M160.83832,247.41886l-0.78657,-6.1894l7.82955,-2.29235l0.78658,6.1894z" fill="#d3cc45"/><path d="M132.57008,249.37413l1.84066,-6.00242l5.74144,1.76063l-1.84065,6.00242z" fill="#6e553f"/><path d="M145.60525,251.64024l-0.98593,-6.1894l9.81395,-2.29234l0.98594,6.1894z" fill="#6e553f"/><path d="M123.47242,245.23474l2.51097,-5.7543l5.50412,2.40179l-2.51097,5.75431z" fill="#6e553f"/><path d="M88.74989,219.09384l15.56557,-1.1286l87.88762,-1.80995l4.34388,4.38651c0,0 -10.10402,12.36237 -22.83944,19.61722c-10.52064,5.99318 -23.52676,7.12135 -28.01294,7.12135c-5.14742,0 -20.47594,-6.61744 -33.93376,-13.96986c-0.97835,-0.5345 -1.94682,-2.15312 -2.90076,-2.68082c-11.0245,-6.09845 -20.11017,-11.53585 -20.11017,-11.53585z" fill="#a88a55"/><path d="M91.80318,216.72196l8.68776,-2.85395l76.75744,4.70587l15.20358,-2.5759c0,0 4.23198,-8.96396 3.41631,-7.72498c-1.57386,2.39066 -7.47222,12.71813 -11.83022,18.03887c-1.05346,1.28618 -2.01691,2.27979 -2.80751,2.79803c-11.59792,7.60236 -28.80759,12.54651 -35.89037,12.54651c-10.52265,0 -53.53699,-24.93445 -53.53699,-24.93445z" fill="#c6ad81"/><path d="M116.03483,227.36037v-11.61482h59.74303v11.61482c0,0 -20.09241,8.46504 -30.08488,8.46504c-9.92136,0 -29.65814,-8.46504 -29.65814,-8.46504z" fill="#7e0100"/></g><path d="M203.18987,181.51604l9.67803,2.76515l2.41951,8.6411l-4.6662,18.31913l-8.46828,5.70313h-3.45644l-9.33238,-2.41951l9.67803,-34.39157z" data-paper-data="{&quot;index&quot;:null}" fill="#b04b1d" stroke="#853c18" stroke-width="3" stroke-linecap="round"/><path d="M198.55693,185.4309l6.83823,1.95378l1.70955,6.10556l-3.29701,12.9438l-5.98345,4.02967h-2.44223l-6.59402,-1.70956l6.83823,-24.30015z" data-paper-data="{&quot;index&quot;:null}" fill="#d1852d" stroke="none" stroke-width="0" stroke-linecap="round"/><path d="M197.75751,196.58175c0,18.77123 -22.80336,33.98833 -50.93273,33.98833c-28.12937,0 -54.44532,-15.79317 -54.44532,-34.5644c0,-6.03501 -0.57011,-42.81061 3.56319,-47.7233c3.83963,-4.56364 7.6461,-11.81349 15.60979,-16.88799c10.12823,-6.45376 25.17323,-10.27823 35.85779,-10.27823c8.57263,0 30.35392,3.53738 37.36693,11.39045c3.58504,4.01448 9.88946,8.80638 12.06352,13.97254c7.52801,17.88854 0.91684,39.97644 0.91684,50.1026z" fill="#a45120" stroke="#853c18" stroke-width="3" stroke-linecap="butt"/><path d="M166.02701,126.31392c0.07079,0.21238 0.00074,0.68073 -0.17107,1.24103c0.29633,1.48367 -0.3897,3.46705 -1.28397,4.74176c-0.16049,0.33856 -0.40643,0.62874 -0.70996,0.84269c-0.36501,0.335 -0.80769,0.57909 -1.24318,0.39334c-0.77525,0 -1.45513,-0.40836 -1.83624,-1.02172l-1.35967,1.63161l-0.05222,-0.04352l-0.0798,0.18809c-6.71241,5.41905 -15.73217,1.60826 -21.83413,-2.96773c0,0 -1.32811,-0.99609 -0.7826,-2.40613l-1.58536,-0.90289c0,0 -1.87564,-1.0718 -0.80384,-2.94744c0.25372,-0.44401 0.55248,-0.72285 0.86075,-0.88984c0.10403,-0.11933 0.21926,-0.24239 0.34625,-0.36938c1.70057,-1.70058 5.56137,1.73484 7.06059,2.41507c5.7402,2.60443 11.85977,2.57131 17.94487,1.05004l0.05899,-0.03932c0.2808,-0.10029 0.63509,-0.37781 1.00338,-0.67797c1.17546,-2.16761 3.18488,-4.08466 4.46721,-0.23768z" fill="#a45120" stroke="none" stroke-width="0.5" stroke-linecap="butt"/><path d="M150.18172,205.89898c0,3.1213 -1.4002,18.37645 -11.06383,20.87158c-5.29681,1.36762 -13.39208,0.35151 -19.8272,-2.34193c-2.09303,-0.87605 -3.84253,-1.92472 -5.23135,-2.86191c-1.64679,-1.11127 -2.78646,-2.06575 -3.39045,-2.38976c-5.62859,-3.01949 -10.8009,-18.59705 -10.8009,-24.64545c0,-6.0484 3.95385,-10.298 10.39242,-10.298c1.64128,0 7.80434,-0.08598 12.15107,1.42662c1.36513,0.47504 5.87448,3.95224 7.34113,4.54068c3.21863,1.29134 0.98162,0.87431 4.08131,2.58007c8.63336,4.75093 16.3478,10.15839 16.3478,13.1181z" fill="#de9333" stroke="none" stroke-width="0" stroke-linecap="butt"/><path d="M165.54034,223.82231c0,5.64728 -8.12438,10.2253 -18.14631,10.2253c-10.02193,0 -18.14631,-4.57802 -18.14631,-10.2253c0,-5.64728 7.83634,-18.72239 17.85827,-18.72239c10.02193,0 18.43434,13.07511 18.43434,18.72239z" fill="#de9333" stroke="none" stroke-width="0" stroke-linecap="butt"/><path d="M161.46596,192.79039c2.9102,-1.65049 0.80994,-1.24698 3.83182,-2.49648c1.377,-0.56936 5.61068,-3.93388 6.89236,-4.39353c4.08102,-1.46358 9.86732,-1.38039 11.40826,-1.38039c6.04497,0 9.75713,4.1119 9.75713,9.9643c0,5.85241 -4.85613,20.9252 -10.14064,23.84684c-0.56706,0.31351 -1.63707,1.23707 -3.18319,2.31232c-1.30392,0.90681 -2.94646,1.92151 -4.91154,2.76917c-6.04174,2.60616 -13.64215,3.58935 -18.61516,2.26605c-9.07288,-2.41428 -10.38748,-17.1751 -10.38748,-20.19525c0,-2.86381 7.24285,-8.09604 15.34844,-12.69302z" data-paper-data="{&quot;index&quot;:null}" fill="#de9333" stroke="none" stroke-width="0" stroke-linecap="butt"/><path d="M138.52727,215.81282c-3.25456,7.10065 -12.68277,9.34762 -21.05848,5.01852c-8.37571,-4.3291 -12.52723,-13.59475 -9.27261,-20.69559c3.25456,-7.10065 12.68277,-9.34762 21.05848,-5.01852c8.37571,4.3291 12.52723,13.59475 9.27261,20.69559z" fill="#ffffff" stroke="#954116" stroke-width="0" stroke-linecap="butt"/><path d="M135.0717,212.12581c0,3.22118 -2.30852,5.83246 -5.15624,5.83246c-2.8477,0 -5.15623,-2.61129 -5.15623,-5.83246c0,-3.22118 2.30852,-5.83245 5.15623,-5.83245c2.8477,0 5.15624,2.61128 5.15624,5.83245z" fill="#ffffff" stroke="#fc4a21" stroke-width="1" stroke-linecap="butt"/><path d="M123.30414,186.82668l13.98407,7.304l-4.62891,6.71986l-12.61809,-7.92189z" fill="#562d0a" stroke="#562d0a" stroke-width="0.5" stroke-linecap="round"/><path d="M163.68885,195.21695c8.37571,-4.3291 17.80392,-2.08213 21.05848,5.01852c3.25462,7.10084 -0.8969,16.36649 -9.27261,20.69559c-8.37571,4.3291 -17.80392,2.08212 -21.05848,-5.01853c-3.25462,-7.10084 0.89691,-16.36648 9.27262,-20.69558z" data-paper-data="{&quot;index&quot;:null}" fill="#ffffff" stroke="#954116" stroke-width="0" stroke-linecap="butt"/><path d="M174.06996,193.28362l-12.61808,7.92188l-4.62891,-6.71985l13.98406,-7.30399z" data-paper-data="{&quot;index&quot;:null}" fill="#562d0a" stroke="#562d0a" stroke-width="0.5" stroke-linecap="round"/><path d="M124.81803,140.94829l6.08598,-5.96316l32.80966,-0.86943l7.39011,6.83259c0,0 -16.3929,3.42857 -24.28857,3.42857c-7.514,0 -21.99719,-3.42857 -21.99719,-3.42857z" fill="#4a2f18" stroke="none" stroke-width="0" stroke-linecap="butt"/><path d="M163.34214,143.48872c-3.26601,-5.06906 -3.62193,-10.65491 -0.79495,-12.47634c2.82698,-1.82143 7.76633,0.8113 11.03234,5.88037c3.26601,5.06906 3.62192,10.65491 0.79494,12.47634c-2.82698,1.82143 -7.76632,-0.8113 -11.03233,-5.88036z" fill="#b14412" stroke="#783b1a" stroke-width="0" stroke-linecap="butt"/><path d="M152.83214,142.3511c2.15908,-3.36084 6.18982,-5.43498 9.0029,-4.6327c2.81309,0.80228 3.34328,4.17714 1.1842,7.53798c-2.15908,3.36084 -6.18982,5.43497 -9.0029,4.6327c-2.81309,-0.80228 -3.34328,-4.17713 -1.1842,-7.53797z" fill="#b14412" stroke="#783b1a" stroke-width="0" stroke-linecap="butt"/><g stroke="none" stroke-linecap="butt"><path d="M168.58401,272.43611l35.39345,-51.72242l7.29419,4.99138l-35.39345,51.72242z" fill="#846644" stroke-width="NaN"/><path d="M194.18009,220.74072c0,0 4.35618,-29.80288 5.19665,-35.55299c0.26921,-1.8418 0.53316,-3.64761 0.53316,-3.64761c0,0 -5.7435,-8.47146 -4.07979,-8.22828c0.70228,0.10265 6.70915,1.26209 9.89092,3.6377c3.17324,2.36924 3.52234,5.95482 3.52234,5.95482l-5.72981,39.20059z" fill="#846746" stroke-width="0"/><path d="M206.7871,226.11304l28.86314,-27.13736c0,0 3.13987,-1.7662 6.89898,-0.52046c3.76922,1.24909 8.15835,5.51081 8.64451,6.02789c1.15174,1.22498 -9.08222,1.36474 -9.08222,1.36474c0,0 -1.3296,1.25011 -2.6857,2.52513c-4.23377,3.98062 -26.17744,24.61223 -26.17744,24.61223z" data-paper-data="{&quot;index&quot;:null}" fill="#846746" stroke-width="0"/><path d="M194.27412,220.41492l3.45414,-5.04773l18.02763,12.33623l-3.45414,5.04774z" fill="#846644" stroke-width="0"/><path d="M225.42814,221.61174c-1.1647,0.12853 -1.29323,-1.03617 -1.29323,-1.03617l-0.08126,-0.99076c0.0963,-0.88 0.42735,-1.73448 0.43623,-2.61969c0.00513,-0.51219 -3.66778,-1.50542 -4.0014,-1.62862c0,0 -1.09922,-0.40591 -0.69331,-1.50513c0.40591,-1.09922 1.50512,-0.69331 1.50512,-0.69331c1.7464,0.64489 4.94593,1.10524 5.46797,3.27828c0.26819,1.11638 -0.26057,2.28145 -0.38491,3.42284l0.08097,0.47932c0,0 0.12853,1.1647 -1.03617,1.29323z" fill="#efdbbb" stroke-width="0.5"/><path d="M207.10011,204.99745c-0.8473,0.79766 -1.50809,0.00112 -1.50809,0.00112l-0.68186,-0.83557c-2.83411,-1.91844 -4.15677,-1.34765 -6.77149,1.11389c0,0 -0.8473,0.79766 -1.50809,0.00112c-0.66079,-0.79654 0.18651,-1.5942 0.18651,-1.5942c3.47839,-3.2746 5.96094,-3.81706 9.6135,-1.29882l0.85604,1.01827c0,0 0.66079,0.79654 -0.18651,1.5942z" fill="#efdbbb" stroke-width="0.5"/><path d="M203.98335,227.5105c-1.12667,-0.32198 -0.80469,-1.44865 -0.80469,-1.44865l0.447,-1.34531c0.74706,-1.09172 1.49412,-2.18344 2.24118,-3.27516c0,0 0.66174,-0.96703 1.62877,-0.3053c0.96703,0.66174 0.3053,1.62877 0.3053,1.62877c-0.74706,1.09172 -1.49412,2.18344 -2.24118,3.27516l-0.12773,0.6658c0,0 -0.32198,1.12667 -1.44864,0.80469z" fill="#efdbbb" stroke-width="0.5"/></g><path d="M167.71389,212.26283c0,3.22117 -2.30852,5.83246 -5.15623,5.83246c-2.84771,0 -5.15623,-2.61129 -5.15623,-5.83246c0,-3.22117 2.30853,-5.83245 5.15623,-5.83245c2.84771,0 5.15623,2.61128 5.15623,5.83245z" fill="#ffffff" stroke="#fc4a21" stroke-width="1" stroke-linecap="butt"/><path d="M191.56872,237.91724l6.29237,7.3411l-11.53602,16.2553l-5.24364,-7.3411z" fill="#e1ccb0" stroke="#e1ccb0" stroke-width="0.5" stroke-linecap="round"/><path d="M137.4281,168.17677l-0.52436,16.77966l-9.96292,-5.24364l1.97081,-17.62194l6.68046,0.63341z" fill="#ffaa21" stroke="#ffaa21" stroke-width="0.5" stroke-linecap="round"/><path d="M167.07323,178.94478l-9.96292,5.24365l-0.52436,-16.77966l9.37915,-2.30233c0,0 -4.61904,4.82909 -4.42549,7.24613c0.17367,2.16879 5.53362,6.59221 5.53362,6.59221z" data-paper-data="{&quot;index&quot;:null}" fill="#ffaa21" stroke="#ffaa21" stroke-width="0.5" stroke-linecap="round"/><path d="M122.95104,223.06461l1.6303,8.55908l-3.86022,0.78097l-2.66098,-3.02264z" fill="#e7cbad" stroke="#e7cbad" stroke-width="0.5" stroke-linecap="round"/><path d="M131.48292,227.29765l2.59688,8.31696l-3.7458,1.21662l-2.9887,-2.69905z" fill="#e7cbad" stroke="#e7cbad" stroke-width="0.5" stroke-linecap="round"/><path d="M139.05961,228.36364l4.22898,7.61784l-3.42139,1.9507l-3.4738,-2.03714z" fill="#e7cbad" stroke="#e7cbad" stroke-width="0.5" stroke-linecap="round"/><path d="M162.20563,225.53078l4.23782,7.61292l-3.41912,1.95468l-3.47616,-2.03311z" fill="#e7cbad" stroke="#e7cbad" stroke-width="0.5" stroke-linecap="round"/><path d="M170.8583,222.5934l5.51309,6.74695l-3.02115,2.52663l-3.78005,-1.3887z" fill="#e7cbad" stroke="#e7cbad" stroke-width="0.5" stroke-linecap="round"/><path d="M154.66426,228.9951l4.23783,7.61292l-3.41913,1.95468l-3.47616,-2.03311z" fill="#e7cbad" stroke="#e7cbad" stroke-width="0.5" stroke-linecap="round"/><path d="M120.64315,119.62822c7.11656,2.69816 11.75476,8.0728 10.35971,12.0046c-1.39505,3.93179 -8.29507,4.93184 -15.41163,2.23367c-7.11656,-2.69816 -11.75476,-8.07281 -10.35971,-12.0046c1.39505,-3.93179 8.29507,-4.93184 15.41163,-2.23367z" fill="#fc4a21" stroke="none" stroke-width="0" stroke-linecap="butt"/><path d="M186.46941,129.87186c7.11656,2.69817 11.75476,8.0728 10.35971,12.0046c-1.39505,3.93179 -8.29507,4.93184 -15.41163,2.23367c-7.11656,-2.69816 -11.75475,-8.07281 -10.3597,-12.0046c1.39505,-3.93179 8.29507,-4.93184 15.41162,-2.23367z" fill="#fc4a21" stroke="none" stroke-width="0" stroke-linecap="butt"/><path d="M180.12789,121.23741c7.2266,-2.38784 14.21459,-1.13579 15.60811,2.79655c1.39353,3.93233 -3.33511,9.05584 -10.56171,11.44368c-7.2266,2.38784 -14.21459,1.13578 -15.60811,-2.79655c-1.39353,-3.93233 3.33512,-9.05584 10.56171,-11.44367z" fill="#fba210" stroke="none" stroke-width="0" stroke-linecap="butt"/><path d="M115.38742,129.3836c7.2266,-2.38784 14.21459,-1.1358 15.60811,2.79654c1.39353,3.93233 -3.33511,9.05584 -10.56171,11.44369c-7.2266,2.38784 -14.21459,1.13578 -15.60811,-2.79655c-1.39353,-3.93233 3.33512,-9.05584 10.56171,-11.44367z" fill="#fba210" stroke="none" stroke-width="0" stroke-linecap="butt"/><path d="M142.54124,121.33495c2.41252,6.45087 1.5274,12.73318 -1.97698,14.03193c-3.50438,1.29875 -8.30098,-2.87787 -10.7135,-9.32874c-2.41252,-6.45087 -1.52739,-12.73317 1.97699,-14.03192c3.50438,-1.29875 8.30098,2.87787 10.7135,9.32873z" fill="url(#color-1)" stroke="#783b1a" stroke-width="1.5" stroke-linecap="butt"/><path d="M154.26493,123.88819c0.27407,7.01499 -2.53771,12.85455 -6.2803,13.04302c-3.74259,0.18847 -6.99873,-5.34551 -7.27281,-12.3605c-0.27407,-7.01499 2.53771,-12.85454 6.2803,-13.04301c3.74259,-0.18847 6.99873,5.34552 7.27281,12.3605z" fill="url(#color-2)" stroke="#783b1a" stroke-width="1.5" stroke-linecap="butt"/><path d="M166.4964,128.96547c-3.05354,6.32148 -8.27904,10.15564 -11.67147,8.56383c-3.39244,-1.5918 -3.66717,-8.00678 -0.61363,-14.32826c3.05354,-6.32148 8.27903,-10.15564 11.67147,-8.56383c3.39244,1.5918 3.66717,8.00679 0.61364,14.32826z" fill="url(#color-3)" stroke="#783b1a" stroke-width="1.5" stroke-linecap="butt"/><path d="M117.9338,159.53683c0,0 5.09101,-1.15785 5.65649,1.70359c0.37798,1.91266 -3.91185,8.05897 -4.32664,12.40706c-0.44977,4.71483 2.95538,7.5737 2.95538,7.5737l-10.67749,-3.57025c0,0 7.61209,-7.29101 8.76511,-10.5584c0.61246,-1.73555 -2.37285,-7.5557 -2.37285,-7.5557z" fill="#fc4a21" stroke="#fc4a21" stroke-width="0.5" stroke-linecap="round"/><path d="M145.03347,167.42581l0.45597,-8.58277c0,0 5.99709,3.10104 6.34576,3.75531c1.70565,3.20067 2.45307,22.1942 2.45307,22.1942l-13.18863,0.48007z" fill="#fc4a21" stroke="#fc4a21" stroke-width="0.5" stroke-linecap="round"/><path d="M173.46074,162.46288l-5.86818,-4.94448l13.55224,1.8505c0,0 -6.74096,5.61489 -6.75137,8.59726c-0.0098,2.80667 6.69061,8.80191 6.69061,8.80191l-10.86363,0.39544z" fill="#fc4a21" stroke="#fc4a21" stroke-width="0.5" stroke-linecap="round"/><path d="M229.62485,205.07676c-0.16062,-3.71994 -1.12576,-6.95105 -2.97826,-10.3431c-0.12404,-0.22713 -2.15427,-3.60371 -2.40428,-3.89791c-0.57008,-0.67085 -1.98569,-0.92615 -1.92835,-1.80464c0.07105,-1.08846 1.12346,-2.26988 2.20403,-2.41876c1.08989,-0.15016 1.88464,1.13614 2.81229,1.72764c1.49178,0.95121 2.72515,2.86291 4.18457,3.6751c0.62972,0.35045 1.48329,0.14732 2.09746,0.52436c1.90102,1.16704 2.58718,2.73501 2.73684,4.79298c0.54492,0.51923 -0.42524,-0.38087 0.18459,-1.93218c0.29689,-0.75524 1.10517,-1.22939 1.42051,-1.97711c0.26221,-0.62175 -0.08832,-1.42963 0.25997,-2.00757c0.52043,-0.86358 1.68099,-1.34116 1.96383,-2.30423l0.51358,-2.05431c0.12632,-0.55665 0.62414,-0.9722 1.21902,-0.9722c0.46331,0 0.86774,0.25206 1.08365,0.62653l1.27445,2.12409l-0.28408,0.17045c0.70941,1.2989 0.74748,2.48629 0.74907,5.02385c0.00079,1.26412 0.16467,2.53902 0,3.79237c-0.05504,0.41893 -0.69216,0.94482 -0.36612,1.21357c0.37463,0.3088 0.9296,-0.38528 1.4138,-0.34998c2.12902,0.15522 4.11664,1.73558 6.2558,2.09208c0.62132,0.10355 1.36545,-0.26764 1.8878,0.08439c0.8308,0.55991 2.02717,1.42706 1.80423,2.40381c-0.24487,1.07282 -4.15377,2.56329 -5.13678,2.98223c-4.08344,1.74031 -8.56746,2.02176 -12.68992,3.29715c-3.4694,0.02768 -9.86987,1.75052 -8.68277,-3.81177c0.05543,-0.25974 0.21072,-0.46831 0.40508,-0.65685z" fill="#ededed" stroke="none" stroke-width="0.5" stroke-linecap="butt"/><path d="M156.55265,224.58651c-0.88388,0.88388 -1.76777,0 -1.76777,0l-0.88016,-0.91449c-1.81583,-2.72681 -4.02824,-5.44741 -6.33478,-7.74909c-0.36089,-0.36013 -0.759,-0.74017 -1.1626,-1.13996c-0.34416,0.37212 -0.70238,0.7432 -1.07638,1.11578c-0.8589,0.85564 -2.49073,1.58423 -3.2047,2.4773c-2.35735,2.94872 -4.66906,6.51255 -7.78889,8.86051c0,0 -1,0.75 -1.75,-0.25c-0.75,-1 0.25,-1.75 0.25,-1.75c3.02511,-2.26021 5.04528,-5.76363 7.41469,-8.51501c0.40564,-0.47104 1.78261,-1.14173 2.31655,-1.58738c0.80416,-0.67118 1.53936,-1.37881 2.21724,-2.12212c-0.48347,-0.61306 -0.89703,-1.26177 -1.16264,-1.94576c-0.17471,-0.44992 0.16579,-0.99468 0,-1.44796c-0.93237,-2.54912 -2.54964,-3.5115 -2.59808,-6.54911c0,0 0,-1.25 1.25,-1.25c1.25,0 1.25,1.25 1.25,1.25c-0.05769,2.62702 1.59286,3.46717 2.46978,5.75854c0.17251,0.45077 -0.1628,0.99359 0,1.44796c0.09509,0.26539 0.22895,0.52568 0.39057,0.78011c1.038,-1.41398 1.92863,-2.93662 2.73539,-4.56375l0.29417,-0.92224c0,0 0.39528,-1.18585 1.58114,-0.79057c1.18585,0.39528 0.79057,1.58114 0.79057,1.58114l-0.42981,1.2497c-0.99989,1.98528 -2.07188,3.68807 -3.3428,5.29764c0.45599,0.43159 0.90865,0.83314 1.27383,1.19905c2.44005,2.44491 4.77224,5.29458 6.69686,8.17847l0.5678,0.53347c0,0 0.88388,0.88388 0,1.76777z" fill="#c85b25" stroke="none" stroke-width="0.5" stroke-linecap="butt"/><path d="M93.06898,266.50139l5.51297,-20.80462l27.02279,-0.61453l-3.99407,7.07029l-0.50842,12.58841l-5.03267,4.32113l-6.02594,-4.60088l-9.6476,8.39954z" fill="#606060" stroke="#606060" stroke-width="1.5" stroke-linecap="round"/><path d="M233.64199,195.03148l13.3442,9.07406l-26.6884,42.16766l-11.74289,-12.81043l-10.67536,2.13508v-10.14159l21.35072,-18.14811z" fill="#6c5650" stroke="#6c5650" stroke-width="0" stroke-linecap="round"/><path d="M101.80132,137.91833l8.00652,-11.7429l5.87145,-19.74942h64.05215l4.27014,17.61434l21.88449,25.62086l-3.73638,11.20913l-11.7429,-0.53377l-5.33767,6.93899l-38.96506,-8.00652l-36.29622,10.14159l-2.13507,-4.80391l-17.08057,-2.66884l-2.13508,-12.27666z" fill="#debf8c" stroke="#debf8c" stroke-width="0" stroke-linecap="round"/><g stroke="none" stroke-width="0" stroke-linecap="butt"><path d="M174.73541,157.75209l-0.78658,6.1894l-7.82955,-2.29235l0.78657,-6.1894z" fill="#d3cc45"/><path d="M144.37906,151.74384l1.84065,6.00242l-5.74144,1.76063l-1.84066,-6.00242z" fill="#6e553f"/><path d="M161.48674,153.53071l-0.98594,6.1894l-9.81395,-2.29234l0.98593,-6.1894z" fill="#6e553f"/><path d="M114.92759,172.24891c0.95394,-0.5277 1.92241,-2.14632 2.90076,-2.68082c13.45782,-7.35242 28.78634,-13.96986 33.93376,-13.96986c4.48618,0 17.4923,1.12817 28.01294,7.12135c12.73542,7.25485 22.83944,19.61722 22.83944,19.61722l-4.34388,4.38651l-87.88762,-1.80995l-15.56557,-1.1286c0,0 9.08567,-5.4374 20.11017,-11.53585z" fill="#a88a55"/><path d="M151.4077,161.22219c7.08278,0 24.29245,4.94415 35.89037,12.54651c0.7906,0.51824 1.75405,1.51185 2.80751,2.79803c4.358,5.32074 10.25636,15.64821 11.83022,18.03887c0.81567,1.23898 -3.41631,-7.72498 -3.41631,-7.72498l-15.20358,-2.5759l-76.75744,4.70587l-8.68776,-2.85395c0,0 43.01434,-24.93445 53.53699,-24.93445z" fill="#c6ad81"/></g><path d="M109.37733,187.19899l2.66098,-3.02264l3.86022,0.78097l-1.6303,8.55908z" data-paper-data="{&quot;index&quot;:null}" fill="#e7cbad" stroke="#e7cbad" stroke-width="0.5" stroke-linecap="round"/><path d="M121.60694,184.27712l3.05339,-2.62563l3.71514,1.30726l-2.7982,8.25142z" data-paper-data="{&quot;index&quot;:null}" fill="#e7cbad" stroke="#e7cbad" stroke-width="0.5" stroke-linecap="round"/><path d="M135.72029,181.33671l3.39161,-2.1712l3.49495,1.81564l-3.92836,7.77713z" data-paper-data="{&quot;index&quot;:null}" fill="#e7cbad" stroke="#e7cbad" stroke-width="0.5" stroke-linecap="round"/><path d="M152.11634,180.6055l3.60349,-1.79778l3.28178,2.17739l-4.73399,7.31472z" data-paper-data="{&quot;index&quot;:null}" fill="#e7cbad" stroke="#e7cbad" stroke-width="0.5" stroke-linecap="round"/><path d="M164.34499,181.47484l3.60349,-1.79779l3.28178,2.17739l-4.73399,7.31472z" data-paper-data="{&quot;index&quot;:null}" fill="#e7cbad" stroke="#e7cbad" stroke-width="0.5" stroke-linecap="round"/><path d="M175.28281,182.086l3.60349,-1.79779l3.28179,2.17739l-4.73399,7.31472z" data-paper-data="{&quot;index&quot;:null}" fill="#e7cbad" stroke="#e7cbad" stroke-width="0.5" stroke-linecap="round"/><path d="M125.09445,130.28523l-13.87797,12.27666l-6.40522,-4.27014l10.67536,-21.88449z" fill="#b1181b" stroke="#b1181b" stroke-width="1.5" stroke-linecap="round"/><path d="M181.67384,114.27218l1.06754,11.20913l10.67536,12.81043l-6.40521,4.27014l-16.01304,-11.74289z" fill="#b1181b" stroke="#b1181b" stroke-width="1.5" stroke-linecap="round"/><path d="M126.69575,130.81899l-14.94551,11.20912l5.87145,-25.08709z" fill="#745229" stroke="#745229" stroke-width="1.5" stroke-linecap="round"/><path d="M185.94398,142.56188l-17.08057,-11.20913l8.00652,-14.41173z" fill="#745229" stroke="#745229" stroke-width="1.5" stroke-linecap="round"/><g><path d="M409.33025,228.95099c1.3701,-2.48658 3.85667,-1.11648 3.85667,-1.11648c0.79678,0.44296 1.58024,0.90716 2.35234,1.38939c0.48832,0.13233 1.14292,0.4164 1.58369,1.02364c7.04787,4.70546 13.22518,10.78103 20.08445,15.64532c2.48062,1.75915 7.69507,2.96955 6.15307,8.01975c-1.00946,3.30608 -8.8409,3.04527 -11.01706,3.05912c-11.82932,0.07539 -23.38398,-1.87856 -29.19766,-12.90806c-6.14319,-7.33102 -2.12132,-14.20583 6.13691,-15.02378c0.01533,-0.02946 0.03118,-0.05909 0.0476,-0.08889z" data-paper-data="{&quot;index&quot;:null}" fill="#3a3430" stroke="none" stroke-width="0.5" stroke-linecap="butt"/><path d="M403.56899,241.27924c2.15699,-1.84596 4.00295,0.31106 4.00295,0.31106c0.59012,0.69487 1.1603,1.40491 1.7135,2.12785c0.4106,0.29561 0.92347,0.79172 1.12257,1.5152c4.94302,6.88333 8.5893,14.74316 13.2999,21.70884c1.70358,2.51914 6.15932,5.4859 2.93988,9.67129c-2.10759,2.73994 -9.3471,-0.25819 -11.38918,-1.01047c-11.10027,-4.08928 -21.22982,-9.98171 -22.79357,-22.35114c-3.17283,-9.02306 3.00973,-14.0445 11.02814,-11.90613c0.02472,-0.0222 0.04996,-0.04436 0.07581,-0.06647z" data-paper-data="{&quot;index&quot;:null}" fill="#3a3430" stroke="none" stroke-width="0.5" stroke-linecap="butt"/><path d="M273.83325,231.2723c8.25824,0.81794 12.28012,7.69276 6.13691,15.02378c-5.81367,11.0295 -17.36834,12.98342 -29.19766,12.90804c-2.17618,-0.01387 -10.00761,0.24695 -11.01707,-3.05911c-1.542,-5.05018 3.67243,-6.26059 6.15306,-8.01974c6.85927,-4.86428 13.03659,-10.93986 20.08445,-15.64532c0.44077,-0.60724 1.09537,-0.89131 1.5837,-1.02363c0.77207,-0.48223 1.55557,-0.9464 2.35234,-1.3894c0,0 2.48655,-1.37009 3.85667,1.11648c0.01641,0.02981 0.03227,0.05942 0.04759,0.08889z" fill="#3a3430" stroke="none" stroke-width="0.5" stroke-linecap="butt"/><path d="M279.62271,243.57815c8.01841,-2.13837 14.20097,2.88306 11.02815,11.90613c-1.56376,12.36943 -11.69331,18.26184 -22.79361,22.35112c-2.04206,0.7523 -9.28157,3.75042 -11.38915,1.01047c-3.21944,-4.18538 1.23629,-7.15214 2.93985,-9.67126c4.71063,-6.96569 8.35689,-14.82551 13.29989,-21.70884c0.19909,-0.72345 0.71197,-1.21959 1.12257,-1.5152c0.5532,-0.72293 1.1234,-1.43295 1.71351,-2.12782c0,0 1.84596,-2.15702 4.00295,-0.31106c0.02585,0.02212 0.05111,0.04428 0.07581,0.06649z" fill="#3a3430" stroke="none" stroke-width="0.5" stroke-linecap="butt"/><path d="M408.25226,304.71138c1.83261,-1.83261 3.66521,0 3.66521,0c0.58621,0.59068 1.15539,1.1966 1.70999,1.81543c0.39461,0.23998 0.89649,0.65524 1.12886,1.2996c4.98559,5.91514 8.86004,12.81074 13.63995,18.81727c1.72864,2.17224 5.99375,4.55728 3.35963,8.5942c-1.72442,2.64275 -8.52533,0.42606 -10.43709,-0.11419c-10.3919,-2.93674 -20.02784,-7.58321 -22.32587,-18.73041c-3.52583,-7.98778 1.746,-12.99516 9.19502,-11.61604c0.02092,-0.02196 0.04233,-0.04392 0.0643,-0.06588z" data-paper-data="{&quot;index&quot;:null}" fill="#3a3430" stroke="none" stroke-width="0.5" stroke-linecap="butt"/><path d="M404.41948,322.75631c2.36,-1.0711 3.43109,1.2889 3.43109,1.2889c0.34106,0.7591 0.66079,1.52648 0.96237,2.30081c0.28499,0.36342 0.60879,0.92865 0.59971,1.61356c2.58707,7.29055 3.78918,15.10818 6.15157,22.41197c0.85435,2.64137 4.00833,6.37393 0.12287,9.22672c-2.5436,1.86757 -8.13064,-2.59912 -9.7303,-3.77715c-8.69547,-6.40351 -16.08199,-14.14176 -14.31326,-25.3851c-0.49171,-8.71745 6.20429,-11.55117 12.69257,-7.64065c0.02731,-0.01319 0.05508,-0.02621 0.08337,-0.03904z" data-paper-data="{&quot;index&quot;:null}" fill="#3a3430" stroke="none" stroke-width="0.5" stroke-linecap="butt"/><path d="M278.86373,309.18397c7.44903,-1.37911 12.72084,3.62827 9.19503,11.61605c-2.29804,11.1472 -11.93397,15.79367 -22.32587,18.73041c-1.91176,0.54025 -8.71267,2.75696 -10.43707,0.11419c-2.63412,-4.03695 1.63099,-6.42195 3.35963,-8.5942c4.77991,-6.00654 8.65435,-12.90214 13.63994,-18.81727c0.23235,-0.64437 0.73424,-1.05962 1.12885,-1.2996c0.5546,-0.61885 1.12378,-1.22475 1.71,-1.81543c0,0 1.83261,-1.83261 3.66521,0c0.02196,0.02196 0.04338,0.04392 0.0643,0.06588z" fill="#3a3430" stroke="none" stroke-width="0.5" stroke-linecap="butt"/><path d="M289.2384,319.5921c6.48828,-3.91052 13.18427,-1.0768 12.69256,7.64065c1.76872,11.24336 -5.61781,18.98156 -14.31325,25.3851c-1.59966,1.17803 -7.18669,5.64472 -9.73029,3.77715c-3.88549,-2.8528 -0.73147,-6.58533 0.12286,-9.22672c2.36237,-7.30378 3.56448,-15.12142 6.15156,-22.41197c-0.00907,-0.68491 0.31473,-1.25014 0.59971,-1.61356c0.30156,-0.77433 0.62131,-1.5417 0.96239,-2.30081c0,0 1.07111,-2.36 3.43109,-1.28889c0.02828,0.01283 0.05606,0.02585 0.08337,0.03904z" fill="#3a3430" stroke="none" stroke-width="0.5" stroke-linecap="butt"/><path d="M338.43743,303.9717c0,22.81563 -13.62843,41.31135 -30.43994,41.31135c-16.81153,0 -30.43996,-18.49573 -30.43996,-41.31135c0,-22.81563 13.62843,-41.31134 30.43996,-41.31134c16.81151,0 30.43994,18.49572 30.43994,41.31135z" fill="#6a3951" stroke="none" stroke-width="0" stroke-linecap="butt"/><path d="M416.71158,303.9717c0,23.41604 -16.54879,42.39852 -36.9628,42.39852c-20.41398,0 -36.96278,-18.98244 -36.96278,-42.39852c0,-23.41604 16.54879,-42.39849 36.96278,-42.39849c20.414,0 36.9628,18.98244 36.9628,42.39852z" fill="#6a3951" stroke="none" stroke-width="0" stroke-linecap="butt"/><path d="M291.69036,153.42872l28.26567,-86.97129l16.30712,-70.66416l26.09139,97.84271l40.22422,90.23271l-118.4984,16.30712z" fill="url(#color-4)" stroke="#e50000" stroke-width="0" stroke-linecap="round"/><path d="M419.97303,237.6561c0,51.6354 -35.77462,93.49414 -79.90488,93.49414c-44.13024,0 -79.90485,-41.85874 -79.90485,-93.49414c0,-51.6354 35.77462,-111.97554 79.90488,-111.97554c44.13023,0 79.90488,60.34014 79.90488,111.97554z" fill="#6a3951" stroke="none" stroke-width="0" stroke-linecap="butt"/><path d="M386.52578,199.0432c0,44.43044 -20.68601,80.44845 -46.20351,80.44845c-25.51749,0 -46.20351,-36.01798 -46.20351,-80.44845c0,-44.43044 20.68601,-80.44845 46.20351,-80.44845c25.51749,0 46.20351,36.018 46.20351,80.44846z" fill="#b46189" stroke="none" stroke-width="0" stroke-linecap="butt"/><path d="M401.49161,295.81814c0,36.92531 -19.67886,65.77204 -58.70561,65.77204c-39.02673,0 -55.4442,-29.93386 -55.4442,-66.85917c0,-36.92531 16.41746,-66.85917 55.4442,-66.85917c39.02673,0 58.70561,31.02101 58.70561,67.94632z" fill="#8e4d6c" stroke="none" stroke-width="0" stroke-linecap="butt"/><path d="M391.79246,349.31862c0,20.41398 -18,33.90546 -42.91708,33.90546c-24.91707,0 -47.31561,-13.49147 -47.31561,-33.90546c0,-20.414 20.19928,-36.9628 45.11634,-36.9628c24.91707,0 45.11635,16.54879 45.11635,36.9628z" fill="#492738" stroke="none" stroke-width="0" stroke-linecap="butt"/><path d="M385.53167,215.75388c1.91606,0.51684 4.64993,1.99169 4.64993,6.20041c0,6.47923 -6.47924,6.47923 -6.47924,6.47923l-5.66863,-1.89773c-7.24379,-7.24379 -15.06356,-12.2283 -25.56295,-13.37079c-5.27359,-0.57385 -10.75596,0.51236 -16.04987,0.02647c-5.58581,-0.51268 -9.24329,-1.03918 -14.75709,0.75852c-6.14099,2.00217 -11.62781,7.2118 -16.69662,11.01341c0,0 -5.18339,3.88754 -9.07092,-1.29584c-3.88754,-5.18338 1.29584,-9.07092 1.29584,-9.07092c6.26224,-4.69666 12.72536,-10.35251 20.26619,-12.90369c7.0698,-2.39182 12.84577,-2.06284 20.03142,-1.41578c5.46981,0.49258 11.09797,-0.58997 16.56437,0.02646c12.49536,1.40911 22.62165,7.08453 31.47758,15.45026z" fill="url(#color-5)" stroke="none" stroke-width="0.5" stroke-linecap="butt"/><path d="M392.1472,185.61761c-3.88754,5.18338 -9.07092,1.29584 -9.07092,1.29584l-4.34857,-3.26141c-15.79537,-11.98019 -38.29089,-16.12294 -56.83026,-8.92434c-7.59031,2.94722 -13.8219,10.64227 -20.19168,15.44717c0,0 -5.18339,3.88754 -9.07092,-1.29584c-3.88754,-5.18338 1.29584,-9.07092 1.29584,-9.07092c7.59827,-5.6599 14.31102,-13.50069 23.29396,-17.16705c22.54885,-9.20322 50.02078,-3.66832 69.27812,10.64421l4.34857,3.2614c0,0 5.18338,3.88754 1.29584,9.07093z" fill="url(#color-6)" stroke="none" stroke-width="0.5" stroke-linecap="butt"/><path d="M390.45817,147.81998c-4.58151,4.58151 -9.16302,0 -9.16302,0l-1.08712,-1.08715c-3.15323,-3.15323 -6.30716,-6.30545 -9.44799,-9.471c-4.68967,-3.53376 -12.26774,-8.78843 -18.28927,-9.3355c-5.05417,-0.45918 -10.43697,0.07596 -15.51546,0.04855c-4.34833,-0.02348 -10.65763,0.69203 -14.60966,2.63253c-2.21522,1.0877 -4.63486,4.44649 -6.40717,5.77947c-1.6887,1.27008 -3.72638,2.0192 -5.4357,3.26141c-3.80315,2.76388 -6.96062,8.43698 -9.79939,11.98629c0,0 -4.04753,5.05944 -9.10697,1.01189c-5.05944,-4.04753 -1.01188,-9.10696 -1.01188,-9.10696c3.70821,-4.63416 7.1748,-10.43866 11.94343,-14.10513c1.67512,-1.28796 3.74351,-1.99603 5.43572,-3.26141c3.04915,-2.28006 5.41389,-5.55059 8.81279,-7.26622c5.5638,-2.80839 14.08444,-3.86235 20.17884,-3.89031c5.51135,-0.02529 11.63788,-0.62752 17.09877,0.04854c8.81382,1.09117 18.26533,7.22555 25.19638,12.40735c3.38056,3.35889 6.75085,6.72779 10.12057,10.09754l1.08715,1.08715c0,0 4.58151,4.5815 0,9.16302z" fill="url(#color-7)" stroke="none" stroke-width="0.5" stroke-linecap="butt"/><path d="M364.0902,84.53283c0,6.47924 -6.47923,6.47924 -6.47923,6.47924h-1.08712c-13.49775,0 -26.8327,1.08712 -40.22422,1.08712c0,0 -6.47924,0 -6.47924,-6.47923c0,-6.47924 6.47924,-6.47924 6.47924,-6.47924c13.37608,0 26.73505,-1.08713 40.22422,-1.08713h1.08712c0,0 6.47923,0 6.47923,6.47924z" fill="url(#color-8)" stroke="none" stroke-width="0.5" stroke-linecap="butt"/><path d="M354.30594,42.13433c0,6.47924 -6.47924,6.47924 -6.47924,6.47924l-3.74574,-0.19344c-4.62518,-1.22113 -8.73645,-1.77396 -12.9252,0.59657c0,0 -5.79521,2.8976 -8.69281,-2.8976c-2.8976,-5.7952 2.8976,-8.69281 2.8976,-8.69281c7.50299,-3.49895 13.86235,-3.49989 21.86331,-1.57773l0.60284,-0.19344c0,0 6.47924,0 6.47924,6.47924z" fill="url(#color-9)" stroke="none" stroke-width="0.5" stroke-linecap="butt"/><path d="M300.17215,242.14783c-0.698,-5.82678 3.88864,-10.64879 9.07758,-14.26564c4.76846,-3.32378 9.59692,-3.50028 14.84072,-5.25728c5.37746,-1.80178 10.71601,-3.91225 16.42179,-4.6143c14.85276,-1.82747 29.12885,5.21075 42.40833,10.80583c2.34199,3.82907 7.12788,6.99987 7.02595,11.48721c-0.06759,2.97553 -5.04964,3.17039 -7.40037,4.99585c-5.56387,4.32058 -10.04201,10.1287 -16.71485,13.2578c-3.26525,1.53116 -7.11147,1.22015 -10.69007,1.66748c-18.14643,2.26832 -39.08855,1.86751 -53.20738,-11.63345c0,0 -2.92814,-2.92815 -1.76171,-6.44353zM350.37627,231.0028c-2.27373,-0.32815 -4.56297,-0.44602 -6.86309,-0.27403c2.10429,0.16676 4.23053,0.27899 6.48783,0.27899c0.11874,0 0.24399,-0.00172 0.37526,-0.00496z" fill="#5f3768" stroke="none" stroke-width="0.5" stroke-linecap="butt"/><path d="M281.95114,192.42151c-1.52717,1.52716 -3.05432,0 -3.05432,0l-1.08715,-1.08715c-3.17196,-3.2284 -3.79425,-5.25804 -4.91663,-9.70049c0,0 -0.52382,-2.09526 1.57144,-2.61905c2.09526,-0.52382 2.61908,1.57143 2.61908,1.57143c0.95301,3.85736 1.06532,5.03858 3.78046,7.69379l1.08715,1.08715c0,0 1.52717,1.52716 0,3.05432z" fill="#5f3768" stroke="none" stroke-width="0.5" stroke-linecap="butt"/><path d="M278.68971,209.81576c-1.52717,1.52716 -3.05433,0 -3.05433,0l-1.08715,-1.08715c-3.72246,-3.74633 -7.78926,-8.92596 -10.18884,-13.607c0,0 -0.96585,-1.93172 0.96587,-2.8976c1.93174,-0.96585 2.8976,0.96585 2.8976,0.96585c2.05279,4.24663 6.00352,9.13294 9.37971,12.4844l1.08715,1.08713c0,0 1.52717,1.52716 0,3.05433z" fill="#5f3768" stroke="none" stroke-width="0.5" stroke-linecap="butt"/><path d="M410.2338,179.58288c1.52717,1.52716 0,3.05434 0,3.05434l-2.17428,2.17428c-2.32567,2.28805 -4.21454,3.31833 -7.08414,4.75314c0,0 -1.93174,0.96585 -2.8976,-0.96588c-0.96585,-1.93172 0.96588,-2.8976 0.96588,-2.8976c2.47961,-1.23981 3.99777,-1.93969 5.96155,-3.944l2.17428,-2.17428c0,0 1.52716,-1.52717 3.05433,0z" fill="#5f3768" stroke="none" stroke-width="0.5" stroke-linecap="butt"/><path d="M417.84378,198.06428c1.52717,1.52716 0,3.05433 0,3.05433l-1.64844,1.49169c-2.23519,0.94589 -3.06627,3.20743 -4.87439,5.03115c-3.00058,3.02644 -5.46267,5.02953 -9.25842,6.92741c0,0 -1.93174,0.96587 -2.8976,-0.96588c-0.96585,-1.93172 0.96585,-2.89759 0.96585,-2.89759c5.92841,-2.96423 8.74429,-9.0202 14.13284,-11.95856l0.52586,-0.68259c0,0 1.52717,-1.52716 3.05433,0z" fill="#5f3768" stroke="none" stroke-width="0.5" stroke-linecap="butt"/><path d="M312.67483,282.44434c2.66195,8.91754 1.08874,17.26043 -3.51385,18.63433c-4.6026,1.3739 -10.49171,-4.74142 -13.15364,-13.65896c-2.66195,-8.91754 -1.08873,-17.26043 3.51387,-18.63434c4.6026,-1.3739 10.49168,4.74142 13.15364,13.65896z" fill="#ffb44a" stroke="none" stroke-width="0" stroke-linecap="butt"/><path d="M389.55127,268.72723c4.6026,1.3739 6.17582,9.71678 3.51387,18.63434c-2.66195,8.91754 -8.55105,15.03287 -13.15364,13.65896c-4.6026,-1.3739 -6.17581,-9.71678 -3.51387,-18.63434c2.66195,-8.91754 8.55105,-15.03287 13.15364,-13.65896z" data-paper-data="{&quot;index&quot;:null}" fill="#ffb44a" stroke="none" stroke-width="0" stroke-linecap="butt"/><path d="M304.26917,300.84963c-2.15974,0 -2.15974,-2.15974 -2.15974,-2.15974l0.02936,-2.23748c1.36061,-7.99182 0.73782,-16.35206 1.87475,-24.42177c0,0 0.30545,-2.13805 2.44346,-1.83261c2.13805,0.30541 1.83261,2.44346 1.83261,2.44346c-1.17713,8.11438 -0.57191,16.46382 -1.89011,24.52103l0.02938,1.52736c0,0 0,2.15975 -2.15975,2.15975z" fill="#000000" stroke="none" stroke-width="0.5" stroke-linecap="butt"/><path d="M385.80002,300.09666c-2.15974,0 -2.15975,-2.15974 -2.15975,-2.15974c0,-8.07331 0,-18.29949 0,-26.35382c0,0 0,-2.15975 2.15975,-2.15975c2.15974,0 2.15974,2.15975 2.15974,2.15975c0,8.0563 0,16.01901 0,24.09493v2.25891c0,0 0,2.15974 -2.15974,2.15974z" fill="#000000" stroke="none" stroke-width="0.5" stroke-linecap="butt"/><path d="M295.85759,270.02507c-1.52717,-1.52716 0,-3.05432 0,-3.05432l0.51808,-0.51808c4.1206,-4.1206 5.10489,-3.73926 10.17969,-1.4806c1.8564,0.82624 4.00595,1.118 5.62822,2.34157c5.22123,3.93802 6.03686,12.55658 7.01801,18.44342c0,0 0.35507,2.13037 -1.77529,2.48542c-0.21149,0.03525 -0.4055,0.046 -0.58338,0.03677c-0.39591,3.53591 -1.27955,7.09429 -2.12271,10.46705l0.06448,0.05427c0,0 0,2.15974 -2.15974,2.15974c-2.15974,0 -2.15974,-2.15974 -2.15974,-2.15974l0.06449,-1.10189c1.90983,-7.63934 4.78595,-16.7224 -1.68449,-23.32703c-2.71625,-2.77257 -7.8408,-2.14083 -11.19603,-2.95789c0,0 -0.99635,-0.2491 -1.44315,-1.0908c-0.11567,-0.08292 -0.23204,-0.18153 -0.34839,-0.29791z" fill="#5f3768" stroke="none" stroke-width="0.5" stroke-linecap="butt"/><path d="M370.90453,286.5357c-0.94252,-4.71259 -1.7739,-9.48613 0.10335,-14.154c3.62038,-9.00218 13.51371,-11.13346 20.92451,-5.61161c0,0 1.72779,1.29584 0.43195,3.02364c-0.39155,0.52204 -0.82254,0.76807 -1.23337,0.85719c-0.06331,1.17032 -1.23365,1.75548 -1.23365,1.75548c-2.95065,1.45851 -6.31245,2.1157 -8.6113,4.71746c-5.69721,6.44783 -4.58603,17.4011 1.0795,23.03994l0.63257,2.10525c0,0 0,2.15975 -2.15974,2.15975c-1.64035,0 -2.03485,-1.24585 -2.12971,-1.84509c-3.48321,-3.84485 -5.39092,-9.16027 -5.45851,-14.50302z" fill="#5f3768" stroke="none" stroke-width="0.5" stroke-linecap="butt"/><path d="M341.96132,231.74333c-0.17006,-0.2921 -0.27981,-0.66925 -0.27981,-1.15615c0,-2.15974 2.15974,-2.15974 2.15974,-2.15974h2.31231c0.67278,0 5.19536,-0.04033 5.45113,0.1644c0.21706,0.17373 0.41769,0.36263 0.60522,0.5636l0.09544,-0.09543l2.31231,2.31232l-0.57645,0.57645c0.3314,0.60795 0.66353,1.21519 1.04461,1.77723l-1.99534,0.61757v0.71568c-2.31232,0 -6.93697,0 -9.2493,0c0,0 -2.15974,0 -2.15974,-2.15975c0,-0.48691 0.10978,-0.86406 0.27981,-1.15615z" fill="#5f3768" stroke="none" stroke-width="0.5" stroke-linecap="butt"/><path d="M327.36191,351.0171c-1.52717,1.52717 -3.05434,0 -3.05434,0l-2.27495,-2.31439c-0.40156,-0.78233 -0.80313,-1.56468 -1.20468,-2.34701c0,0 -0.96587,-1.93173 0.96585,-2.8976c1.93174,-0.96585 2.8976,0.96587 2.8976,0.96587c0.28177,0.58436 0.56358,1.16871 0.84537,1.75309l1.82515,1.78571c0,0 1.52717,1.52716 0,3.05432z" fill="#030203" stroke="none" stroke-width="0.5" stroke-linecap="butt"/><path d="M379.63811,340.78762c1.52716,1.52716 0,3.05432 0,3.05432l-0.62045,0.46371c-1.64904,3.29809 -2.91706,6.10357 -5.52967,8.76149c0,0 -1.52716,1.52716 -3.05433,0c-1.52716,-1.52716 0,-3.05432 0,-3.05432c2.28397,-2.23461 3.29803,-4.79386 4.72053,-7.6389l1.42957,-1.58632c0,0 1.52716,-1.52716 3.05434,0z" fill="#030203" stroke="none" stroke-width="0.5" stroke-linecap="butt"/><path d="M289.56397,305.93329c-1.79703,-1.19802 -0.599,-2.99502 -0.599,-2.99502l1.4662,-2.19927c2.21211,-3.31818 3.87147,-6.37982 7.19683,-8.66303c0,0 1.79701,-1.19803 2.99502,0.599c1.19802,1.79701 -0.599,2.99502 -0.599,2.99502c-2.7951,1.78808 -4.16881,4.71999 -5.99882,7.46501l-1.4662,2.19928c0,0 -1.198,1.79701 -2.99501,0.599z" fill="#5f3768" stroke="none" stroke-width="0.5" stroke-linecap="butt"/><path d="M402.25302,301.2649c-1.52717,1.52716 -3.05433,0 -3.05433,0l-1.73604,-1.79535c-1.78807,-2.79512 -4.72,-4.16882 -7.465,-5.99883c0,0 -1.79701,-1.198 -0.59899,-2.99502c1.19802,-1.79701 2.99501,-0.599 2.99501,-0.599c3.31818,2.21213 6.37983,3.87147 8.66304,7.19683l1.19633,1.13703c0,0 1.52717,1.52716 0,3.05433z" fill="#5f3768" stroke="none" stroke-width="0.5" stroke-linecap="butt"/><path d="M374.50295,374.75831c0,5.21846 -11.82588,9.44887 -26.41388,9.44887c-14.58799,0 -26.41389,-4.2304 -26.41389,-9.44887c0,-5.21846 11.82589,-9.44887 26.41389,-9.44887c14.58799,0 26.41388,4.2304 26.41388,9.44887z" fill="#4d280f" stroke="none" stroke-width="0" stroke-linecap="butt"/><g fill="#f0f0f0" stroke="none" stroke-width="0" stroke-linecap="butt"><path d="M339.42519,378.94438c1.03737,-2.87572 2.06215,-5.75455 3.51552,-8.58286h3.37846c1.12239,2.20067 2.60356,4.39339 3.45597,6.63328c0.12916,0.33937 0.36266,1.16194 0.77411,1.94959c0,0 -3.50615,5.15392 -5.31765,5.15392c-1.89294,0 -5.80641,-5.15392 -5.80641,-5.15392z"/><path d="M358.14814,377.30191c1.33047,-1.90153 2.93119,-3.73314 4.20577,-5.6334c0.2698,-0.40225 0.76939,-0.85371 1.14307,-1.30698h0.31969c0.69935,0.92662 1.80159,1.92258 2.12488,2.31113c1.7683,2.12534 3.57125,4.19958 5.43393,6.27173c0,0 -5.13882,4.01623 -7.39595,4.01623c-2.42632,0 -6.69113,-4.01623 -6.69113,-4.01623c0.38273,-0.52071 0.49165,-1.11634 0.85977,-1.64245z"/><path d="M354.18816,376.40496c-0.27368,-0.49081 -0.57029,-0.92358 -0.65891,-1.1252c-0.72524,-1.65041 -1.60573,-3.28345 -2.4557,-4.91822c0,0 1.62471,-4.01623 2.8654,-4.01623c1.23808,0 4.5709,4.01623 4.5709,4.01623c-1.6145,1.9932 -3.00204,4.06103 -4.3217,6.04343z"/><path d="M373.00315,370.3615v6.72183c-1.53384,-1.7269 -3.02423,-3.46116 -4.49855,-5.23357c-0.08331,-0.10017 -0.61016,-0.73679 -1.23663,-1.48826z"/><path d="M334.91896,378.94438c-0.60349,-0.70686 -1.22388,-1.4167 -1.89931,-2.12772c-2.0851,-2.19486 -4.51616,-4.31442 -6.84834,-6.45513c0,0 4.58678,-2.58186 6.82596,-2.58186c1.73777,0 5.49023,2.58186 5.49023,2.58186c-1.39789,2.8327 -2.41128,5.70963 -3.45495,8.58286z"/><path d="M322.30721,378.94438v-7.61656c2.31694,2.12559 4.73101,4.23051 6.80229,6.40963c0.38279,0.40274 0.74884,3.67388 1.10464,4.07567z"/></g><path d="M342.27639,153.12441l28.29633,40.87247l-54.49662,-1.04801z" fill="url(#color-10)" stroke="#e10000" stroke-width="0" stroke-linecap="round"/><path d="M342.02127,118.28492l28.29631,40.87246l-54.49661,-1.048z" fill="url(#color-11)" stroke="#e10000" stroke-width="0" stroke-linecap="round"/><path d="M339.67012,75.0613l28.29631,40.87246l-54.49662,-1.04801z" fill="url(#color-12)" stroke="#e10000" stroke-width="0" stroke-linecap="round"/><path d="M344.65503,202.6636l28.29631,40.87246l-54.49661,-1.04801z" fill="url(#color-13)" stroke="#e10000" stroke-width="0" stroke-linecap="round"/></g></g></g></svg>