<svg version="1.1" xmlns="http://www.w3.org/2000/svg" xmlns:xlink="http://www.w3.org/1999/xlink" width="519.14519" height="529.24222" viewBox="0,0,519.14519,529.24222"><g transform="translate(19.5726,84.62111)"><g data-paper-data="{&quot;isPaintingLayer&quot;:true}" fill-rule="nonzero" stroke-linejoin="miter" stroke-miterlimit="10" stroke-dasharray="" stroke-dashoffset="0" style="mix-blend-mode: normal"><g><path d="M427.6913,-39.59202c0,24.86888 -35.06123,45.02909 -78.31146,45.02909c-43.25023,0 -78.31146,-20.16021 -78.31146,-45.02909c0,-24.86888 35.06125,-45.02909 78.31146,-45.02909c43.25023,0 78.31146,20.16021 78.31146,45.02909z" fill="#555555" stroke="none" stroke-width="0" stroke-linecap="butt"/><path d="M218.20811,-39.59202c0,24.86888 -35.06125,45.02909 -78.31146,45.02909c-43.25023,0 -78.31146,-20.16021 -78.31146,-45.02909c0,-24.86888 35.06125,-45.02909 78.31146,-45.02909c43.25023,0 78.31146,20.16021 78.31146,45.02909z" fill="#555555" stroke="none" stroke-width="0" stroke-linecap="butt"/><path d="M294.98157,168.40585c0,134.9129 -70.41534,244.28141 -157.27708,244.28141c-86.86173,0 -157.27708,-109.36851 -157.27708,-244.28141c0,-134.9129 70.41534,-244.28141 157.27708,-244.28141c86.86174,0 157.27708,109.36853 157.27708,244.28141z" fill="#000000" stroke="none" stroke-width="0" stroke-linecap="butt"/><path d="M499.5726,168.40585c0,134.9129 -70.41534,244.28141 -157.27708,244.28141c-86.86173,0 -157.27708,-109.36851 -157.27708,-244.28141c0,-134.9129 70.41535,-244.28141 157.27708,-244.28141c86.86174,0 157.27708,109.36853 157.27708,244.28141z" fill="#000000" stroke="none" stroke-width="0" stroke-linecap="butt"/><path d="M123.02108,316.72517v-254.51228l14.75102,-10.73226l14.61578,10.73226v254.51228z" fill="#4b4b4b" stroke="none" stroke-width="0" stroke-linecap="butt"/><path d="M327.61212,320.64074v-254.51228l14.75102,-10.73226l14.61578,10.73226v254.51228z" fill="#4b4b4b" stroke="none" stroke-width="0" stroke-linecap="butt"/><path d="M100.74091,377.41655v19.57787l-3.91557,-29.3668l56.77581,-1.95779" fill="none" stroke="#0f7298" stroke-width="2" stroke-linecap="round"/><path d="M4.80935,246.24486l37.19796,-11.74672l13.70451,39.15573l-39.15573,17.62008" fill="none" stroke="#0f7298" stroke-width="2" stroke-linecap="round"/><path d="M43.9651,246.24486l45.02909,-11.74672" fill="none" stroke="#0f7298" stroke-width="2" stroke-linecap="round"/><path d="M63.54294,179.68008h-27.40901l-13.70451,-15.66229l13.70451,-29.3668l15.66229,-21.53565l13.70451,13.70451l-23.49344,17.62008l-33.28237,-27.40901" fill="none" stroke="#0f7298" stroke-width="2" stroke-linecap="round"/><path d="M200.58802,171.84896l-7.83115,-86.14262l29.3668,-5.87336l5.87336,93.97377z" fill="none" stroke="#0f7298" stroke-width="2" stroke-linecap="round"/><path d="M202.54582,171.84896v58.73361l-23.49344,-3.91557l-5.87336,-50.90245" fill="none" stroke="#0f7298" stroke-width="2" stroke-linecap="round"/><path d="M65.50075,9.35266l29.3668,-54.81804l58.73361,-7.83115l43.07132,19.57787l-27.40901,29.3668z" fill="none" stroke="#0f7298" stroke-width="2" stroke-linecap="round"/><path d="M151.64336,-24.90863c0,13.5157 -11.83316,24.47234 -26.43011,24.47234c-14.59695,0 -26.43011,-10.95663 -26.43011,-24.47234c0,-13.5157 11.83316,-24.47234 26.43011,-24.47234c14.59695,0 26.43011,10.95663 26.43011,24.47234z" fill="#000000" stroke="#0f7298" stroke-width="2" stroke-linecap="butt"/><path d="M421.81794,359.79649l-21.53565,-35.24016l43.07132,-33.28237l-27.40901,-3.91557l7.83115,33.28237" fill="none" stroke="#98071a" stroke-width="2" stroke-linecap="round"/><path d="M278.89949,291.27394v64.60697l23.49344,-17.62008l37.19796,19.57787l-50.90245,13.70451l-27.40901,-33.28237" fill="none" stroke="#98071a" stroke-width="2" stroke-linecap="round"/><path d="M417.90237,226.66699l27.40901,-58.73361l33.28237,5.87336l-3.91557,54.81804z" fill="none" stroke="#98071a" stroke-width="2" stroke-linecap="round"/><path d="M273.02614,252.1182l5.87336,-127.25614l19.57787,-9.78893l3.91557,107.67827l-15.66229,7.83115z" fill="none" stroke="#98071a" stroke-width="2" stroke-linecap="round"/><path d="M413.9868,89.62191l21.53565,-23.49344l27.40901,29.3668l-11.74672,7.83115l-41.11352,-37.19796" fill="none" stroke="#98071a" stroke-width="2" stroke-linecap="round"/><path d="M304.11866,36.76167l-27.40901,-29.3668l43.0713,-19.57786l58.73361,7.83114l29.3668,54.81804z" data-paper-data="{&quot;index&quot;:null}" fill="none" stroke="#98071a" stroke-width="2" stroke-linecap="round"/><path d="M370.68342,15.226c0,13.5157 -11.83318,24.47234 -26.43011,24.47234c-14.59695,0 -26.43011,-10.95665 -26.43011,-24.47234c0,-13.5157 11.83316,-24.47234 26.43011,-24.47234c14.59695,0 26.43011,10.95663 26.43011,24.47234z" fill="#000000" stroke="#98071a" stroke-width="2" stroke-linecap="butt"/><path d="M445.65662,427.00103l-42.03029,-136.59845l37.42424,-11.51515l42.03029,136.59845z" fill="#002f3f" stroke="#98071a" stroke-width="0" stroke-linecap="butt"/><path d="M221.55215,415.48588l42.03029,-136.59845l37.42424,11.51515l-42.03029,136.59845z" data-paper-data="{&quot;index&quot;:null}" fill="#002f3f" stroke="#98071a" stroke-width="0" stroke-linecap="butt"/><path d="M-9.46669,433.10596l42.03029,-136.59843l37.42424,11.51514l-42.03029,136.59845z" data-paper-data="{&quot;index&quot;:null}" fill="#720614" stroke="#98071a" stroke-width="0" stroke-linecap="butt"/><path d="M223.85519,444.62111l-42.0303,-136.59845l37.42424,-11.51515l42.03029,136.59845z" data-paper-data="{&quot;index&quot;:null}" fill="#720614" stroke="#98071a" stroke-width="0" stroke-linecap="butt"/><path d="M83.68565,330.28953l-7.98074,-31.92297l30.92537,-8.97833l1.99519,16.95908l-27.93258,8.97833" fill="none" stroke="#0f7298" stroke-width="2" stroke-linecap="round"/><path d="M144.53882,354.23175l21.94704,-13.9663l24.93981,34.91575l-34.91574,18.95425" fill="none" stroke="#0f7298" stroke-width="2" stroke-linecap="round"/><path d="M75.70491,112.81432l11.97111,-25.93741l18.95425,67.83629l-23.94221,40.90131" fill="none" stroke="#0f7298" stroke-width="2" stroke-linecap="round"/><path d="M-3.10491,177.65784l30.92537,32.92055" fill="none" stroke="#0f7298" stroke-width="2" stroke-linecap="round"/><path d="M229.33419,211.576v51.87482l-37.90852,20.94946" fill="none" stroke="#0f7298" stroke-width="2" stroke-linecap="round"/><path d="M228.33661,199.60488l20.94946,1.99519v64.84352" fill="none" stroke="#0f7298" stroke-width="2" stroke-linecap="round"/><path d="M159.5027,59.19276l43.89408,-15.96148l35.91334,21.94704" fill="none" stroke="#0f7298" stroke-width="2" stroke-linecap="round"/><path d="M6.87102,55.20239l48.88205,16.95907l-27.9326,8.97834l1.99519,-49.87964l79.8074,24.93983l-45.88925,4.98796" fill="none" stroke="#0f7298" stroke-width="2" stroke-linecap="round"/><path d="M405.9081,165.93519l-12.9687,8.97833l1.99519,-38.90613z" fill="none" stroke="#98071a" stroke-width="2" stroke-linecap="round"/><path d="M374.98274,262.70167l11.97111,-42.89648l18.95427,35.91334l-30.92537,-10.97351" fill="none" stroke="#98071a" stroke-width="2" stroke-linecap="round"/><path d="M295.17531,85.13017l-19.95186,-14.9639" fill="none" stroke="#98071a" stroke-width="2" stroke-linecap="round"/><path d="M426.85754,143.98814l45.88927,-12.9687l-6.98314,19.95186l-19.95186,-0.9976" fill="none" stroke="#98071a" stroke-width="2" stroke-linecap="round"/><path d="M347.05014,392.38625l29.92778,-39.90371l10.97351,31.92297l-1.99519,-12.9687" fill="none" stroke="#98071a" stroke-width="2" stroke-linecap="round"/><path d="M188.52671,24.12145l-9.17149,-20.79393l26.65614,-2.43506l29.91714,15.12475l5.47613,34.75489z" data-paper-data="{&quot;index&quot;:null}" fill="none" stroke="#0f7298" stroke-width="2" stroke-linecap="round"/><path d="M309.76971,-14.98841l-24.6118,-2.52704l12.0579,-26.52796l30.42595,-20.15219l35.82761,13.54444z" data-paper-data="{&quot;index&quot;:null}" fill="none" stroke="#98071a" stroke-width="2" stroke-linecap="round"/><path d="M332.7749,-42.20949c0,7.13891 -6.2502,12.92613 -13.9602,12.92613c-7.71002,0 -13.9602,-5.78724 -13.9602,-12.92613c0,-7.13889 6.2502,-12.92613 13.9602,-12.92613c7.71002,0 13.9602,5.78722 13.9602,12.92613z" fill="#000000" stroke="#98071a" stroke-width="2" stroke-linecap="butt"/><path d="M221.83399,17.23043c0,5.95537 -5.214,10.78315 -11.6458,10.78315c-6.43178,0 -11.6458,-4.82778 -11.6458,-10.78315c0,-5.95537 5.21401,-10.78315 11.6458,-10.78315c6.43178,0 11.6458,4.82778 11.6458,10.78315z" fill="#000000" stroke="#0f7298" stroke-width="2" stroke-linecap="butt"/><path d="M-9.46669,433.10596l42.03029,-136.59843l37.42424,11.51514l-42.03029,136.59845z" data-paper-data="{&quot;index&quot;:null}" fill="#720614" stroke="#98071a" stroke-width="0" stroke-linecap="butt"/><path d="M223.85519,444.62111l-42.0303,-136.59845l37.42424,-11.51515l42.03029,136.59845z" data-paper-data="{&quot;index&quot;:null}" fill="#720614" stroke="#98071a" stroke-width="0" stroke-linecap="butt"/><path d="M41.04278,270.93873l28.35369,-92.1495l25.24645,7.76813l-28.35369,92.1495z" data-paper-data="{&quot;index&quot;:null}" fill="#b0091f" stroke="#98071a" stroke-width="0" stroke-linecap="butt"/><path d="M198.44204,278.70688l-28.35369,-92.1495l25.24644,-7.76815l28.35369,92.14951z" data-paper-data="{&quot;index&quot;:null}" fill="#b0091f" stroke="#98071a" stroke-width="0" stroke-linecap="butt"/><path d="M267.09197,255.04611l26.85583,-87.28142l23.91272,7.35776l-26.85583,87.28144z" data-paper-data="{&quot;index&quot;:null}" fill="#007197" stroke="#98071a" stroke-width="0" stroke-linecap="butt"/><path d="M416.17618,262.40389l-26.85584,-87.28144l23.91272,-7.35777l26.85583,87.28144z" data-paper-data="{&quot;index&quot;:null}" fill="#007197" stroke="#98071a" stroke-width="0" stroke-linecap="butt"/></g></g></g></svg>