<svg version="1.1" xmlns="http://www.w3.org/2000/svg" xmlns:xlink="http://www.w3.org/1999/xlink" width="106.06647" height="163.32899" viewBox="0,0,106.06647,163.32899"><defs><linearGradient x1="240.72652" y1="212.65559" x2="240.72652" y2="226.67991" gradientUnits="userSpaceOnUse" id="color-1"><stop offset="0" stop-color="#86ff09"/><stop offset="1" stop-color="#6cff5b"/></linearGradient></defs><g transform="translate(-186.96677,-84.93217)"><g data-paper-data="{&quot;isPaintingLayer&quot;:true}" fill-rule="nonzero" stroke-linecap="butt" stroke-linejoin="miter" stroke-miterlimit="10" stroke-dasharray="" stroke-dashoffset="0" style="mix-blend-mode: normal"><path d="M290.97733,181.32029c-1.32018,2.62294 -2.90772,4.48321 -5.08712,6.39016c-1.66338,1.45546 -2.60447,3.00762 -4.77483,3.8039c-4.59168,1.68461 -7.98932,-2.15768 -9.71072,-5.88445c-3.13536,-6.78791 -3.74087,-12.76787 -5.20705,-19.95444c-1.65031,-8.39719 0.13315,-27.26344 13.10149,-20.85346l1.35245,1.67881c0,0 0.21211,0.31818 0.25809,0.73838c10.54077,7.12672 15.1119,21.92811 10.06771,34.08111z" data-paper-data="{&quot;index&quot;:null}" fill="#86ff09" stroke="#000000" stroke-width="0"/><path d="M285.29777,229.20153c-1.23684,1.41877 -2.51843,2.32142 -4.17493,3.15898c-1.2643,0.63925 -2.09547,1.4534 -3.56976,1.60272c-3.11904,0.31588 -4.61777,-2.61022 -5.09405,-5.19804c-0.86748,-4.71346 -0.29256,-8.52295 -0.0602,-13.21852c0.31055,-5.47657 4.418,-16.90778 11.45125,-10.8654l0.57284,1.2575c0,0 0.08111,0.23131 0.04283,0.49953c5.41192,6.10141 5.89667,16.01906 0.83202,22.76323z" data-paper-data="{&quot;index&quot;:null}" fill="#86ff09" stroke="#000000" stroke-width="0"/><path d="M196.2256,202.11753c-0.03828,-0.26822 0.04283,-0.49953 0.04283,-0.49953l0.57284,-1.2575c7.03326,-6.04238 11.14071,5.38882 11.45125,10.8654c0.23237,4.69557 0.80729,8.50506 -0.0602,13.21852c-0.47627,2.58783 -1.97502,5.51393 -5.09405,5.19804c-1.47429,-0.14932 -2.30548,-0.96347 -3.56976,-1.60272c-1.6565,-0.83755 -2.93809,-1.74021 -4.17493,-3.15898c-5.06466,-6.74416 -4.57991,-16.66182 0.83202,-22.76323z" fill="#86ff09" stroke="#000000" stroke-width="0"/><path d="M199.09034,149.28068c0.04597,-0.42019 0.25809,-0.73838 0.25809,-0.73838l1.35245,-1.67881c12.96832,-6.40999 14.75179,12.45629 13.10149,20.85346c-1.46618,7.18656 -2.07169,13.16653 -5.20705,19.95444c-1.72141,3.72677 -5.11905,7.56904 -9.71072,5.88445c-2.17037,-0.79627 -3.11147,-2.34844 -4.77483,-3.8039c-2.17939,-1.90696 -3.76694,-3.76722 -5.08712,-6.39016c-5.04419,-12.15299 -0.47304,-26.95439 10.06771,-34.08111z" fill="#86ff09" stroke="#000000" stroke-width="0"/><path d="M210.44009,232.36361c-0.63898,-0.41024 -0.63898,-1.25434 -0.63898,-1.25434l0.03806,-0.25983c-0.2805,-0.78866 -0.50808,-1.57243 -0.67655,-2.33717c-4.76401,-13.51942 -11.4213,-26.00947 -9.95828,-40.77195c0.80709,-8.01929 0.37017,-16.10866 1.28684,-24.13363c1.06071,-9.28604 6.01296,-18.53588 11.06728,-26.17989c8.82908,-15.01626 28.16564,-17.84658 42.79216,-8.17445c15.69856,11.77732 22.72173,30.47465 22.71631,49.76219c0.93843,13.9574 1.31118,31.11726 -2.03463,44.69198c-1.41645,3.54978 -2.38725,7.57754 -4.64313,10.73597c-8.87195,12.42141 -22.31397,8.94171 -35.54721,8.94171c-4.17795,0 -8.90129,0.68565 -13.00189,-0.01902c-4.74783,-0.8159 -9.13022,-5.81905 -11.39999,-11.00158z" fill="#2d3132" stroke="none" stroke-width="0.5"/><path d="M222.58536,222.50555c-0.03881,0.26101 -0.16816,0.54265 -0.44976,0.82425c-1.04157,1.04157 -2.08312,0 -2.08312,0l-1.36529,-1.37543c-1.08475,-0.8417 -1.90211,-2.22552 -2.01213,-3.5941c0,-15.77777 2.34196,-30.89784 4.94085,-46.4537c2.90259,-11.61236 17.44964,-16.25587 27.41109,-9.19084c2.85012,2.02142 4.82032,8.33004 5.87029,11.47997c2.20762,6.63781 2.9278,13.76358 4.28833,20.59972c0.87276,4.38522 2.65064,8.80464 2.6612,13.2539c0.00909,3.82882 -0.60139,8.9804 -3.27984,11.7358c-6.96598,10.44898 -20.45212,4.50779 -30.31231,2.97989c-1.86866,-0.28957 -3.7652,-0.20151 -5.66931,-0.25945z" fill="#353e3e" stroke="none" stroke-width="0.5"/><path d="M226.41544,208.26005c-0.14314,0.42289 -0.49772,0.94668 -1.37609,0.94668c-1.47299,0 -1.47299,-1.47299 -1.47299,-1.47299v-1.47299c0,-7.70925 0.07274,-15.08189 2.67497,-22.37828c4.99266,-4.94308 16.96964,-4.14415 21.96296,0.74413c4.39399,4.30157 5.12346,11.50939 3.91256,17.44789l0.43059,0.07828l-0.52241,2.8732c-0.11385,0.70024 -0.72144,1.23476 -1.45383,1.23476c-0.5194,0 -0.976,-0.26883 -1.23828,-0.67494l-0.84518,-1.26773c-8.17371,-5.21121 -14.2163,-4.58557 -19.76783,3.74174c0,0 -0.81706,1.22559 -2.04267,0.40853c-0.10048,-0.067 -0.18723,-0.13672 -0.26182,-0.20829z" fill="#282f2f" stroke="none" stroke-width="0.5"/><path d="M234.85144,115.27368c-0.1163,0.43581 -0.45054,1.06197 -1.41091,1.06197c-1.47299,0 -1.47299,-1.47299 -1.47299,-1.47299v-0.28056c0.01762,-6.33416 0.89733,-13.12265 1.98136,-19.30428c0.35458,-2.02193 -0.54057,-6.04361 1.51033,-7.47272c0.78473,-0.54682 1.91157,0.07146 2.86734,0.10717c0.59769,0.23554 3.27167,1.23576 3.55626,1.61719c1.19491,1.60157 0.59539,5.57216 0.60603,7.36325c0.02246,3.78315 0.99064,7.80375 1.66083,11.54008c0.33765,1.88234 2.07157,6.93599 0.21716,8.49127c-0.69396,0.58201 -7.24157,-1.28647 -9.51541,-1.65042z" fill="#56565e" stroke="none" stroke-width="0.5"/><path d="M232.6802,113.97384c2.61549,0.08465 5.01463,0.4135 7.64815,1.16486c0.50563,0.14425 2.45366,1.33733 3.05701,0.60401c0.96885,-1.17751 0.64719,-3.43268 0.64666,-4.80802c-0.00207,-5.40759 -1.68889,-10.42617 -1.68118,-15.91102c-0.10834,-1.55173 -4.38258,-10.16368 -6.87619,-5.95041c-1.30951,2.21261 -1.11332,5.32767 -1.41391,7.73235c-0.70232,5.61864 -1.29277,11.44273 -1.38056,17.16826zM232.59723,116.99191c-0.1247,0.43356 -0.46617,1.02715 -1.40125,1.02715c-1.47299,0 -1.47299,-1.47299 -1.47299,-1.47299v-1.12228c0,-6.30778 0.63735,-12.766 1.41387,-18.97815c0.35245,-2.81974 0.19247,-6.61603 1.95291,-9.10186c4.98704,-7.04194 11.60213,3.14966 12.20256,7.51695c0.00788,6.15917 2.13775,11.99568 1.68284,18.12947c-0.19379,2.61301 -0.70333,5.43182 -3.83698,5.86204c-3.14362,0.43159 -7.03169,-1.41412 -10.54099,-1.86031z" fill="#39393e" stroke="none" stroke-width="0.5"/><path d="M276.1379,221.93133c-1.04157,1.04157 -2.08312,0 -2.08312,0l-0.7856,-0.7856c-1.5943,-1.61815 -3.38982,-2.62644 -5.60096,-3.10417c-3.32283,0.76239 -3.81241,5.64831 -8.27139,5.05684c-2.9292,-0.38856 -3.66472,-6.93088 -7.21909,-7.41953c-4.36033,-0.59943 -5.30492,11.03758 -10.57365,11.00096c-1.43548,-0.00997 -5.0128,-4.15778 -6.49637,-4.89162c-4.83132,-3.07777 -7.76865,4.51835 -12.35354,2.84645c-3.51523,-1.28185 -5.44896,-7.37513 -9.00732,-9.02505c-1.4256,-0.66102 -5.2942,4.87455 -6.34859,5.92893c0,0 -1.04157,1.04157 -2.08312,0c-1.04157,-1.04157 0,-2.08312 0,-2.08312c2.46609,-2.46609 5.30006,-7.7852 9.36332,-6.64061c4.0267,1.13429 5.98753,6.96304 9.06137,9.04366c1.42759,0.9663 3.01519,-1.67211 4.53047,-2.49412c3.18802,-1.72944 5.05691,-1.99181 8.25505,-0.1586c0.89397,0.45128 5.23198,4.53816 5.28757,4.53552c0.63025,-0.02999 2.45404,-3.16267 2.95646,-4.00742c1.74819,-2.93932 3.57714,-7.18514 7.68098,-6.98831c2.04576,0.09812 4.49923,2.50979 5.71639,4.068c0.81535,1.0438 0.66661,3.41206 1.99085,3.43882c2.07561,0.04196 5.07731,-4.5462 7.44053,-5.15592c3.12669,0.59592 5.46624,1.70545 7.75418,3.96619l0.7856,0.7856c0,0 1.04157,1.04157 0,2.08312z" fill="url(#color-1)" stroke="none" stroke-width="0.5"/><path d="M225.19898,243.82739c-0.21239,-0.91415 0.65594,-1.49304 0.65594,-1.49304c6.19826,-4.09374 14.44254,-4.89453 21.56573,-3.35388c2.41616,0.52258 6.82909,0.79018 8.78687,2.59895c3.44496,3.18275 0.39634,4.89116 -2.8608,5.76634c-8.1223,1.97773 -17.47472,0.42423 -25.46078,-1.57119l-1.57119,-0.3928c0,0 -1.27222,-0.31805 -1.11577,-1.55437z" fill="#77da2f" stroke="none" stroke-width="0.5"/></g></g></svg>