<svg viewBox="0,0,219.59411,187.14772" height="187.14772" width="219.59411" xmlns:xlink="http://www.w3.org/1999/xlink" xmlns="http://www.w3.org/2000/svg" version="1.1"><defs><linearGradient id="color-1" gradientUnits="userSpaceOnUse" y2="130.69061" x2="206.45622" y1="93.04524" x1="188.91817"><stop stop-color="#d65115" offset="0"></stop><stop stop-color="#ad3c10" offset="1"></stop></linearGradient><linearGradient id="color-2" gradientUnits="userSpaceOnUse" y2="131.58126" x2="243.94265" y1="90.54922" x1="251.3856"><stop stop-color="#d65115" offset="0"></stop><stop stop-color="#ad3c10" offset="1"></stop></linearGradient><linearGradient id="color-3" gradientUnits="userSpaceOnUse" y2="130.37513" x2="216.12774" y1="89.07977" x1="210.22193"><stop stop-color="#d65115" offset="0"></stop><stop stop-color="#ad3c10" offset="1"></stop></linearGradient><linearGradient id="color-4" gradientUnits="userSpaceOnUse" y2="130.43287" x2="228.348" y1="88.75447" x1="230.53873"><stop stop-color="#d65115" offset="0"></stop><stop stop-color="#ad3c10" offset="1"></stop></linearGradient></defs><g transform="translate(-153.39273,-87.99483)"><g style="mix-blend-mode: normal" stroke-dashoffset="0" stroke-dasharray="" stroke-miterlimit="10" stroke-linejoin="miter" fill-rule="nonzero" data-paper-data="{&quot;isPaintingLayer&quot;:true}"><path stroke-linecap="butt" stroke-width="0" stroke="none" fill="#b4531b" d="M203.57161,237.8437l2.5463,-10.40065h36.75806c0,0 1.86728,10.93204 1.86728,12.90782c0,0.39842 -6.28086,7.33849 -6.28086,7.33849c0,0 -20.88682,0.90393 -27.54298,-0.4472c-2.86939,-0.58246 -7.3478,-9.39846 -7.3478,-9.39846z"></path><path stroke-linecap="round" stroke-width="3" stroke="#8b3e19" fill="#d1852d" data-paper-data="{&quot;index&quot;:null}" d="M217.11725,238.64333l-2.53504,16.05525l-11.61892,2.11253l-8.02762,-7.60511l8.02763,-20.06906l1.47877,1.26752l10.86419,-0.33552z"></path><path stroke-linecap="round" stroke-width="0.5" stroke="#c8711b" fill="none" data-paper-data="{&quot;index&quot;:null}" d="M209.41172,254.46322l1.05627,-10.35141"></path><path stroke-linecap="round" stroke-width="0.5" stroke="#c8711b" fill="none" data-paper-data="{&quot;index&quot;:null}" d="M199.6732,251.79484l5.07008,-11.19642"></path><path stroke-linecap="round" stroke-width="3" stroke="#8b3e19" fill="#d1852d" d="M233.1668,237.43834l8.82716,5.25836l1.47877,-1.26752l8.02762,20.06906l-8.02762,7.60512l-11.61893,-2.11253l-2.53503,-16.05525z"></path><path stroke-linecap="butt" stroke-width="0" stroke="none" fill="#de9333" d="M238.32549,240.26717c0,2.1001 -4.81399,10.77391 -13.0977,10.77391c-8.28371,0 -16.90026,-8.67382 -16.90026,-10.77391c0,-2.1001 6.71527,-3.80256 14.99898,-3.80256c8.28371,0 14.99898,1.70246 14.99898,3.80256z"></path><path stroke-linecap="round" stroke-width="0.5" stroke="#c8711b" fill="none" d="M235.96803,256.40406l1.05626,10.35141"></path><path stroke-linecap="round" stroke-width="0.5" stroke="#c8711b" fill="none" d="M246.76282,264.08709l-5.07008,-11.19642"></path><path stroke-linecap="butt" stroke-width="0.5" stroke="none" fill="#8b631d" d="M223.3152,245.57585c0,-0.27614 0.22386,-0.5 0.5,-0.5c0.27614,0 0.5,0.22386 0.5,0.5c0,0.27614 -0.22386,0.5 -0.5,0.5c-0.27614,0 -0.5,-0.22386 -0.5,-0.5z"></path><path stroke-linecap="round" stroke-width="3" stroke="#8b4120" fill="#b45222" d="M247.85135,211.4778l11.78054,-5.29089l18.25534,7.85207l15.17352,15.31259l-3.78044,10.42606l-2.37552,0.88505l-4.98767,8.39601l-7.45667,-4.88676l-8.67541,-1.50199l-3.64113,-8.56272l-16.31851,-11.72983z"></path><path stroke-linecap="round" stroke-width="0.5" stroke="#d1852d" fill="#d1852d" d="M261.52508,231.84124l0.64402,-1.4089l6.10246,0.06427l-0.19334,-5.5389l7.3342,-0.39464l-3.60282,-5.90512l5.69187,0.21724l-1.63436,-3.1317l1.18342,-1.84365l15.32491,16.03268l-3.22411,8.91626l-4.69755,2.45155l-2.21784,5.96966l-7.22161,-4.32308l-7.68848,-1.81125z"></path><path stroke-linecap="round" stroke-width="3" stroke="#8b4120" fill="#b45222" data-paper-data="{&quot;index&quot;:null}" d="M207.18663,230.9576l-16.69107,11.19333l-3.91748,8.43989l-8.71964,1.21927l-7.61154,4.64186l-4.71218,-8.55367l-2.3455,-0.96178l-3.43963,-10.54341l15.66312,-14.8114l18.50087,-7.25468l11.60238,5.67092z"></path><path stroke-linecap="round" stroke-width="0.5" stroke="#d1852d" fill="#d1852d" data-paper-data="{&quot;index&quot;:null}" d="M185.08793,249.00728l-7.74329,1.56043l-7.35827,4.08611l-2.02267,-6.03858l-4.61541,-2.60291l-2.93265,-9.01632l15.83784,-15.5262l1.12287,1.88113l-1.73527,3.07692l5.69592,-0.03215l-3.79283,5.78493l7.31751,0.63278l-0.37324,5.52969l6.10133,0.13407l0.59789,1.42908z"></path><g stroke-linecap="butt" stroke-width="0" stroke="none"><path fill="#d3cc45" d="M236.16146,241.99654l-0.78657,-6.1894l7.82955,-2.29235l0.78658,6.1894z"></path><path fill="#6e553f" d="M207.89322,243.95181l1.84066,-6.00242l5.74144,1.76063l-1.84065,6.00242z"></path><path fill="#6e553f" d="M220.92839,246.21792l-0.98593,-6.1894l9.81395,-2.29234l0.98594,6.1894z"></path><path fill="#6e553f" d="M198.79556,239.81243l2.51097,-5.7543l5.50412,2.40179l-2.51097,5.75431z"></path><path fill="#b11000" d="M191.58427,232.85699v-12.35029h59.29042v12.35029c0,0 -19.94019,9.00106 -29.85696,9.00106c-9.8462,0 -29.43346,-9.00106 -29.43346,-9.00106z"></path><path fill="#fc4a21" d="M189.20771,226.50322v-13.35166h63.36381v13.35166c0,0 -21.31013,9.73087 -31.90821,9.73087c-10.52265,0 -31.4556,-9.73087 -31.4556,-9.73087z"></path><path fill="#7e0100" d="M191.35797,221.93806v-11.61482h59.74303v11.61482c0,0 -20.09241,8.46504 -30.08488,8.46504c-9.92136,0 -29.65814,-8.46504 -29.65814,-8.46504z"></path></g><path stroke-linecap="round" stroke-width="3" stroke="#853c18" fill="#aa4a1a" d="M268.80361,169.18222l0.83883,-20.132l23.20773,5.87183l8.10872,23.48734l-1.11845,4.75339l-12.02328,1.67766l-6.15145,-15.09901l-5.59222,-0.55922z"></path><path stroke-linecap="round" stroke-width="3" stroke="#853c18" fill="#b04b1d" d="M171.19058,174.71115l9.67803,34.39157l-9.33239,2.41951h-3.45644l-8.46828,-5.70313l-4.6662,-18.31913l2.41951,-8.6411l9.67803,-2.76515z"></path><path stroke-linecap="round" stroke-width="3" stroke="#853c18" fill="#b04b1d" data-paper-data="{&quot;index&quot;:null}" d="M278.51301,176.09372l9.67803,2.76515l2.41951,8.6411l-4.6662,18.31913l-8.46828,5.70313h-3.45644l-9.33238,-2.41951l9.67803,-34.39157z"></path><path stroke-linecap="round" stroke-width="0" stroke="none" fill="#d1852d" data-paper-data="{&quot;index&quot;:null}" d="M273.88007,180.00858l6.83823,1.95378l1.70955,6.10556l-3.29701,12.9438l-5.98345,4.02967h-2.44223l-6.59402,-1.70956l6.83823,-24.30015z"></path><path stroke-linecap="round" stroke-width="0" stroke="none" fill="#d1852d" d="M171.86277,179.31131l6.83823,24.30015l-6.59402,1.70955h-2.44222l-5.98345,-4.02967l-3.29701,-12.9438l1.70956,-6.10557l6.83823,-1.95378z"></path><path stroke-linecap="butt" stroke-width="3" stroke="#853c18" fill="#a45120" d="M273.08065,191.15943c0,18.77123 -22.80336,33.98833 -50.93273,33.98833c-28.12937,0 -54.44532,-15.79317 -54.44532,-34.5644c0,-6.03501 -0.57011,-42.81061 3.56319,-47.7233c3.83963,-4.56364 7.6461,-11.81349 15.60979,-16.88799c10.12823,-6.45376 25.17323,-10.27823 35.85779,-10.27823c8.57263,0 30.35392,3.53738 37.36693,11.39045c3.58504,4.01448 9.88946,8.80638 12.06352,13.97254c7.52801,17.88854 0.91684,39.97644 0.91684,50.1026z"></path><path stroke-linecap="butt" stroke-width="0.5" stroke="none" fill="#a45120" d="M241.35015,120.8916c0.07079,0.21238 0.00074,0.68073 -0.17107,1.24103c0.29633,1.48367 -0.3897,3.46705 -1.28397,4.74176c-0.16049,0.33856 -0.40643,0.62874 -0.70996,0.84269c-0.36501,0.335 -0.80769,0.57909 -1.24318,0.39334c-0.77525,0 -1.45513,-0.40836 -1.83624,-1.02172l-1.35967,1.63161l-0.05222,-0.04352l-0.0798,0.18809c-6.71241,5.41905 -15.73217,1.60826 -21.83413,-2.96773c0,0 -1.32811,-0.99609 -0.7826,-2.40613l-1.58536,-0.90289c0,0 -1.87564,-1.0718 -0.80384,-2.94744c0.25372,-0.44401 0.55248,-0.72285 0.86075,-0.88984c0.10403,-0.11933 0.21926,-0.24239 0.34625,-0.36938c1.70057,-1.70058 5.56137,1.73484 7.06059,2.41507c5.7402,2.60443 11.85977,2.57131 17.94487,1.05004l0.05899,-0.03932c0.2808,-0.10029 0.63509,-0.37781 1.00338,-0.67797c1.17546,-2.16761 3.18488,-4.08466 4.46721,-0.23768z"></path><path stroke-linecap="butt" stroke-width="0" stroke="none" fill="#de9333" d="M225.50486,200.47666c0,3.1213 -1.4002,18.37645 -11.06383,20.87158c-5.29681,1.36762 -13.39208,0.35151 -19.8272,-2.34193c-2.09303,-0.87605 -3.84253,-1.92472 -5.23135,-2.86191c-1.64679,-1.11127 -2.78646,-2.06575 -3.39045,-2.38976c-5.62859,-3.01949 -10.8009,-18.59705 -10.8009,-24.64545c0,-6.0484 3.95385,-10.298 10.39242,-10.298c1.64128,0 7.80434,-0.08598 12.15107,1.42662c1.36513,0.47504 5.87448,3.95224 7.34113,4.54068c3.21863,1.29134 0.98162,0.87431 4.08131,2.58007c8.63336,4.75093 16.3478,10.15839 16.3478,13.1181z"></path><path stroke-linecap="butt" stroke-width="0" stroke="none" fill="#de9333" d="M240.86348,218.4c0,5.64728 -8.12438,10.2253 -18.14631,10.2253c-10.02193,0 -18.14631,-4.57802 -18.14631,-10.2253c0,-5.64728 7.83634,-18.72239 17.85827,-18.72239c10.02193,0 18.43434,13.07511 18.43434,18.72239z"></path><path stroke-linecap="butt" stroke-width="0" stroke="none" fill="#de9333" data-paper-data="{&quot;index&quot;:null}" d="M236.7891,187.36807c2.9102,-1.65049 0.80994,-1.24698 3.83182,-2.49648c1.377,-0.56936 5.61068,-3.93388 6.89236,-4.39353c4.08102,-1.46358 9.86732,-1.38039 11.40826,-1.38039c6.04497,0 9.75713,4.1119 9.75713,9.9643c0,5.85241 -4.85613,20.9252 -10.14064,23.84684c-0.56706,0.31351 -1.63707,1.23707 -3.18319,2.31232c-1.30392,0.90681 -2.94646,1.92151 -4.91154,2.76917c-6.04174,2.60616 -13.64215,3.58935 -18.61516,2.26605c-9.07288,-2.41428 -10.38748,-17.1751 -10.38748,-20.19525c0,-2.86381 7.24285,-8.09604 15.34844,-12.69302z"></path><path stroke-linecap="butt" stroke-width="0" stroke="#954116" fill="#ffffff" d="M213.85041,210.39051c-3.25456,7.10065 -12.68277,9.34762 -21.05848,5.01852c-8.37571,-4.3291 -12.52723,-13.59475 -9.27261,-20.69559c3.25456,-7.10065 12.68277,-9.34762 21.05848,-5.01852c8.37571,4.3291 12.52723,13.59475 9.27261,20.69559z"></path><path stroke-linecap="butt" stroke-width="0.5" stroke="#46251d" fill="#ad4100" d="M210.39484,206.70349c0,3.22118 -2.30852,5.83246 -5.15624,5.83246c-2.8477,0 -5.15623,-2.61129 -5.15623,-5.83246c0,-3.22118 2.30852,-5.83245 5.15623,-5.83245c2.8477,0 5.15624,2.61128 5.15624,5.83245z"></path><path stroke-linecap="round" stroke-width="0.5" stroke="#562d0a" fill="#562d0a" d="M198.62728,181.40437l13.98407,7.304l-4.62891,6.71986l-12.61809,-7.92189z"></path><path stroke-linecap="butt" stroke-width="0" stroke="#954116" fill="#ffffff" data-paper-data="{&quot;index&quot;:null}" d="M239.01199,189.79463c8.37571,-4.3291 17.80392,-2.08213 21.05848,5.01852c3.25462,7.10084 -0.8969,16.36649 -9.27261,20.69559c-8.37571,4.3291 -17.80392,2.08212 -21.05848,-5.01853c-3.25462,-7.10084 0.89691,-16.36648 9.27262,-20.69558z"></path><path stroke-linecap="round" stroke-width="0.5" stroke="#562d0a" fill="#562d0a" data-paper-data="{&quot;index&quot;:null}" d="M249.3931,187.86131l-12.61808,7.92188l-4.62891,-6.71985l13.98406,-7.30399z"></path><path stroke-linecap="butt" stroke-width="1.5" stroke="#783b1a" fill="url(#color-1)" d="M207.89953,106.84107c4.843,10.39548 4.19681,21.07329 -1.44332,23.84955c-5.64012,2.77626 -14.13837,-3.40034 -18.98137,-13.79582c-4.843,-10.39548 -4.1968,-21.07329 1.44332,-23.84955c5.64012,-2.77626 14.13837,3.40034 18.98136,13.79582z"></path><path stroke-linecap="butt" stroke-width="1.5" stroke="#783b1a" fill="url(#color-2)" d="M258.79519,113.19859c-2.05532,11.33068 -8.70503,19.56089 -14.85254,18.38267c-6.14751,-1.17822 -9.46491,-11.31868 -7.40959,-22.64937c2.05532,-11.33068 8.70503,-19.56089 14.85255,-18.38267c6.14751,1.17822 9.4649,11.31868 7.40958,22.64936z"></path><path stroke-linecap="butt" stroke-width="1.5" stroke="#783b1a" fill="url(#color-3)" d="M224.37734,108.0347c1.63084,11.4034 -2.06263,21.40556 -8.2496,22.34044c-6.18697,0.93488 -12.52457,-7.55152 -14.15541,-18.95492c-1.63084,-11.4034 2.06263,-21.40556 8.2496,-22.34044c6.18697,-0.93488 12.52457,7.55152 14.15541,18.95492z"></path><path stroke-linecap="butt" stroke-width="1.5" stroke="#783b1a" fill="url(#color-4)" d="M240.74978,110.22159c-0.60496,11.50917 -6.15742,20.55807 -12.40178,20.21128c-6.24436,-0.34679 -10.816,-9.95795 -10.21105,-21.46712c0.60496,-11.50917 6.15742,-20.55806 12.40178,-20.21127c6.24436,0.34679 10.816,9.95795 10.21105,21.46711z"></path><path stroke-linecap="butt" stroke-width="0" stroke="none" fill="#4a2f18" d="M200.14117,135.52597l6.08598,-5.96316l32.80966,-0.86943l7.39011,6.83259c0,0 -16.3929,3.42857 -24.28857,3.42857c-7.514,0 -21.99719,-3.42857 -21.99719,-3.42857z"></path><path stroke-linecap="butt" stroke-width="0" stroke="#783b1a" fill="#b14412" d="M238.66528,138.0664c-3.26601,-5.06906 -3.62193,-10.65491 -0.79495,-12.47634c2.82698,-1.82143 7.76633,0.8113 11.03234,5.88037c3.26601,5.06906 3.62192,10.65491 0.79494,12.47634c-2.82698,1.82143 -7.76632,-0.8113 -11.03233,-5.88036z"></path><path stroke-linecap="butt" stroke-width="0" stroke="#783b1a" fill="#b14412" d="M228.15528,136.92878c2.15908,-3.36084 6.18982,-5.43498 9.0029,-4.6327c2.81309,0.80228 3.34328,4.17714 1.1842,7.53798c-2.15908,3.36084 -6.18982,5.43497 -9.0029,4.6327c-2.81309,-0.80228 -3.34328,-4.17713 -1.1842,-7.53797z"></path><g stroke-linecap="butt" stroke="none"><path stroke-width="NaN" fill="#846644" d="M243.90715,267.01379l35.39345,-51.72242l7.29419,4.99138l-35.39345,51.72242z"></path><path stroke-width="0" fill="#846746" d="M269.50323,215.31841c0,0 4.35618,-29.80288 5.19665,-35.55299c0.26921,-1.8418 0.53316,-3.64761 0.53316,-3.64761c0,0 -5.7435,-8.47146 -4.07979,-8.22828c0.70228,0.10265 6.70915,1.26209 9.89092,3.6377c3.17324,2.36924 3.52234,5.95482 3.52234,5.95482l-5.72981,39.20059z"></path><path stroke-width="0" fill="#846746" data-paper-data="{&quot;index&quot;:null}" d="M282.11024,220.69073l28.86314,-27.13736c0,0 3.13987,-1.7662 6.89898,-0.52046c3.76922,1.24909 8.15835,5.51081 8.64451,6.02789c1.15174,1.22498 -9.08222,1.36474 -9.08222,1.36474c0,0 -1.3296,1.25011 -2.6857,2.52513c-4.23377,3.98062 -26.17744,24.61223 -26.17744,24.61223z"></path><path stroke-width="0" fill="#846644" d="M269.59726,214.9926l3.45414,-5.04773l18.02763,12.33623l-3.45414,5.04774z"></path><path stroke-width="0.5" fill="#efdbbb" d="M300.75128,216.18942c-1.1647,0.12853 -1.29323,-1.03617 -1.29323,-1.03617l-0.08126,-0.99076c0.0963,-0.88 0.42735,-1.73448 0.43623,-2.61969c0.00513,-0.51219 -3.66778,-1.50542 -4.0014,-1.62862c0,0 -1.09922,-0.40591 -0.69331,-1.50513c0.40591,-1.09922 1.50512,-0.69331 1.50512,-0.69331c1.7464,0.64489 4.94593,1.10524 5.46797,3.27828c0.26819,1.11638 -0.26057,2.28145 -0.38491,3.42284l0.08097,0.47932c0,0 0.12853,1.1647 -1.03617,1.29323z"></path><path stroke-width="0.5" fill="#efdbbb" d="M282.42325,199.57514c-0.8473,0.79766 -1.50809,0.00112 -1.50809,0.00112l-0.68186,-0.83557c-2.83411,-1.91844 -4.15677,-1.34765 -6.77149,1.11389c0,0 -0.8473,0.79766 -1.50809,0.00112c-0.66079,-0.79654 0.18651,-1.5942 0.18651,-1.5942c3.47839,-3.2746 5.96094,-3.81706 9.6135,-1.29882l0.85604,1.01827c0,0 0.66079,0.79654 -0.18651,1.5942z"></path><path stroke-width="0.5" fill="#efdbbb" d="M279.30649,222.08819c-1.12667,-0.32198 -0.80469,-1.44865 -0.80469,-1.44865l0.447,-1.34531c0.74706,-1.09172 1.49412,-2.18344 2.24118,-3.27516c0,0 0.66174,-0.96703 1.62877,-0.3053c0.96703,0.66174 0.3053,1.62877 0.3053,1.62877c-0.74706,1.09172 -1.49412,2.18344 -2.24118,3.27516l-0.12773,0.6658c0,0 -0.32198,1.12667 -1.44864,0.80469z"></path></g><path stroke-linecap="butt" stroke-width="0.5" stroke="#46251d" fill="#ad4100" d="M243.03703,206.84051c0,3.22117 -2.30852,5.83246 -5.15623,5.83246c-2.84771,0 -5.15623,-2.61129 -5.15623,-5.83246c0,-3.22117 2.30853,-5.83245 5.15623,-5.83245c2.84771,0 5.15623,2.61128 5.15623,5.83245z"></path><path stroke-linecap="butt" stroke-width="0" stroke="none" fill="#ef6531" d="M306.2192,218.59927c0,6.51597 -5.39962,11.7982 -12.06038,11.7982c-6.66076,0 -12.06038,-5.28223 -12.06038,-11.7982c0,-6.51597 5.39962,-11.7982 12.06038,-11.7982c6.66076,0 12.06038,5.28223 12.06038,11.7982z"></path><path stroke-linecap="butt" stroke-width="0.5" stroke="none" fill="#ffb236" d="M305.8961,223.05637c0,1.25 -1.25,1.25 -1.25,1.25l-0.35535,-0.20994c-4.35778,2.75767 -9.95365,3.27478 -13.72043,-1.29631c-2.60398,-3.16 -1.32024,-7.79951 -6.69856,-6.89973c-0.47935,0.08019 -0.91869,0.31757 -1.37804,0.47636c0,0 -1.18585,0.39528 -1.58114,-0.79057c-0.39528,-1.18585 0.79057,-1.58114 0.79057,-1.58114c1.70166,-0.55085 4.35295,-1.11277 6.11728,-0.49336c2.76595,0.97105 2.91229,4.25197 3.81098,6.41717c2.02107,4.86937 7.94671,4.47733 11.27259,2.08745l1.7421,-0.20994c0,0 1.25,0 1.25,1.25z"></path><path stroke-linecap="butt" stroke-width="0.5" stroke="none" fill="#ffb236" d="M307.4692,217.28836c0,1.25 -1.25,1.25 -1.25,1.25h-1.57309c-1.85709,-0.08614 -5.82091,-1.65389 -7.23669,-3.05282c-1.07345,-1.06067 -1.18269,-3.52069 -2.50476,-4.60118c-1.92778,-1.57554 -3.66238,-1.78456 -5.98948,-1.78456c0,0 -1.25,0 -1.25,-1.25c0,-1.25 1.25,-1.25 1.25,-1.25c2.88505,0 5.3139,0.43989 7.64399,2.41036c1.40941,1.19189 1.64775,3.72478 2.73889,4.83738c0.81475,0.83077 4.32783,2.2795 5.34806,2.19082h1.57309c0,0 1.25,0 1.25,1.25z"></path><path stroke-linecap="round" stroke-width="0.5" stroke="#e1ccb0" fill="#e1ccb0" d="M266.89187,232.49492l6.29237,7.3411l-11.53602,16.2553l-5.24364,-7.3411z"></path><path stroke-linecap="round" stroke-width="0.5" stroke="#ffaa21" fill="#ffaa21" d="M212.75124,162.75446l-0.52436,16.77966l-9.96292,-5.24364z"></path><path stroke-linecap="round" stroke-width="0.5" stroke="#ffaa21" fill="#ffaa21" data-paper-data="{&quot;index&quot;:null}" d="M242.39637,173.52247l-9.96292,5.24365l-0.52436,-16.77966z"></path><path stroke-linecap="butt" stroke-width="0" stroke="none" fill="#7d9151" d="M337.64258,234.81753c0,7.42718 -2.34147,13.44809 -5.22981,13.44809c-2.88834,0 -5.22982,-6.02091 -5.22982,-13.44809c0,-7.42718 2.34147,-13.44809 5.22982,-13.44809c2.88834,0 5.22981,6.02091 5.22981,13.44809z"></path><path stroke-linecap="butt" stroke-width="0" stroke="none" fill="#7d9151" d="M372.98685,233.30407c0,7.42718 -2.34146,13.44809 -5.22981,13.44809c-2.88834,0 -5.22982,-6.02092 -5.22982,-13.44809c0,-7.42718 2.34147,-13.44809 5.22982,-13.44809c2.88835,0 5.22981,6.02092 5.22981,13.44809z"></path><path stroke-linecap="butt" stroke-width="0" stroke="none" fill="#a7c26d" d="M347.60413,265.44928c0,5.08899 -2.00697,9.21443 -4.4827,9.21443c-2.47573,0 -4.4827,-4.12544 -4.4827,-9.21443c0,-5.08899 2.00697,-9.21443 4.4827,-9.21443c2.47573,0 4.4827,4.12544 4.4827,9.21443z"></path><path stroke-linecap="butt" stroke-width="0" stroke="none" fill="#a7c26d" d="M363.0253,265.92813c0,5.08899 -2.00698,9.21443 -4.4827,9.21443c-2.47573,0 -4.48269,-4.12544 -4.48269,-9.21443c0,-5.08899 2.00697,-9.21443 4.48269,-9.21443c2.47573,0 4.4827,4.12544 4.4827,9.21443z"></path><path stroke-linecap="butt" stroke-width="0" stroke="none" fill="#829755" d="M330.17413,220.8162c0,-25.44495 22.16444,-52.04908 22.16444,-52.04908l11.69091,-2.05168l-16.36292,16.98034c0,0 21.85567,30.58165 21.85567,37.12042c0,25.44495 -8.80837,46.07216 -19.67405,46.07216c-10.86568,0 -19.67406,-20.62721 -19.67406,-46.07216z"></path><path stroke-linecap="butt" stroke-width="0" stroke="none" fill="#93aa60" d="M367.20866,229.76543c0,7.42718 -1.51173,37.85388 -17.93079,37.85388c-14.92482,0 -17.93078,-30.4267 -17.93078,-37.85388c0,-7.42718 8.02788,-13.44809 17.93078,-13.44809c9.9029,0 17.93079,6.02092 17.93079,13.44809z"></path><path stroke-linecap="butt" stroke-width="0.5" stroke="none" fill="#e7b04f" d="M367.58292,214.44226c0.73804,0.16609 1.92699,0.70119 1.92699,2.42525c0,2.5 -2.5,2.5 -2.5,2.5l-2.26584,-0.73223c-3.61203,-3.6663 -8.29059,-4.6916 -13.0383,-6.39339c-2.27762,-0.8164 -2.49828,-1.36339 -5.11703,-1.3417c-4.51768,0.03742 -8.9031,2.3553 -12.65993,4.62451c0,0 -2.14373,1.28624 -3.42997,-0.8575c-1.28624,-2.14373 0.8575,-3.42997 0.8575,-3.42997c4.54452,-2.71083 9.78483,-5.37018 15.23241,-5.33705c3.74145,0.02276 3.7779,0.55804 6.83682,1.64677c5.2443,1.86655 10.03753,3.18318 14.15735,6.8953z"></path><path stroke-linecap="butt" stroke-width="0.5" stroke="none" fill="#e7b04f" d="M360.2806,201.54899c-1.11803,2.23607 -3.35411,1.11804 -3.35411,1.11804l-1.80275,-0.91103c-3.59927,-1.43971 -8.11095,-3.50879 -12.11916,-2.84194c-2.57664,0.42867 -4.91055,2.3569 -7.08345,3.66063c0,0 -2.14374,1.28624 -3.42998,-0.85749c-1.28624,-2.14373 0.8575,-3.42997 0.8575,-3.42997c2.81376,-1.68826 5.52195,-3.75245 8.85502,-4.3086c4.9685,-0.82903 10.29011,1.34023 14.77702,3.135l2.18187,1.08128c0,0 2.23607,1.11803 1.11803,3.3541z"></path><path stroke-linecap="butt" stroke-width="0.5" stroke="none" fill="#e7b04f" d="M353.80559,188.10091c-1.11803,2.23607 -3.3541,1.11803 -3.3541,1.11803l-0.36841,-0.28269c-3.46076,-0.71126 -5.67448,-0.67978 -8.6831,1.18651c0,0 -2.14373,1.28624 -3.42997,-0.8575c-1.28624,-2.14373 0.85749,-3.42997 0.85749,-3.42997c4.16519,-2.43714 7.51444,-2.72487 12.23615,-1.80195l1.6239,0.71346c0,0 2.23606,1.11803 1.11803,3.3541z"></path><path stroke-linecap="butt" stroke-width="0" stroke="none" fill="#f7ff57" d="M344.29129,243.70238c1.20177,5.22771 1.08936,9.71542 -0.25108,10.02356c-1.34044,0.30814 -3.40131,-3.67995 -4.60308,-8.90767c-1.20177,-5.22771 -1.08936,-9.71542 0.25108,-10.02356c1.34044,-0.30814 3.40131,3.67995 4.60308,8.90767z"></path><path stroke-linecap="butt" stroke-width="0" stroke="none" fill="#f7ff57" data-paper-data="{&quot;index&quot;:null}" d="M361.97775,234.81299c1.34044,0.30814 1.45285,4.79585 0.25107,10.02356c-1.20177,5.22771 -3.26264,9.21581 -4.60308,8.90767c-1.34044,-0.30814 -1.45285,-4.79585 -0.25108,-10.02357c1.20177,-5.22771 3.26265,-9.2158 4.60309,-8.90766z"></path><path stroke-linecap="butt" stroke-width="0.5" stroke="none" fill="#000000" d="M345.58875,264.18486c0,-0.55229 0.44771,-1 1,-1c0.55229,0 1,0.44771 1,1c0,0.55229 -0.44771,1 -1,1c-0.55229,0 -1,-0.44771 -1,-1z"></path><path stroke-linecap="butt" stroke-width="0.5" stroke="none" fill="#000000" d="M351.56568,263.68679c0,-0.55229 0.44771,-1 1,-1c0.55229,0 1,0.44771 1,1c0,0.55229 -0.44771,1 -1,1c-0.55229,0 -1,-0.44771 -1,-1z"></path><path stroke-linecap="butt" stroke-width="0" stroke="none" fill="#000000" d="M343.88811,243.77329c0,1.51585 0.40607,5.4894 -1.24759,5.4894c-1.65366,0 -3.49326,-3.97355 -3.49326,-5.4894c0,-1.51585 0.09297,-4.49133 1.74663,-4.49133c1.65366,0 2.99422,2.97548 2.99422,4.49133z"></path><path stroke-linecap="butt" stroke-width="0" stroke="none" fill="#000000" data-paper-data="{&quot;index&quot;:null}" d="M360.65952,239.79062c1.65366,0 1.74663,2.97548 1.74663,4.49133c0,1.51585 -1.8396,5.48941 -3.49326,5.48941c-1.65366,0 -1.24759,-3.97356 -1.24759,-5.48941c0,-1.51585 1.34056,-4.49133 2.99422,-4.49133z"></path><path stroke-linecap="butt" stroke-width="0.5" stroke="none" fill="#000000" d="M358.2505,254.58767c-0.89443,0.44721 -1.34164,-0.44721 -1.34164,-0.44721l-0.32523,-0.70371c-1.0272,-4.22551 -0.25299,-9.22219 1.27985,-13.31492c0.6657,-1.77745 1.75027,-3.26394 2.21341,-5.13548c0,0 0.24253,-0.97014 1.21268,-0.72761c0.97015,0.24254 0.72761,1.21268 0.72761,1.21268c-1.50118,5.95174 -5.17302,10.98962 -3.49326,17.48026l0.1738,0.29436c0,0 0.44722,0.89443 -0.44721,1.34164z"></path><path stroke-linecap="butt" stroke-width="0.5" stroke="none" fill="#000000" d="M344.32929,255.19228c-1,0 -1,-1 -1,-1v-0.74856c0.03106,-5.67804 0.91792,-12.74425 -2.79422,-17.61485c0,0 -0.6,-0.8 0.2,-1.4c0.8,-0.6 1.4,0.2 1.4,0.2c3.99806,5.40088 3.15258,12.55957 3.19422,18.81484v0.74856c0,0 0,1 -1,1z"></path></g></g></svg>