<svg version="1.1" xmlns="http://www.w3.org/2000/svg" xmlns:xlink="http://www.w3.org/1999/xlink" width="122.30679" height="42.91294" viewBox="0,0,122.30679,42.91294"><defs><linearGradient x1="240" y1="159.04353" x2="240" y2="200.95647" gradientUnits="userSpaceOnUse" id="color-1"><stop offset="0" stop-color="#fc8d00"/><stop offset="1" stop-color="#f62e00"/></linearGradient></defs><g transform="translate(-178.86682,-158.54353)"><g data-paper-data="{&quot;isPaintingLayer&quot;:true}" fill="url(#color-1)" fill-rule="nonzero" stroke="#000000" stroke-width="1" stroke-linecap="square" stroke-linejoin="miter" stroke-miterlimit="10" stroke-dasharray="" stroke-dashoffset="0" style="mix-blend-mode: normal"><path d="M206.80623,161.17311l-1.48881,11.26976c-0.51511,-0.13821 -1.03651,-0.23244 -1.5642,-0.28267c-0.51511,-0.06282 -1.03023,-0.09422 -1.54534,-0.09422c-1.30664,0 -2.55674,0.17589 -3.75031,0.52769c-1.19357,0.35179 -2.24893,0.88574 -3.16609,1.60188c-0.91715,0.70358 -1.65215,1.58933 -2.20495,2.65726c-0.54025,1.06791 -0.81037,2.3243 -0.81037,3.76914c0,0.91715 0.14449,1.71496 0.43344,2.39342c0.30153,0.67846 0.71614,1.24382 1.24382,1.69611c0.54025,0.43974 1.17472,0.76639 1.90342,0.97998c0.7287,0.21359 1.53279,0.32038 2.41225,0.32038c0.65332,0 1.33177,-0.0691 2.03534,-0.20731c0.71614,-0.15077 1.41971,-0.33922 2.11072,-0.56537c0.70358,-0.23871 1.38202,-0.50883 2.03534,-0.81037c0.66588,-0.30153 1.27522,-0.60935 1.82804,-0.92345l-1.07421,12.53243c-0.69102,0.36436 -1.44484,0.68474 -2.26148,0.96113c-0.80409,0.2764 -1.63329,0.51511 -2.48764,0.71614c-0.85435,0.20103 -1.70868,0.35806 -2.56302,0.47115c-0.85435,0.1005 -1.67098,0.15077 -2.44995,0.15077c-2.26148,0 -4.37221,-0.41461 -6.33216,-1.24382c-1.95995,-0.84178 -3.66236,-1.99137 -5.1072,-3.44877c-1.43228,-1.45741 -2.56302,-3.17866 -3.39223,-5.16374c-0.82921,-1.98509 -1.24382,-4.12722 -1.24382,-6.4264c0,-3.04045 0.43344,-5.905 1.30035,-8.59366c0.87947,-2.70123 2.16098,-5.06322 3.84453,-7.08601c1.69611,-2.03534 3.79427,-3.63722 6.29448,-4.80567c2.5002,-1.181 5.37732,-1.7715 8.63135,-1.7715c1.23125,0 2.48764,0.1005 3.76914,0.30153c1.29407,0.18845 2.49392,0.54653 3.59954,1.07421zM239.76734,172.97053c0,1.39458 -0.11935,2.65724 -0.35806,3.78799c-0.23871,1.13075 -0.61563,2.16726 -1.13075,3.10954c-0.51511,0.94229 -1.181,1.81547 -1.99764,2.61956c-0.81664,0.80409 -1.80292,1.57048 -2.95878,2.29918l6.35101,11.30744l-12.02358,2.35571l-4.10837,-11.38282l-3.29801,0.11307l-0.48998,11.10015h-11.47707c0.08795,-4.05812 0.16961,-8.09738 0.24499,-12.11781c0.08795,-4.02043 0.18217,-8.0597 0.28267,-12.11781c0.03768,-2.04791 0.07539,-4.07697 0.11307,-6.08717c0.03768,-2.01021 0.10678,-4.03926 0.20731,-6.08717c1.24382,-0.46486 2.46879,-0.84806 3.67492,-1.14958c1.21868,-0.30153 2.43738,-0.53397 3.65608,-0.69729c1.21868,-0.17589 2.45624,-0.29526 3.7126,-0.35806c1.25639,-0.06282 2.54418,-0.09422 3.86337,-0.09422c2.02277,0 3.98274,0.28267 5.87986,0.84806c1.89714,0.56537 3.57442,1.40716 5.03181,2.52534c1.45741,1.11818 2.62584,2.51277 3.50532,4.18375c0.87947,1.67098 1.31921,3.61838 1.31921,5.84218zM227.81915,173.83744c0,-0.75382 -0.10678,-1.43856 -0.32038,-2.05419c-0.20103,-0.62819 -0.50255,-1.16844 -0.90459,-1.62073c-0.40205,-0.4523 -0.89831,-0.80409 -1.48881,-1.05536c-0.5905,-0.26384 -1.28779,-0.39576 -2.09188,-0.39576c-0.36436,0 -0.71614,0.02513 -1.05536,0.07539c-0.32666,0.03768 -0.65332,0.1005 -0.97998,0.18845l-0.41461,9.93171h0.62192c0.76639,0 1.54534,-0.09422 2.33687,-0.28267c0.79152,-0.20103 1.50138,-0.50255 2.12958,-0.90459c0.64075,-0.41461 1.16214,-0.94229 1.5642,-1.58305c0.40205,-0.64075 0.60307,-1.40716 0.60307,-2.29918zM256.02899,161.13541l-2.93994,36.35344l-11.25091,0.58421v-36.20268zM286.08139,160.53235l-0.26384,11.3263l-7.95289,0.32038l-2.01649,25.30983l-11.26976,0.58421l0.05654,-25.30983l-7.97175,0.43344l0.32038,-12.6078zM300.63318,159.04353l-2.18611,28.08016h-9.87516l-1.01768,-28.08016zM298.88052,195.35928c0,0.77896 -0.15077,1.50766 -0.4523,2.18611c-0.30153,0.67846 -0.70985,1.26895 -1.22497,1.7715c-0.50255,0.50255 -1.09305,0.89831 -1.7715,1.18728c-0.67846,0.30153 -1.40088,0.4523 -2.16726,0.4523c-0.77896,0 -1.50766,-0.15077 -2.18611,-0.4523c-0.67846,-0.28898 -1.26895,-0.68474 -1.7715,-1.18728c-0.50255,-0.50255 -0.90459,-1.09305 -1.20613,-1.7715c-0.28898,-0.67846 -0.43344,-1.40716 -0.43344,-2.18611c0,-0.76639 0.14449,-1.4951 0.43344,-2.18611c0.30153,-0.70358 0.70358,-1.30664 1.20613,-1.80919c0.50255,-0.51511 1.09305,-0.92345 1.7715,-1.22497c0.67846,-0.30153 1.40716,-0.4523 2.18611,-0.4523c0.76639,0 1.48881,0.15077 2.16726,0.4523c0.67846,0.30153 1.26895,0.70985 1.7715,1.22497c0.51511,0.50255 0.92345,1.10562 1.22497,1.80919c0.30153,0.69102 0.4523,1.41971 0.4523,2.18611z"/></g></g></svg>