<svg version="1.1" xmlns="http://www.w3.org/2000/svg" xmlns:xlink="http://www.w3.org/1999/xlink" width="94.93531" height="146.57935" viewBox="0,0,94.93531,146.57935"><defs><radialGradient cx="243.91828" cy="237.72795" r="9.74298" gradientUnits="userSpaceOnUse" id="color-1"><stop offset="0" stop-color="#124efd"/><stop offset="1" stop-color="#447efd"/></radialGradient><linearGradient x1="243.45007" y1="104.05915" x2="239.56142" y2="162.78714" gradientUnits="userSpaceOnUse" id="color-2"><stop offset="0" stop-color="#166dc8"/><stop offset="1" stop-color="#004588"/></linearGradient><radialGradient cx="212.02966" cy="219.92613" r="15.62613" gradientUnits="userSpaceOnUse" id="color-3"><stop offset="0" stop-color="#d319ff"/><stop offset="1" stop-color="#d319ff" stop-opacity="0"/></radialGradient></defs><g transform="translate(-192.80899,-101.68767)"><g data-paper-data="{&quot;isPaintingLayer&quot;:true}" fill-rule="nonzero" stroke-linejoin="miter" stroke-miterlimit="10" stroke-dasharray="" stroke-dashoffset="0" style="mix-blend-mode: normal"><path d="M286.74429,165.37289c0,14.86948 -22.15992,43.77651 -46.89008,43.77651c-24.73016,0 -46.04522,-23.56341 -46.04522,-38.43289c0,-14.86948 21.31506,-15.41427 46.04522,-15.41427c24.73017,0 46.89009,-4.79883 46.89009,10.07066z" fill="#930196" stroke="#182665" stroke-width="2" stroke-linecap="butt"/><g stroke="#053076" stroke-width="1" stroke-linecap="butt"><path d="M246.65748,235.23074c4.94876,-5.95164 9.52621,-12.29459 15.00158,-17.71168c1.08359,-0.65752 7.59724,-6.89821 8.87673,-7.15691c2.27091,-0.45916 6.00632,0.44755 5.20174,3.05311c-0.58645,1.89916 -10.3117,9.65073 -11.59442,11.11765c-2.00658,2.29474 -3.61226,4.69068 -5.46442,7.14818c-2.30124,2.30124 -3.84538,5.79015 -6.53665,7.56343c-2.77511,1.82852 -6.12758,1.05145 -6.26858,-2.565v-0.42138c0,0 0,-0.86514 0.78401,-1.0274z" fill="#b95623"/><path d="M252.25732,246.88867c-4.73787,2.22959 -10.44636,0.06819 -12.75026,-4.82761c-2.30391,-4.8958 -0.33079,-10.67207 4.40708,-12.90165c4.73787,-2.22959 10.44636,-0.06819 12.75026,4.82761c2.30391,4.8958 0.33079,10.67207 -4.40708,12.90165z" fill="url(#color-1)"/></g><path d="M248.38643,210.07216c-0.07781,-0.11063 -0.13948,-0.25281 -0.17368,-0.43519c-0.18429,-0.98287 0.79858,-1.16717 0.79858,-1.16717l0.81222,-0.14444c2.97846,-0.95314 7.13703,-3.41448 9.9944,-3.41091c1.99997,1.52684 4.09345,3.11681 5.53142,5.22624c0.75162,1.1026 2.01351,2.83607 0.87179,4.31879c-0.44796,0.58177 -1.80041,-0.33775 -2.18378,0.28846c-0.48346,0.78971 -0.83858,1.91644 -1.72764,2.17527c-0.48878,0.14229 -1.19634,-0.79416 -1.6714,-0.14137c-0.47769,0.65639 -0.53356,1.74004 -1.27227,2.07668c-1.01585,0.46294 -2.53041,-1.36322 -3.30245,-0.55687c-0.17649,0.18433 0.23472,0.56611 0.07146,0.76226c-0.05404,0.06492 -0.11084,0.12696 -0.16996,0.18658l0.03511,0.02879l-0.74971,0.91437c-0.18589,0.23069 -0.47198,0.37686 -0.79119,0.37301c-0.5019,-0.00605 -0.91299,-0.38081 -0.97877,-0.86366l-0.15773,-1.0222c-1.01244,-2.60671 -1.96808,-6.48657 -4.47036,-8.00246c0,0 -0.35688,-0.22 -0.46602,-0.60618z" data-paper-data="{&quot;index&quot;:null}" fill="#9f4d1e" stroke="none" stroke-width="0.5" stroke-linecap="butt"/><path d="M219.18215,215.98376c-0.63991,0.84811 -4.62152,1.70745 -5.64856,0.96033c-1.10361,-0.80283 0.00129,-1.72551 -0.74932,-2.54138c-0.68807,-0.74789 -1.20604,-1.21133 -1.7642,-2.09836c-0.06391,-0.04876 -0.09983,-0.08556 -0.09983,-0.08556l-0.42654,-0.48739c-0.2173,-0.51373 -0.70379,-0.98578 -0.65191,-1.54116c0.12596,-1.34854 0.56533,-6.60395 2.01621,-7.16039c0.10874,-0.04171 2.88027,2.26222 2.96839,2.24876c2.01361,-0.30746 3.84378,1.32632 5.67418,1.85805c1.08767,0.31597 1.99288,0.09556 2.57145,0.63476c0.04564,-0.01548 0.0918,-0.03081 0.13848,-0.04598l0.0006,-0.0499l1.35616,0.01633c0.55225,0.00665 0.99454,0.45972 0.98789,1.01196c-0.00665,0.55225 -0.45972,0.99455 -1.01196,0.98789l-0.96218,-0.01159c-1.62788,0.54444 -1.2749,1.98991 -1.68991,2.98806c-0.47953,1.1533 -1.65176,1.91444 -2.70892,3.31558z" data-paper-data="{&quot;index&quot;:null}" fill="#9f4d1e" stroke="none" stroke-width="0.5" stroke-linecap="butt"/><path d="M220.67683,218.75035l0.3662,-0.37568c-0.53592,-2.85813 -0.53912,-6.51688 3.00445,-7.5242c2.29294,-0.65182 4.92735,1.17896 6.96802,1.90151c2.48518,0.87993 5.37446,0.52981 7.90759,0.05579c3.19639,-0.41284 6.88863,-3.17643 10.15214,-1.82499c5.97904,2.47595 6.66076,10.83256 0.52447,13.23585c-2.22381,1.29813 -5.77682,3.13009 -8.4948,2.37728c-2.86948,-0.79477 -2.49607,-4.87542 -3.85885,-6.77381c-0.92913,-1.29429 -2.2733,0.37078 -2.48654,1.17845c-0.19147,0.72522 -0.39511,1.45115 -0.68013,2.14495c-1.3275,2.5634 -4.17182,3.54574 -7.28049,3.0735c-0.94961,-0.14425 -2.54103,0.62621 -3.33844,-0.06818c-1.67355,-1.45735 -3.00966,-4.85123 -2.78359,-7.40046z" data-paper-data="{&quot;index&quot;:null}" fill="#77209e" stroke="none" stroke-width="0.5" stroke-linecap="butt"/><path d="M254.41979,221.84816c-0.62604,-0.35013 -0.42669,-1.10858 -0.42669,-1.10858l0.10937,-0.29868c0.21202,-2.01146 0.7683,-2.92192 2.92578,-2.31181c1.03207,-0.67638 1.90757,-0.33451 2.81563,-0.54808c0.67635,-0.15908 0.13777,-1.57616 0.71933,-1.95637c0.64833,-0.42387 1.61809,0.48399 2.31871,0.15364c0.90469,-0.42657 -0.00061,-2.62374 1.9857,-3.09849c1.37132,-0.32777 3.05838,1.08739 3.81783,2.00136c2.09069,2.51607 3.66268,6.98371 1.94562,9.95668c-1.54358,1.50685 -6.66013,4.8038 -8.95748,4.18804c-1.94228,-0.52059 -1.78208,-2.7303 -3.21504,-3.47512c-0.62664,-0.32572 -1.44484,0.5337 -2.1011,0.27273c-1.30759,-0.52 -1.73343,-2.25586 -1.93763,-3.77529z" data-paper-data="{&quot;index&quot;:null}" fill="#d48631" stroke="none" stroke-width="0.5" stroke-linecap="butt"/><path d="M210.29942,210.87978l0.19447,0.26533c0.2804,0.41336 1.05782,-0.11638 1.49289,0.12898c1.33607,0.75342 0.74148,1.42551 1.09326,2.37811c0.14581,0.39486 0.66188,-0.64796 1.08279,-0.64968c0.6252,-0.00255 1.24232,0.30829 1.75143,0.6712c0.3543,0.25257 0.29253,1.34034 0.66842,1.1212c0.11676,-0.06808 0.23197,-0.1388 0.34617,-0.21124l-0.14318,-0.12575l0.82084,-0.93464c0.18603,-0.21439 0.46164,-0.34861 0.7677,-0.34492c0.55225,0.00665 0.99454,0.45972 0.98789,1.01197c-0.00178,0.14774 -0.0355,0.28762 -0.09454,0.41313l-0.40932,0.9242c-1.03829,2.34177 -2.62839,4.36508 -3.59856,6.71714c-0.43406,1.05233 -1.01335,3.07023 -2.14153,3.61041c-1.35973,0.65104 -2.69601,-0.46425 -3.94852,-0.75648c-1.67992,-0.01377 -3.37955,0.89473 -4.95658,0.1092c-2.11978,-1.05588 -2.70439,-4.21357 -2.21156,-6.28701c0.85191,-3.58421 4.43448,-6.00237 6.50857,-8.83341c0,0 0.59099,-0.80668 1.39768,-0.21569c0.4474,0.32778 0.46488,0.72191 0.39168,1.00795z" data-paper-data="{&quot;index&quot;:null}" fill="#d48631" stroke="none" stroke-width="0.5" stroke-linecap="butt"/><path d="M230.68961,149.62473c0.25279,-1.41121 0.10319,-5.3209 1.68599,-6.08435c1.74364,-0.84102 2.20501,1.05028 3.29665,0.9039c0.53799,-0.07215 0.32084,-5.06448 0.35818,-5.20272c0.16467,-0.60965 0.41418,-1.30823 0.9532,-1.63725c0.31456,-0.19201 0.64865,0.45861 1.01642,0.43495c0.18375,-0.01182 -0.28019,-0.29941 -0.26782,-0.48311c0.03037,-0.45061 0.28074,-0.85943 0.38787,-1.29818c0.26013,-1.06525 0.51712,-1.7903 0.9343,-2.51481l-0.11194,-0.04636l0.37448,-0.90447c0.14637,-0.37805 0.51569,-0.64408 0.94489,-0.63891c0.37062,0.00446 0.69172,0.20998 0.86084,0.51162l0.53784,0.92136l-0.01778,0.01038l0.04993,0.04925c0.84128,2.03795 2.31719,3.83577 2.80213,6.02901c0.11618,0.5255 -0.25475,1.39539 0.24469,1.59591c0.20942,0.08408 0.67778,-0.00725 1.12703,-0.07405c0.44066,-0.06553 1.02467,-1.67707 1.16607,-1.5068c0.09048,0.10897 0.75422,5.15926 0.86758,5.62448c0.63093,2.58928 -0.54799,3.72223 -0.54834,6.35599c0.05252,0.04159 0.08169,0.07147 0.08169,0.07147l0.36771,0.37668c2.69402,2.76816 6.87042,3.52442 9.89586,6.00125c2.57958,2.11862 4.83305,4.03441 6.80514,6.79234c0.80885,1.13116 1.4536,3.37476 2.33706,4.27534c0.61431,0.62621 4.11851,0.25445 4.99801,0.44311c2.72183,0.58385 4.56886,2.3691 6.43805,4.28643c2.31998,2.77165 5.34484,7.03333 3.98566,10.92649c-0.32674,0.93588 -0.89796,1.37665 -1.56255,2.02883c-4.09221,4.01577 -8.17868,0.2417 -9.41973,-4.21949c-0.36246,-0.9363 -0.5723,-1.90622 -1.1446,-2.74429c-1.01653,-1.4886 -4.42537,-3.31062 -5.76044,-1.04511c-1.79699,3.04934 2.16698,6.03373 4.47323,6.97958c1.4664,0.65206 3.39757,1.44222 4.32647,2.84508c2.0334,3.07095 -0.19719,8.79895 -2.45848,11.23842c-2.48164,2.67718 -20.63862,14.44147 -23.65126,11.46153c-0.16375,-0.46884 -1.6405,-1.49079 -1.30637,-2.19402c2.35657,-4.95944 17.04335,-14.49733 17.63594,-17.73c0.26622,-1.45222 0.21633,-3.98274 -1.31594,-4.36363c-1.56837,-0.38987 -4.05811,0.16402 -5.72783,0.14392c-5.61239,-0.06757 -9.96554,0.86682 -14.26912,4.59055c-1.31391,1.13687 -2.08524,3.08118 -3.22132,4.39162c-0.43723,0.50433 -0.76573,1.42323 -1.43276,1.3989c-1.01247,-0.03694 -1.53478,-1.75676 -1.8289,-2.51189c-0.62993,-1.76401 -3.39199,-0.97317 -4.80689,-2.09816c-3.16618,-2.51745 -6.10397,-5.88969 -9.5266,-6.9826c-2.32683,-0.743 -3.87344,-1.56245 -6.17307,-0.67578c-0.88198,0.42678 -3.14244,1.28341 -3.66773,2.15532c-1.22427,2.03208 0.05666,7.20021 0.20628,9.46444c0.08483,1.28362 2.33619,5.62384 1.09165,6.57641c-1.11953,0.85688 -6.75535,-0.43058 -7.97041,-0.93055c-4.00019,-2.46187 -8.18316,-9.93342 -5.89866,-14.69666c0.99775,-2.08034 3.46159,-3.17316 5.65094,-3.48242c1.28411,-0.18139 2.35848,-0.58753 2.10793,-0.82601c0.76236,-4.32041 0.45005,-7.42499 0.85539,-11.85222c0.18696,-2.04209 0.88286,-4.26343 1.41627,-6.24851c0.55274,-2.05706 1.36602,-3.44779 2.4365,-5.18421c2.39286,-2.36281 5.60053,-4.39412 8.72081,-5.77547c3.23716,-1.4331 7.65994,-1.80558 10.44229,-4.02368c0,0 0.01818,-0.01419 0.0512,-0.03551c0.05213,-0.29111 0.10426,-0.58223 0.15639,-0.87335z" data-paper-data="{&quot;index&quot;:null}" fill="#a25121" stroke="none" stroke-width="0.5" stroke-linecap="butt"/><path d="M222.95412,186.90588c3.56838,1.11628 6.82471,3.28122 9.91052,5.3284c1.01395,0.67267 2.16409,1.61724 2.78316,2.66043c0.27041,0.45565 0.09222,0.62945 0.5786,0.83964c0.25224,0.109 1.92259,-1.95669 2.11833,-2.18643c6.14299,-6.00572 13.94292,-11.22752 22.89335,-8.1229c3.71582,1.70652 3.05606,4.8767 2.42914,8.19398c-1.09104,5.77311 -2.74587,10.72589 -8.65487,12.86249c-2.65918,0.95683 -5.50306,1.58994 -8.12298,2.59617c-1.22999,0.47239 -1.63119,1.52253 -3.08905,1.79244c-3.75057,0.69443 -8.60407,-0.49106 -12.46492,-0.54218c-2.57085,0.21672 -3.72603,-1.04387 -6.06948,-1.58535c-4.64504,-1.07331 -10.91905,-1.77334 -13.83343,-6.13574c-0.94246,-1.41073 -1.08159,-3.13472 -1.46199,-4.75144c-0.26782,-2.69219 -0.93246,-6.20134 0.01806,-8.80112c2.04355,-5.5894 8.70882,-5.18568 12.6435,-2.49938c0,0 0.18697,0.12791 0.32204,0.35099z" data-paper-data="{&quot;index&quot;:null}" fill="#de8f31" stroke="none" stroke-width="0.5" stroke-linecap="butt"/><path d="M251.47946,223.75337c-2.31106,2.79173 -7.31511,4.07226 -10.82745,2.79303c-1.906,-0.69418 -2.64539,-2.68114 -3.00896,-4.49251c-0.09766,-0.48653 -0.28066,-1.31781 -0.30292,-1.95899c-0.50238,0.53135 -1.23463,1.07594 -1.72059,0.904c-0.20675,1.05464 -0.52009,2.36625 -1.0012,3.17838c-2.36258,3.98822 -10.39946,4.08769 -12.86947,0.4468c-0.95064,-1.4013 -1.05126,-3.41391 -1.03522,-5.0299c0,0 0.01205,-0.99993 1.01197,-0.98789c0.99993,0.01204 0.98789,1.01197 0.98789,1.01197c-0.01754,1.21424 -0.00991,2.86693 0.71818,3.92502c1.61944,2.35346 8.04576,2.39277 9.47525,-0.40092c0.40257,-0.78675 0.67115,-2.01432 0.82732,-2.89483l0.01495,-1.24089c0.00665,-0.55225 0.45972,-0.99454 1.01196,-0.98789c0.27612,0.00333 0.52475,0.11825 0.70353,0.30139l0.47657,0.48818c0.07642,-0.01746 0.14883,-0.05076 0.21524,-0.10356c0.69944,-0.55614 1.19701,-1.9457 2.56751,-1.29064c1.17676,0.56244 0.80973,4.98861 1.48698,6.19207c1.68319,2.99102 8.05997,0.92953 9.72188,-1.1209c0.25186,-0.30717 0.50372,-0.61433 0.75558,-0.9215l0.32689,-0.48443c0,0 0.36964,-0.54026 0.94789,-0.44747c-0.0637,-0.71121 -0.14175,-1.39783 -0.28895,-1.99184c-0.57072,-2.30307 -1.80252,-3.88818 -3.17549,-5.76547c0,0 -1.03307,-1.41254 0.37946,-2.44561c1.41254,-1.03307 2.44561,0.37946 2.44561,0.37946c1.64076,2.24345 3.04989,4.22574 3.74373,6.97406c0.45671,1.80907 0.34785,3.84528 0.80521,5.60055c0.35537,1.36381 2.90758,1.43118 3.78525,1.90315c1.05585,0.56778 1.4954,1.92555 2.48951,2.5956c0.56764,0.38261 1.33043,-0.39996 1.89969,-0.78014c1.93024,-1.28909 3.90998,-2.68069 5.8003,-4.05827c1.93613,-1.68128 0.33403,-2.95159 -0.57504,-5.03987c-1.78712,-4.1053 -4.80336,-7.26654 -8.1178,-10.23987l-1.41991,-1.0919c-0.43044,-0.32365 -0.70622,-0.84096 -0.69925,-1.42074c0.01164,-0.96643 0.80451,-1.74044 1.77095,-1.72881c0.13,0.00157 0.25652,0.01727 0.37812,0.04562l1.82112,0.38708l-0.04193,0.19725c0.40093,-0.04563 0.80018,-0.10228 1.19638,-0.17921c2.83469,-0.5504 5.93888,-4.34939 7.29282,-6.68725c2.08703,-3.60368 2.24029,-7.56064 -1.34855,-8.8131c-2.05625,0.06833 -4.23055,0.12852 -5.55562,-1.86455c-1.36064,-2.04656 -1.34744,-8.50583 1.01887,-9.74114c0.91039,-0.47527 2.07815,-0.12675 3.07922,0.10252c2.77887,0.63644 3.57944,2.70273 4.32274,5.12413c0.29759,0.96945 0.34413,2.16822 0.91515,2.9817c0.32747,0.10575 0.7187,0.31813 0.95232,0.74448c1.99545,0.89159 5.95595,1.69211 6.03749,-1.24946c-0.3626,-4.6334 -2.64023,-10.54205 -6.79552,-13.0821c-2.13714,-1.30639 -4.88235,-0.77065 -7.06465,-1.85782c-2.41885,-1.20501 -2.46075,-2.94989 -3.82512,-4.92219c-1.84206,-2.66286 -4.15035,-4.59936 -6.37858,-6.8737c-2.25917,-2.0863 -6.86201,-2.07893 -8.67949,-4.38356c-1.57096,-1.99203 -1.00052,-6.23178 -1.20273,-8.56661c-0.06826,-0.78823 -0.47205,-2.52538 -0.73654,-3.89482c-0.59385,0.39858 -1.05425,1.36565 -1.66837,1.10184c-1.04194,-0.44758 -1.28294,-1.87306 -1.84889,-2.85573c-0.94046,-1.63293 -1.79868,-3.42333 -2.63322,-5.18825c-0.05197,1.61276 -0.21131,3.19449 -0.78646,4.23702c-0.29525,0.5352 -1.1639,0.50776 -1.54769,0.98348c-0.55028,0.68208 -0.10745,3.79168 -0.11704,4.58711c0,0 -0.00502,0.41658 -0.21341,0.84079c0.11456,0.45166 0.0656,1.02445 -0.51459,1.59084c-1.25225,1.22246 -2.47469,-0.0298 -2.47469,-0.0298l-0.53922,-0.71935c-0.12846,-0.31542 -0.30458,-0.60596 -0.49656,-0.88846c-0.05235,1.96418 -0.69921,4.34018 -0.8763,5.9189c0,0 -0.12918,1.15162 -1.11444,1.47547c-0.39132,0.43109 -0.93566,0.57253 -0.93566,0.57253c-4.41945,1.14609 -8.09146,2.24734 -12.26848,4.04391c-1.88096,0.80901 -4.38417,1.89965 -5.71999,3.52634c-2.4247,2.95265 -3.98576,7.63824 -4.78106,11.29903c-0.02728,3.21266 0.39292,6.47945 0.07794,9.6929c-0.10577,1.07919 -0.57206,2.39451 -1.29115,3.20614c-1.5045,1.6981 -4.28676,0.19212 -6.09079,2.1361c-1.20879,1.30256 -1.03668,4.27478 -0.62838,5.83776c1.09424,4.18879 2.5293,6.75681 5.96745,9.43457c2.20628,0.997 3.31159,1.35232 5.67588,0.64576l1.43418,-0.05653c0,0 1.74988,0.02107 1.72881,1.77095c-0.00703,0.5844 -0.2069,0.9713 -0.47001,1.22741c0.24907,0.06349 0.51307,0.19943 0.78287,0.44129c1.30305,1.16817 0.13489,2.47119 0.13489,2.47119c-3.30378,3.67158 -9.77378,7.15759 -10.91534,12.27079c-0.96744,4.33338 3.12882,2.48392 5.57584,2.83462c0.97508,0.13974 1.95602,1.35077 2.82116,0.87975c0.44177,-0.24051 0.57802,-0.82335 0.86702,-1.23501c3.51072,-3.40047 5.60324,-8.15304 8.57964,-12.03013l0.59386,-1.21442c0,0 0.80141,-1.55571 2.35712,-0.75429c1.55571,0.80141 0.7543,2.35712 0.7543,2.35712l-0.93075,1.74517c-3.07936,3.99715 -5.2315,8.78406 -8.83674,12.32816c-2.80415,2.71029 -3.26477,2.03986 -6.75549,1.38021c-1.11855,-0.21137 -2.23972,0.64174 -3.37298,0.53427c-4.02384,-0.38159 -5.81781,-3.95428 -5.07783,-7.54682c1.24228,-6.03112 7.91022,-9.60237 11.7341,-13.8857c0,0 0.0453,-0.05052 0.12799,-0.12275l-0.16735,-0.03095c-3.3452,0.92932 -5.36316,0.41913 -8.44934,-1.01328c-5.19786,-3.95885 -11.67215,-14.23485 -6.14079,-20.60112c0.84738,-0.97528 2.82204,-2.03003 4.06324,-2.35376c0.69283,-0.1807 1.42312,-0.25479 2.13773,-0.21005c0.2762,0.0173 0.59136,0.62754 0.73303,0.38981c0.16777,-0.28154 -0.39563,-0.55386 -0.44192,-0.87832c-0.09637,-0.67555 0.01642,-1.36468 0.02464,-2.04703c0.0322,-2.6746 -0.12088,-5.32052 -0.08139,-7.99051c0.89465,-4.28296 2.67941,-9.7133 5.56376,-13.14438c4.48785,-5.33851 12.93277,-6.96726 19.33774,-8.60532c0.1885,-2.19174 0.20009,-4.50227 0.55788,-6.62008c0.19033,-1.12661 -0.18772,-2.82873 0.84264,-3.32252c1.35732,-0.65051 2.58299,-0.26288 3.61387,0.55417c0.07864,-0.99008 0.28199,-1.93961 0.75913,-2.717c0.29266,-0.47684 1.11822,-0.39275 1.45222,-0.84161c0.60987,-0.81965 -0.09795,-2.04476 -0.03874,-3.06471c0.02937,-0.50603 0.35935,-3.39276 0.42727,-3.99823l0.20634,-1.83947c0.08916,-0.89295 0.84809,-1.58503 1.76233,-1.57401c0.57977,0.00698 1.0903,0.29512 1.4035,0.73324l1.08661,1.48576l-0.33764,0.24695c1.29665,1.48569 2.17695,3.10219 3.2238,5.25736c0.66712,1.3734 1.52034,2.70028 1.84657,4.19186c0.06927,0.31666 -0.70282,1.01192 -0.40495,0.88408c0.60338,-0.25897 0.82891,-1.54444 1.45047,-1.3328c0.05079,0.01729 0.10086,0.03607 0.15023,0.05625c0.397,2.33317 1.60218,4.39098 3.31736,5.87525c0.11701,1.75578 -0.04217,3.64932 0.14809,5.08962c0.12679,0.95986 -0.21116,2.09099 0.3441,2.88413c0.55032,0.78606 1.87235,0.44573 2.76852,0.7887c2.16108,0.82707 3.8371,1.6968 5.57406,3.222c3.3462,3.44103 5.75998,6.60003 8.42184,10.52549c0.54657,0.80603 1.48824,0.72672 2.3139,0.89126c2.03609,0.40578 4.10333,0.67764 5.91906,1.76712c5.30641,3.18398 8.02171,10.26077 8.48685,16.13676c-0.12865,0.86604 0.01452,1.81955 -0.38598,2.59813c-1.27466,2.47802 -4.47666,3.24571 -7.48022,2.80569c1.26571,5.27395 -4.06083,12.32202 -7.73356,15.20685c-0.66941,0.5258 -1.91172,1.40141 -3.12541,1.94479c2.79972,2.75394 5.235,5.75744 6.83294,9.42349c1.65955,3.80742 2.86423,5.76155 -0.37314,9.10776c-2.67273,1.96035 -7.81857,6.75591 -11.40706,5.35431c-1.17156,-0.45759 -1.52542,-2.13154 -2.65839,-2.67776c-2.31347,-1.11533 -4.29945,-0.93616 -5.45224,-3.79171c-0.19971,-0.4947 -0.32211,-1.07975 -0.40835,-1.70408c-0.23444,0.28592 -0.46887,0.57183 -0.70331,0.85776zM267.92053,184.62347l0.9184,0.01974c0.47614,0.05734 0.87264,0.09387 1.22611,0.13173c-0.45256,-2.10099 -0.73891,-4.50575 -2.99315,-4.74776c-0.58595,-0.0629 0.2907,1.14393 0.38282,1.72601c0.15193,0.96002 -0.18175,1.98371 0.05433,2.9199c0.23819,-0.05169 0.41152,-0.0496 0.41152,-0.0496z" data-paper-data="{&quot;index&quot;:null}" fill="#783b1a" stroke="none" stroke-width="0.5" stroke-linecap="butt"/><path d="M225.29138,210.89294c-0.2631,-0.95158 -0.45385,-2.00073 0.62842,-2.74236c1.30194,-0.89217 2.80914,0.09345 3.35529,1.21347c0.65805,1.34945 -0.17273,3.45343 0.32688,4.87707c0.27313,0.77828 1.88905,1.87298 1.20085,2.90325c-0.68126,1.01987 -2.71548,0.4611 -3.46726,-0.07181c-1.41319,-1.00178 -1.4611,-2.8529 -1.7037,-4.53955c-0.17678,-0.2798 -0.17295,-0.59874 -0.17295,-0.59874l0.03133,-0.21178c-0.04394,-0.20267 -0.09505,-0.40008 -0.15648,-0.59019c0,0 -0.03109,-0.09716 -0.04239,-0.23935z" data-paper-data="{&quot;index&quot;:null}" fill="#98461d" stroke="none" stroke-width="0.5" stroke-linecap="butt"/><path d="M247.49008,211.93251c-0.06597,0.18857 -0.12183,0.38469 -0.17064,0.58625l0.02623,0.21247c0,0 -0.00384,0.31894 -0.18731,0.59439c-0.28314,1.68031 -0.37562,3.52975 -1.81251,4.49721c-0.7644,0.51466 -2.81149,1.02429 -3.46798,-0.01168c-0.6632,-1.04654 0.97861,-2.10201 1.27039,-2.8735c0.53375,-1.4112 -0.24615,-3.53456 0.4442,-4.86778c0.57297,-1.10655 2.10345,-2.05559 3.38353,-1.13233c0.77325,0.5577 0.87056,1.26155 0.75627,1.96727c-0.04299,0.26544 -0.11592,0.53114 -0.19407,0.78942c-0.01471,0.14187 -0.04814,0.23827 -0.04814,0.23827z" data-paper-data="{&quot;index&quot;:null}" fill="#98461d" stroke="none" stroke-width="0.5" stroke-linecap="butt"/><path d="M242.6609,150.19992c-0.23152,-0.13522 -0.44766,-0.38683 -0.44202,-0.85495c0.01204,-0.99993 1.01197,-0.98789 1.01197,-0.98789l1.10693,0.64198c0.48559,1.27075 0.99377,2.45966 1.4364,3.73701c0.28495,0.10177 0.63329,0.34739 0.62615,0.94002c-0.01204,0.99993 -1.01196,0.98789 -1.01196,0.98789l-0.19488,-0.01512c-0.05603,0.01156 -0.10954,0.01857 -0.16064,0.02158c-3.81147,0.59692 -6.79091,2.24001 -10.80841,1.52061c0,0 -0.98434,-0.17626 -0.80808,-1.1606c0.17626,-0.98434 1.1606,-0.80808 1.1606,-0.80808c3.35604,0.60096 6.02766,-0.64142 9.13316,-1.32785c-0.33042,-0.91259 -0.68844,-1.78396 -1.04922,-2.69462z" data-paper-data="{&quot;index&quot;:null}" fill="#843e18" stroke="none" stroke-width="0.5" stroke-linecap="butt"/><path d="M228.67012,212.57584c-0.25204,-0.04536 0.15479,-0.19119 -0.01279,-0.59561c-0.38283,-0.92382 -0.13873,-1.17919 -0.13873,-1.17919l1.14778,-0.45353c2.92765,-0.01123 5.75207,0.28781 8.65985,0.49229c1.40591,0.09887 3.48892,-0.17708 4.81027,0.22552c1.66254,0.50655 1.4956,1.01097 2.05432,2.44049c-0.01231,1.50589 -0.16602,3.48221 -1.5352,4.4954c-1.24008,0.91763 -3.44994,0.32886 -4.87107,0.40184c-4.61651,0.23704 -10.66311,0.39424 -10.11444,-5.8272z" data-paper-data="{&quot;index&quot;:null}" fill="#002ea3" stroke="none" stroke-width="0.5" stroke-linecap="butt"/><path d="M243.49873,197.005c0.07168,-0.10821 0.13666,-0.17164 0.13666,-0.17164l0.2049,-0.19429c2.74215,-2.22686 5.62962,-4.26624 8.82941,-5.77928c2.57838,-0.31534 6.15357,-0.20605 7.29227,2.71571c1.10551,2.8366 -0.98248,8.40654 -2.86983,10.60178c-1.55758,1.81167 -4.13225,2.9721 -6.226,3.98765c-2.21629,0.91214 -6.13484,1.92688 -8.37996,0.5403c-2.374,-1.46618 -2.89433,-8.01736 -1.27185,-10.16386c0.55322,-0.73189 1.41777,-1.18508 2.28442,-1.53637z" data-paper-data="{&quot;index&quot;:null}" fill="#fffeff" stroke="none" stroke-width="0.5" stroke-linecap="butt"/><path d="M227.91298,199.93101c0.07089,0.05096 0.11149,0.09254 0.11149,0.09254l0.56569,0.75451c0.79162,3.42879 -2.83229,6.86375 -5.60472,3.48457c-2.7933,-3.40464 1.4083,-6.44297 4.6298,-4.615c0,0 0.16878,0.09917 0.29773,0.28336z" data-paper-data="{&quot;index&quot;:null}" fill="#4d2813" stroke="none" stroke-width="0.5" stroke-linecap="butt"/><path d="M243.30376,200.76784c3.26458,-1.74989 7.3918,1.38872 4.51734,4.72512c-2.85298,3.31145 -6.39314,-0.20976 -5.51919,-3.61849l0.5837,-0.74068c0,0 0.04159,-0.0406 0.11368,-0.08983c0.13335,-0.18105 0.30447,-0.27611 0.30447,-0.27611z" data-paper-data="{&quot;index&quot;:null}" fill="#4d2813" stroke="none" stroke-width="0.5" stroke-linecap="butt"/><path d="M231.38474,198.40487c1.57034,2.18494 0.89244,8.72168 -1.51618,10.13029c-2.27785,1.33213 -6.17085,0.22333 -8.36453,-0.7419c-2.06869,-1.06566 -4.61466,-2.28774 -6.12819,-4.13639c-1.83395,-2.24004 -3.78724,-7.85863 -2.61376,-10.6678c1.20872,-2.8935 4.78549,-2.91668 7.35553,-2.53936c3.16242,1.58964 5.99997,3.69794 8.68771,5.99018l0.20015,0.19916c0,0 0.06344,0.06499 0.13248,0.17489c0.85793,0.37207 1.71134,0.84592 2.24677,1.59092z" data-paper-data="{&quot;index&quot;:null}" fill="#fffeff" stroke="none" stroke-width="0.5" stroke-linecap="butt"/><path d="M241.73715,191.20815c-0.01075,-0.01665 -0.02135,-0.03394 -0.03179,-0.05182c-0.47589,-0.81525 0.33935,-1.29115 0.33935,-1.29115l0.66217,-0.38629c2.63704,-1.46016 5.40663,-2.8261 8.13646,-4.12147c1.95988,1.44403 2.93874,4.55231 1.38892,6.8855c-0.97261,1.46422 -3.35074,2.11696 -4.76853,3.00021c-0.98185,0.61168 -1.87922,2.09488 -3.2985,1.75736c-2.14348,-0.50975 -2.09858,-4.10964 -2.42807,-5.79235z" data-paper-data="{&quot;index&quot;:null}" fill="#713617" stroke="none" stroke-width="0.5" stroke-linecap="butt"/><path d="M228.91158,196.93434c-1.427,0.30326 -2.28839,-1.20112 -3.25524,-1.83626c-1.39611,-0.91713 -3.75783,-1.62693 -4.69491,-3.11415c-1.49322,-2.36983 -0.43979,-5.45362 1.55429,-6.85006c2.69786,1.36072 5.43376,2.79292 8.03488,4.31616l0.65268,0.40212c0,0 0.80356,0.49539 0.30817,1.29895c-0.01087,0.01763 -0.02189,0.03463 -0.03303,0.05104c-0.36991,1.67429 -0.4117,5.27421 -2.56683,5.73221z" data-paper-data="{&quot;index&quot;:null}" fill="#713617" stroke="none" stroke-width="0.5" stroke-linecap="butt"/><path d="M228.91636,201.26315c0.07088,0.05097 0.11149,0.09255 0.11149,0.09255l0.56569,0.75451c0.79161,3.42878 -2.83228,6.86375 -5.6047,3.48457c-2.7933,-3.40465 1.40829,-6.44296 4.62979,-4.61499c0,0 0.16878,0.09916 0.29773,0.28336z" data-paper-data="{&quot;index&quot;:null}" fill="#4d2813" stroke="none" stroke-width="0.5" stroke-linecap="butt"/><path d="M243.42852,225.21162c-0.49996,-0.00602 -0.49394,-0.50598 -0.49394,-0.50598c0.00803,-0.66662 0.01806,-1.49989 0.02609,-2.16651c0,0 0.00602,-0.49997 0.50598,-0.49394c0.49996,0.00602 0.49394,0.50598 0.49394,0.50598c-0.00803,0.66662 -0.01605,1.33323 -0.02408,1.99986l-0.002,0.16665c0,0 -0.00602,0.49997 -0.50598,0.49394z" data-paper-data="{&quot;index&quot;:null}" fill="#77209e" stroke="none" stroke-width="0.5" stroke-linecap="butt"/><path d="M245.76569,224.90641c-0.49996,-0.00602 -0.49394,-0.50598 -0.49394,-0.50598c0.00401,-0.33331 0.01003,-0.83327 0.01405,-1.16658c0,0 0.00602,-0.49997 0.50598,-0.49394c0.49996,0.00602 0.49394,0.50598 0.49394,0.50598c-0.00401,0.33331 -0.00803,0.66662 -0.01205,0.99993l-0.002,0.16666c0,0 -0.00602,0.49996 -0.50598,0.49394z" data-paper-data="{&quot;index&quot;:null}" fill="#77209e" stroke="none" stroke-width="0.5" stroke-linecap="butt"/><path d="M247.77758,223.93056c-0.49996,-0.00602 -0.49394,-0.50598 -0.49394,-0.50598c0.002,-0.16666 0.00602,-0.49996 0.00803,-0.66662c0,0 0.00602,-0.49996 0.50598,-0.49394c0.49996,0.00602 0.49394,0.50598 0.49394,0.50598c-0.002,0.16666 -0.00401,0.33331 -0.00602,0.49997l-0.002,0.16666c0,0 -0.00602,0.49996 -0.50598,0.49394z" data-paper-data="{&quot;index&quot;:null}" fill="#77209e" stroke="none" stroke-width="0.5" stroke-linecap="butt"/><path d="M229.59419,225.21174c-0.49996,-0.00602 -0.49394,-0.50598 -0.49394,-0.50598l0.00602,-0.49996c0.00779,-0.28443 -0.04023,-0.57381 -0.13086,-0.84353c0,0 -0.15239,-0.47621 0.32382,-0.6286c0.47621,-0.15239 0.6286,0.32382 0.6286,0.32382c0.1153,0.37396 0.17873,0.76902 0.17837,1.16034l-0.00602,0.49996c0,0 -0.00602,0.49997 -0.50598,0.49394z" data-paper-data="{&quot;index&quot;:null}" fill="#77209e" stroke="none" stroke-width="0.5" stroke-linecap="butt"/><path d="M227.75495,225.68964c-0.49996,-0.00602 -0.49394,-0.50598 -0.49394,-0.50598c0.002,-0.16666 0.01003,-0.83327 0.01204,-0.99993c0,0 0.00602,-0.49996 0.50598,-0.49394c0.49996,0.00602 0.49394,0.50598 0.49394,0.50598c-0.002,0.16666 -0.00401,0.33331 -0.00602,0.49997l-0.00602,0.49996c0,0 -0.00602,0.49996 -0.50598,0.49394z" data-paper-data="{&quot;index&quot;:null}" fill="#77209e" stroke="none" stroke-width="0.5" stroke-linecap="butt"/><path d="M225.10253,224.49095c0.00333,-0.27612 0.22986,-0.49727 0.50598,-0.49394c0.27612,0.00333 0.49727,0.22987 0.49394,0.50598c-0.00333,0.27612 -0.22987,0.49727 -0.50598,0.49394c-0.27612,-0.00333 -0.49727,-0.22986 -0.49394,-0.50598z" data-paper-data="{&quot;index&quot;:null}" fill="#77209e" stroke="none" stroke-width="0.5" stroke-linecap="butt"/><path d="M206.5298,189.1897c0.60157,0.11291 0.82032,0.76052 0.82032,0.76052l0.2967,0.91361c0.23117,1.24336 0.34882,2.36769 0.43566,3.62228c0.0814,1.17599 0.56523,2.1655 -0.39108,3.26783c-1.46334,1.68677 -3.8434,1.24408 -5.03136,-0.50834c-2.12982,-3.14182 -0.7302,-7.56303 2.91507,-8.29026c0,0 0.55895,-0.10392 0.95469,0.23435z" fill="#de8f31" stroke="none" stroke-width="0.5" stroke-linecap="butt"/><path d="M266.8884,190.89364c3.62671,0.81477 4.91947,5.2684 2.71463,8.35803c-1.2298,1.72332 -3.61984,2.10857 -5.04213,0.38707c-0.92949,-1.12503 -0.42198,-2.1026 -0.31229,-3.2763c0.11702,-1.25214 0.2617,-2.37332 0.52275,-3.61075l0.31859,-0.9062c0,0 0.23428,-0.64215 0.8384,-0.74055c0.40376,-0.32864 0.96006,-0.21129 0.96006,-0.21129z" data-paper-data="{&quot;index&quot;:null}" fill="#de8f31" stroke="none" stroke-width="0.5" stroke-linecap="butt"/><path d="M211.29051,210.22955c0.15221,-0.15017 0.30442,-0.30033 0.45662,-0.4505c0.40368,-0.65437 2.23544,-3.89232 2.55927,-4.02596c0.70376,-0.29042 3.94433,1.33057 4.81988,1.58447c2.16726,0.62849 5.68414,1.42678 7.93611,1.29836c0.90259,-0.05147 3.68774,-1.05877 4.38635,-0.73511c2.84092,1.31617 1.2598,8.10929 0.80337,10.39684c-2.30507,2.11282 -8.85017,4.17732 -11.4903,1.24484c-0.32346,-0.35928 -0.69472,-2.96838 -0.7886,-3.512c-0.08381,-0.4853 0.3483,-1.56365 -0.13542,-1.47122c-3.13619,0.5993 -5.58353,0.28616 -8.25518,-1.40563c-0.3128,0.0682 -0.69978,0.02007 -1.08677,-0.36692c-0.37822,-0.37822 -0.43275,-0.75645 -0.37136,-1.06542c-0.05925,-0.27434 -0.01897,-0.60654 0.25525,-0.97215c0.2903,-0.38707 0.61805,-0.51195 0.91077,-0.51962z" fill="#002176" stroke="none" stroke-width="0.5" stroke-linecap="butt"/><path d="M255.37248,219.69721c-0.57426,0.97879 -1.62095,0.45546 -1.62095,0.45546l-0.3726,-0.1926c-1.94768,-1.21961 -2.78929,-2.2194 -3.81068,-4.25125c-0.07606,-0.15131 -0.20613,-0.35196 -0.33271,-0.55858c-0.07594,0.2805 -0.17461,0.56159 -0.23976,0.75456c-1.09474,1.96589 -4.32202,5.63475 -7.1565,4.27753c-2.82308,-1.35177 -1.2785,-8.00239 0.17015,-9.83958c2.66494,-3.37969 9.65261,-2.29155 13.49251,-3.999c1.36863,-0.75677 2.86211,-2.47347 4.63122,-2.11192c0.64695,0.13222 1.03276,0.82469 1.52023,1.27012c1.73128,1.58198 5.32966,4.35218 4.92088,7.02913c-0.16215,1.06185 -1.40425,2.11932 -2.09509,2.81234c-2.75457,2.76331 -5.3529,3.92042 -9.1067,4.35379z" fill="#002176" stroke="none" stroke-width="0.5" stroke-linecap="butt"/><path d="M231.61631,207.56558c1.24236,-0.13804 1.38039,1.10431 1.38039,1.10431l0.12205,1.12549c0.41566,2.29998 1.21784,5.87857 0.18485,8.12468c-1.61399,3.50944 -8.66705,3.32245 -11.88911,3.03224c0,0 -1.24487,-0.11318 -1.1317,-1.35804c0.11317,-1.24487 1.35804,-1.13169 1.35804,-1.13169c2.46944,0.22673 4.39049,-0.08703 6.795,-0.52322c0.74793,-0.13567 2.2553,-0.07414 2.57665,-1.01965c0.65972,-1.94114 -0.00038,-4.74818 -0.3534,-6.67711l-0.14708,-1.29662c0,0 -0.13804,-1.24236 1.10431,-1.38039z" fill="#f7c626" stroke="none" stroke-width="0.5" stroke-linecap="butt"/><path d="M249.24023,214.17206c0.96027,0.80023 0.16004,1.7605 0.16004,1.7605l-0.59302,0.70051c-2.07375,3.10999 -6.21399,7.94123 -9.27392,2.58768c-0.26898,-0.47061 -0.41135,-1.00921 -0.52394,-1.53943c-0.62715,-2.95342 1.10173,-5.72717 1.60725,-8.55875c0,0 0.22361,-1.22984 1.45345,-1.00623c1.22984,0.2236 1.00623,1.45345 1.00623,1.45345c-0.41276,2.23502 -1.45351,4.31076 -1.73135,6.5788c-0.38896,3.17515 2.33204,3.47849 3.94139,1.32954c0.53079,-0.70876 0.94967,-1.49499 1.44078,-2.23181l0.7526,-0.91422c0,0 0.80023,-0.96027 1.7605,-0.16004z" fill="#f7c626" stroke="none" stroke-width="0.5" stroke-linecap="butt"/><path d="M245.83082,149.70598c-0.27273,-0.18448 -0.51717,-0.51033 -0.47227,-1.08351c0.09589,-1.22432 1.32021,-1.12843 1.32021,-1.12843l1.30433,0.87648c0.49193,1.59655 1.01817,3.09466 1.45692,4.69581c0.34091,0.14783 0.74784,0.47707 0.691,1.20269c-0.09589,1.22432 -1.3202,1.12843 -1.3202,1.12843l-0.23757,-0.03434c-0.06959,0.00962 -0.13573,0.01387 -0.19859,0.01341c-4.71893,0.4222 -8.50321,2.19387 -13.36781,0.98636c0,0 -1.19189,-0.29585 -0.89604,-1.48774c0.29585,-1.19189 1.48774,-0.89604 1.48774,-0.89604c4.06367,1.00871 7.43823,-0.2969 11.29934,-0.88607c-0.33085,-1.14508 -0.69886,-2.24189 -1.06706,-3.38707z" data-paper-data="{&quot;index&quot;:null}" fill="#843e18" stroke="none" stroke-width="0.5" stroke-linecap="butt"/><path d="M215.28449,153.50347c-4.52253,-0.1093 -10.28708,2.34822 -13.23631,5.71624c-3.41442,3.89926 -1.33214,10.71531 1.83624,13.80635c12.27773,9.4539 28.11809,6.49065 42.35538,5.40717c3.60031,-0.32529 7.10636,-1.40712 10.71249,-1.63846c2.80172,-0.17975 5.72591,0.57072 8.53148,0.29552c7.36527,-0.72245 12.86687,-5.37587 12.08447,-12.99867c-0.4352,-7.53489 -8.99544,-11.72169 -15.88573,-10.11929c-0.79942,0.18592 -1.1142,1.20727 -1.62764,1.84761c-1.75448,2.18808 -4.29188,4.16492 -6.58342,5.75991c-4.72248,2.43229 -12.21831,5.82777 -17.64583,5.49452c-6.75046,-0.41448 -13.14037,-4.90359 -17.37196,-9.65484c-1.08414,-1.24143 -1.99309,-2.57712 -3.08016,-3.81439zM214.86825,150.45214c1.10142,-0.82625 2.04027,0.24576 2.04027,0.24576l0.09112,0.10404c0.14606,0.10733 0.28222,0.24922 0.38239,0.43662l0.30111,0.34381c1.08414,1.24143 1.99309,2.57712 3.08016,3.81439c0.68869,0.79684 1.08752,1.8153 1.77081,2.61679c1.85063,2.17078 5.20978,2.61135 7.56017,3.76823c1.98501,0.97704 3.57998,2.05728 5.96981,2.23167c4.72598,0.34489 11.7126,-2.96166 15.82505,-5.06463c2.96173,-2.06703 5.69562,-6.88935 8.92529,-7.92138c8.75097,-2.79633 19.01328,3.86854 19.81226,12.79617c0.89907,9.31955 -5.82074,15.41661 -14.85243,16.32306c-2.84762,0.28579 -5.81549,-0.4829 -8.649,-0.28663c-3.5744,0.2476 -7.0553,1.30186 -10.62937,1.63264c-15.2701,1.15662 -31.48776,3.88994 -44.62301,-6.14723c-4.37563,-4.2955 -6.65659,-12.81088 -2.15981,-18.11904c3.42163,-4.03904 9.80852,-6.65953 15.15516,-6.77428z" fill="#063469" stroke="none" stroke-width="0.5" stroke-linecap="butt"/><path d="M215.42756,153.63427c1.08705,1.23727 1.9983,2.56825 3.08243,3.80968c4.23161,4.75125 10.62458,9.20042 17.37504,9.61489c5.4275,0.33325 12.80549,-3.02789 17.52796,-5.46019c2.29155,-1.59499 4.83234,-3.56344 6.58682,-5.75152c0.51344,-0.64033 0.9373,-1.71803 1.73674,-1.90395c6.89029,-1.60238 15.45779,2.61011 15.89298,10.14499c0.7824,7.62282 -4.72362,12.3028 -12.08889,13.02525c-2.80557,0.27519 -5.73359,-0.4675 -8.5353,-0.28777c-3.60613,0.23136 -7.13344,1.33482 -10.73376,1.66011c-14.23729,1.08347 -30.16975,4.00584 -42.44747,-5.44806c-3.16838,-3.09105 -5.25068,-9.93028 -1.83626,-13.82954c2.94924,-3.36802 8.72009,-5.84322 13.24261,-5.73392z" data-paper-data="{&quot;noHover&quot;:false,&quot;origItem&quot;:[&quot;Path&quot;,{&quot;applyMatrix&quot;:true,&quot;segments&quot;:[[[218.046,154.92881],[0,0],[-3.68048,0.15451]],[[207.59889,160.28543],[2.21509,-2.89522],[-2.56447,3.35188]],[[209.83364,171.40444],[-2.74064,-2.34105],[10.4844,7.02085]],[[244.53872,173.5191],[-11.50965,1.6463],[2.90779,-0.458]],[[253.15458,171.6115],[-2.91757,0.38199],[2.26675,-0.29678]],[[260.1024,171.39262],[-2.26475,0.37454],[5.94549,-0.98325]],[[269.22182,160.18092],[1.04582,6.15152],[-0.75898,-6.09876]],[[255.7701,152.81354],[5.51222,-1.67265],[-0.63954,0.19407]],[[254.54701,154.40231],[0.38273,-0.5479],[-1.30781,1.87223]],[[249.5078,159.43647],[1.7761,-1.41923],[-3.7062,2.23033]],[[235.46599,164.85017],[4.42783,-0.02123],[-5.50712,0.02641]],[[220.83166,157.94013],[3.69384,3.63278],[-0.94766,-0.95035]],[[218.1238,155.00661],[0.94981,0.94681],[0,0]]],&quot;closed&quot;:true}]}" fill="#085ab1" stroke="none" stroke-width="0.5" stroke-linecap="butt"/><path d="M273.17743,156.46412c1.03606,-1.13272 2.16877,-0.09667 2.16877,-0.09667l1.09509,1.03807c1.27485,1.71152 2.04618,3.16338 2.65976,5.21062c0.14418,2.30732 0.18482,5.12026 -0.70993,7.31384c-4.3107,10.56825 -19.2286,7.70629 -27.9548,9.30566c-12.16224,1.60229 -24.76215,1.60235 -36.84809,0.84778c-11.08223,-2.11592 -20.32053,-15.33358 -10.09677,-24.34172c0,0 1.15481,-1.01137 2.16619,0.14344c1.01137,1.15481 -0.14343,2.16619 -0.14343,2.16619c-8.21361,7.14276 -0.03951,17.32894 8.46682,18.98718c11.75979,0.81957 24.14222,0.73081 35.98111,-0.83618c9.47444,-1.69146 26.87177,1.40224 26.11587,-13.05028c-0.47062,-1.54952 -1.1201,-2.61182 -2.09468,-3.90686l-0.70926,-0.6123c0,0 -1.13272,-1.03606 -0.09666,-2.16877z" fill="#157ce3" stroke="none" stroke-width="0.5" stroke-linecap="butt"/><path d="M216.42187,153.00366c-0.2547,-0.39155 -0.53454,-1.12076 0.18305,-1.87447c1.0585,-1.11178 2.17029,-0.05327 2.17029,-0.05327l1.32823,1.26676c3.09525,3.54876 5.48667,7.17783 10.14329,8.89466c5.47355,0.36243 9.79415,1.83637 15.21764,-0.43211c2.93776,-1.22876 5.30186,-3.48329 7.66945,-5.54751c0.93726,-0.81716 3.37881,-3.03589 4.69406,-3.0195c0.14941,0.00186 0.29711,0.01456 0.44343,0.03601l0.00479,-0.07233l1.57923,0.10457c0.84596,0.05602 1.48632,0.78719 1.43031,1.63315c-0.02494,0.37666 -0.18374,0.71255 -0.42691,0.96437l-1.21071,1.27164l-0.03137,-0.02987l-0.06902,0.12619c-3.95075,2.88779 -7.79066,5.96348 -12.46302,7.62145c-6.79686,3.30868 -16.6719,3.44175 -23.13446,-0.88846c-2.9414,-1.97088 -4.84941,-5.48019 -7.41147,-7.90063c0,0 -1.06579,-1.01472 -0.11682,-2.10066z" fill="#157ce3" stroke="none" stroke-width="0.5" stroke-linecap="butt"/><path d="M220.90428,151.9638l17.46967,-48.24077l21.21334,49.21599c0,0 -9.208,6.02912 -15.74294,8.47454c-3.2588,1.21947 -1.06284,0.58856 -1.45256,0.48835c-0.39181,-0.10076 -3.36361,0.32572 -4.48784,0.25128c-3.01511,-0.19965 -6.86546,0.11398 -10.52874,-1.83013c-3.66329,-1.94411 -6.47091,-8.35926 -6.47091,-8.35926z" fill="url(#color-2)" stroke="#133050" stroke-width="1.5" stroke-linecap="round"/><path d="M230.85746,124.66487c0.1014,-0.29811 0.25354,-0.49655 0.25354,-0.49655l0.09866,0.06135c0.48446,-1.79572 0.91467,-3.32152 1.51846,-4.85036l-0.22483,-0.03554l0.28254,-1.7874c0.1149,-0.78423 0.81561,-1.36077 1.62012,-1.3075c0.68903,0.04563 1.24169,0.53918 1.39273,1.17782l0.38745,1.48251l-0.00904,0.00236l0.01475,0.02018c0.85235,3.86285 0.06691,7.22639 -4.02373,8.44751c0,0 -1.4852,0.38816 -1.87335,-1.09704c-0.22568,-0.86352 0.18192,-1.35619 0.56269,-1.61734z" fill="#fec61e" stroke="none" stroke-width="0.5" stroke-linecap="butt"/><path d="M249.90803,136.06447c-1.52756,0.15177 -1.67933,-1.37578 -1.67933,-1.37578l-0.00364,-0.04316l-0.217,-0.1529c-3.34247,-2.9716 -3.77686,-7.69672 -4.7331,-11.86688c0,0 -0.25252,-1.10156 0.62094,-1.63101c0.16712,-0.20522 0.42025,-0.38415 0.79881,-0.49409c1.47416,-0.42814 1.90231,1.04603 1.90231,1.04603c1.16158,4.03951 3.55977,7.41892 4.53531,11.55762c0.19555,0.30165 0.33946,0.72869 0.14703,1.24016l0.00446,0.0407c0,0 0.15177,1.52756 -1.37579,1.67933z" fill="#fec61e" stroke="none" stroke-width="0.5" stroke-linecap="butt"/><path d="M255.01956,141.1152c0.61693,0.15302 0.97026,0.72402 0.97026,0.72402l0.72888,1.17869c1.46074,2.25233 4.0736,6.17592 2.94824,9.03954c-0.89215,2.2702 -4.47564,4.61561 -6.74196,2.43575c-0.20566,-0.19781 -0.14558,-3.08276 -0.37291,-3.81449c-0.21377,-0.68812 -0.80754,-1.52164 -1.4553,-2.33274l-0.21339,0.24847l-1.24004,-1.06504c-0.36168,-0.3039 -0.57872,-0.77011 -0.54511,-1.27759c0.04986,-0.75293 0.63455,-1.34299 1.35898,-1.42417l1.64253,-0.21688l0.00293,0.02205c1.13855,0.14625 0.48014,-0.98364 0.5663,-2.28488c0,0 0.10143,-1.53173 1.63315,-1.43031c0.29593,0.0196 0.53092,0.09258 0.71744,0.19759z" fill="#fec61e" stroke="none" stroke-width="0.5" stroke-linecap="butt"/><path d="M246.35724,212.79452c0,0.24116 -0.31075,0.5384 -0.71093,0.82118c-0.72353,0.51128 -1.73937,0.97532 -1.73937,0.97532l-4.2894,2.61538c0,0 -1.31054,2.69504 -3.25678,2.69504c-2.95892,0 -6.6314,-3.25887 -6.6314,-3.25887l0.05367,-2.57751c0,0 -3.41876,-0.78188 -3.41876,-1.27055c0,-3.92505 3.78616,-9.29368 9.30707,-9.29368c5.52091,0 10.6859,5.36863 10.6859,9.29368zM237.16507,214.58273c2.78564,0 5.04385,-1.53489 5.04385,-3.42827c0,-1.89338 -2.25821,-3.42827 -5.04385,-3.42827c-2.78564,0 -5.04385,1.53489 -5.04385,3.42827c0,1.89338 2.25821,3.42827 5.04385,3.42827z" fill="#f1efe6" stroke="none" stroke-width="0" stroke-linecap="butt"/><path d="M244.91011,170.49857c-9.96744,2.6382 -20.1967,-3.34246 -22.84767,-13.35818c-2.65097,-10.01572 3.28019,-20.27374 13.24764,-22.91195c9.04985,-2.39533 18.31552,2.31436 21.92897,10.69823c-2.90574,-4.58724 -8.5469,-6.97729 -14.07512,-5.51407c-6.82701,1.80698 -10.89656,8.80623 -9.08957,15.63324c1.80698,6.82701 8.80623,10.89656 15.63325,9.08957c4.11611,-1.08946 7.22985,-4.06634 8.65766,-7.75493c-1.44156,6.64959 -6.45214,12.26452 -13.45515,14.11809z" fill="#ffcd06" stroke="none" stroke-width="NaN" stroke-linecap="butt"/><path d="M236.61022,200.84811l14.52479,10.02564l-15.54408,-6.97436l-15.28926,8.28205z" fill="#fcfcfc" stroke="#fc8d21" stroke-width="0" stroke-linecap="round"/><path d="M227.65579,219.92613c0,7.8143 -6.99606,14.14903 -15.62613,14.14903c-8.63007,0 -15.62613,-6.33474 -15.62613,-14.14903c0,-7.8143 6.99606,-14.14903 15.62613,-14.14903c8.63007,0 15.62613,6.33474 15.62613,14.14903z" fill="url(#color-3)" stroke="none" stroke-width="0" stroke-linecap="butt"/></g></g></svg>