<svg version="1.1" xmlns="http://www.w3.org/2000/svg" xmlns:xlink="http://www.w3.org/1999/xlink" width="28.9161" height="53.77438" viewBox="0,0,28.9161,53.77438"><g transform="translate(-225.54195,-153.11281)"><g data-paper-data="{&quot;isPaintingLayer&quot;:true}" fill-rule="nonzero" stroke="none" stroke-linecap="butt" stroke-linejoin="miter" stroke-miterlimit="10" stroke-dasharray="" stroke-dashoffset="0" style="mix-blend-mode: normal"><path d="M226.45682,158.93663c-0.91485,-0.47829 -0.91487,-1.63231 -0.91487,-1.63231l1.69537,-1.97769c7.31652,-0.55779 14.01269,7.30139 19.18827,12.31101c3.17662,3.07475 6.69599,1.59682 6.73276,6.70658c0,9.8835 -4.98673,17.63193 -11.14859,24.97216c-1.68058,2.00194 -6.09022,7.72005 -9.47438,4.81617c-0.119,-0.10211 -0.21115,-0.21757 -0.28107,-0.34393c-0.06795,0.17015 -0.13254,0.34203 -0.19352,0.5158l-0.16065,0.57198c0,0 -0.384,1.34405 -1.72805,0.96007l0.00001,-0.00001c-1.34405,-0.38399 -0.96005,-1.72805 -0.96005,-1.72805l0.21306,-0.73611c0.9244,-2.5959 2.4998,-4.80558 4.17134,-6.96721c0.83773,-1.6409 2.05373,-3.09674 3.35359,-4.40968c0.31728,-0.31668 0.61477,-0.63341 0.89314,-0.95018c-0.42393,-0.6156 -0.0727,-1.37167 -0.0727,-1.37167l0.29796,-0.64143c0.65634,-1.40541 0.95698,-2.93512 1.62076,-4.32815c0.41646,-0.87403 1.14236,-1.59269 1.48042,-2.49933c-0.24686,-3.80253 -2.35752,-7.62897 -5.22978,-11.50028c-0.0807,-0.05404 -0.16156,-0.10709 -0.24254,-0.15912c0,0 -0.62757,-0.40828 -0.66532,-1.08654c-0.82131,-1.16722 -1.6237,-2.4022 -2.48434,-3.58318c-0.73194,0.21996 -1.34542,-0.37351 -1.34542,-0.37351c-1.27783,-1.24352 -2.11743,-2.64446 -2.99522,-4.04827c-0.26406,-0.17049 -0.53645,-0.32965 -0.81805,-0.47618c0,0 -1.32025,-0.71092 -0.93217,-2.04095z" fill="#343434" stroke-width="0.5"/><path d="M245.87044,166.53072c0.07862,-0.1055 0.17945,-0.21006 0.307,-0.3116c1.0937,-0.8705 1.96419,0.22318 1.96419,0.22318l-0.09347,-0.07384c0.82821,0.70224 1.61671,1.45663 2.33802,2.26829c2.03468,1.98672 4.3264,5.34432 4.04893,8.40545c-0.08545,0.94259 -0.20498,2.01485 -0.84728,2.70998c-0.78403,0.84853 -3.73478,0.87416 -4.62265,0.31818c-2.37663,-1.48822 -1.00449,-3.04534 -1.70114,-5.038c-0.44584,-1.27526 -1.55347,-2.55637 -2.4319,-3.56256c-0.43747,-0.50108 -1.1389,-0.80068 -1.41722,-1.40481c-0.40379,-0.87641 -1.06306,-2.03292 -0.5403,-2.844c0.52211,-0.8101 1.85265,-0.57248 2.81059,-0.67847c0.06174,-0.00683 0.12351,-0.01059 0.18525,-0.01181z" fill="#8a8a8a" stroke-width="0.5"/><path d="M233.96063,154.05815c2.20839,0.84032 4.0603,2.1729 5.8442,3.72746c1.00901,0.8521 3.81537,2.79261 4.07446,4.07342c0.78196,3.86572 -2.36108,3.75554 -4.84577,3.12532c-1.79288,-0.45473 -2.76774,-1.85046 -4.15689,-2.91309c-1.91993,-1.46865 -5.38727,-2.67823 -6.68614,-4.77869c-0.53463,-0.86458 -1.4181,-1.9007 -1.06997,-2.85576c0.56224,-1.54243 2.63004,-1.44081 4.30528,-1.15044c0.14377,-0.0306 0.29485,-0.03882 0.44894,-0.02131c0.14361,0.01631 0.27963,0.05384 0.40533,0.10911l0.39699,0.16385c0.18717,0.04043 0.3559,0.07659 0.50072,0.10433c0,0 0.44793,0.08611 0.78285,0.4158z" fill="#8d8d8d" stroke-width="0.5"/><path d="M251.22497,187.61673c-0.8267,1.65453 -1.70336,4.86019 -3.21919,5.67032c-1.52491,0.81499 -4.38487,0.5181 -4.74401,-1.81606c-0.1382,-0.89815 0.95573,-1.54609 1.45195,-2.30738c1.14629,-1.75868 1.92439,-3.75117 4.17509,-4.29486c0.32884,-0.07944 0.66766,-0.06757 1.0085,-0.03706c0.30305,-0.13676 0.70066,-0.17065 1.18706,0.09108c0.03446,0.01854 0.06744,0.03752 0.09899,0.05692c0.40884,0.12633 0.99426,0.4671 0.956,1.38145c-0.03379,0.80718 -0.51455,1.12832 -0.91435,1.25562z" fill="#8d8d8d" stroke-width="0.5"/><path d="M240.40493,203.08798c-1.74916,1.25284 -3.86176,4.30155 -6.36643,3.54089c-1.03711,-0.31496 -2.2505,-0.93082 -2.5959,-1.95819c-0.2696,-0.80192 0.74047,-1.5244 1.18261,-2.24567c2.24232,-3.65787 5.38104,-3.99223 9.29802,-4.32314c0,0 1.39288,-0.11766 1.51053,1.27522c0.11763,1.39287 -1.27523,1.51051 -1.27523,1.51051c-0.08103,0.00685 -0.16311,0.01293 -0.24612,0.01841c0.00629,0.0857 0.00473,0.17319 -0.00533,0.26169c-0.03775,0.33225 -0.18905,0.624 -0.41082,0.84092l-1.00725,1.00225l-0.02688,-0.02701z" fill="#8d8d8d" stroke-width="0.5"/><path d="M245.5493,163.57918c0.221,0.1773 0.43327,0.36556 0.63863,0.56195l0.05914,-0.0909l1.23219,0.80165c0.44448,0.27608 0.71502,0.79156 0.65201,1.34601c-0.07224,0.63588 -0.5605,1.12341 -1.16237,1.22191l-1.38075,0.2589c-0.52714,0.19033 -1.02928,0.60708 -1.58429,0.54485c-0.10675,-0.01197 -0.21269,-0.02766 -0.31793,-0.04658l-0.00539,0.04749l-2,-0.22725c-0.76707,-0.08715 -1.31823,-0.77963 -1.23109,-1.54669c0.03533,-0.31088 0.17006,-0.5863 0.36893,-0.79813l1.0173,-1.10983l0.02444,0.02239l0.05259,-0.10009c0.30926,-0.24724 0.61852,-0.49448 0.92779,-0.74172c0.03238,-0.06696 0.07101,-0.13547 0.11653,-0.20542c0.41334,-0.63534 0.94707,-0.70204 1.34908,-0.62998c0.35139,-0.02967 0.76544,0.07828 1.13853,0.54701c0.03868,0.04859 0.07349,0.09677 0.10468,0.14443z" fill="#c8c8c8" stroke-width="0.5"/><path d="M253.8981,180.74092c-0.68568,2.52592 -0.93511,5.8612 -4.38637,5.68162c-1.05221,-0.05475 -2.43923,0.16787 -3.0913,-0.65975c-0.52954,-0.67211 0.40649,-1.66233 0.60624,-2.49435c0.13807,-0.57508 0.89598,-3.87158 0.97442,-3.94384c0.59123,-0.54459 1.57931,-0.25201 2.38202,-0.37298c0.06994,-0.06173 0.14284,-0.11928 0.21898,-0.17209c0.06665,-0.04624 0.13481,-0.08959 0.20426,-0.1304l-0.01951,-0.02734l1.22037,-0.87065c0.27199,-0.19574 0.6148,-0.29488 0.97399,-0.25407c0.76707,0.08715 1.31823,0.77962 1.23109,1.54669c-0.00433,0.03813 -0.01015,0.07572 -0.01741,0.11273l-0.2852,1.52874l-0.01785,-0.00333z" fill="#c8c8c8" stroke-width="0.5"/><path d="M246.11889,195.37134c-0.7814,1.76667 -4.39378,7.77673 -6.70846,3.03212c-0.39112,-0.8017 0.70138,-1.64204 1.10955,-2.43519c0.47397,-0.92102 1.03965,-1.79721 1.45187,-2.74749c0,0 0.55928,-1.28105 1.84035,-0.72177c0.00592,0.00259 0.01181,0.00519 0.01764,0.0078l0.97981,-0.35822c0.20455,-0.07969 0.43093,-0.11221 0.6642,-0.08571c0.76707,0.08715 1.31823,0.77962 1.23109,1.54669c-0.0134,0.11799 -0.04112,0.23085 -0.08123,0.33708l-0.48727,1.37776l-0.01432,-0.00508z" fill="#c8c8c8" stroke-width="0.5"/><path d="M241.13351,167.41109c0.15401,0.10165 0.24438,0.19449 0.24438,0.19449l1.15592,1.18997c2.06626,2.59089 5.09496,5.56334 5.48485,9.03654c0.33482,2.9826 -1.07043,6.8927 -2.12207,9.62204c-0.32825,0.85192 -1.13984,2.91703 -1.82493,3.48441c-0.05406,0.04476 -0.1092,0.08789 -0.16533,0.12953l0.01807,0.02061l-1.24572,1.09226c-0.2862,0.25284 -0.6743,0.3881 -1.08362,0.34159c-0.70265,-0.07984 -1.22414,-0.66761 -1.23979,-1.35536l-0.05726,-1.44801l0.17516,-0.00693l-0.11928,-0.4433c2.50163,-3.88357 4.81041,-8.19161 3.47906,-12.99716c-0.72716,-2.62475 -3.49663,-5.37073 -5.15397,-7.45198c0,0 -0.87052,-1.09368 0.22318,-1.96419c1.0937,-0.8705 1.96419,0.22318 1.96419,0.22318c0.0873,0.10973 0.17642,0.22051 0.26712,0.33229z" fill="#545454" stroke-width="0.5"/><path d="M233.89425,161.48607c0.1927,0.03076 1.34884,0.26908 1.20412,1.54285c-0.15781,1.38888 -1.54669,1.23109 -1.54669,1.23109l-0.97915,-0.28302c-2.29037,-1.60926 -4.02571,-3.31717 -5.77247,-5.51053c0,0 -0.8705,-1.09368 0.22318,-1.96419c1.0937,-0.8705 1.96419,0.22318 1.96419,0.22318c1.51263,1.90154 2.97304,3.36332 4.90683,4.76066z" fill="#545454" stroke-width="0.5"/><path d="M231.14354,206.44552c-0.98596,-0.99086 0.00489,-1.97682 0.00489,-1.97682l0.32185,-0.27647c1.6039,-2.45182 2.37218,-4.99591 4.61369,-6.99591c0,0 1.05104,-0.92154 1.97257,0.1295c0.92154,1.05104 -0.1295,1.97257 -0.1295,1.97257c-2.01034,1.72316 -2.69654,4.23004 -4.11339,6.41839l-0.6933,0.73364c0,0 -0.99086,0.98596 -1.97682,-0.00489z" fill="#545454" stroke-width="0.5"/><path d="M241.59909,195.06016c-0.03766,0.23226 -0.10641,0.45588 -0.2124,0.66509c-1.11585,2.20247 -4.29031,1.10339 -5.22847,-0.23738c-1.35614,-1.93811 -0.34285,-4.19019 2.02217,-4.68433c0.3441,-0.07189 0.93166,0.25413 1.52949,0.6816c0.49367,0.12263 0.97659,0.25691 1.20385,0.66776c0.08865,0.16026 0.17387,0.32978 0.25275,0.50584c0.15042,0.13009 0.27685,0.24044 0.36946,0.31847c0,0 1.06809,0.90173 0.16636,1.96983c-0.0342,0.0405 -0.06863,0.07818 -0.10322,0.11317z" fill="#83ff0c" stroke-width="0.5"/><path d="M236.89364,163.51298l0.9057,0.80212c0.23474,0.7733 0.92001,1.54111 0.70423,2.31994c-0.79146,2.85677 -5.54925,3.32819 -6.13491,-0.16427c-0.13492,-0.80458 0.43309,-1.59452 0.85295,-2.29398c0.31884,-0.53115 0.87559,-0.87663 1.31337,-1.31492c0,0 1.00164,-0.97502 1.97666,0.02662c0.20674,0.21238 0.32461,0.42357 0.382,0.62451z" fill="#83ff0c" stroke-width="0.25"/></g></g></svg>