<svg version="1.1" xmlns="http://www.w3.org/2000/svg" xmlns:xlink="http://www.w3.org/1999/xlink" width="524.99584" height="489.70235" viewBox="0,0,524.99584,489.70235"><defs><linearGradient x1="340.66489" y1="239.76036" x2="340.42646" y2="265.21076" gradientUnits="userSpaceOnUse" id="color-1"><stop offset="0" stop-color="#606664"/><stop offset="1" stop-color="#3b3b3b"/></linearGradient><linearGradient x1="135.71435" y1="240.37476" x2="135.47554" y2="265.86535" gradientUnits="userSpaceOnUse" id="color-2"><stop offset="0" stop-color="#606664"/><stop offset="1" stop-color="#3b3b3b"/></linearGradient><radialGradient cx="240.43269" cy="143.29712" r="243.56891" gradientUnits="userSpaceOnUse" id="color-3"><stop offset="0" stop-color="#ef5a53"/><stop offset="1" stop-color="#db3d32"/></radialGradient><radialGradient cx="341.50151" cy="113.78377" r="202.3721" gradientUnits="userSpaceOnUse" id="color-4"><stop offset="0" stop-color="#b8130b"/><stop offset="1" stop-color="#ff6b23"/></radialGradient><radialGradient cx="239.39941" cy="-41.62163" r="97.5976" gradientUnits="userSpaceOnUse" id="color-5"><stop offset="0" stop-color="#ff66e1" stop-opacity="0"/><stop offset="1" stop-color="#ff66e1"/></radialGradient><radialGradient cx="231.45415" cy="-68.93278" r="77.26732" gradientUnits="userSpaceOnUse" id="color-6"><stop offset="0" stop-color="#ff9f32"/><stop offset="1" stop-color="#ffba39"/></radialGradient></defs><g transform="translate(17.89092,100.83363)"><g data-paper-data="{&quot;isPaintingLayer&quot;:true}" fill-rule="nonzero" stroke-linejoin="miter" stroke-miterlimit="10" stroke-dasharray="" stroke-dashoffset="0" style="mix-blend-mode: normal"><path d="M338.86653,250.29096c40.41757,0.37865 55.22659,9.6414 42.78444,69.70243c-12.46458,60.16665 -22.64369,49.80145 -45.12442,53.03879c-15.44092,1.17531 -38.93154,3.55938 -45.28799,-56.52579c-6.6382,-62.75084 7.21038,-66.59443 47.62798,-66.21578z" fill="#db9bfc" stroke="#5d0a66" stroke-width="1" stroke-linecap="butt"/><path d="M338.10244,250.43282c31.99078,0.29971 47.93833,6.16535 47.02776,38.38045c-0.92044,0.34864 -1.83749,0.6977 -2.74926,1.04913c-17.39143,6.71994 -36.42317,7.73804 -54.80384,7.56584c-12.51327,-0.11723 -25.25155,-0.48067 -37.78151,-2.71734c-1.18288,-42.54776 13.00529,-44.6088 48.30678,-44.27808z" fill="#cf231e" stroke="#5d0a66" stroke-width="1" stroke-linecap="butt"/><path d="M369.89869,356.98939c0,0 -22.34288,4.36005 -33.7385,4.25328c-10.63492,-0.09964 -32.51049,-4.87394 -32.51049,-4.87394" fill="none" stroke="#5d0a66" stroke-width="1" stroke-linecap="round"/><path d="M374.59071,343.89686c0,0 -25.02109,6.04804 -37.75233,5.92877c-11.97019,-0.11214 -36.4922,-6.62433 -36.4922,-6.62433" fill="none" stroke="#5d0a66" stroke-width="1" stroke-linecap="round"/><path d="M336.9322,255.06462c15.38767,0.14416 27.83961,2.63817 27.81213,5.57043c-0.02747,2.93232 -12.52392,5.19254 -27.91161,5.04838c-15.38767,-0.14416 -27.83961,-2.63817 -27.81213,-5.57043c0.02747,-2.93232 12.52392,-5.19254 27.91161,-5.04838z" fill="#180319" stroke="none" stroke-width="0" stroke-linecap="butt"/><path d="M323.7842,265.05485l14.38425,-25.3179l18.91061,24.52315c0,0 -8.49908,0.73942 -13.40571,0.85653c-5.97842,0.14257 -19.88921,-0.06178 -19.88921,-0.06178z" data-paper-data="{&quot;index&quot;:null}" fill="url(#color-1)" stroke="#2d2d2d" stroke-width="0" stroke-linecap="round"/><path d="M183.16113,318.9181c-7.4807,59.95519 -30.92288,57.13177 -46.33875,55.66738c-22.41611,-3.65795 -32.78797,6.51472 -44.1228,-53.8749c-11.31505,-60.28363 3.66527,-69.26764 44.08284,-68.88899c40.41757,0.37865 54.19171,4.48102 46.37904,67.09648z" fill="#db9bfc" stroke="#5d0a66" stroke-width="1" stroke-linecap="butt"/><path d="M146.573,299.15666c-18.38036,-0.1722 -37.38965,-1.54669 -54.65212,-8.59128c-0.905,-0.36844 -1.81538,-0.73459 -2.72944,-1.10045c-0.3065,-32.22654 15.7478,-37.79234 47.73893,-37.49263c35.3015,0.33072 47.78982,0.9674 45.80997,43.48521c0,0 -23.6541,3.81635 -36.16734,3.69912z" fill="#cf231e" stroke="#5d0a66" stroke-width="1" stroke-linecap="butt"/><path d="M170.01109,357.92752c0,0 -21.96117,4.36328 -32.5961,4.26364c-11.39527,-0.10676 -33.65257,-4.88429 -33.65257,-4.88429" fill="none" stroke="#5d0a66" stroke-width="1" stroke-linecap="round"/><path d="M173.55529,345.43732c0,0 -24.63974,6.05196 -36.60991,5.93982c-12.73124,-0.11927 -37.63462,-6.63538 -37.63462,-6.63538" fill="none" stroke="#5d0a66" stroke-width="1" stroke-linecap="round"/><path d="M165.21777,261.57639c-0.02747,2.93224 -12.52392,5.1926 -27.91161,5.04844c-15.38767,-0.14416 -27.83961,-2.63817 -27.81213,-5.57049c0.02747,-2.93224 12.52392,-5.1926 27.91162,-5.04844c15.38767,0.14416 27.8396,2.63816 27.81213,5.57049z" fill="#180319" stroke="none" stroke-width="0" stroke-linecap="butt"/><path d="M118.84364,264.60086l19.3671,-24.20271l13.9074,25.62277c0,0 -11.86132,0.06131 -17.38077,-0.17422c-5.57133,-0.23804 -15.89372,-1.24587 -15.89372,-1.24587z" data-paper-data="{&quot;index&quot;:null}" fill="url(#color-2)" stroke="#2d2d2d" stroke-width="0" stroke-linecap="round"/><path d="M94.20532,103.80463c5.32203,-144.06634 78.49994,-205.73091 142.78336,-204.10705c55.23319,1.39512 153.4745,66.99215 150.47289,202.59648c-1.93876,124.19956 -151.20332,284.54359 -151.20332,284.54359c0,0 -147.07262,-147.14756 -142.05293,-283.03337z" fill="url(#color-3)" stroke="#5d0a66" stroke-width="1" stroke-linecap="butt"/><path d="M326.20471,-46.07004c0,0 -40.92607,30.98669 -92.78713,30.50083c-51.86141,-0.48586 -89.02767,-27.37797 -89.02767,-27.37797" fill="none" stroke="#cf231e" stroke-width="3" stroke-linecap="round"/><path d="M126.62299,232.43524c0,0 69.62968,14.63881 106.09423,15.14179c35.46689,0.48926 109.78312,-12.16406 109.78312,-12.16406l-20.34657,30.38004c0,0 -58.25139,12.25957 -87.5463,11.82672c-29.6058,-0.43739 -89.16576,-14.43758 -89.16576,-14.43758z" fill="#b8130b" stroke="none" stroke-width="0" stroke-linecap="round"/><path d="M103.31716,168.23369c0,0 87.43791,9.35713 132.2256,9.61843c45.32081,0.26444 138.11869,-8.04105 138.11869,-8.04105l-12.00393,32.36887c0,0 -85.49012,6.80427 -127.04364,6.73607c-40.86282,-0.06708 -120.24008,-7.14204 -120.24008,-7.14204z" fill="#b8130b" stroke="none" stroke-width="0" stroke-linecap="round"/><path d="M236.75995,-98.29849l-4.55935,486.66721" fill="none" stroke="#b8130b" stroke-width="1" stroke-linecap="round"/><path d="M175.47549,132.78786c46.91591,-464.40031 133.08152,-103.04099 132.41349,-3.21435c-0.66837,99.82632 -71.0101,247.70158 -71.0101,247.70158c0,0 -70.2251,-157.16157 -61.40307,-244.48724z" fill="none" stroke="#b8130b" stroke-width="1" stroke-linecap="round"/><path d="M184.69302,334.57864c0,0 -56.58177,-133.0923 -56.85908,-215.32775c-0.2773,-82.23577 55.44217,-204.72943 55.44217,-204.72943" fill="none" stroke="#b8130b" stroke-width="1" stroke-linecap="round"/><path d="M291.36086,-78.73801c0,0 53.41473,123.51603 51.59675,205.73222c-1.81797,82.21614 -54.3181,199.01199 -54.3181,199.01199" data-paper-data="{&quot;index&quot;:null}" fill="none" stroke="url(#color-4)" stroke-width="1" stroke-linecap="round"/><path d="M183.42663,-4.56414l-26.12617,60.15731c0,0 -31.46652,-13.64513 -20.52572,-40.43495c12.59398,-30.83767 46.65183,-19.72251 46.65183,-19.72251z" fill="#ffd44a" stroke="none" stroke-width="0" stroke-linecap="round"/><path d="M180.57902,1.96275l-20.22776,48.192c0,0 -24.34008,-10.92148 -15.86886,-32.38271c9.75088,-24.70331 36.09662,-15.80929 36.09662,-15.80929z" fill="#ffffff" stroke="#680b73" stroke-width="0.5" stroke-linecap="round"/><path d="M343.41649,10.01511c10.19636,26.50535 -20.7936,39.32595 -20.7936,39.32595l-24.41855,-59.54735c0,0 33.47504,-10.28886 45.21209,20.22149z" fill="#ffd44a" stroke="none" stroke-width="0" stroke-linecap="round"/><path d="M336.73364,11.77218c8.06762,21.61615 -16.47316,32.07971 -16.47316,32.07971l-19.32094,-48.56219c0,0 26.50743,-8.39918 35.79409,16.4828z" fill="#ffffff" stroke="#680b73" stroke-width="0.5" stroke-linecap="round"/><g data-paper-data="{&quot;index&quot;:null}" stroke-width="0.5" stroke-linecap="round"><path d="M164.35794,282.04974l12.64656,-135.95058l39.52052,72.71779z" fill="#2e0604" stroke="#af3883"/><path d="M162.84465,284.12673l-23.71229,-118.5616l36.35889,-17.38903z" fill="#690e09" stroke="#d945a3"/></g><g data-paper-data="{&quot;index&quot;:null}" stroke-width="0.5" stroke-linecap="round"><path d="M263.75699,217.31545l39.52053,-72.71779l12.64656,135.95059z" fill="#690e09" stroke="#af3883"/><path d="M304.79077,146.67461l36.35889,17.38903l-23.71228,118.56159z" fill="#2e0604" stroke="#d945a3"/></g><g data-paper-data="{&quot;index&quot;:null}" stroke-width="0.5" stroke-linecap="round"><path d="M301.29453,301.39953l44.88772,-72.7178l14.36406,135.95059z" fill="#690e09" stroke="#af3883"/><path d="M347.901,230.75869l41.2967,17.38903l-26.93259,118.56159z" fill="#2e0604" stroke="#2e0604"/></g><g data-paper-data="{&quot;index&quot;:null}" stroke-width="0.5" stroke-linecap="round"><path d="M122.73872,360.12783l14.36406,-135.95059l44.88772,72.7178z" fill="#2e0604" stroke="#af3883"/><path d="M121.01991,362.20481l-26.93259,-118.56159l41.2967,-17.38903z" fill="#690e09" stroke="#d945a3"/></g><path d="M141.80181,-41.62163c0,-28.60935 43.69593,-51.8018 97.5976,-51.8018c53.90166,0 97.5976,23.19246 97.5976,51.8018c0,28.60935 -43.69593,51.8018 -97.5976,51.8018c-53.90166,0 -97.5976,-23.19246 -97.5976,-51.8018z" fill="url(#color-5)" stroke="none" stroke-width="0" stroke-linecap="butt"/><path d="M233.65224,-100.13386c40.82149,0.38244 75.17469,24.70957 75.06899,35.99183c-0.1057,11.28226 -34.83215,26.79018 -75.65358,26.40775c-40.82149,-0.38244 -78.9863,-14.34436 -78.8806,-25.62677c0.1057,-11.28226 38.64373,-37.15539 79.46519,-36.77296z" fill="url(#color-6)" stroke="none" stroke-width="0" stroke-linecap="butt"/><path d="M166.43988,254.37109l-145.85375,35.6284l77.93712,-139.17344z" data-paper-data="{&quot;index&quot;:null}" fill="#690e09" stroke="#600f10" stroke-width="0.5" stroke-linecap="round"/><path d="M378.29254,153.82905l77.93712,139.17344l-145.85375,-35.6284z" data-paper-data="{&quot;index&quot;:null}" fill="#690e09" stroke="#600f10" stroke-width="0.5" stroke-linecap="round"/><g data-paper-data="{&quot;index&quot;:null}" stroke-width="0.5" stroke-linecap="round"><path d="M230.87647,185.22601l3.30139,-136.49761l44.41032,69.8389z" fill="#2e0604" stroke="#af3883"/><path d="M229.50905,187.40181l-31.7805,-116.65816l35.08192,-19.8395z" fill="#690e09" stroke="#d945a3"/></g><path d="M132.64447,174.7288l-149.94881,-7.61928l114.5188,-111.03551z" data-paper-data="{&quot;index&quot;:null}" fill="#690e09" stroke="#600f10" stroke-width="0.5" stroke-linecap="round"/><path d="M391.99954,51.56951l114.51881,111.03551l-149.94881,7.61928z" data-paper-data="{&quot;index&quot;:null}" fill="#690e09" stroke="#600f10" stroke-width="0.5" stroke-linecap="round"/></g></g></svg>