<svg viewBox="0,0,221.29463,185.05727" height="185.05727" width="221.29463" xmlns:xlink="http://www.w3.org/1999/xlink" xmlns="http://www.w3.org/2000/svg" version="1.1"><defs><linearGradient id="color-1" gradientUnits="userSpaceOnUse" y2="130.69061" x2="206.45622" y1="93.04524" x1="188.91817"><stop stop-color="#d65115" offset="0"></stop><stop stop-color="#ad3c10" offset="1"></stop></linearGradient><linearGradient id="color-2" gradientUnits="userSpaceOnUse" y2="131.58126" x2="243.94265" y1="90.54922" x1="251.3856"><stop stop-color="#d65115" offset="0"></stop><stop stop-color="#ad3c10" offset="1"></stop></linearGradient><linearGradient id="color-3" gradientUnits="userSpaceOnUse" y2="130.37513" x2="216.12774" y1="89.07977" x1="210.22193"><stop stop-color="#d65115" offset="0"></stop><stop stop-color="#ad3c10" offset="1"></stop></linearGradient><linearGradient id="color-4" gradientUnits="userSpaceOnUse" y2="130.43287" x2="228.348" y1="88.75447" x1="230.53873"><stop stop-color="#d65115" offset="0"></stop><stop stop-color="#ad3c10" offset="1"></stop></linearGradient><linearGradient id="color-5" gradientUnits="userSpaceOnUse" y2="129.94456" x2="215.8874" y1="106.58389" x1="207.15088"><stop stop-color="#ff6219" offset="0"></stop><stop stop-color="#ad3c10" offset="1"></stop></linearGradient><linearGradient id="color-6" gradientUnits="userSpaceOnUse" y2="131.50889" x2="223.30777" y1="106.10536" x1="222.31526"><stop stop-color="#ff6219" offset="0"></stop><stop stop-color="#ad3c10" offset="1"></stop></linearGradient><linearGradient id="color-7" gradientUnits="userSpaceOnUse" y2="132.10699" x2="230.14806" y1="109.21489" x1="241.2059"><stop stop-color="#ff6219" offset="0"></stop><stop stop-color="#ad3c10" offset="1"></stop></linearGradient></defs><g transform="translate(-153.39274,-87.99483)"><g style="mix-blend-mode: normal" stroke-dashoffset="0" stroke-dasharray="" stroke-miterlimit="10" stroke-linejoin="miter" fill-rule="nonzero" data-paper-data="{&quot;isPaintingLayer&quot;:true}"><path stroke-linecap="butt" stroke-width="0" stroke="none" fill="#410301" d="M339.42505,232.82057c0,7.40996 -2.33604,13.4169 -5.21768,13.4169c-2.88164,0 -5.21769,-6.00695 -5.21769,-13.4169c0,-7.40996 2.33604,-13.4169 5.21769,-13.4169c2.88164,0 5.21768,6.00695 5.21768,13.4169z"></path><path stroke-linecap="butt" stroke-width="0" stroke="none" fill="#410301" d="M374.68736,231.31062c0,7.40996 -2.33603,13.4169 -5.21768,13.4169c-2.88164,0 -5.21769,-6.00696 -5.21769,-13.4169c0,-7.40996 2.33604,-13.4169 5.21769,-13.4169c2.88165,0 5.21768,6.00696 5.21768,13.4169z"></path><path stroke-linecap="butt" stroke-width="0" stroke="none" fill="#f60d05" d="M349.36349,263.38129c0,5.07719 -2.00231,9.19307 -4.47231,9.19307c-2.46999,0 -4.47231,-4.11588 -4.47231,-9.19307c0,-5.07719 2.00231,-9.19307 4.47231,-9.19307c2.46999,0 4.47231,4.11588 4.47231,9.19307z"></path><path stroke-linecap="butt" stroke-width="0" stroke="none" fill="#f60d05" d="M364.74891,263.85903c0,5.07719 -2.00233,9.19307 -4.47231,9.19307c-2.46999,0 -4.47229,-4.11588 -4.47229,-9.19307c0,-5.07719 2.00231,-9.19307 4.47229,-9.19307c2.46999,0 4.47231,4.11588 4.47231,9.19307z"></path><path stroke-linecap="butt" stroke-width="0" stroke="none" fill="#8d0501" d="M331.97392,218.8517c0,-25.38595 22.11304,-51.92839 22.11304,-51.92839l11.6638,-2.04692l-16.32498,16.94097c0,0 21.80499,30.51074 21.80499,37.03435c0,25.38595 -8.78794,45.96534 -19.62843,45.96534c-10.84049,0 -19.62844,-20.57938 -19.62844,-45.96534z"></path><path stroke-linecap="butt" stroke-width="0" stroke="none" fill="#f45828" d="M368.92257,227.78018c0,7.40996 -1.50823,37.76611 -17.88921,37.76611c-14.89022,0 -17.88921,-30.35615 -17.88921,-37.76611c0,-7.40996 8.00927,-13.4169 17.88921,-13.4169c9.87994,0 17.88921,6.00696 17.88921,13.4169z"></path><path stroke-linecap="butt" stroke-width="0.5" stroke="none" fill="#36afcd" d="M364.11305,214.73475c0,-0.00358 0.00002,-0.00715 0.00007,-0.01072c-3.17657,-2.15544 -6.89527,-3.0782 -10.65749,-4.42675c-2.27234,-0.81451 -2.49249,-1.36023 -5.10517,-1.33859c-4.5072,0.03733 -8.88246,2.34984 -12.63058,4.61378c0,0 -2.13876,1.28326 -3.42202,-0.85551c-1.28326,-2.13876 0.85551,-3.42202 0.85551,-3.42202c4.53398,-2.70455 9.76215,-5.35773 15.19709,-5.32468c3.73277,0.02271 3.76914,0.55674 6.82097,1.64295c5.23214,1.86222 10.01425,3.1758 14.12452,6.87932v0.00001c0.73633,0.1657 1.92252,0.69956 1.92252,2.41963c0,2.49421 -2.49421,2.49421 -2.49421,2.49421l-2.26059,-0.73054c-0.41661,-0.42287 -0.84744,-0.81052 -1.29096,-1.16808c-0.07819,0.02507 -0.16155,0.03861 -0.24807,0.03861c-0.44824,0 -0.81163,-0.36338 -0.81163,-0.81163z"></path><path stroke-linecap="butt" stroke-width="0.5" stroke="none" fill="#36afcd" d="M362.01057,199.62916c-1.11544,2.23088 -3.34633,1.11545 -3.34633,1.11545l-1.79857,-0.90892c-3.59092,-1.43637 -8.09214,-3.50066 -12.09106,-2.83535c-2.57066,0.42768 -4.89917,2.35143 -7.06703,3.65215c0,0 -2.13877,1.28326 -3.42203,-0.8555c-1.28326,-2.13876 0.85551,-3.42202 0.85551,-3.42202c2.80723,-1.68434 5.50915,-3.74375 8.83449,-4.29861c4.95698,-0.82711 10.26625,1.33712 14.74276,3.12773l2.17681,1.07877c0,0 2.23088,1.11544 1.11544,3.34632z"></path><path stroke-linecap="butt" stroke-width="0.5" stroke="none" fill="#36afcd" d="M355.55058,186.21227c-1.11544,2.23088 -3.34632,1.11544 -3.34632,1.11544l-0.36755,-0.28203c-3.45274,-0.70961 -5.66132,-0.6782 -8.66297,1.18376c0,0 -2.13876,1.28326 -3.42202,-0.85551c-1.28326,-2.13876 0.8555,-3.42202 0.8555,-3.42202c4.15553,-2.43149 7.49702,-2.71855 12.20778,-1.79778l1.62013,0.7118c0,0 2.23088,1.11544 1.11544,3.34632z"></path><path stroke-linecap="butt" stroke-width="0" stroke="none" fill="#f7ff57" d="M346.05833,241.68482c1.19898,5.21559 1.08683,9.69289 -0.2505,10.00032c-1.33733,0.30743 -3.39342,-3.67141 -4.59241,-8.88702c-1.19898,-5.21559 -1.08683,-9.69289 0.2505,-10.00032c1.33733,-0.30743 3.39342,3.67141 4.59241,8.88702z"></path><path stroke-linecap="butt" stroke-width="0" stroke="none" fill="#f7ff57" data-paper-data="{&quot;index&quot;:null}" d="M363.70378,232.81604c1.33733,0.30743 1.44948,4.78473 0.25048,10.00032c-1.19898,5.21559 -3.25507,9.19444 -4.59241,8.88702c-1.33733,-0.30743 -1.44948,-4.78473 -0.2505,-10.00032c1.19898,-5.21559 3.25508,-9.19443 4.59241,-8.88701z"></path><path stroke-linecap="butt" stroke-width="0.5" stroke="none" fill="#000000" d="M347.35279,262.1198c0,-0.55101 0.44667,-0.99768 0.99768,-0.99768c0.55101,0 0.99768,0.44667 0.99768,0.99768c0,0.55101 -0.44667,0.99768 -0.99768,0.99768c-0.55101,0 -0.99768,-0.44667 -0.99768,-0.99768z"></path><path stroke-linecap="butt" stroke-width="0.5" stroke="none" fill="#000000" d="M353.31586,261.62289c0,-0.55101 0.44667,-0.99768 0.99768,-0.99768c0.55101,0 0.99768,0.44667 0.99768,0.99768c0,0.55101 -0.44667,0.99768 -0.99768,0.99768c-0.55101,0 -0.99768,-0.44667 -0.99768,-0.99768z"></path><path stroke-linecap="butt" stroke-width="0" stroke="none" fill="#000000" d="M345.65609,241.75556c0,1.51233 0.40513,5.47667 -1.2447,5.47667c-1.64982,0 -3.48516,-3.96434 -3.48516,-5.47667c0,-1.51233 0.09275,-4.48091 1.74258,-4.48091c1.64982,0 2.98728,2.96858 2.98728,4.48091z"></path><path stroke-linecap="butt" stroke-width="0" stroke="none" fill="#000000" data-paper-data="{&quot;index&quot;:null}" d="M362.38862,237.78212c1.64982,0 1.74258,2.96858 1.74258,4.48091c0,1.51233 -1.83534,5.47668 -3.48516,5.47668c-1.64982,0 -1.2447,-3.96435 -1.2447,-5.47668c0,-1.51233 1.33745,-4.48091 2.98728,-4.48091z"></path><path stroke-linecap="butt" stroke-width="0.5" stroke="none" fill="#000000" d="M359.98519,252.54487c-0.89236,0.44618 -1.33853,-0.44618 -1.33853,-0.44618l-0.32448,-0.70208c-1.02482,-4.21571 -0.2524,-9.20081 1.27688,-13.28405c0.66415,-1.77333 1.74621,-3.25637 2.20828,-5.12357c0,0 0.24197,-0.96789 1.20987,-0.72593c0.9679,0.24198 0.72593,1.20987 0.72593,1.20987c-1.4977,5.93794 -5.16102,10.96414 -3.48516,17.43973l0.1734,0.29368c0,0 0.44618,0.89236 -0.44618,1.33853z"></path><path stroke-linecap="butt" stroke-width="0.5" stroke="none" fill="#000000" d="M346.09625,253.14807c-0.99768,0 -0.99768,-0.99768 -0.99768,-0.99768v-0.74683c0.03099,-5.66487 0.91579,-12.7147 -2.78774,-17.57401c0,0 -0.59861,-0.79814 0.19954,-1.39675c0.79814,-0.59861 1.39675,0.19954 1.39675,0.19954c3.98879,5.38836 3.14527,12.53045 3.18682,18.77122v0.74683c0,0 0,0.99768 -0.99768,0.99768z"></path><path stroke-linecap="butt" stroke-width="0.5" stroke="none" fill="#36afcd" d="M340.98172,189.98016c0,-0.44824 0.36338,-0.81163 0.81163,-0.81163c0.44824,0 0.81163,0.36338 0.81163,0.81163c0,0.44824 -0.36338,0.81163 -0.81163,0.81163c-0.44824,0 -0.81163,-0.36338 -0.81163,-0.81163z"></path><path stroke-linecap="butt" stroke-width="0.5" stroke="none" fill="#36afcd" d="M345.44566,189.57435c0,-0.44824 0.36338,-0.81163 0.81163,-0.81163c0.44824,0 0.81163,0.36338 0.81163,0.81163c0,0.44824 -0.36338,0.81163 -0.81163,0.81163c-0.44824,0 -0.81163,-0.36338 -0.81163,-0.81163z"></path><path stroke-linecap="butt" stroke-width="0.5" stroke="none" fill="#36afcd" d="M350.72123,189.16853c0,-0.44824 0.36338,-0.81163 0.81163,-0.81163c0.44824,0 0.81163,0.36338 0.81163,0.81163c0,0.44824 -0.36338,0.81163 -0.81163,0.81163c-0.44824,0 -0.81163,-0.36338 -0.81163,-0.81163z"></path><path stroke-linecap="butt" stroke-width="0.5" stroke="none" fill="#36afcd" d="M335.70615,204.99524c0,-0.44824 0.36338,-0.81163 0.81163,-0.81163c0.44824,0 0.81163,0.36338 0.81163,0.81163c0,0.44824 -0.36338,0.81163 -0.81163,0.81163c-0.44824,0 -0.81163,-0.36338 -0.81163,-0.81163z"></path><path stroke-linecap="butt" stroke-width="0.5" stroke="none" fill="#36afcd" d="M340.98172,203.7778c0,-0.44824 0.36338,-0.81163 0.81163,-0.81163c0.44824,0 0.81163,0.36338 0.81163,0.81163c0,0.44824 -0.36338,0.81163 -0.81163,0.81163c-0.44824,0 -0.81163,-0.36338 -0.81163,-0.81163z"></path><path stroke-linecap="butt" stroke-width="0.5" stroke="none" fill="#36afcd" d="M349.9096,202.56036c0,-0.44824 0.36338,-0.81163 0.81163,-0.81163c0.44824,0 0.81163,0.36338 0.81163,0.81163c0,0.44824 -0.36338,0.81163 -0.81163,0.81163c-0.44824,0 -0.81163,-0.36338 -0.81163,-0.81163z"></path><path stroke-linecap="butt" stroke-width="0.5" stroke="none" fill="#36afcd" d="M356.80842,204.58942c0,-0.44824 0.36338,-0.81163 0.81163,-0.81163c0.44824,0 0.81163,0.36338 0.81163,0.81163c0,0.44824 -0.36338,0.81163 -0.81163,0.81163c-0.44824,0 -0.81163,-0.36338 -0.81163,-0.81163z"></path><path stroke-linecap="butt" stroke-width="0.5" stroke="none" fill="#36afcd" d="M362.89561,206.61849c0,-0.44824 0.36338,-0.81163 0.81163,-0.81163c0.44824,0 0.81163,0.36338 0.81163,0.81163c0,0.44824 -0.36338,0.81163 -0.81163,0.81163c-0.44824,0 -0.81163,-0.36338 -0.81163,-0.81163z"></path><path stroke-linecap="butt" stroke-width="0.5" stroke="none" fill="#36afcd" d="M334.48871,216.76381c0,-0.44824 0.36338,-0.81163 0.81163,-0.81163c0.44824,0 0.81163,0.36338 0.81163,0.81163c0,0.44824 -0.36338,0.81163 -0.81163,0.81163c-0.44824,0 -0.81163,-0.36338 -0.81163,-0.81163z"></path><path stroke-linecap="butt" stroke-width="0.5" stroke="none" fill="#36afcd" d="M342.19916,213.51731c0,-0.44824 0.36338,-0.81163 0.81163,-0.81163c0.44824,0 0.81163,0.36338 0.81163,0.81163c0,0.44824 -0.36338,0.81163 -0.81163,0.81163c-0.44824,0 -0.81163,-0.36338 -0.81163,-0.81163z"></path><path stroke-linecap="butt" stroke-width="0.5" stroke="none" fill="#36afcd" d="M349.9096,212.29987c0,-0.44824 0.36338,-0.81163 0.81163,-0.81163c0.44824,0 0.81163,0.36338 0.81163,0.81163c0,0.44824 -0.36338,0.81163 -0.81163,0.81163c-0.44824,0 -0.81163,-0.36338 -0.81163,-0.81163z"></path><path stroke-linecap="butt" stroke-width="0.5" stroke="none" fill="#36afcd" d="M356.40261,213.51731c0,-0.44824 0.36338,-0.81163 0.81163,-0.81163c0.44824,0 0.81163,0.36338 0.81163,0.81163c0,0.44824 -0.36338,0.81163 -0.81163,0.81163c-0.44824,0 -0.81163,-0.36338 -0.81163,-0.81163z"></path><path stroke-linecap="butt" stroke-width="0.5" stroke="none" fill="#36afcd" d="M362.4898,216.358c0,-0.44824 0.36338,-0.81163 0.81163,-0.81163c0.44824,0 0.81163,0.36338 0.81163,0.81163c0,0.44824 -0.36338,0.81163 -0.81163,0.81163c-0.44824,0 -0.81163,-0.36338 -0.81163,-0.81163z"></path><path stroke-linecap="butt" stroke-width="0.5" stroke="none" fill="#36afcd" d="M367.35955,218.79287c0,-0.44824 0.36338,-0.81163 0.81163,-0.81163c0.44824,0 0.81163,0.36338 0.81163,0.81163c0,0.44824 -0.36338,0.81163 -0.81163,0.81163c-0.44824,0 -0.81163,-0.36338 -0.81163,-0.81163z"></path><path stroke-linecap="butt" stroke-width="0" stroke="none" fill="#36afcd" d="M356.40261,224.27135c0,2.3533 -3.44941,7.50754 -3.44941,7.50754c0,0 -5.07266,-5.15424 -5.07266,-7.50754c0,-2.3533 1.90773,-4.26104 4.26104,-4.26104c2.3533,0 4.26104,1.90773 4.26104,4.26104z"></path><path stroke-linecap="butt" stroke-width="0" stroke="none" fill="#36afcd" d="M366.95373,164.21104c0,3.69805 -3.08871,6.69591 -6.89882,6.69591c-3.81011,0 -6.89882,-2.99786 -6.89882,-6.69591c0,-3.69805 3.08871,-6.69591 6.89882,-6.69591c3.81011,0 6.89882,2.99786 6.89882,6.69591z"></path><path stroke-linecap="butt" stroke-width="0" stroke="none" fill="#b4531b" d="M203.57161,237.8437l2.5463,-10.40065h36.75806c0,0 1.86728,10.93204 1.86728,12.90782c0,0.39842 -6.28086,7.33849 -6.28086,7.33849c0,0 -20.88682,0.90393 -27.54298,-0.4472c-2.86939,-0.58246 -7.3478,-9.39846 -7.3478,-9.39846z"></path><path stroke-linecap="round" stroke-width="3" stroke="#8b3e19" fill="#d1852d" data-paper-data="{&quot;index&quot;:null}" d="M217.11725,238.64333l-2.53504,16.05525l-11.61892,2.11253l-8.02762,-7.60511l8.02763,-20.06906l1.47877,1.26752l10.86419,-0.33552z"></path><path stroke-linecap="round" stroke-width="0.5" stroke="#c8711b" fill="none" data-paper-data="{&quot;index&quot;:null}" d="M209.41172,254.46322l1.05627,-10.35141"></path><path stroke-linecap="round" stroke-width="0.5" stroke="#c8711b" fill="none" data-paper-data="{&quot;index&quot;:null}" d="M199.6732,251.79484l5.07008,-11.19642"></path><path stroke-linecap="round" stroke-width="3" stroke="#8b3e19" fill="#d1852d" d="M233.1668,237.43834l8.82716,5.25836l1.47877,-1.26752l8.02762,20.06906l-8.02762,7.60512l-11.61893,-2.11253l-2.53503,-16.05525z"></path><path stroke-linecap="butt" stroke-width="0" stroke="none" fill="#de9333" d="M238.32549,240.26717c0,2.1001 -4.81399,10.77391 -13.0977,10.77391c-8.28371,0 -16.90026,-8.67382 -16.90026,-10.77391c0,-2.1001 6.71527,-3.80256 14.99898,-3.80256c8.28371,0 14.99898,1.70246 14.99898,3.80256z"></path><path stroke-linecap="round" stroke-width="0.5" stroke="#c8711b" fill="none" d="M235.96803,256.40406l1.05626,10.35141"></path><path stroke-linecap="round" stroke-width="0.5" stroke="#c8711b" fill="none" d="M246.76282,264.08709l-5.07008,-11.19642"></path><path stroke-linecap="butt" stroke-width="0.5" stroke="none" fill="#8b631d" d="M223.3152,245.57585c0,-0.27614 0.22386,-0.5 0.5,-0.5c0.27614,0 0.5,0.22386 0.5,0.5c0,0.27614 -0.22386,0.5 -0.5,0.5c-0.27614,0 -0.5,-0.22386 -0.5,-0.5z"></path><path stroke-linecap="round" stroke-width="3" stroke="#8b4120" fill="#b45222" d="M247.85135,211.4778l11.78054,-5.29089l18.25534,7.85207l15.17352,15.31259l-3.78044,10.42606l-2.37552,0.88505l-4.98767,8.39601l-7.45667,-4.88676l-8.67541,-1.50199l-3.64113,-8.56272l-16.31851,-11.72983z"></path><path stroke-linecap="round" stroke-width="0.5" stroke="#d1852d" fill="#d1852d" d="M261.52508,231.84124l0.64402,-1.4089l6.10246,0.06427l-0.19334,-5.5389l7.3342,-0.39464l-3.60282,-5.90512l5.69187,0.21724l-1.63436,-3.1317l1.18342,-1.84365l15.32491,16.03268l-3.22411,8.91626l-4.69755,2.45155l-2.21784,5.96966l-7.22161,-4.32308l-7.68848,-1.81125z"></path><path stroke-linecap="round" stroke-width="3" stroke="#8b4120" fill="#b45222" data-paper-data="{&quot;index&quot;:null}" d="M207.18663,230.9576l-16.69107,11.19333l-3.91748,8.43989l-8.71964,1.21927l-7.61154,4.64186l-4.71218,-8.55367l-2.3455,-0.96178l-3.43963,-10.54341l15.66312,-14.8114l18.50087,-7.25468l11.60238,5.67092z"></path><path stroke-linecap="round" stroke-width="0.5" stroke="#d1852d" fill="#d1852d" data-paper-data="{&quot;index&quot;:null}" d="M185.08793,249.00728l-7.74329,1.56043l-7.35827,4.08611l-2.02267,-6.03858l-4.61541,-2.60291l-2.93265,-9.01632l15.83784,-15.5262l1.12287,1.88113l-1.73527,3.07692l5.69592,-0.03215l-3.79283,5.78493l7.31751,0.63278l-0.37324,5.52969l6.10133,0.13407l0.59789,1.42908z"></path><g stroke-linecap="butt" stroke-width="0" stroke="none"><path fill="#d3cc45" d="M236.16146,241.99654l-0.78657,-6.1894l7.82955,-2.29235l0.78658,6.1894z"></path><path fill="#6e553f" d="M207.89322,243.95181l1.84066,-6.00242l5.74144,1.76063l-1.84065,6.00242z"></path><path fill="#6e553f" d="M220.92839,246.21792l-0.98593,-6.1894l9.81395,-2.29234l0.98594,6.1894z"></path><path fill="#6e553f" d="M198.79556,239.81243l2.51097,-5.7543l5.50412,2.40179l-2.51097,5.75431z"></path><path fill="#b11000" d="M191.58427,232.85699v-12.35029h59.29042v12.35029c0,0 -19.94019,9.00106 -29.85696,9.00106c-9.8462,0 -29.43346,-9.00106 -29.43346,-9.00106z"></path><path fill="#fc4a21" d="M189.20771,226.50322v-13.35166h63.36381v13.35166c0,0 -21.31013,9.73087 -31.90821,9.73087c-10.52265,0 -31.4556,-9.73087 -31.4556,-9.73087z"></path><path fill="#7e0100" d="M191.35797,221.93806v-11.61482h59.74303v11.61482c0,0 -20.09241,8.46504 -30.08488,8.46504c-9.92136,0 -29.65814,-8.46504 -29.65814,-8.46504z"></path></g><path stroke-linecap="round" stroke-width="3" stroke="#853c18" fill="#aa4a1a" d="M268.80361,169.18222l0.83883,-20.132l23.20773,5.87183l8.10872,23.48734l-1.11845,4.75339l-12.02328,1.67766l-6.15145,-15.09901l-5.59222,-0.55922z"></path><path stroke-linecap="round" stroke-width="3" stroke="#853c18" fill="#b04b1d" d="M171.19058,174.71115l9.67803,34.39157l-9.33239,2.41951h-3.45644l-8.46828,-5.70313l-4.6662,-18.31913l2.41951,-8.6411l9.67803,-2.76515z"></path><path stroke-linecap="round" stroke-width="3" stroke="#853c18" fill="#b04b1d" data-paper-data="{&quot;index&quot;:null}" d="M278.51301,176.09372l9.67803,2.76515l2.41951,8.6411l-4.6662,18.31913l-8.46828,5.70313h-3.45644l-9.33238,-2.41951l9.67803,-34.39157z"></path><path stroke-linecap="round" stroke-width="0" stroke="none" fill="#d1852d" data-paper-data="{&quot;index&quot;:null}" d="M273.88007,180.00858l6.83823,1.95378l1.70955,6.10556l-3.29701,12.9438l-5.98345,4.02967h-2.44223l-6.59402,-1.70956l6.83823,-24.30015z"></path><path stroke-linecap="round" stroke-width="0" stroke="none" fill="#d1852d" d="M171.86277,179.31131l6.83823,24.30015l-6.59402,1.70955h-2.44222l-5.98345,-4.02967l-3.29701,-12.9438l1.70956,-6.10557l6.83823,-1.95378z"></path><path stroke-linecap="butt" stroke-width="3" stroke="#853c18" fill="#a45120" d="M273.08065,191.15943c0,18.77123 -22.80336,33.98833 -50.93273,33.98833c-28.12937,0 -54.44532,-15.79317 -54.44532,-34.5644c0,-6.03501 -0.57011,-42.81061 3.56319,-47.7233c3.83963,-4.56364 7.6461,-11.81349 15.60979,-16.88799c10.12823,-6.45376 25.17323,-10.27823 35.85779,-10.27823c8.57263,0 30.35392,3.53738 37.36693,11.39045c3.58504,4.01448 9.88946,8.80638 12.06352,13.97254c7.52801,17.88854 0.91684,39.97644 0.91684,50.1026z"></path><path stroke-linecap="butt" stroke-width="0.5" stroke="none" fill="#a45120" d="M241.35015,120.8916c0.07079,0.21238 0.00074,0.68073 -0.17107,1.24103c0.29633,1.48367 -0.3897,3.46705 -1.28397,4.74176c-0.16049,0.33856 -0.40643,0.62874 -0.70996,0.84269c-0.36501,0.335 -0.80769,0.57909 -1.24318,0.39334c-0.77525,0 -1.45513,-0.40836 -1.83624,-1.02172l-1.35967,1.63161l-0.05222,-0.04352l-0.0798,0.18809c-6.71241,5.41905 -15.73217,1.60826 -21.83413,-2.96773c0,0 -1.32811,-0.99609 -0.7826,-2.40613l-1.58536,-0.90289c0,0 -1.87564,-1.0718 -0.80384,-2.94744c0.25372,-0.44401 0.55248,-0.72285 0.86075,-0.88984c0.10403,-0.11933 0.21926,-0.24239 0.34625,-0.36938c1.70057,-1.70058 5.56137,1.73484 7.06059,2.41507c5.7402,2.60443 11.85977,2.57131 17.94487,1.05004l0.05899,-0.03932c0.2808,-0.10029 0.63509,-0.37781 1.00338,-0.67797c1.17546,-2.16761 3.18488,-4.08466 4.46721,-0.23768z"></path><path stroke-linecap="butt" stroke-width="0" stroke="none" fill="#de9333" d="M225.50486,200.47666c0,3.1213 -1.4002,18.37645 -11.06383,20.87158c-5.29681,1.36762 -13.39208,0.35151 -19.8272,-2.34193c-2.09303,-0.87605 -3.84253,-1.92472 -5.23135,-2.86191c-1.64679,-1.11127 -2.78646,-2.06575 -3.39045,-2.38976c-5.62859,-3.01949 -10.8009,-18.59705 -10.8009,-24.64545c0,-6.0484 3.95385,-10.298 10.39242,-10.298c1.64128,0 7.80434,-0.08598 12.15107,1.42662c1.36513,0.47504 5.87448,3.95224 7.34113,4.54068c3.21863,1.29134 0.98162,0.87431 4.08131,2.58007c8.63336,4.75093 16.3478,10.15839 16.3478,13.1181z"></path><path stroke-linecap="butt" stroke-width="0" stroke="none" fill="#de9333" d="M240.86348,218.4c0,5.64728 -8.12438,10.2253 -18.14631,10.2253c-10.02193,0 -18.14631,-4.57802 -18.14631,-10.2253c0,-5.64728 7.83634,-18.72239 17.85827,-18.72239c10.02193,0 18.43434,13.07511 18.43434,18.72239z"></path><path stroke-linecap="butt" stroke-width="0" stroke="none" fill="#de9333" data-paper-data="{&quot;index&quot;:null}" d="M236.7891,187.36807c2.9102,-1.65049 0.80994,-1.24698 3.83182,-2.49648c1.377,-0.56936 5.61068,-3.93388 6.89236,-4.39353c4.08102,-1.46358 9.86732,-1.38039 11.40826,-1.38039c6.04497,0 9.75713,4.1119 9.75713,9.9643c0,5.85241 -4.85613,20.9252 -10.14064,23.84684c-0.56706,0.31351 -1.63707,1.23707 -3.18319,2.31232c-1.30392,0.90681 -2.94646,1.92151 -4.91154,2.76917c-6.04174,2.60616 -13.64215,3.58935 -18.61516,2.26605c-9.07288,-2.41428 -10.38748,-17.1751 -10.38748,-20.19525c0,-2.86381 7.24285,-8.09604 15.34844,-12.69302z"></path><path stroke-linecap="butt" stroke-width="0" stroke="#954116" fill="#ffffff" d="M213.85041,210.39051c-3.25456,7.10065 -12.68277,9.34762 -21.05848,5.01852c-8.37571,-4.3291 -12.52723,-13.59475 -9.27261,-20.69559c3.25456,-7.10065 12.68277,-9.34762 21.05848,-5.01852c8.37571,4.3291 12.52723,13.59475 9.27261,20.69559z"></path><path stroke-linecap="butt" stroke-width="0.5" stroke="#46251d" fill="#ad4100" d="M210.39484,206.70349c0,3.22118 -2.30852,5.83246 -5.15624,5.83246c-2.8477,0 -5.15623,-2.61129 -5.15623,-5.83246c0,-3.22118 2.30852,-5.83245 5.15623,-5.83245c2.8477,0 5.15624,2.61128 5.15624,5.83245z"></path><path stroke-linecap="round" stroke-width="0.5" stroke="#562d0a" fill="#562d0a" d="M198.62728,181.40437l13.98407,7.304l-4.62891,6.71986l-12.61809,-7.92189z"></path><path stroke-linecap="butt" stroke-width="0" stroke="#954116" fill="#ffffff" data-paper-data="{&quot;index&quot;:null}" d="M239.01199,189.79463c8.37571,-4.3291 17.80392,-2.08213 21.05848,5.01852c3.25462,7.10084 -0.8969,16.36649 -9.27261,20.69559c-8.37571,4.3291 -17.80392,2.08212 -21.05848,-5.01853c-3.25462,-7.10084 0.89691,-16.36648 9.27262,-20.69558z"></path><path stroke-linecap="round" stroke-width="0.5" stroke="#562d0a" fill="#562d0a" data-paper-data="{&quot;index&quot;:null}" d="M249.3931,187.86131l-12.61808,7.92188l-4.62891,-6.71985l13.98406,-7.30399z"></path><path stroke-linecap="butt" stroke-width="1.5" stroke="#783b1a" fill="url(#color-1)" d="M207.89953,106.84107c4.843,10.39548 4.19681,21.07329 -1.44332,23.84955c-5.64012,2.77626 -14.13837,-3.40034 -18.98137,-13.79582c-4.843,-10.39548 -4.1968,-21.07329 1.44332,-23.84955c5.64012,-2.77626 14.13837,3.40034 18.98136,13.79582z"></path><path stroke-linecap="butt" stroke-width="1.5" stroke="#783b1a" fill="url(#color-2)" d="M258.79519,113.19859c-2.05532,11.33068 -8.70503,19.56089 -14.85254,18.38267c-6.14751,-1.17822 -9.46491,-11.31868 -7.40959,-22.64937c2.05532,-11.33068 8.70503,-19.56089 14.85255,-18.38267c6.14751,1.17822 9.4649,11.31868 7.40958,22.64936z"></path><path stroke-linecap="butt" stroke-width="1.5" stroke="#783b1a" fill="url(#color-3)" d="M224.37734,108.0347c1.63084,11.4034 -2.06263,21.40556 -8.2496,22.34044c-6.18697,0.93488 -12.52457,-7.55152 -14.15541,-18.95492c-1.63084,-11.4034 2.06263,-21.40556 8.2496,-22.34044c6.18697,-0.93488 12.52457,7.55152 14.15541,18.95492z"></path><path stroke-linecap="butt" stroke-width="1.5" stroke="#783b1a" fill="url(#color-4)" d="M240.74978,110.22159c-0.60496,11.50917 -6.15742,20.55807 -12.40178,20.21128c-6.24436,-0.34679 -10.816,-9.95795 -10.21105,-21.46712c0.60496,-11.50917 6.15742,-20.55806 12.40178,-20.21127c6.24436,0.34679 10.816,9.95795 10.21105,21.46711z"></path><path stroke-linecap="butt" stroke-width="0" stroke="none" fill="#4a2f18" d="M200.14117,135.52597l6.08598,-5.96316l32.80966,-0.86943l7.39011,6.83259c0,0 -16.3929,3.42857 -24.28857,3.42857c-7.514,0 -21.99719,-3.42857 -21.99719,-3.42857z"></path><path stroke-linecap="butt" stroke-width="0" stroke="#783b1a" fill="#b14412" d="M238.66528,138.0664c-3.26601,-5.06906 -3.62193,-10.65491 -0.79495,-12.47634c2.82698,-1.82143 7.76633,0.8113 11.03234,5.88037c3.26601,5.06906 3.62192,10.65491 0.79494,12.47634c-2.82698,1.82143 -7.76632,-0.8113 -11.03233,-5.88036z"></path><path stroke-linecap="butt" stroke-width="0" stroke="#783b1a" fill="#b14412" d="M228.15528,136.92878c2.15908,-3.36084 6.18982,-5.43498 9.0029,-4.6327c2.81309,0.80228 3.34328,4.17714 1.1842,7.53798c-2.15908,3.36084 -6.18982,5.43497 -9.0029,4.6327c-2.81309,-0.80228 -3.34328,-4.17713 -1.1842,-7.53797z"></path><g stroke-linecap="butt" stroke="none"><path stroke-width="NaN" fill="#846644" d="M243.90715,267.01379l35.39345,-51.72242l7.29419,4.99138l-35.39345,51.72242z"></path><path stroke-width="0" fill="#846746" d="M269.50323,215.31841c0,0 4.35618,-29.80288 5.19665,-35.55299c0.26921,-1.8418 0.53316,-3.64761 0.53316,-3.64761c0,0 -5.7435,-8.47146 -4.07979,-8.22828c0.70228,0.10265 6.70915,1.26209 9.89092,3.6377c3.17324,2.36924 3.52234,5.95482 3.52234,5.95482l-5.72981,39.20059z"></path><path stroke-width="0" fill="#846746" data-paper-data="{&quot;index&quot;:null}" d="M282.11024,220.69073l28.86314,-27.13736c0,0 3.13987,-1.7662 6.89898,-0.52046c3.76922,1.24909 8.15835,5.51081 8.64451,6.02789c1.15174,1.22498 -9.08222,1.36474 -9.08222,1.36474c0,0 -1.3296,1.25011 -2.6857,2.52513c-4.23377,3.98062 -26.17744,24.61223 -26.17744,24.61223z"></path><path stroke-width="0" fill="#846644" d="M269.59726,214.9926l3.45414,-5.04773l18.02763,12.33623l-3.45414,5.04774z"></path><path stroke-width="0.5" fill="#efdbbb" d="M300.75128,216.18942c-1.1647,0.12853 -1.29323,-1.03617 -1.29323,-1.03617l-0.08126,-0.99076c0.0963,-0.88 0.42735,-1.73448 0.43623,-2.61969c0.00513,-0.51219 -3.66778,-1.50542 -4.0014,-1.62862c0,0 -1.09922,-0.40591 -0.69331,-1.50513c0.40591,-1.09922 1.50512,-0.69331 1.50512,-0.69331c1.7464,0.64489 4.94593,1.10524 5.46797,3.27828c0.26819,1.11638 -0.26057,2.28145 -0.38491,3.42284l0.08097,0.47932c0,0 0.12853,1.1647 -1.03617,1.29323z"></path><path stroke-width="0.5" fill="#efdbbb" d="M282.42325,199.57514c-0.8473,0.79766 -1.50809,0.00112 -1.50809,0.00112l-0.68186,-0.83557c-2.83411,-1.91844 -4.15677,-1.34765 -6.77149,1.11389c0,0 -0.8473,0.79766 -1.50809,0.00112c-0.66079,-0.79654 0.18651,-1.5942 0.18651,-1.5942c3.47839,-3.2746 5.96094,-3.81706 9.6135,-1.29882l0.85604,1.01827c0,0 0.66079,0.79654 -0.18651,1.5942z"></path><path stroke-width="0.5" fill="#efdbbb" d="M279.30649,222.08819c-1.12667,-0.32198 -0.80469,-1.44865 -0.80469,-1.44865l0.447,-1.34531c0.74706,-1.09172 1.49412,-2.18344 2.24118,-3.27516c0,0 0.66174,-0.96703 1.62877,-0.3053c0.96703,0.66174 0.3053,1.62877 0.3053,1.62877c-0.74706,1.09172 -1.49412,2.18344 -2.24118,3.27516l-0.12773,0.6658c0,0 -0.32198,1.12667 -1.44864,0.80469z"></path></g><path stroke-linecap="butt" stroke-width="0.5" stroke="#46251d" fill="#ad4100" d="M243.03703,206.84051c0,3.22117 -2.30852,5.83246 -5.15623,5.83246c-2.84771,0 -5.15623,-2.61129 -5.15623,-5.83246c0,-3.22117 2.30853,-5.83245 5.15623,-5.83245c2.84771,0 5.15623,2.61128 5.15623,5.83245z"></path><path stroke-linecap="butt" stroke-width="0" stroke="none" fill="#ef6531" d="M306.2192,218.59927c0,6.51597 -5.39962,11.7982 -12.06038,11.7982c-6.66076,0 -12.06038,-5.28223 -12.06038,-11.7982c0,-6.51597 5.39962,-11.7982 12.06038,-11.7982c6.66076,0 12.06038,5.28223 12.06038,11.7982z"></path><path stroke-linecap="butt" stroke-width="0.5" stroke="none" fill="#8c9aff" d="M305.89611,223.05637c0,1.25 -1.25,1.25 -1.25,1.25l-0.35535,-0.20994c-4.35778,2.75767 -9.95365,3.27478 -13.72043,-1.29631c-2.60398,-3.16 -1.32024,-7.79951 -6.69856,-6.89973c-0.47935,0.08019 -0.91869,0.31757 -1.37804,0.47636c0,0 -1.18585,0.39528 -1.58114,-0.79057c-0.39528,-1.18585 0.79057,-1.58114 0.79057,-1.58114c1.70166,-0.55085 4.35295,-1.11277 6.11728,-0.49336c2.76595,0.97105 2.91229,4.25197 3.81098,6.41717c2.02107,4.86937 7.94671,4.47733 11.27259,2.08745l1.7421,-0.20994c0,0 1.25,0 1.25,1.25z"></path><path stroke-linecap="butt" stroke-width="0.5" stroke="none" fill="#8c9aff" d="M307.4692,217.28836c0,1.25 -1.25,1.25 -1.25,1.25h-1.57309c-1.85709,-0.08614 -5.82091,-1.65389 -7.23669,-3.05282c-1.07345,-1.06067 -1.18269,-3.52069 -2.50476,-4.60118c-1.92778,-1.57554 -3.66238,-1.78456 -5.98948,-1.78456c0,0 -1.25,0 -1.25,-1.25c0,-1.25 1.25,-1.25 1.25,-1.25c2.88505,0 5.3139,0.43989 7.64399,2.41036c1.40941,1.19189 1.64775,3.72478 2.73889,4.83738c0.81475,0.83077 4.32783,2.2795 5.34806,2.19082h1.57309c0,0 1.25,0 1.25,1.25z"></path><path stroke-linecap="round" stroke-width="0.5" stroke="#e1ccb0" fill="#e1ccb0" d="M266.89187,232.49492l6.29237,7.3411l-11.53602,16.2553l-5.24364,-7.3411z"></path><path stroke-linecap="round" stroke-width="0.5" stroke="#ffaa21" fill="#ffaa21" d="M212.75124,162.75446l-0.52436,16.77966l-9.96292,-5.24364z"></path><path stroke-linecap="round" stroke-width="0.5" stroke="#ffaa21" fill="#ffaa21" data-paper-data="{&quot;index&quot;:null}" d="M242.39637,173.52247l-9.96292,5.24365l-0.52436,-16.77966z"></path><path stroke-linecap="round" stroke-width="0.5" stroke="#e7cbad" fill="#e7cbad" d="M198.27418,217.6423l1.6303,8.55908l-3.86022,0.78097l-2.66098,-3.02264z"></path><path stroke-linecap="round" stroke-width="0.5" stroke="#e7cbad" fill="#e7cbad" d="M206.80606,221.87533l2.59688,8.31696l-3.7458,1.21662l-2.9887,-2.69905z"></path><path stroke-linecap="round" stroke-width="0.5" stroke="#e7cbad" fill="#e7cbad" d="M214.38275,222.94132l4.22898,7.61784l-3.42139,1.9507l-3.4738,-2.03714z"></path><path stroke-linecap="round" stroke-width="0.5" stroke="#e7cbad" fill="#e7cbad" d="M237.52877,220.10846l4.23782,7.61292l-3.41912,1.95468l-3.47616,-2.03311z"></path><path stroke-linecap="round" stroke-width="0.5" stroke="#e7cbad" fill="#e7cbad" d="M246.18144,217.17108l5.51309,6.74695l-3.02115,2.52663l-3.78005,-1.3887z"></path><path stroke-linecap="round" stroke-width="0.5" stroke="#e7cbad" fill="#e7cbad" d="M229.9874,223.57279l4.23783,7.61292l-3.41913,1.95468l-3.47616,-2.03311z"></path><path stroke-linecap="butt" stroke-width="0" stroke="none" fill="#fc4a21" d="M195.96629,114.2059c7.11656,2.69816 11.75476,8.0728 10.35971,12.0046c-1.39505,3.93179 -8.29507,4.93184 -15.41163,2.23367c-7.11656,-2.69816 -11.75476,-8.07281 -10.35971,-12.0046c1.39505,-3.93179 8.29507,-4.93184 15.41163,-2.23367z"></path><path stroke-linecap="butt" stroke-width="0" stroke="none" fill="#fc4a21" d="M261.79256,124.44954c7.11656,2.69817 11.75476,8.0728 10.35971,12.0046c-1.39505,3.93179 -8.29507,4.93184 -15.41163,2.23367c-7.11656,-2.69816 -11.75475,-8.07281 -10.3597,-12.0046c1.39505,-3.93179 8.29507,-4.93184 15.41162,-2.23367z"></path><path stroke-linecap="butt" stroke-width="0" stroke="none" fill="#fba210" d="M255.45103,115.81509c7.2266,-2.38784 14.21459,-1.13579 15.60811,2.79655c1.39353,3.93233 -3.33511,9.05584 -10.56171,11.44368c-7.2266,2.38784 -14.21459,1.13578 -15.60811,-2.79655c-1.39353,-3.93233 3.33512,-9.05584 10.56171,-11.44367z"></path><path stroke-linecap="butt" stroke-width="0" stroke="none" fill="#fba210" d="M190.71056,123.96128c7.2266,-2.38784 14.21459,-1.1358 15.60811,2.79654c1.39353,3.93233 -3.33511,9.05584 -10.56171,11.44369c-7.2266,2.38784 -14.21459,1.13578 -15.60811,-2.79655c-1.39353,-3.93233 3.33512,-9.05584 10.56171,-11.44367z"></path><path stroke-linecap="butt" stroke-width="1.5" stroke="#783b1a" fill="url(#color-5)" d="M217.86438,115.91263c2.41252,6.45087 1.5274,12.73318 -1.97698,14.03193c-3.50438,1.29875 -8.30098,-2.87787 -10.7135,-9.32874c-2.41252,-6.45087 -1.52739,-12.73317 1.97699,-14.03192c3.50438,-1.29875 8.30098,2.87787 10.7135,9.32873z"></path><path stroke-linecap="butt" stroke-width="1.5" stroke="#783b1a" fill="url(#color-6)" d="M229.58807,118.46587c0.27407,7.01499 -2.53771,12.85455 -6.2803,13.04302c-3.74259,0.18847 -6.99873,-5.34551 -7.27281,-12.3605c-0.27407,-7.01499 2.53771,-12.85454 6.2803,-13.04301c3.74259,-0.18847 6.99873,5.34552 7.27281,12.3605z"></path><path stroke-linecap="butt" stroke-width="1.5" stroke="#783b1a" fill="url(#color-7)" d="M241.81954,123.54315c-3.05354,6.32148 -8.27904,10.15564 -11.67147,8.56383c-3.39244,-1.5918 -3.66717,-8.00678 -0.61363,-14.32826c3.05354,-6.32148 8.27903,-10.15564 11.67147,-8.56383c3.39244,1.5918 3.66717,8.00679 0.61364,14.32826z"></path><path stroke-linecap="round" stroke-width="0.5" stroke="#fc4a21" fill="#fc4a21" d="M195.35668,159.15388l2.1855,16.64499l-10.67749,-3.57025z"></path><path stroke-linecap="round" stroke-width="0.5" stroke="#fc4a21" fill="#fc4a21" d="M220.35661,162.00349l9.2548,17.36675l-13.18863,0.48007z"></path><path stroke-linecap="round" stroke-width="0.5" stroke="#fc4a21" fill="#fc4a21" d="M248.78388,157.04056l7.62329,14.30519l-10.86363,0.39544z"></path></g></g></svg>