<svg version="1.1" xmlns="http://www.w3.org/2000/svg" xmlns:xlink="http://www.w3.org/1999/xlink" width="51.15848" height="21.89304" viewBox="0,0,51.15848,21.89304"><g transform="translate(-214.52158,-168.48701)"><g data-paper-data="{&quot;isPaintingLayer&quot;:true}" fill-rule="nonzero" stroke="none" stroke-linecap="butt" stroke-linejoin="miter" stroke-miterlimit="10" stroke-dasharray="" stroke-dashoffset="0" style="mix-blend-mode: normal"><path d="M214.57887,182.84467l-0.05729,-5.45302l32.99076,-0.34656l0.05729,5.45302z" fill="#a18a67" stroke-width="NaN"/><path d="M256.96373,190.05241c-6.71836,1.46216 -13.19936,-2.10676 -14.47572,-7.97141c-1.27636,-5.86464 3.13525,-11.80419 9.85361,-13.26635c4.62193,-1.0059 9.13152,0.36932 11.91144,3.23504c-4.20829,0.72835 -8.46173,1.22315 -12.64367,2.13329l-0.67208,0.14627c-0.74236,0.16157 -1.21319,0.89434 -1.05162,1.6367c0.10843,0.4982 0.47412,0.87412 0.92733,1.01866l0.67402,0.22796c0.92567,0.69832 2.09513,0.64649 3.0959,1.04702c0.40085,0.16043 0.78399,0.36219 1.1729,0.55038c-0.16439,0.09686 -0.32694,0.19664 -0.4854,0.30281c-1.26087,0.84482 -2.32477,1.94204 -3.50698,2.89679l-0.55135,0.373c-0.46901,0.30172 -0.72544,0.8729 -0.59988,1.44987c0.14684,0.67468 0.76548,1.12508 1.43433,1.08032l0.69927,-0.03439c0.33541,0.09509 0.70272,0.15303 1.1719,0.16477c0.74978,0.01876 4.0165,-0.4838 4.05595,-0.48926c1.88154,-0.2603 3.83606,-0.5405 5.73123,-0.64634c0.64723,-0.03615 1.30931,-0.04474 1.97513,-0.05455c-1.68161,2.98398 -4.80881,5.349 -8.71633,6.19942z" fill="#60efe0" stroke-width="0"/></g></g></svg>